<svg xmlns="http://www.w3.org/2000/svg" version="1.1" width="600px" height="600px" viewBox="0 0 200 200" style="overflow:hidden!important;"><defs id="SvgjsDefs25096"><linearGradient id="SvgjsLinearGradient25897" x1="79.6018" y1="74.98" x2="79.6018" y2="101.8491" gradientUnits="userSpaceOnUse" class="svga-on-canvas-glasses-gradient-single-0-null"><stop id="SvgjsStop25898" stop-opacity="1" stop-color="#000000" offset="0" ></stop><stop id="SvgjsStop25899" stop-opacity="0" stop-color="#000000" offset="1" ></stop></linearGradient><linearGradient id="SvgjsLinearGradient25901" x1="33.8842" y1="74.98" x2="33.8842" y2="101.8491" gradientTransform="matrix(-1 0 0 1 154.0177 0)" gradientUnits="userSpaceOnUse" class="svga-on-canvas-glasses-gradient-single-1-null"><stop id="SvgjsStop25902" stop-opacity="1" stop-color="#000000" offset="0" ></stop><stop id="SvgjsStop25903" stop-opacity="0" stop-color="#000000" offset="1" ></stop></linearGradient><linearGradient id="SvgjsLinearGradient25978" x1="81.9461" y1="80.7509" x2="81.9461" y2="98.6469" gradientUnits="userSpaceOnUse" class="svga-on-canvas-glasses-gradient-single-0-null"><stop id="SvgjsStop25979" stop-opacity="1" stop-color="#000000" offset="0" ></stop><stop id="SvgjsStop25980" stop-opacity="0" stop-color="#000000" offset="1" ></stop></linearGradient><linearGradient id="SvgjsLinearGradient25982" x1="39.1064" y1="80.7509" x2="39.1064" y2="98.6469" gradientTransform="matrix(-1 0 0 1 157.0703 0)" gradientUnits="userSpaceOnUse" class="svga-on-canvas-glasses-gradient-single-1-null"><stop id="SvgjsStop25983" stop-opacity="1" stop-color="#000000" offset="0" ></stop><stop id="SvgjsStop25984" stop-opacity="0" stop-color="#000000" offset="1" ></stop></linearGradient><linearGradient id="SvgjsLinearGradient26118" x1="81.2924" y1="77.5931" x2="81.2924" y2="103.7231" gradientUnits="userSpaceOnUse" class="svga-on-canvas-glasses-gradient-single-0-null"><stop id="SvgjsStop26119" stop-opacity="1" stop-color="#000000" offset="0.004166667" ></stop><stop id="SvgjsStop26120" stop-opacity="0.9015" stop-color="#050505" offset="0.1023" ></stop><stop id="SvgjsStop26121" stop-opacity="0.7775" stop-color="#151515" offset="0.2257" ></stop><stop id="SvgjsStop26122" stop-opacity="0.64" stop-color="#2f2f2f" offset="0.3627" ></stop><stop id="SvgjsStop26123" stop-opacity="0.4926" stop-color="#535353" offset="0.5094" ></stop><stop id="SvgjsStop26124" stop-opacity="0.3374" stop-color="#818181" offset="0.664" ></stop><stop id="SvgjsStop26125" stop-opacity="0.1755" stop-color="#b9b9b9" offset="0.8253" ></stop><stop id="SvgjsStop26126" stop-opacity="0.011" stop-color="#fafafa" offset="0.989" ></stop><stop id="SvgjsStop26127" stop-opacity="0" stop-color="#ffffff" offset="1" ></stop></linearGradient><linearGradient id="SvgjsLinearGradient26129" x1="-18.0721" y1="77.5931" x2="-18.0721" y2="103.7231" gradientTransform="matrix(-1 0 0 1 100 0)" gradientUnits="userSpaceOnUse" class="svga-on-canvas-glasses-gradient-single-1-null"><stop id="SvgjsStop26130" stop-opacity="1" stop-color="#000000" offset="0.004166667" ></stop><stop id="SvgjsStop26131" stop-opacity="0.9015" stop-color="#050505" offset="0.1023" ></stop><stop id="SvgjsStop26132" stop-opacity="0.7775" stop-color="#151515" offset="0.2257" ></stop><stop id="SvgjsStop26133" stop-opacity="0.64" stop-color="#2f2f2f" offset="0.3627" ></stop><stop id="SvgjsStop26134" stop-opacity="0.4926" stop-color="#535353" offset="0.5094" ></stop><stop id="SvgjsStop26135" stop-opacity="0.3374" stop-color="#818181" offset="0.664" ></stop><stop id="SvgjsStop26136" stop-opacity="0.1755" stop-color="#b9b9b9" offset="0.8253" ></stop><stop id="SvgjsStop26137" stop-opacity="0.011" stop-color="#fafafa" offset="0.989" ></stop><stop id="SvgjsStop26138" stop-opacity="0" stop-color="#ffffff" offset="1" ></stop></linearGradient><linearGradient id="SvgjsLinearGradient26282" x1="82.0363" y1="123.8455" x2="82.0363" y2="100.9533" gradientTransform="matrix(1 0 0 -1 0 202)" gradientUnits="userSpaceOnUse" class="svga-on-canvas-glasses-gradient-single-0-null"><stop id="SvgjsStop26283" stop-opacity="1" stop-color="#000000" offset="0" ></stop><stop id="SvgjsStop26284" stop-opacity="0" stop-color="#000000" offset="1" ></stop></linearGradient><linearGradient id="SvgjsLinearGradient26286" x1="117.8737" y1="123.8455" x2="117.8737" y2="100.9533" gradientTransform="matrix(1 0 0 -1 0 202)" gradientUnits="userSpaceOnUse" class="svga-on-canvas-glasses-gradient-single-1-null"><stop id="SvgjsStop26287" stop-opacity="1" stop-color="#000000" offset="0" ></stop><stop id="SvgjsStop26288" stop-opacity="0" stop-color="#000000" offset="1" ></stop></linearGradient><linearGradient id="SvgjsLinearGradient26356" x1="80.9325" y1="76.6965" x2="80.9325" y2="104.6939" gradientUnits="userSpaceOnUse" class="svga-on-canvas-glasses-gradient-single-0-null"><stop id="SvgjsStop26357" stop-opacity="1" stop-color="#000000" offset="0" ></stop><stop id="SvgjsStop26358" stop-opacity="0" stop-color="#000000" offset="1" ></stop></linearGradient><linearGradient id="SvgjsLinearGradient26360" x1="36.1003" y1="76.6965" x2="36.1003" y2="104.6939" gradientTransform="matrix(-1 0 0 1 154.4999 0)" gradientUnits="userSpaceOnUse" class="svga-on-canvas-glasses-gradient-single-1-null"><stop id="SvgjsStop26361" stop-opacity="1" stop-color="#000000" offset="0" ></stop><stop id="SvgjsStop26362" stop-opacity="0" stop-color="#000000" offset="1" ></stop></linearGradient><linearGradient id="SvgjsLinearGradient26500" x1="80.5815" y1="78.6567" x2="80.5815" y2="101.9246" gradientUnits="userSpaceOnUse" class="svga-on-canvas-glasses-gradient-single-0-null"><stop id="SvgjsStop26501" stop-opacity="1" stop-color="#000000" offset="0" ></stop><stop id="SvgjsStop26502" stop-opacity="0" stop-color="#000000" offset="1" ></stop></linearGradient><linearGradient id="SvgjsLinearGradient26504" x1="34.0012" y1="78.6567" x2="34.0012" y2="101.9246" gradientTransform="matrix(-1 0 0 1 152.872 0)" gradientUnits="userSpaceOnUse" class="svga-on-canvas-glasses-gradient-single-1-null"><stop id="SvgjsStop26505" stop-opacity="1" stop-color="#000000" offset="0" ></stop><stop id="SvgjsStop26506" stop-opacity="0" stop-color="#000000" offset="1" ></stop></linearGradient><linearGradient id="SvgjsLinearGradient26657" x1="79.6018" y1="74.98" x2="79.6018" y2="101.8491" gradientUnits="userSpaceOnUse" class="svga-on-canvas-glasses-gradient-single-0-null"><stop id="SvgjsStop26658" stop-opacity="1" stop-color="#000000" offset="0" ></stop><stop id="SvgjsStop26659" stop-opacity="0" stop-color="#000000" offset="1" ></stop></linearGradient><linearGradient id="SvgjsLinearGradient26661" x1="33.8842" y1="74.98" x2="33.8842" y2="101.8491" gradientTransform="matrix(-1 0 0 1 154.0177 0)" gradientUnits="userSpaceOnUse" class="svga-on-canvas-glasses-gradient-single-1-null"><stop id="SvgjsStop26662" stop-opacity="1" stop-color="#000000" offset="0" ></stop><stop id="SvgjsStop26663" stop-opacity="0" stop-color="#000000" offset="1" ></stop></linearGradient><linearGradient id="SvgjsLinearGradient26738" x1="81.7568" y1="77.9114" x2="81.7568" y2="100.2164" gradientUnits="userSpaceOnUse" class="svga-on-canvas-glasses-gradient-single-0-null"><stop id="SvgjsStop26739" stop-opacity="1" stop-color="#000000" offset="0" ></stop><stop id="SvgjsStop26740" stop-opacity="0.0896" stop-color="#000000" offset="0.9104" ></stop><stop id="SvgjsStop26741" stop-opacity="0" stop-color="#000000" offset="1" ></stop></linearGradient><linearGradient id="SvgjsLinearGradient26743" x1="40.7569" y1="77.9114" x2="40.7569" y2="100.2164" gradientTransform="matrix(-1 0 0 1 158.5026 0)" gradientUnits="userSpaceOnUse" class="svga-on-canvas-glasses-gradient-single-1-null"><stop id="SvgjsStop26744" stop-opacity="1" stop-color="#000000" offset="0" ></stop><stop id="SvgjsStop26745" stop-opacity="0.0896" stop-color="#000000" offset="0.9104" ></stop><stop id="SvgjsStop26746" stop-opacity="0" stop-color="#000000" offset="1" ></stop></linearGradient><linearGradient id="SvgjsLinearGradient26804" x1="82.4213" y1="74.4733" x2="82.4213" y2="102.383" gradientUnits="userSpaceOnUse" class="svga-on-canvas-glasses-gradient-single-0-null"><stop id="SvgjsStop26805" stop-opacity="1" stop-color="#ffffff" offset="0.0708" ></stop><stop id="SvgjsStop26806" stop-opacity="0" stop-color="#ffffff" offset="1" ></stop></linearGradient><linearGradient id="SvgjsLinearGradient26808" x1="38.0028" y1="74.4733" x2="38.0028" y2="102.383" gradientTransform="matrix(-1 0 0 1 155.3625 0)" gradientUnits="userSpaceOnUse" class="svga-on-canvas-glasses-gradient-single-1-null"><stop id="SvgjsStop26809" stop-opacity="1" stop-color="#ffffff" offset="0.0708" ></stop><stop id="SvgjsStop26810" stop-opacity="0" stop-color="#ffffff" offset="1" ></stop></linearGradient><linearGradient id="SvgjsLinearGradient26875" x1="81.258" y1="79.0018" x2="81.258" y2="98.9856" gradientUnits="userSpaceOnUse" class="svga-on-canvas-glasses-gradient-single-0-null"><stop id="SvgjsStop26876" stop-opacity="1" stop-color="#ffffff" offset="0.0708" ></stop><stop id="SvgjsStop26877" stop-opacity="0" stop-color="#ffffff" offset="1" ></stop></linearGradient><linearGradient id="SvgjsLinearGradient26879" x1="37.2155" y1="79.0018" x2="37.2155" y2="98.9856" gradientTransform="matrix(-1 0 0 1 155.4348 0)" gradientUnits="userSpaceOnUse" class="svga-on-canvas-glasses-gradient-single-1-null"><stop id="SvgjsStop26880" stop-opacity="1" stop-color="#ffffff" offset="0.0708" ></stop><stop id="SvgjsStop26881" stop-opacity="0" stop-color="#ffffff" offset="1" ></stop></linearGradient><linearGradient id="SvgjsLinearGradient26937" x1="81.4811" y1="77.4731" x2="81.4811" y2="101.8875" gradientUnits="userSpaceOnUse" class="svga-on-canvas-glasses-gradient-single-0-null"><stop id="SvgjsStop26938" stop-opacity="1" stop-color="#ffffff" offset="0.0708" ></stop><stop id="SvgjsStop26939" stop-opacity="0" stop-color="#ffffff" offset="1" ></stop></linearGradient><linearGradient id="SvgjsLinearGradient26941" x1="38.4811" y1="77.4731" x2="38.4811" y2="101.8875" gradientTransform="matrix(-1 0 0 1 156.6823 0)" gradientUnits="userSpaceOnUse" class="svga-on-canvas-glasses-gradient-single-1-null"><stop id="SvgjsStop26942" stop-opacity="1" stop-color="#ffffff" offset="0.0708" ></stop><stop id="SvgjsStop26943" stop-opacity="0" stop-color="#ffffff" offset="1" ></stop></linearGradient><linearGradient id="SvgjsLinearGradient26996" x1="81.4438" y1="79.8911" x2="81.4438" y2="97.9183" gradientUnits="userSpaceOnUse" class="svga-on-canvas-glasses-gradient-single-0-null"><stop id="SvgjsStop26997" stop-opacity="1" stop-color="#ffffff" offset="0.0708" ></stop><stop id="SvgjsStop26998" stop-opacity="0" stop-color="#ffffff" offset="1" ></stop></linearGradient><linearGradient id="SvgjsLinearGradient27000" x1="38.2938" y1="79.8911" x2="38.2938" y2="97.9183" gradientTransform="matrix(-1 0 0 1 156.7 0)" gradientUnits="userSpaceOnUse" class="svga-on-canvas-glasses-gradient-single-1-null"><stop id="SvgjsStop27001" stop-opacity="1" stop-color="#ffffff" offset="0.0708" ></stop><stop id="SvgjsStop27002" stop-opacity="0" stop-color="#ffffff" offset="1" ></stop></linearGradient><linearGradient id="SvgjsLinearGradient27051" x1="79.8873" y1="77.8893" x2="79.8873" y2="103.4741" gradientUnits="userSpaceOnUse" class="svga-on-canvas-glasses-gradient-single-0-null"><stop id="SvgjsStop27052" stop-opacity="1" stop-color="#ffffff" offset="0.0708" ></stop><stop id="SvgjsStop27053" stop-opacity="0" stop-color="#ffffff" offset="1" ></stop></linearGradient><linearGradient id="SvgjsLinearGradient27055" x1="34.1696" y1="77.8893" x2="34.1696" y2="103.4741" gradientTransform="matrix(-1 0 0 1 154.0177 0)" gradientUnits="userSpaceOnUse" class="svga-on-canvas-glasses-gradient-single-1-null"><stop id="SvgjsStop27056" stop-opacity="1" stop-color="#ffffff" offset="0.0708" ></stop><stop id="SvgjsStop27057" stop-opacity="0" stop-color="#ffffff" offset="1" ></stop></linearGradient></defs><g id="svga-group-wrapper"><g id="svga-group-backs-single"></g><g id="svga-group-humanwrap-move" transform="matrix(1,0,0,1,0,0)"><g id="svga-group-humanwrap" transform="matrix(1,0,0,1,0,0)"><g id="svga-group-hair-back-move" transform="matrix(1,0,0,1,0,0)"><g id="svga-group-hair-back" transform="matrix(1,0,0,1,0,0)"><path id="SvgjsPath25795" d="M72.3 30.8s1.2-8.7 7.5-10.9 13.4 3.1 20 4.1 15.6-5.6 24.3-2.8 9.4 14.7 12.8 17.2c3.4 2.5 10 3.4 16.9 6.2 6.9 2.8 4.1 12.8 5 22.2.9 9.4 3.7 13.1 11.2 16.8 7.5 3.7 1.6 14.4-1.2 19.7-2.8 5.3.3 5.6 5.6 10.6s.9 16.2-5.9 18.7c-6.9 2.5-9.4 7.8-7.2 13.7 2.2 5.9 1.9 18.1-5.9 20.3-7.8 2.2-13.9-3.6-18.6 2.7-4.7 6.2-8.9 9.1-13.9 7.6-5-1.6-11.2-10.2-14-7.1-2.8 3.1-24.7 15.3-30.3 10.6s-7.8-14.7-14-11.9-9.7 4.4-13.7-1.6-4.6-8.9-10.6-8.2-10.6-6.4-10-13.6c.6-7.2 4.6-7.8-.7-15.3-5.3-7.5-1.6-16.2 3.4-21.2s3.1-14.7-1.6-19-6.9-11.9-2.2-17.2c4.7-5.3 9.7-5.9 9.7-10.6s-3.1-8.7 1.9-15.9 17.2-5.3 20.9-6.2c3.7-1.1 10.6-8.9 10.6-8.9z" fill="#ffffff" stroke-width="none" opacity="1"></path><path id="SvgjsPath25796" d="M175 113c-1.2-1.2-2.3-2.1-3.3-2.8-3.2-2.6-3.9-3.2-2.1-6.6l.3-.5c2.2-4.2 6-11.2 4.4-16.2-.6-1.9-1.9-3.3-3.8-4.3-7.4-3.7-9.8-7.3-10.7-16.1-.3-2.6-.2-5.2-.2-7.7.1-6.7.1-13-5.4-15.2-2.9-1.2-5.8-2-8.3-2.8-3.5-1-6.5-2-8.4-3.3-1-.7-1.9-2.8-2.8-5-1.9-4.6-4.3-10.3-10.3-12.2-5.3-1.7-10.8-.1-15.5 1.2-3.3 1-6.4 1.9-9 1.5-2.3-.3-4.7-1.2-7.2-2.2-4.4-1.6-9-3.4-13.3-1.9-6.1 2.1-7.8 9.8-8.1 11.4-2 2.3-7.2 7.5-9.9 8.2-.8.2-2.3.3-4 .3-5.4.2-13.5.5-17.5 6.3-3.9 5.6-3.2 9.5-2.5 12.9.2 1.2.5 2.4.5 3.6 0 2.2-1.3 3.3-4 5.2-1.6 1.2-3.6 2.6-5.5 4.7-5.2 5.9-2.7 13.9 2.2 18.6 2.5 2.3 4.1 6.3 4.2 10.2 0 3-.9 5.7-2.7 7.4-5.7 5.7-9 14.8-3.5 22.5 3.3 4.6 2.8 6.2 1.8 9-.5 1.4-1.1 3.2-1.3 5.6-.4 4.6 1.2 9.2 4.1 12.1 2 2 4.5 2.9 7 2.6 4.3-.4 5.3 1 7.8 5 .5.8 1.1 1.8 1.8 2.8 4.5 6.6 8.7 4.8 15 1.9 3.1-1.4 4.9 1 7.8 5.3 1.5 2.3 3.1 4.7 5.2 6.4 1.1.9 2.6 1.3 4.3 1.3 8.7 0 24.2-9 27.1-11.7 2.5 1.4 4.9 2.6 6.3 2.9l1.2.9c-1.1.1-2.2 0-3.3-.3-.8-.2-1.1 1-.3 1.2 1.5.4 3.4.5 5.1.1 1.4 1.1 2.8 2 4.2 2.4 6.5 2 11.5-3.2 15-7.9 2.4-3.2 5.1-2.8 8.9-2.2 2.7.4 5.8.9 9.2-.1 2.6-.7 4.6-2.4 6-5.1 2.5-4.9 2.2-12.2.6-16.5-.9-2.6-.9-5 0-7.1 1.1-2.3 3.4-4.2 6.6-5.3 4.1-1.5 7.6-6 8.7-11 .8-3.8-.1-7.3-2.4-9.5zm-57.3 28.9c.6-4.4-.2-8.2-1.1-11 3.5 3.5 7.2 6.9 3.9 12.1-1.5 2.4-4.3 4.6-6.1 7.1 1.4-2 2.8-4.5 3.3-8.2zm-5.1 15.4c.8 2.7 3.1 4.5 5.2 6.2 1.4 1.2 4.2 3.1 4.4 5 .3 2.6-1 4.3-2.8 5.1l-1.2-.9c1.5-.8 2.2-2.2.4-5.2-2.5-4.1-4.7-4.1-6.8-9.5-1-2.8.2-4.6 1.9-6.9-1.1 1.9-1.7 3.8-1.1 6.2zm23.3 11.3c-.6.8-1.1 1.4-1.7 2.1.8-3.3-.3-7-.3-10.7 0-8.1 8-8.4 10.1-15 2.3-7.1-7.3-11.8-.9-18.6.4 3.2.6 6.3 2.5 8.5 4 4.7 2.6 15.1-1.2 17.7s-6.1 5-5 7.6c.8 1.7.1 4.2-.4 5.6-1.1.6-2.1 1.5-3.1 2.8zm21.9-64.2c1.7 4.7 7.2 7.7 7.9 12.8.9 6.7-7.4 8.5-10.9 12.6-3.3 3.7-2.8 8.4-1.4 12.8 1.3 4.2 3.5 8.3 2.6 12.8-1 5.1-5.4 9.6-10.5 10.1-1-.1-1.9-.2-2.8-.2 2.8-1.6 6.3-4 7.5-7 2.1-5.4 3.8-11.4 1.4-18s1.2-11.8 4-18.4c2.8-6.6.9-10.4 1.7-16.1.1-.8.2-1.5.3-2.2 0 .2.1.5.2.8zm17.6 17.7c-.9 4.3-3.9 8.2-7.4 9.5-3.7 1.4-6.4 3.6-7.7 6.4-1.2 2.6-1.2 5.6-.1 8.6 1.4 3.9 1.6 10.6-.5 14.9-1.1 2.2-2.7 3.5-4.7 4.1-2.2.6-4.3.6-6.3.3 3.3-1.3 6-3.9 7.5-7.3 3.6-8-3-14.4-2.7-22.3.3-8.7 10.6-8.6 13.2-15.7 1.7-4.7-1.9-8.5-4.6-11.9-3.6-4.5-3.9-8.2-2-13.6.9-2.7 1.6-5.2.8-7.9 0-1.5-.3-3-1.1-4.6-.9-1.9-4.3-6.2-7.5-10.1-.6-2.2-.7-4.5-.6-7.2.3-6.6-.1-12.4-5.7-16.8-6-4.8-14-4.9-21.3-5-.8 0-.8 1.2 0 1.2 7.8.1 17 .3 22.6 6.6 4.9 5.5 2.6 12.3 3.1 18.8-2.5-3-4.5-5.3-4.5-5.3l-8.8-3.3-3.6 2.1c4.3 4.7 1.2 26.7-.9 34.8-2.1 8 .5 12.3 6.4 17.5 2.7 2.4 3.5 5.6 3.9 8.8-1.1 1-2.1 2-2.8 3.3-2.5 5 1.9 8.4 2.8 13.1 1.3 6.8-6.9 8.5-9.4 13.6-2.9 6.1 2.8 13.8-2.6 19l-.1.1c-2.6 2-5 2.6-7.6 1.9 1.4-.2 2.7-.8 3.9-1.9 2-1.8 3.3-4.6 3.1-7.4-.1-2.3-1.3-4.1-2.5-5.9-.9-2-1.8-3.4-2.3-4.5 0-.1-.1-.2-.1-.4-1.4-7.4 11.1-7.6 11.7-15 .3-3.3-1.9-6.1-3.8-8.6-4.6-6.2-6.1-13.4-.8-19.9.5-.6-.4-1.5-.9-.9-1.6 1.9-2.7 4.1-3.4 6.4 0-.7-.1-1.3-.1-2.1-.7-16.2-8.1-13.1-11.5-1.6-2.8 9.7 7 14.6 9.7 20.9s-2.9 9.5-5 13.7-3.8 6.8 0 10.4c3.7 3.5 8.6 8 3 14.7-1.2.4-2.4.6-3.7.4 2.1-1.2 3.4-3.2 2.6-6.2-.8-2.8-3.5-4.5-5.6-6.3-5.1-4.3-4.8-8.4-.6-13.2 3.7-4.2 8.3-8.7 4.4-14.4-3.2-4.8-8.2-7-9.7-13.1-1.9-7.7 1.7-15.2 8.4-19.1.7-.4.1-1.5-.6-1.1-6.2 3.7-10.2 10.3-9.5 17.7.3 2.6 1.1 5.1 2.3 7.3l-13-2.6-14.4 6.3c-1.3 7.7-4.7 6.8-2.5 11.7s17.3 23.4 17.3 23.4 3.6 2.4 7.4 4.6c-3.6 3.2-17 10.3-24.4 10.8-4.8-2.8-1.2-11.6-4.3-16-2.1-3.1-5.7-4.8-9.2-5.8-6.3-1.8-13.5-.7-19.1-4.6-4.8-3.4-5.4-7.9-2.8-12.9 1-1.9 2.1-3.2 2.3-5.4.1-.7.1-1.4 0-2.2.2-1.1 0-1.9-.5-2.7-.7-2.2-1.8-4.3-2.8-6.4 0-4.2.9-11 2.2-17.1 1.6-.9 3.3-1.6 4.9-2.6 7.9-4.8 7.5-14.2 6.5-22.3-.1-.8-1.3-.8-1.2 0 .8 6.2 1.6 14-3 18.9-1.9 2-4.5 3.1-6.9 4.3 1.1-5.1 2.4-9.5 3.3-10.8l.8-8.6S43.2 91 42.3 98.2c-.8 7.1-9.8 12.2-11.7 17.6-1.9 5.4 3.3 8.8 5.5 13.2 2.1 4.4-1 7.5-2.3 14.7-1.3 7.1 6.1 7.5 10.3 9.2 4.2 1.7 7.8 12.6 12.8 11.9 5-.6 11.5-1.9 15.9 2.1 2.8 2.5 4.8 5.8 5.9 7.9.1 1.8.6 3.5 1.8 4.8-.8-.1-1.4-.4-1.9-.8-1.9-1.6-3.4-3.8-4.8-6-2.2-3.2-4.4-6.6-7.7-6.6-.8 0-1.6.2-2.5.6-6.3 2.8-8.9 4-12.5-1.2-.7-1-1.3-1.9-1.8-2.7-2.6-4.1-4.2-6.5-9.7-5.9-2.4.2-4.2-1-5.4-2.1-2.5-2.4-3.9-6.5-3.5-10.4.2-2.2.7-3.8 1.2-5.1 1-3 1.8-5.3-2-10.8-4.8-6.7-1.8-14.8 3.3-19.9 2.2-2.2 3.3-5.3 3.2-8.9-.1-4.4-2-8.9-4.8-11.6-4.3-4-6.5-10.9-2.1-15.8 1.8-2 3.5-3.3 5.1-4.4 2.6-1.9 4.8-3.5 4.8-6.8a16 16 0 0 0-.5-3.9c-.6-3.4-1.2-6.5 2.2-11.4 3.5-5 11-5.3 16-5.5 1.9-.1 3.3-.1 4.4-.4 3.9-1 10.4-8.2 11.1-9l.2-.2v-.3c0-.1 1.2-8.2 6.8-10.1 3.6-1.3 7.6.2 11.9 1.8 2.5.9 5.1 1.9 7.6 2.3 3 .4 6.3-.5 9.8-1.6 4.7-1.4 9.6-2.8 14.3-1.3 5.1 1.6 7.3 6.9 9.1 11.1 1.1 2.6 2 4.8 3.5 5.9 2.1 1.6 5.3 2.5 9 3.6 2.5.8 5.3 1.6 8.1 2.8 4.3 1.8 4.2 6.9 4.2 13.4 0 2.6-.1 5.3.2 8 .9 9.5 3.7 13.6 11.8 17.7 1.4.7 2.4 1.7 2.8 3.1 1.4 4.2-2.1 10.8-4.2 14.7l-.3.5c-2.6 4.8-.6 6.4 2.6 9.1.9.8 2 1.6 3.2 2.8 2.9 2.5 2.6 5.9 2.2 7.8zM73.1 94.6l-2.4.7c-.9-5.2-3.1-10.5-5.3-15.1-.3-.7-1.4-.1-1.1.6 2.2 4.7 4.4 9.6 5.2 14.8l-5.9 1.7s-8.3 10.4-8.3 16.9c0 4.5 1.3 5.8 5 7.8.2.5.3.9.6 1.4 2.2 4 8.9 5.2 10.4 9.4 1 2.8-.3 6.1-2.4 7.7-.5.4-1 .7-1.5 1.1-.9.7-1.8 1.5-2.3 2.6-1 2.4 0 4.8 1.8 6.4 1.7 1.5 3.8 2.1 5.8 2.9 3.4 1.4 6.2 3.3 8.2 6.5 3.3 5.1 3.8 11.4 1.3 16.9-.3.7.7 1.4 1.1.6 3.3-7.1 1.8-15.7-3.8-21.2-1.4-1.4-3-2.5-4.8-3.3-1.1-.5-2.2-.8-3.3-1.2-1-.4-1.9-.9-2.9-1.4-2.8-3.9-2.7-6.8.4-8.4 2.4-1.8 4.9-3.5 4.5-6.9-.4-3.6-3.9-5.9-6.6-7.8-1.8-1.3-3.5-2.6-4.5-4.2 1.3.7 2.8 1.4 4.6 2.4 9 5 9.9 7.7 8.6 12.2s-4.1 4.7-.4 7.7c2.5 2 7.2 4.4 9.7 8.8.2.7.3 1.4.6 2.1.2.9.6 1.9 1 2.7.1.7.1 1.4.1 2.1 0 0 .3-.3.7-.9 1.2 1.8 3 3 5.4 2.9.8 0 .8-1.3 0-1.2-1.6-.9-3.2-1.9-4.8-2.9v-.1c.6-1.6.8-4.1-1.6-6.9-.2-.3-.4-.5-.7-.8-.4-1.3-.9-2.5-1.8-3.7-1-1.3-2.8-2-3.7-3.3-1.5-2.1-1.7-3.6-1.2-5.1 1.4-2.1 4.6-2.7 4.8-7.8.2-6.1-1.8-19.8-1.8-19.8l-8.7-16.9z" fill="#000000" stroke-width="none" opacity="1"></path></g></g><g id="svga-group-humanbody-back"><path id="SvgjsPath25354" d="M86.5 122c0 18.8 2.7 50.3-8.1 58s-31.8 13.9-36.7 24.4-3.6 14.4-3.6 14.4h124.1s.6-8.1-4.2-15.4c-6.6-10.1-28.5-17.7-36.5-22.9-8.1-5.2-10.9-32.2-10.9-58.8l-24.1.3z" fill="#ffffff" stroke-width="none" opacity="1"></path></g><g id="svga-group-chinshadow-single"></g><g id="svga-group-humanbody-front"><path id="SvgjsPath25355" d="M163.4 220.1H37.2l-.3-.9c-.1-.5-1.3-4.7 3.6-15.3 3.4-7.3 13.6-12.4 23.5-17.4 5.1-2.5 9.9-5 13.6-7.5 8.6-6 8.1-29.8 7.7-47.1-.1-3.5-.1-6.8-.1-9.8v-1.3l26.7-.4v1.3c0 32 3.8 53.5 10.3 57.7 2.4 1.6 6 3.3 10.2 5.4 9.7 4.7 21.9 10.6 26.7 18 5 7.6 4.4 15.9 4.4 16.2l-.1 1.1zm-124.1-2.6h121.6c-.1-2.4-.6-8.2-4-13.4-4.4-6.7-16.2-12.5-25.6-17-4.3-2.1-8-3.9-10.5-5.5-9.8-6.3-11.4-38.8-11.5-58.6l-21.5.4c0 2.6.1 5.5.1 8.5.4 18.9.9 42.4-8.8 49.3-3.8 2.7-8.7 5.1-13.9 7.7-9.5 4.8-19.4 9.7-22.3 16.1-3.3 6.9-3.7 10.9-3.6 12.5z" fill="#000000" stroke-width="none" opacity="1"></path><path id="SvgjsPath25356" d="M76.8 188.7c4.8 2.3 10.4 3.9 15.7 2.9.4-.1.4-.7 0-.8-5.1-.9-10.2-1.4-15.2-3.2-.6-.2-1.1.8-.5 1.1z" fill="#000000" stroke-width="none" opacity="1"></path><path id="SvgjsPath25357" d="M108.3 191.1c2.4.3 4.9-.4 7.1-1.2 2.1-.8 4.3-1.7 5.8-3.4.5-.5-.1-1.2-.7-.9-2.1.9-3.9 2.3-6.1 3-2 .7-4.1 1-6.2 1.5-.6.1-.4.9.1 1z" fill="#000000" stroke-width="none" opacity="1"></path></g><g id="svga-group-clothes-single"><path id="SvgjsPath27436" d="M37.2 220.1h126.2s1.55-5.88-1.26-13.37c-2.81-7.49-5.38-8.9-6.79-10.3s-26.22-14.98-26.22-14.98 1.17-5.38-3.04-8.19c0 0 1.78-3.54-1.5-7.28-3.28-3.75-1.09-7.53-1.09-7.53s-1.82-8.25-6.27-6.61-29.07 2.22-31.88 1.05c-2.81-1.17-6.96-.71-7.43 1.63s.17 5.16.17 5.16-3.04 1.4-3.04 5.15 1.64 7.02.47 7.49c-1.17.47-2.58 0-3.04 2.58s0 4.92 0 4.92-5.62 4.21-9.6 5.85-15.69 6.79-19.43 11.24c-3.75 4.44-8.98 13.38-6.25 23.19z" fill="#ffffff" stroke-width="none" opacity="1"></path><path id="SvgjsPath27437" d="M163.08 206.38c-2.47-6.6-4.81-8.67-6.35-10.04-.25-.22-.47-.42-.67-.61-1.37-1.37-20.56-11.93-25.84-14.82.17-1.62.2-5.46-2.94-8.01.41-1.41.81-4.44-1.94-7.58-2.74-3.14-1.04-6.24-.97-6.37.13-.22.17-.47.11-.72-.12-.56-1.3-5.52-4.22-7.11-1.05-.57-2.22-.65-3.38-.22-4.28 1.58-28.64 2.11-31.15 1.06-2.28-.95-5.13-.93-6.95.03-1.01.54-1.65 1.34-1.85 2.32-.36 1.8-.13 3.81.04 4.86-1.05.72-2.93 2.46-2.93 5.65 0 1.73.32 3.34.59 4.64.14.68.32 1.59.31 2-.14.04-.3.07-.47.11-1 .2-2.51.51-2.99 3.15-.35 1.93-.21 3.73-.1 4.65-1.43 1.04-5.74 4.08-8.9 5.38-3.63 1.5-15.8 6.75-19.81 11.52-2.32 2.75-9.64 12.63-6.44 24.11.12.43.51.73.96.73h126.2c.45 0 .85-.31.97-.75.07-.26 1.6-6.28-1.28-13.98zm-.32 11.1c-6.29-2.45-11.64-5.71-16.42-10.49.86-1.32 1.75-2.53 2.61-3.61 3.57 4.25 8.3 7.88 13.67 9.45.24 1.87.23 3.46.14 4.65zm-13.52-14.46c.86-1.05 1.69-1.99 2.45-2.79 2.77 2.98 6.07 5.71 9.74 7.5.56 1.62.91 3.16 1.12 4.55-5.09-2.29-9.54-5.04-13.31-9.26zm11.91 3.94c-3.3-2.07-6.38-4.26-9.18-7.03 1.27-1.32 2.29-2.23 2.8-2.67.19.18.39.36.61.56 1.4 1.25 3.49 3.11 5.77 9.14zm-37.32-40.33c2.77 3.16 1.41 6.06 1.36 6.17-.23.45-.08 1 .34 1.28 3.58 2.39 2.66 6.96 2.62 7.15-.02.09-.02.18-.01.27-.04.1-.33.67-1.94 1.56.39-2.22.06-4.39-1.19-6.41-.36-.59-.9-1.06-1.25-1.64-1.35-2.22-1.12-3.5-1.14-5.87-.01-1.1.13-1.66-.38-2.71-1.01-2.1-1.74-1.11-2.01-4.05-.04-.44-.04-.85-.02-1.25.63-.2 1.17-.39 1.62-.55-.18 1.75.18 3.97 2 6.05zm4.36 15.12h-.01c-.02-.06-.02-.09-.02-.13 0 .04.01.08.03.13zm-51.61 1.13c-2.22-2.79-2.45-6.09-.7-9.41.66.19 1.76.5 3.17.84-2.11 2.87-2.11 7.1.1 9.88-.96-.41-1.82-.85-2.57-1.31zm7.17-29.44c-1.25 1.91-1.54 4.55-.72 6.72-.43-.12-.83-.24-1.21-.35-1.21-2.09-1.32-4.5-.15-6.53.68-.04 1.39.01 2.08.16zm13.5 10.92c-.04.31-.09.63-.17.95-.79 3.14-.82 5.79.86 8.67-.69.06-1.37.12-2.04.2-1.2.13-2.49.16-3.81.11-.06-.94-.16-1.88-.13-2.87.09-2.47 1.56-4.84 1.78-7.27 1.12.1 2.29.17 3.51.21zm2.21.05c.3 0 .6 0 .91-.01 2.15-.03 4.2-.18 6.15-.39.55 3.11.93 6.24.97 9.49-2.77.07-5.97.19-9.03.44.01-.06.01-.12-.02-.18-1.63-3.09-1.76-6.29-.23-9.38.4.01.82.03 1.25.03zm13.59-10.81c2.45 1.84 3.03 4.15 1.75 6.94-.66.16-1.36.32-2.09.47.07-1.11.25-2.18-.02-3.54-.34-1.66-.99-2.63-2.54-3.24-.19-.08-.32.24-.14.33 2.74 1.43 2.23 4.08 2.09 6.57-1.65.33-3.45.62-5.37.84-.51-2.59-1.13-5.16-1.8-7.74 3-.15 5.84-.36 8.12-.63zm3.72-.59c3.96 2.55 2.82 4.26 2.1 6.43-.85.26-1.85.55-2.95.83.02-.6.16-1.12.1-1.96-.17-2.14-.77-3.64-2.42-4.77 1.29-.16 2.37-.34 3.17-.53zm-4.61 10.16c.04.26.1.52.18.77.31.88.87 1.39 1.28 2.17.92 1.76 1.05 2.9 1.3 4.85.13 1.01.28 1.8.56 2.62a.933.933 0 0 0-.44-.12c-.06 0-3.03-.05-7.03.04-.03-3.23-.37-6.4-.91-9.53 1.8-.23 3.49-.5 5.06-.8zm-20.26 3.99c-.3 1.22-.67 1.68-.7 2.99-.03 1.38.65 2.77.67 4.14-1.15-.05-2.33-.15-3.49-.28-1.92-2.87-1.28-7.27-.2-10.61 1.36.25 2.84.47 4.43.64-.19 1.08-.49 2.19-.71 3.12zm-4.44 6.73c-.86-.12-1.71-.25-2.53-.39-2.48-3.63-2.78-7.07-1.26-11.09 1.19.31 2.53.62 4.02.9-1.12 3.16-1.86 7.73-.23 10.58zm-4.42-11.65c-1.86 3.39-1.43 7.98.88 11.07a81.07 81.07 0 0 1-3.14-.65c-.94-1.82-1.72-3.54-1.68-5.74.04-1.97.69-3.71 1.64-5.34.67.2 1.44.43 2.3.66zm-2.58 22.49c-2.57-3.28-2.9-6.83-.67-10.24 1.07.25 2.28.51 3.57.76-1.95 3.3-1.98 7.78.74 10.67-1.3-.36-2.52-.76-3.64-1.19zm4.46 1.41c-.01-.02 0-.04-.01-.06-2.31-3.55-3.01-7.13-.98-10.72 1.28.23 2.63.44 4.01.61-1.34 3.49-.92 8.05 1.28 11.12-1.51-.28-2.94-.6-4.3-.95zm5.14 1.1c-2.1-3.72-2.75-7.04-1.61-11.21 1.04.11 2.08.2 3.12.25-.28 1.06-.67 2.11-.78 3.16-.1.91-.15 1.81-.02 2.72.33 2.33 1.54 4.21 3.26 5.64-1.35-.15-2.68-.34-3.97-.56zm4.83.66c-3.61-3.04-3.7-6.35-2.91-10.86.04-.25.08-.5.1-.74.37.01.74.02 1.11.02 1 0 1.99-.05 2.92-.15.73-.08 1.48-.15 2.23-.21-1.18 4.07-.38 9.13 2.55 12.3-2.02-.04-4.03-.16-6-.36zm6.99.36c-2.89-3.63-4.32-7.63-3.08-12.35 3.12-.25 6.38-.37 9.16-.43 2.04 3.99 2.21 8.3.68 12.44-2.22.24-4.49.35-6.76.34zm6.54-12.78c3.77-.07 6.53-.03 6.59-.03.46 0 .84-.31.96-.74.03.07.05.12.09.19 2.05 3.81 3.48 6.75 2.68 10.94-1.4.39-3 .8-4.84 1.22-1.48.34-3.02.6-4.59.79 1.51-4.05 1.15-8.53-.89-12.37zm10.25 2.8c-.56-1.34-1.52-2.37-2.14-3.66-1.37-2.86-.47-4.04-1.23-6.57-.39-1.29-1.38-2.09-1.92-3.26-.3-.65-.47-1.22-.57-1.76 1.06-.21 2.05-.44 2.97-.67 2.16 3.3.93 7.13 2.43 10.73 1.85 4.44 6.35 5.95 4.79 11.37-1.03.38-2.26.79-3.74 1.22.52-2.48.43-4.94-.59-7.4zm4.58.63c-1.34-2.85-3.94-3.94-4.91-7.31-.59-2.08-.32-4.37-.8-6.49-.25-1.11-.82-1.92-1.22-2.87.78-.2 1.49-.4 2.15-.59.01.37.07.77.19 1.18.55 1.9 2.2 2.66 2.87 4.58.7 2.02-.15 3.83.46 5.81.27.87.89 1.42 1.39 2.15 1.78 2.59 2.72 4.9 2.32 7.95-.55.28-1.23.58-2.06.91.49-1.74.45-3.53-.39-5.32zm-3.95-26.04c1.63.89 2.7 3.83 3.11 5.34-.3.12-.99.38-1.98.72.03-.42.05-.85.02-1.3-.15-2.14-1.33-3.74-3.04-4.8.06-.02.12-.04.17-.05.63-.24 1.18-.21 1.72.09zm-14.79 1.39c.55 2.62 1.12 5.2 1.63 7.78-1.84.2-3.78.33-5.8.36-.78.01-1.54 0-2.28-.02-1.11-2.43-1.19-4.99-.49-7.64.04-.16-.19-.22-.24-.07-.92 2.74-.18 5.18-.03 7.68-1.3-.05-2.54-.13-3.73-.24-.7-2.48-2.85-4.75-.44-7.29.18-.19-.08-.43-.28-.28-1.52 1.23-1.56 2.61-1.15 4.49.19.84.73 1.57.92 2.4.04.19.07.39.08.59a61.42 61.42 0 0 1-4.54-.67c-.32-1-.59-1.97-.58-3.09.01-1.43.4-2.66.91-3.93 3.94.27 10.23.21 16.02-.07zm-16.59.03c-1.03 2.03-1.23 4.77-.43 6.93-1.32-.26-2.5-.54-3.56-.82-.91-2.3-.88-4.46.29-6.85.25.07.5.15.74.25.51.22 1.55.38 2.96.49zm-9.02.42c.08-.38.35-.7.82-.95.38-.2.85-.33 1.36-.41-1.05 1.9-1.15 4.27-.11 6.2-.56-.18-1.05-.34-1.44-.47-.23-.08-.41-.14-.58-.19-.14-.9-.36-2.67-.05-4.18zm-.67 6.04c.19.06.42.14.67.22.35.12.76.26 1.24.41-2.06 3.2-2.43 7.77-.44 11.02-1.15-.28-2.1-.53-2.78-.72.05-.73-.13-1.64-.33-2.62-.24-1.21-.55-2.71-.55-4.24.01-2.45 1.55-3.67 2.19-4.07zm-4.77 14.32c.24-1.31.58-1.38 1.42-1.55.12-.02.25-.05.38-.08-1.72 2.51-1.7 5.82-.22 8.34-.83-.71-1.38-1.46-1.59-2.21-.05-.25-.4-2.29.01-4.5zm-10.21 11.52c3.08-1.27 7.01-3.95 8.82-5.25 3.2 5.18 16.88 8.92 30.05 8.92 4.25 0 8.45-.39 12.21-1.25 8.61-1.96 13.74-4.02 15.29-6.15 7.93 4.35 19.27 10.67 23.44 13.23-2.77 2.42-11.65 10.99-13.91 23H63.21c-2.8-9.6-13.7-21.27-16.31-23.96 5.23-3.86 14.28-7.69 16.35-8.54zm78.68 29.63c1.23 1.16 2.65 2.19 4.19 2.88h-4.93c.21-.98.45-1.95.74-2.88zm-99.44-16.41c3.08 2.49 6.71 4.54 10.56 5.52 1.57 2.03 3.15 4.24 4.53 6.5-6.09-2.35-11.72-4.92-17.01-8.8-.01-.01-.03 0-.04-.01.66-1.23 1.34-2.31 1.96-3.21zm3.9-2.3-1.38-.81c.1-.1.22-.2.33-.3.25.26.61.64 1.05 1.11zm-2.18.03c.15-.17.31-.35.48-.53.96.6 1.91 1.2 2.88 1.78 1.36 1.5 3.11 3.51 4.92 5.81-3.45-1.43-6.65-3.02-9.72-5.2.57-.78 1.07-1.42 1.44-1.86zm-6.75 17.11c1.64 1.72 3.74 3.13 6.04 3.61.27.06.36-.3.11-.4-2.37-.97-4.41-2.08-6.15-3.85.03-1.2.16-2.37.38-3.5 3.57 3.83 8.16 6.8 13.29 8.01.28.06.38-.33.12-.42-5.13-1.79-9.54-4.31-13.3-8.16.2-.92.45-1.8.74-2.65 6.38 4.88 13.56 8.95 21.37 10.96.25.06.33-.29.1-.38-7.65-2.89-14.75-6.2-21.33-11.03.45-1.25.97-2.4 1.51-3.45 5.01 4.03 10.91 7.38 17.24 8.75.08.02.13-.02.16-.07 1.43 2.36 2.64 4.76 3.37 7.02H37.98c-.37-1.51-.51-2.99-.52-4.44zm110.01 4.45c-1.94-.96-3.75-1.94-5.39-3.36.45-1.37.97-2.69 1.56-3.94 2.88 2.91 6.26 5.46 10.06 7 .19.08.32-.24.14-.33-3.65-2.03-7.01-4.22-9.98-7.13a41.38 41.38 0 0 1 2.25-4.01c4.39 4.95 10.21 8.85 16.6 10.64-.04.45-.09.84-.14 1.14h-15.1z" fill="#000000" stroke-width="none" opacity="1"></path></g><g id="svga-group-head" transform="matrix(1,0,0,1,0,0)"><g id="svga-group-ears-left-move" transform="matrix(1,0,0,1,0,0)"><g id="svga-group-ears-left" transform="matrix(1,0,0,1,0,0)"><path id="SvgjsPath25589" d="M64.4 81.9s-4.4-4.7-5.8-6.2c-1.4-1.4-3.1-4.7-5-4.1-1.9.5-1.2 2.7-1.3 5.8-.1 3.1.3 9.1 2.2 12.4s2.9 4.5 3.5 8 2.8 4.2 4.1 3.2 4.3-7 4.4-10.2c0-3.2-1.2-7.5-2.1-8.9z" fill="#ffffff" stroke-width="none" opacity="1"></path><path id="SvgjsPath25590" d="M59.7 102.2c-.8-.3-2.3-1.3-2.8-4.2-.5-2.9-1.2-4-2.7-6.5l-.6-1.1c-2.1-3.6-2.5-10.1-2.4-13v-2c0-2-.1-4.1 2.1-4.7 2.1-.6 3.7 1.5 5 3.2.4.5.7.9 1 1.2 1.4 1.4 5.8 6.2 5.8 6.2l.1.1c.9 1.4 2.3 6 2.2 9.4-.1 3.4-3.2 9.8-4.8 11-.5.4-1.2.6-1.8.6-.4 0-.7-.1-1.1-.2zm-1.8-25.7c-.4-.4-.7-.9-1.1-1.4-.8-1.1-2.1-2.7-2.9-2.5-.6.2-.7.6-.6 2.8v2.1c-.1 3.1.3 8.9 2.1 11.9l.6 1.1c1.5 2.6 2.4 4 3 7.2.3 1.4.8 2.4 1.5 2.7.3.1.7.1 1-.1 1-.8 3.9-6.5 4-9.4.1-3-1.1-7.1-1.8-8.2-.7-.7-4.6-4.9-5.8-6.2z" fill="#000000" stroke-width="none" opacity="1"></path><path id="SvgjsPath25591" d="M52.7 76.3c.5-1.9 2.1-1 3 .4 1.9 2.6 3.2 6.6 3.6 10 0 .1-.1.2-.1.1-.1.1-.2.1-.2-.1-1.2-.5-1.6-.2-1.2.8 0 .3.1.6.3.9.2.5.6 1 .9 1.5.5.8 1.2 1.5 1.7 2.3.2.3 0 .6-.2.4-1.4-1-3.9-4.3-3.2-6.6.3-.8 1-1.1 1.5-.7-1.1-3.6-4-12-5.8-8.8-.1.1-.3 0-.3-.2z" fill="#000000" stroke-width="none" opacity="1"></path><path id="SvgjsPath25592" d="M55.6 76.8c-1 2-1.4 4.4-.9 7.1.3 1.5 2.9 9.5 4.9 8.4.2-.1.4.3.2.5-2 1.8-4.2-4.5-4.9-6.5-1.1-3.4-1.4-7.5.5-9.7.1-.1.2.1.2.2z" fill="#000000" stroke-width="none" opacity="1"></path></g></g><g id="svga-group-ears-right-move" transform="matrix(1,0,0,1,0,0)"><g id="svga-group-ears-right" transform="matrix(1,0,0,1,0,0)"><path id="SvgjsPath25593" d="M137.1 81.9s4.4-4.7 5.8-6.2c1.4-1.4 3.1-4.7 5-4.1 1.9.5 1.2 2.7 1.3 5.8s-.3 9.1-2.2 12.4c-1.9 3.3-2.9 4.5-3.5 8-.6 3.5-2.8 4.2-4.1 3.2-1.3-1-4.3-7-4.4-10.2 0-3.2 1.2-7.5 2.1-8.9z" fill="#ffffff" stroke-width="none" opacity="1"></path><path id="SvgjsPath25594" d="M140.7 102.4c-.6 0-1.3-.2-1.8-.6-1.5-1.2-4.7-7.5-4.8-11-.1-3.4 1.2-8 2.2-9.4l.1-.1s4.4-4.7 5.8-6.2c.3-.3.6-.8 1-1.2 1.3-1.7 2.9-3.8 5-3.2 2.2.6 2.1 2.7 2.1 4.7v2c.1 2.9-.2 9.4-2.4 13l-.6 1.1c-1.5 2.5-2.2 3.7-2.7 6.5-.5 2.9-2 3.9-2.8 4.2-.4.1-.7.2-1.1.2zm-2.8-19.9c-.7 1.2-1.9 5.2-1.8 8.2.1 2.9 2.9 8.6 4 9.4.3.2.6.3 1 .1.7-.3 1.3-1.3 1.5-2.7.6-3.2 1.4-4.7 3-7.2l.6-1.1c1.8-3 2.2-8.7 2.1-11.9v-2.1c.1-2.2 0-2.6-.6-2.8-.8-.2-2 1.4-2.9 2.5-.4.5-.8 1-1.1 1.4-1.3 1.5-5.2 5.7-5.8 6.2z" fill="#000000" stroke-width="none" opacity="1"></path><path id="SvgjsPath25595" d="M148.8 76.3c-.5-1.9-2.1-1-3 .4-1.9 2.6-3.2 6.6-3.6 10 0 .1.1.2.1.1.1.1.2.1.2-.1 1.2-.5 1.6-.2 1.2.8 0 .3-.1.6-.3.9-.2.5-.6 1-.9 1.5-.5.8-1.2 1.5-1.7 2.3-.2.3 0 .6.2.4 1.4-1 3.9-4.3 3.2-6.6-.3-.8-1-1.1-1.5-.7 1.1-3.6 4-12 5.8-8.8.1.1.3 0 .3-.2z" fill="#000000" stroke-width="none" opacity="1"></path><path id="SvgjsPath25596" d="M145.9 76.8c1 2 1.4 4.4.9 7.1-.3 1.5-2.9 9.5-4.9 8.4-.2-.1-.4.3-.2.5 2 1.8 4.2-4.5 4.9-6.5 1.1-3.4 1.4-7.5-.5-9.7-.1-.1-.2.1-.2.2z" fill="#000000" stroke-width="none" opacity="1"></path></g></g><g id="svga-group-faceshape-wrap" transform="matrix(1,0,0,1,0,0)"><g id="svga-group-faceshape-single"><path id="SvgjsPath25576" d="M138.2 58.2c-2-10.8-13.3-27.4-37.2-27.4S69.1 43.5 65.5 53c-3 8.1-3 21.3-3 21.3s-.1 33.5 2.1 40.5 12.7 18.4 16.7 21.5c4 3.1 27.7 3.1 32.5 2.6 4.8-.4 21.1-17.1 22.4-22.4 1.3-5.3 3.2-42.3 3.2-42.3s.2-8.3-1.2-16z" fill="#ffffff" stroke-width="none" opacity="1"></path><path id="SvgjsPath25577" d="M105.9 140.5c-8.9 0-22.1-.5-25.4-3.1-4.1-3.2-14.9-14.9-17.1-22.2-2.2-7.1-2.2-39.5-2.2-40.9 0-.5 0-13.6 3.1-21.8 5.8-15.5 17.8-23 36.7-23 10.9 0 20.5 3.4 27.7 10 5.5 5 9.6 11.9 10.8 18.5 1.4 7.7 1.2 16 1.2 16.4-.1 1.5-1.9 37.2-3.2 42.6-1.4 5.5-18 22.9-23.5 23.4-1.1 0-4.2.1-8.1.1zM101 32.1c-17.7 0-28.9 7-34.3 21.3-2.9 7.8-2.9 20.8-2.9 20.9 0 .3-.1 33.4 2.1 40.1 2.1 6.7 12.4 17.9 16.3 20.9 3.3 2.5 25.5 2.9 31.6 2.4 1.5-.1 5.8-3 11.7-9 5.1-5.1 9-10.2 9.5-12.4 1-4.1 2.5-29.3 3.2-42 0-.1.2-8.4-1.2-15.8-1.1-6-4.8-12.4-10-17-6.7-6.2-15.7-9.4-26-9.4z" fill="#000000" stroke-width="none" opacity="1"></path></g></g><g id="svga-group-mouth-single-move" transform="matrix(1,0,0,1,0,0)"><g id="svga-group-mouth-single" transform="matrix(1,0,0,1,0,0)"><path id="SvgjsPath25665" d="M112.72 120.8c-.61.59-1.29.89-2.01 1.02-2.06-4.17-6.88-5.21-11.2-4.86-3.59.28-9.32.92-9.51 5.52-.65-.06-1.24-.27-1.72-.72-.51-.49-1.28.28-.77.77 1.01.97 2.14 1.16 3.37 1.02-.42 5.26 5.98 5.89 9.79 5.67 3.56-.21 11.01-1.05 9.93-6.27 1.06-.14 2.03-.54 2.88-1.37.51-.5-.26-1.27-.76-.78zm-11.61-3.37c3.59-.03 7.25 1.19 9.01 4.47-1.34.08-2.77-.3-4.1-.5-.06-.01-.11-.01-.17-.02.31-.32.57-.68.76-1.09.14-.32-.33-.59-.47-.27-.23.51-.58.94-1.02 1.29-1.44-.18-2.89-.29-4.34-.28-.31 0-.63.03-.94.04-.07-.17-.15-.33-.22-.5-.14-.32-.61-.04-.47.27.04.08.07.17.11.25-1.24.06-2.49.17-3.72.37-.05.01-.11.02-.17.03a.932.932 0 0 1-.37-.39c-.15-.32-.62-.04-.47.27.05.1.13.17.2.25-1.26.32-2.81.85-4.18.88.2-4.66 7.13-5.04 10.56-5.07zm-1.23 11.27c-3.41.11-8.85-.55-8.44-5.21 0-.01-.01-.02-.01-.03.24-.04.47-.09.72-.15 1.83-.43 3.64-.79 5.48-1-.41.68-.64 1.44-.68 2.25-.02.35.53.35.54 0 .04-.86.32-1.63.82-2.32v-.01c.81-.08 1.63-.13 2.47-.13.24 0 .48.02.72.03.02.03.02.06.06.09.26.17.42.42.48.72.08.34.6.2.52-.14-.05-.24-.16-.45-.3-.63 2.16.14 4.25.55 6.41.78.48.05.94.07 1.39.05 1.16 5.06-6.97 5.6-10.18 5.7z" fill="#000000" stroke-width="none" opacity="1"></path></g></g><g id="svga-group-eyes-left-move" transform="matrix(1,0,0,1,0,0)"><g id="svga-group-eyes-left" transform="matrix(1,0,0,1,0,0)"><g id="svga-group-eyesback-left"></g><g id="svga-group-eyesiriswrapper-left"><g id="svga-group-eyesiriscontrol-left" transform="matrix(1,0,0,1,0,0)"><g id="svga-group-eyesiris-left" transform="matrix(1,0,0,1,0,0)"><path id="SvgjsPath25627" d="M77.3 84.5c-1.4 1.8-1.2 4.1.4 5.5 1.7 1.5 4.5 1.9 6.5.1 1-1 1.7-2.4 1.4-3.7-.1-.4-.3-.9-.5-1.3-.2-.5-.5-1-.9-1.4-2-1.7-5.2-1.4-6.9.8z" fill="#ffffff" stroke-width="none" opacity="1"></path><path id="SvgjsPath25628" d="M85.8 86.3c-.1-.5-.3-.9-.6-1.3-.2-.6-.5-1-1-1.4-.9-.8-2.2-1.2-3.5-1.1-1.4.1-2.8.8-3.7 1.9-1.5 1.8-1.3 4.3.4 5.9.9.9 2.3 1.4 3.6 1.4 1.1 0 2.3-.4 3.2-1.3 1.3-1.3 1.9-2.8 1.6-4.1zm-.6-.1c-.6.1-1.2.1-1.9.2 0-.1-.1-.2-.1-.2.4-.1.7-.3 1.1-.5.2-.1.4-.1.6-.2.1.2.2.5.3.7zm-.8-1.6.3.6v.1c-.6.3-1.1.5-1.7.8-.1-.1-.1-.2-.2-.3.6-.5 1.1-.9 1.6-1.2zm-.6-.7c.2.1.3.3.4.4-.5.3-1.1.7-1.5 1.2l-.1-.1c-.1-.1-.2-.1-.2-.2.2-.3.4-.7.6-1 .1-.2.3-.4.4-.6.2.1.3.2.4.3zm-1.9.1c0-.3.1-.7.1-1 .4.1.8.2 1.2.5-.2.2-.3.4-.4.6-.2.3-.4.7-.6 1-.1-.1-.3-.1-.4-.2.1-.3.1-.6.1-.9zm-1.1-1.1h.4c.2 0 .4 0 .6.1-.1.3-.1.6-.1 1 0 .3-.1.7-.1 1-.2 0-.3-.1-.5-.1 0-.3-.1-.6-.1-.9-.1-.4-.2-.8-.2-1.1zm-4.1 3.6c.6.2 1.4.4 2 .3v.7c-.7-.1-1.3 0-2 0-.1-.4 0-.7 0-1zm0 1.2c.7-.1 1.3-.1 2-.1 0 .1.1.2.1.2-.3.1-.7.2-1 .4-.3.1-.6.2-.8.3-.1-.2-.2-.5-.3-.8zm.7 1.5c-.1-.1-.2-.3-.3-.4.3-.1.6-.2.8-.4.3-.1.6-.2.9-.4-.4.5-.9.8-1.4 1.2zm.4.5-.3-.3c.5-.3 1-.7 1.5-1.1.1.1.1.2.2.2-.2.2-.4.4-.6.7-.2.2-.4.5-.6.8 0-.1-.1-.2-.2-.3zm.5.4c.2-.2.4-.5.6-.8.2-.2.4-.4.5-.6.1.1.2.1.3.2-.2.2-.3.5-.5.8-.2.2-.3.4-.5.7-.1-.1-.2-.2-.4-.3zm.7.4c.2-.2.3-.4.4-.5l.6-.9c.1 0 .2.1.3.1-.2.5-.2 1.1-.5 1.6-.3-.1-.5-.2-.8-.3zm1 .3c.3-.5.4-1.1.5-1.6.2 0 .3.1.5.1-.1.5 0 1.1 0 1.7-.3 0-.6-.1-1-.2zm1.3.2c0-.5 0-1.1-.1-1.7.2 0 .3 0 .5-.1.1.5.3 1.1.5 1.6-.3.1-.6.1-.9.2zm3-1.6c-.4-.2-.8-.5-1.2-.8 0 .1-.1.2-.1.2.3.3.7.6 1 .8l-.2.2c-.2.2-.3.3-.5.4-.1-.2-.3-.4-.4-.6-.1-.2-.2-.3-.3-.5-.1 0-.2.1-.2.1.1.2.2.3.3.5.1.2.3.5.4.7-.2.1-.5.2-.7.3-.2-.5-.3-1.1-.6-1.6.1 0 .1 0 .1-.1l-.3-.3c-.7.2-1.6 0-2.1-.5-.4-.3-.6-.8-.5-1.3-.2-.1-.4-.3-.4-.6-.3-.1-.7-.1-1-.1-.3 0-.6-.1-.9-.2.1-.3.2-.7.4-1 .3.2.6.3.9.5.2.1.3.2.5.3 0-.1 0-.2.1-.3-.2-.1-.3-.1-.5-.2-.3-.1-.6-.3-.9-.4.1-.1.2-.2.2-.3l.6-.6c.1.2.3.4.5.6.1.1.2.3.4.4.1-.1.2-.1.2-.2l-.1-.1c-.2-.2-.3-.4-.5-.6-.1-.1-.2-.3-.3-.4.2-.2.5-.3.8-.5.1.3.2.5.4.7.1.2.3.4.4.6.1 0 .3 0 .4.1l-.6-.9c-.1-.2-.2-.5-.3-.7.3-.2.7-.2 1.1-.3 0 .3.1.7.2 1 .1.3.1.6.2.9-.2 0-.3.1-.4.1.1.1.3.2.3.3h.4c.5 0 .9.2 1.2.4.2.2.3.3.4.6.1.2.2.3.2.5.1.3 0 .6-.1.9.1.1.2.2.3.4 0 0 0-.1.1-.1.2.2.6.3.8.5.2.1.5.3.7.4-.1.5-.3.6-.4.8zm.5-.8c-.2 0-.8-.4-.9-.5-.2-.1-.3-.2-.5-.2 0 0-.1 0-.2-.1.1-.2.1-.4.2-.6.6.2 1.2.2 1.8.3-.1.4-.2.8-.4 1.1zm.4-1.3-1.8-.3v-.4c.6 0 1.3-.1 1.8-.2.1.4.1.6 0 .9zm-2.8.3h.2c.3-.9-.2-1.9-1.2-2.2-.2-.1-.4-.1-.6-.1.3.7 0 1.8-1.1 1.8h-.3c.1.6.3 1.1 1 1.4.4.2.9.2 1.2.1 0-.4.2-1 .8-1z" fill="#000000" stroke-width="none" opacity="1"></path></g></g></g><g id="svga-group-eyesfront-left"><path id="SvgjsPath25737" d="M81 74.4c-6.9 0-12.5 5.6-12.5 12.5S74.1 99.4 81 99.4s12.5-5.6 12.5-12.5S87.9 74.4 81 74.4zm6.5 16c-.9.6-3.7 2-7.2 2-3.5-.1-9.8-2.3-10.4-3.1s1.8-2.9 2.8-3.6 3.7-2.9 6.9-3c3.2-.1 5.5.7 7.5 1.9s3.3 3.3 3.3 3.3-2.1 1.9-2.9 2.5z" fill="#ffffff" stroke-width="none" opacity="1"></path><path id="SvgjsPath25738" d="M66.7 88.5c.6.2 1.2.3 1.7.3.3 0 .6 0 .9-.1-.1.4.1.6.2.7.2.2.5.4.9.6-.6.2-1.3.4-1.8.7-.2.1-.3.4-.2.6.1.1.2.2.4.2.1 0 .1 0 .2-.1.8-.5 2.4-.9 2.4-.9.1 0 .1 0 .2-.1.3.1.6.3.9.4-.4.2-1 .5-1.3.8-.2.2-.2.4 0 .6.1.1.2.1.3.1.1 0 .2 0 .3-.1.6-.5 1.7-.9 1.7-1 .1 0 .1-.1.1-.1.2.1.5.2.7.2-.2.1-.4.3-.4.5-.1.2 0 .5.2.6h.2c.2 0 .3-.1.4-.2.1-.2.5-.4.8-.5 1.8.5 3.8.9 5.6.9h.3c5.1-.1 8.6-3.9 8.8-4 .2-.2.1-.4 0-.6-.2-.2-.4-.2-.6 0 0 0-3.5 3.7-8.2 3.8-4.9.2-10.4-2.3-11.3-3 .2-.9 4.3-4.9 7.3-5.5 3-.7 9.7-.4 12.9 5.1.1.2.4.3.6.2.2-.1.3-.4.2-.6-3.4-6-10.5-6.3-13.8-5.6-1.2.3-2.5 1-3.8 1.9-.2 0-.5-.1-.7-.1 2.8-2 6.2-2.9 9.7-2.6 4.7.5 8.1 3.8 8.1 3.8.1.1.2.1.3 0 .1-.1.1-.2 0-.3 0 0-3.5-3.5-8.4-3.9-3.8-.4-7.4.7-10.4 2.9-1-.2-1.9-.4-2-.5-.2-.2-.4-.1-.6 0-.2.2-.1.4 0 .6.3.2 1 .4 1.7.6-.4.4-.8.7-1.2 1.2-.6 0-1.4 0-2-.3-.2-.1-.5 0-.6.2s0 .5.2.6c.5.2 1.1.3 1.7.4 0 .1 0 .1.1.2h.1c.1 0 .1 0 .2-.1 0-.1.1-.1.1-.2h.6c-.3.3-.6.6-.8.9h-.1s-1.3.4-2.7-.1c-.2-.1-.5 0-.5.3.1.3.2.5.4.6zm5.8-3.4c-.3.2-.6.5-.9.7l-.8.2c.3-.3.7-.7 1.1-1 .1 0 .4 0 .6.1z" fill="#000000" stroke-width="none" opacity="1"></path></g></g></g><g id="svga-group-eyes-right-move" transform="matrix(1,0,0,1,0,0)"><g id="svga-group-eyes-right" transform="matrix(1,0,0,1,0,0)"><g id="svga-group-eyesback-right"></g><g id="svga-group-eyesiriswrapper-right"><g id="svga-group-eyesiriscontrol-right" transform="matrix(1,0,0,1,0,0)"><g id="svga-group-eyesiris-right" transform="matrix(1,0,0,1,0,0)"><path id="SvgjsPath25629" d="M115.8 84.5c-1.4 1.8-1.2 4.1.4 5.5 1.7 1.5 4.5 1.9 6.5.1 1-1 1.7-2.4 1.4-3.7-.1-.4-.3-.9-.5-1.3-.2-.5-.5-1-.9-1.4-2.1-1.7-5.3-1.4-6.9.8z" fill="#ffffff" stroke-width="none" opacity="1"></path><path id="SvgjsPath25630" d="M124.2 86.3c-.1-.5-.3-.9-.6-1.3-.2-.6-.5-1-1-1.4-.9-.8-2.2-1.2-3.5-1.1-1.4.1-2.8.8-3.7 1.9-1.5 1.8-1.3 4.3.4 5.9.9.9 2.3 1.4 3.6 1.4 1.1 0 2.3-.4 3.2-1.3 1.4-1.3 1.9-2.8 1.6-4.1zm-.6-.1c-.6.1-1.2.1-1.9.2 0-.1-.1-.2-.1-.2.4-.1.7-.3 1.1-.5.2-.1.4-.1.6-.2.2.2.3.5.3.7zm-.7-1.6.3.6v.1c-.6.3-1.1.5-1.7.8-.1-.1-.1-.2-.2-.3.6-.5 1.1-.9 1.6-1.2zm-.6-.7c.2.1.3.3.4.4-.5.3-1.1.7-1.5 1.2l-.1-.1c-.1-.1-.2-.1-.2-.2.2-.3.4-.7.6-1 .1-.2.3-.4.4-.6.2.1.3.2.4.3zm-1.9.1c0-.3.1-.7.1-1 .4.1.8.2 1.2.5-.2.2-.3.4-.4.6-.2.3-.4.7-.6 1-.1-.1-.3-.1-.4-.2 0-.3.1-.6.1-.9zm-1.1-1.1h.4c.2 0 .4 0 .6.1-.1.3-.1.6-.1 1 0 .3-.1.7-.1 1-.2 0-.3-.1-.5-.1 0-.3-.1-.6-.1-.9-.1-.4-.2-.8-.2-1.1-.1 0-.1 0 0 0zm-4.1 3.6c.6.2 1.4.4 2 .3v.7c-.7-.1-1.3 0-2 0-.1-.4-.1-.7 0-1zm0 1.2c.7-.1 1.3-.1 2-.1 0 .1.1.2.1.2-.3.1-.7.2-1 .4-.3.1-.6.2-.8.3-.2-.2-.3-.5-.3-.8zm.7 1.5c-.1-.1-.2-.3-.3-.4.3-.1.6-.2.8-.4.3-.1.6-.2.9-.4-.5.5-1 .8-1.4 1.2zm.4.5-.3-.3c.5-.3 1-.7 1.5-1.1.1.1.1.2.2.2-.2.2-.4.4-.6.7-.2.2-.4.5-.6.8 0-.1-.1-.2-.2-.3zm.5.4c.2-.2.4-.5.6-.8.2-.2.4-.4.5-.6.1.1.2.1.3.2-.2.2-.3.5-.5.8-.2.2-.3.4-.5.7-.1-.1-.3-.2-.4-.3zm.7.4c.2-.2.3-.4.4-.5l.6-.9c.1 0 .2.1.3.1-.2.5-.2 1.1-.5 1.6-.3-.1-.6-.2-.8-.3zm1 .3c.3-.5.4-1.1.5-1.6.2 0 .3.1.5.1-.1.5 0 1.1 0 1.7-.3 0-.7-.1-1-.2zm1.3.2c0-.5 0-1.1-.1-1.7.2 0 .3 0 .5-.1.1.5.3 1.1.5 1.6-.3.1-.6.1-.9.2zm3-1.6c-.4-.2-.8-.5-1.2-.8 0 .1-.1.2-.1.2.3.3.7.6 1 .8l-.2.2c-.2.2-.3.3-.5.4-.1-.2-.3-.4-.4-.6-.1-.2-.2-.3-.3-.5-.1 0-.2.1-.2.1.1.2.2.3.3.5.1.2.3.5.4.7-.2.1-.5.2-.7.3-.2-.5-.3-1.1-.6-1.6.1 0 .1 0 .1-.1l-.3-.3c-.7.2-1.6 0-2.1-.5-.4-.3-.6-.8-.5-1.3-.2-.1-.4-.3-.4-.6-.3-.1-.7-.1-1-.1-.3 0-.6-.1-.9-.2.1-.3.2-.7.4-1 .3.2.6.3.9.5.2.1.3.2.5.3 0-.1 0-.2.1-.3-.2-.1-.3-.1-.5-.2-.3-.1-.6-.3-.9-.4.1-.1.2-.2.2-.3l.6-.6c.1.2.3.4.5.6.1.1.2.3.4.4.1-.1.2-.1.2-.2l-.1-.1c-.2-.2-.3-.4-.5-.6-.1-.1-.2-.3-.3-.4.2-.2.5-.3.8-.5.1.3.2.5.4.7.1.2.3.4.4.6.1 0 .3 0 .4.1l-.6-.9c-.1-.2-.2-.5-.3-.7.3-.2.7-.2 1.1-.3 0 .3.1.7.2 1 .1.3.1.6.2.9-.2 0-.3.1-.4.1.1.1.3.2.3.3h.4c.5 0 .9.2 1.2.4.2.2.3.3.4.6.1.2.2.3.2.5.1.3 0 .6-.1.9.1.1.2.2.3.4 0 0 0-.1.1-.1.2.2.6.3.8.5.2.1.5.3.7.4-.2.5-.3.6-.4.8zm.5-.8c-.2 0-.8-.4-.9-.5-.2-.1-.3-.2-.5-.2 0 0-.1 0-.2-.1.1-.2.1-.4.2-.6.6.2 1.2.2 1.8.3-.1.4-.2.8-.4 1.1zm.4-1.3-1.8-.3v-.4c.6 0 1.3-.1 1.8-.2 0 .4.1.6 0 .9zm-2.8.3h.2c.3-.9-.2-1.9-1.2-2.2-.2-.1-.4-.1-.6-.1.3.7 0 1.8-1.1 1.8h-.3c.1.6.3 1.1 1 1.4.4.2.9.2 1.2.1-.1-.4.2-1 .8-1z" fill="#000000" stroke-width="none" opacity="1"></path></g></g></g><g id="svga-group-eyesfront-right"><path id="SvgjsPath25739" d="M119 74.4c-6.9 0-12.5 5.6-12.5 12.5s5.6 12.5 12.5 12.5 12.5-5.6 12.5-12.5-5.6-12.5-12.5-12.5zm.2 17.9c-3.5.1-6.3-1.4-7.2-2-.9-.6-3-2.5-3-2.5s1.3-2.1 3.3-3.3c2-1.2 4.3-2 7.5-1.9s5.9 2.3 6.9 3 3.4 2.7 2.8 3.6c-.5.8-6.8 3-10.3 3.1z" fill="#ffffff" stroke-width="none" opacity="1"></path><path id="SvgjsPath25742" d="M133.1 87.9c-.1-.2-.3-.3-.5-.3-1.3.5-2.6.1-2.7.1h-.1c-.2-.3-.5-.6-.8-.9h.6c0 .1.1.1.1.2s.1.1.2.1h.1c.1 0 .1-.1.1-.2.6 0 1.1-.1 1.7-.4.2-.1.3-.3.2-.6-.1-.2-.4-.3-.6-.2-.6.3-1.3.3-2 .3l-1.2-1.2c.8-.2 1.5-.4 1.7-.6s.2-.4 0-.6-.4-.2-.6 0c-.2.2-1 .4-2 .5-3-2.2-6.6-3.3-10.4-2.9-4.9.5-8.3 3.9-8.4 3.9-.1.1-.1.2 0 .3.1.1.2.1.3 0 0 0 3.4-3.3 8.1-3.8 3.6-.4 6.9.6 9.7 2.6-.2 0-.5.1-.7.1-1.3-.9-2.6-1.6-3.8-1.9-3.3-.7-10.3-.5-13.8 5.6-.1.2 0 .5.2.6s.5 0 .6-.2c3.2-5.6 9.8-5.8 12.9-5.1 3 .6 7.1 4.6 7.3 5.5-.9.7-6.4 3.2-11.1 3.1s-8.1-3.7-8.2-3.8c-.2-.2-.4-.2-.6 0s-.2.4 0 .6c.1.2 3.7 3.9 8.8 4h.3c1.9 0 3.8-.4 5.6-.9.3.1.7.4.8.5.1.1.2.2.4.2h.2c.2-.1.3-.4.2-.6-.1-.2-.3-.4-.4-.5.2-.1.5-.2.7-.2l.1.1s1.2.5 1.7 1c.1.1.2.1.3.1s.2 0 .3-.1c.2-.2.1-.4 0-.6-.4-.3-.9-.6-1.3-.8.3-.1.6-.3.9-.4 0 0 .1.1.2.1 0 0 1.5.4 2.4.9.1 0 .1.1.2.1.2 0 .3-.1.4-.2.1-.2 0-.5-.2-.6-.5-.3-1.3-.6-1.8-.7.4-.2.7-.4.9-.6.1-.1.2-.3.2-.7.2 0 .5.1.9.1.5 0 1.1-.1 1.7-.3.1-.2.2-.4.2-.7zm-5.4-3c.4.3.7.6 1.1 1-.5-.1-.8-.2-.8-.2-.3-.2-.6-.5-.9-.7.1 0 .4 0 .6-.1z" fill="#000000" stroke-width="none" opacity="1"></path></g></g></g><g id="svga-group-facehighlight-single"></g><g id="svga-group-eyebrows-left-move" transform="matrix(1,0,0,1,0,0)"><g id="svga-group-eyebrows-left-rotate" transform="matrix(1,0,0,1,0,0)"><g id="svga-group-eyebrows-left" transform="matrix(1,0,0,1,0,0)"><path id="SvgjsPath27322" d="M68.15 74.45c.07-.02 7.19-1.94 13.38-2.06 5.03-.1 9.36 1.37 9.73 2.7.1.37-.06.71-.42.92-.18.1-.65.17-1.34.21-4.48.24-18.19-.69-21.26-.91a.44.44 0 0 1-.41-.4c-.03-.2.11-.4.32-.46z" fill="#000000" stroke-width="none" opacity="1"></path></g></g></g><g id="svga-group-eyebrows-right-move" transform="matrix(1,0,0,1,0,0)"><g id="svga-group-eyebrows-right-rotate" transform="matrix(1,0,0,1,0,0)"><g id="svga-group-eyebrows-right" transform="matrix(1,0,0,1,0,0)"><path id="SvgjsPath27323" d="M132.11 74.45c-.07-.02-7.19-1.94-13.38-2.06-5.03-.1-9.36 1.37-9.73 2.7-.1.37.06.71.42.92.18.1.65.17 1.34.21 4.48.24 18.19-.69 21.26-.91a.44.44 0 0 0 .41-.4c.03-.2-.11-.4-.32-.46z" fill="#000000" stroke-width="none" opacity="1"></path></g></g></g><g id="svga-group-nose-single-move" transform="matrix(1,0,0,1,0,0)"><g id="svga-group-nose-single" transform="matrix(1,0,0,1,0,0)"><path id="SvgjsPath27575" d="M101.25 97.92c-4.22-.56-8.06 1.74-10.46 5.07-.37.52.49 1.02.86.5 2.09-2.9 5.38-4.92 9.05-4.64 3.87.3 7.05 3.4 6.92 7.37-.02.64.97.64.99 0 .14-4.3-3.19-7.74-7.36-8.3z" fill="#000000" stroke-width="none" opacity="1"></path><path id="SvgjsPath27576" d="M97.1 102.89c-.59-.46-1.23-.7-1.99-.48-.57.17-1.1.56-1.55.94-.38.32-.78.74-1.04 1.16-.16.27-.26.58-.31.88-.06.24-.06.48 0 .71.08.63.53 1.08 1.65.94.11-.05.21-.09.32-.14.16-.08.32-.16.47-.27.38-.25.56-.48.9-.7.8-.53 1.6-.88 1.84-1.91.1-.36.04-.87-.29-1.13z" fill="#000000" stroke-width="none" opacity="1"></path><path id="SvgjsPath27577" d="M104 102.48c-.5-.25-1.04-.32-1.58-.18-.13.03-.26.08-.38.14-.07.03-.7.41-.37.22-.57.33-.71 1.02-.45 1.59.12.39.32.74.62 1.03.19.18.43.34.66.47.08.04.34.24.4.28.53.46 1 1.43 1.82 1.67.41.12.96.01 1.25-.33 1-1.17.2-2.8-.65-3.82-.35-.43-.82-.82-1.32-1.07z" fill="#000000" stroke-width="none" opacity="1"></path></g></g><g id="svga-group-hair-front" transform="matrix(1,0,0,1,0,0)"><path id="SvgjsPath25793" d="M81.3 51.3s6.6-12.2 16.8-14c10.3-1.9 18.7 2.8 16.2 10.3s-4.7 20.6 5.6 19.7 17.5 5.9 18.1 12.8c.9 9.5-9.4 16.2-8.1 24.7s10.6 3.7 15.6 9.4-9.4 7.5-10.6 13.4c-1.2 5.9 7.2 13.4 12.2 12.2 0 0-5.9-3.4-2.8-6.9 3.1-3.4 13.2-2 18.1-8.1 6.6-8.1 3.4-20.3-5.3-25.6-8.7-5.3 1.9-11.9 7.2-20.6s-4.1-18.4-16.2-24.3-9.1-11.9-6.6-16.2-4.7-13.4-20-11.5-11.6-3.7-17.5-7.8c-5.8-4.3-13-2.4-17.1 3.2s-16.2 2.5-18.1 9.7c0 0-11.9-4.7-15.9 1.2s-1.9 9.7-7.2 13.4c-5.3 3.7-7.2 11.5-3.1 17.5S32 68.5 30.8 76.9s7.5 10.9 9.4 21.5-4.4 13.4-6.5 20.3 9.4 10.6 17.8 14 1.2 14.7 1.2 14.7 15.3-9.1 11.9-19-7.8-9.4-5.6-15.3 11.2-5 11.2-11.9-4.4-4.6-5-11.9c-.6-7.5 2.5-5.6 4.1-14 1.2-6.4-4.4-9.1-4.1-15.9S75.4 47 81.3 51.3z" fill="#ffffff" stroke-width="none" opacity="1"></path><path id="SvgjsPath25794" d="M166.7 111.5c-.9-5.4-4.3-10.4-9-13.2-1.7-1-2.6-2.1-2.8-3.3-.4-2.4 2.2-5.6 5.1-9 1.8-2.2 3.7-4.5 5.3-7 1.7-2.8 2.1-5.8 1.2-9-1.8-6-8.3-12.1-17.8-16.8-4.6-2.2-7.3-4.6-8-7.2-.8-2.6.4-5 1.9-7.7 1-1.8.8-4.2-.7-6.4-2.6-3.9-9.4-7.9-20.2-6.6-9.9 1.2-11.2-.7-12.9-3.4-.9-1.3-1.8-2.9-3.8-4.2-6.2-4.2-14-2.7-18.5 3.7-1.6 2.2-5 3-8.3 3.6-4 .8-8.1 1.7-9.7 5.3-3.1-1-12.3-3.5-16.1 2-1.8 2.7-2.5 4.9-3 6.9-.7 2.5-1.2 4.3-3.9 6.3-6 4.3-7.6 12.7-3.4 18.9.4.6.6 1.2.5 1.5-.3.9-2.2 1.8-4 2.6-3.5 1.6-7.8 3.5-8.5 8.3-.7 4.8 1.6 7.9 4.1 11.2 2.2 2.9 4.5 5.9 5.3 10.7 1.2 6.7-1 10-3.3 13.6-1.2 1.9-2.5 3.8-3.2 6.2-2.2 7.1 7.4 10.9 15.8 14.3.9.3 1.7.7 2.5 1 1.7.7 2.7 1.7 3.2 3.2 1.3 4.1-2.4 9.9-2.4 10l-2.2 3.5 3.6-2.1c.7-.4 15.9-9.6 12.3-20.2-1.5-4.4-3.2-6.8-4.5-8.6-1.6-2.3-2.2-3.1-1.1-6 .9-2.3 3-3.5 5.3-4.7 2.8-1.5 6-3.2 6-7.5 0-3.9-1.4-5.3-2.6-6.5-1.1-1.1-2.1-2.2-2.4-5.4-.3-3.8.3-4.9 1.3-6.5.9-1.5 2-3.3 2.7-7.3.7-3.7-.7-6.2-1.9-8.7-1.2-2.2-2.2-4.3-2.1-7.3.1-3 2.4-6 5.9-7.6 1.4-.7 2.8-1 4.2-1-1.4.6-2.6 1.6-3.4 3.2-.7 1.3-.8 2.8-.5 4.2.7 2.7 5.4 6.1 2.7 9-.5.6.3 1.5.9.9 1.3-1.5 1.4-3.2.7-5-.8-1.8-2.6-3.2-3.1-5.2-.9-4.1 2.6-6.2 6.1-6.4.4.2.8.4 1.2.7l.9.7.6-1s.1-.3.4-.7c3.2-3.9 7.8-7.7 12.8-8.6 6.5-1.1 10.1 4.8 8.3 10.6-.8 2.5-2.3 4.6-3.1 7-.8 2.3-1 5.3.8 7.3 2 2.2 11 .9 10.4 4.6-.1.8 1.1 1.1 1.2.3.2-1.8 0-2.9-1.6-4-1.8-1.2-4.1.1-5.9-.6-1.8-.3-3.9-.3-4.3-4.5.3-2 .9-4 2-5.7.5-1.1 1.1-2.1 1.5-3.3.9-2.6 1.3-5.5.3-8.1-3.3-8.8-12.4-5-18.7-.1 2.8-3.3 7-6.9 12.1-7.8 6-1.1 11.5.1 14.1 3.1 1.4 1.6 1.8 3.7 1 5.9-1 3.1-4.1 13.6-.2 18.5 1.5 1.9 3.8 2.7 6.9 2.5 4.5-.4 8.7.8 12 3.3 2.9 2.3 4.8 5.4 5 8.6.4 4.5-1.9 8.4-4.1 12.2-2.3 3.9-4.6 8-4 12.5.8 5.5 4.9 6.2 8.5 6.8 2.7.4 5.4.9 7.3 3.1.6.7.9 1.3.8 1.8-.2 1.3-2.5 2.7-4.7 4-2.9 1.8-6.3 3.7-6.9 6.8s.9 6.6 4 9.6c3 2.9 6.7 4.4 9.4 3.7l2.4-.6-2.1-1.2c-.8-.4-2.9-2-3.2-3.6-.1-.6.1-1.2.6-1.7 1.1-1.2 3.6-1.8 6.3-2.4 4.1-.9 8.8-2 11.8-5.8 2.6-4.2 3.8-9.1 2.9-14.2zM140 33.1c1.1 1.6 1.3 3.2.7 4.3-1.3 2.2-3.2 5.6-2.1 9.3 1 3.1 3.9 5.8 9.1 8.4 8.9 4.3 15.2 10.2 16.8 15.5.8 2.6.4 5.1-1 7.4-1.4 2.4-3.3 4.6-5.1 6.7-.2.2-.4.4-.5.7.7-1.2 1.3-2.3 1.7-3.5 1.1-3.3 1.1-7 .1-10.4-2-7-7.9-12.1-14.6-14.5-5.5-2-14.4-2.1-13.2-10.3.5-3.6 3.3-5.7 2.7-9.7-.9-5.7-5.7-8.5-10.8-9.7 8.7-.6 14.1 2.6 16.2 5.8zm-108.2 44c.5-3.7 4.2-5.3 7.4-6.7 2.5-1.1 4.6-2.1 5.1-3.9.3-1 0-2-.8-3.2-3.6-5.2-2.3-12.5 2.9-16.1.3-.2.6-.5.9-.7-1 2-1.6 4.2-1.9 6.6-1 9.3 5.8 19.7-1.8 27.5-2 2.1-4.9 3.8-6.1 6.6-.2.6-.4 1.2-.5 1.7l-1.5-2.1c-2.5-3.2-4.4-5.7-3.7-9.7zm129.9 47c-2.6 3.2-6.9 4.2-10.7 5.1-3.1.7-5.8 1.3-7.4 3-.9 1-1.3 2.2-1.1 3.4.2 1.1.8 2.2 1.6 3-1.5-.5-3.2-1.5-4.7-3-2.6-2.5-3.9-5.5-3.4-7.8.5-2.2 3.4-3.9 6-5.4 2.7-1.6 5.3-3.2 5.7-5.4.2-1.1-.2-2.3-1.3-3.4-2.4-2.7-5.6-3.2-8.5-3.7-3.6-.6-6.3-1.1-6.9-5.1-.6-3.8 1.5-7.4 3.7-11.2 2.4-4.1 4.9-8.3 4.4-13.4-.3-3.8-2.5-7.4-5.8-10-3.6-2.8-8.4-4.1-13.4-3.7-2.3.2-4-.3-5.1-1.7-2.6-3.3-1.4-10.8.5-16.6 1-2.9.5-5.7-1.4-7.9-3-3.5-9.3-4.9-16-3.7C89 38 82.8 47 81 49.9c-2.8-1.5-6.4-1.5-9.9.1-4.1 2-6.8 5.6-7 9.3-.2 3.6 1.2 6.1 2.3 8.3 1.2 2.4 2.3 4.4 1.7 7.4-.7 3.6-1.6 5.2-2.5 6.6-1.1 1.8-2 3.3-1.6 7.7.3 4 1.7 5.4 3 6.7 1.1 1.2 2 2.1 2 5.1 0 3-1.9 4.1-5 5.8-2.4 1.3-5.1 2.7-6.2 5.8-1.4 3.9-.3 5.5 1.4 7.8 1.2 1.7 2.8 3.9 4.2 8.1 2.2 6.4-4.2 12.5-8.3 15.7.7-1.8 1.3-4 1.2-6.1v-.2c-.1-3.4-2-5.6-4.7-7.6-2.3-1.7-5.2-2.9-6.9-5.2-3.1-4.5-.4-7.6 2.3-11 2-2.5 4.2-5.1 4.1-8.5 0-6.3-6.6-11-5-17.4 1.1-4.6 5.9-6.1 7.9-10.1 2-4.2.1-8.8-1.5-12.9-2.7-6.7-2.6-13.3 3-18.6 5.8-5.4 14.1-5.7 21.5-4 .8.2 1.1-1 .3-1.2-9.7-2.2-21.3-.6-26.3 9.1-2.3 4.5-2 8.9-.3 13.5 1.5 3.9 3.6 7.7 2.7 12.1-.7 3.6-4.6 5.4-6.7 8-2.7 3.3-2.6 6.7-1.1 10.6 1.7 4.3 5 7.8 3.8 12.7-.8 3.2-3 5.2-5 7.8-2 2.7-3.5 5.7-1.9 8.9 1.7 3.6 5.7 5.2 8.8 7.5l-2.4-.9c-7.7-3-16.4-6.5-14.7-11.8.7-2.2 1.8-3.9 3-5.8 2.4-3.7 4.9-7.6 3.6-15-.5-2.9-1.5-5.2-2.7-7.2-.6-4.1 1.9-5.8 4.3-8 1.6-1.5 3.2-2.9 4.2-4.8 2.3-4.3 1.6-9.4.8-14-1.4-7.7-2-14.8 3.3-21.1s13.8-8.1 21.5-5.4c.8.3 1.1-.9.3-1.2-8.2-2.9-17-.5-22.3 5.3.2-.7.4-1.3.6-2 .5-1.9 1.1-3.9 2.7-6.3 1.3-2 3.8-2.6 6.2-2.6 4.1 0 8.4 1.7 8.5 1.7l1.1.4.3-1.1c.9-3.3 4.4-4 8.5-4.9l1.5-.3c-.2.2-.4.3-.6.5-2.2 2.1-3.6 5-4.6 7.8-.3.8.9 1.1 1.2.3 1.3-3.7 3.2-7.1 6.8-9 1.4-.8 2.9-1.5 4-2.5l1.2-1.2c3.9-5.4 10.6-6.8 15.8-3.2 1.7 1.1 2.5 2.4 3.3 3.7.6.9 1.2 1.7 1.9 2.4-12.6-1-29.2-1.1-30.3 13.5-.1.8 1.2.8 1.2 0 1.1-14.4 19-13.2 31.2-12.1 1.6.7 3.8 1 7.1.8h.2c6.3.2 15.5 2.6 15.3 10.7-.1 3.8-3.5 6.8-3.1 10.6.6 5.8 7.2 7 11.6 8.2 10 2.6 19.5 11.4 16.9 22.7-.9 4.2-4.7 8-5.5 12.1-.4 1.1-.6 2.2-.4 3.2.3 1.8 1.5 3.3 3.8 4.7 4.2 2.6 7.2 7 8.1 11.9.8 4.5-.3 8.9-3 12.3zm-18.8-29.3c3.5-6.8 9.1-12.4 7.6-20.8-1-5.5-5-9.1-10.1-10.9-4.2-1.5-8.7-1-12.8-2.4-7.9-2.7-4.2-9.5-4.2-15.1-.1-5.9-3.9-11.2-8.9-14-11.7-6.7-27.9.8-34.2 11.8-.4.6.7 1.3 1.1.6 7.4-12.9 30.4-20.5 39.1-4.6 2.3 4.2 1.3 8.1.7 12.5-.2 1.8-.4 3.7.3 5.4 1.9 4.4 7 5 11.2 5.6 9.5 1.2 18.8 6 16.4 17.4-1.4 6.5-7 10.7-8.6 17-1 4 1 7.3 4.1 9.7 2.1 1.7 4.5 2.8 6.6 4.4 2.6 2 3.7 3.3 3.7 6.7 0 3.8-1.4 5.1-4.5 7.2-.7.4 0 1.5.6 1.1 4.1-2.7 7.6-6.7 5-11.7-3.9-7.5-18.9-8.7-13.1-19.9zM79.6 45.9c-7.3-3.2-16.4-1.2-20.5 6.1-1.8 3.2-2.5 7-1.9 10.7.4 2.5 1.5 4.3 2.6 6.5 2.7 5.4 1 9.2-1.9 13.9-2.2 3.5-4.8 7.8-2.9 12 .8 1.7 2.3 2.7 3.4 4.1 5 6.5-.4 7.7-3.2 11-2.1 2.5-3 6.1-2.3 9.3 1.2 5.6 7.7 8.3 7.6 14.3 0 .8 1.2.8 1.2 0 0-3.3-1.5-5.5-3.5-7.9-4.4-5.3-6.2-11.3-.3-16.4 1.9-1.7 4.2-2.8 4.2-5.7.1-3.8-4.1-6.3-5.5-9.4-2.6-6.3 3.3-10.6 5.4-16 1.4-3.7.6-6.4-1.1-9.9-2.8-5.8-3.8-11.4 0-17 4-5.8 11.7-7.3 18-4.5.8.3 1.4-.8.7-1.1z" fill="#000000" stroke-width="none" opacity="1"></path></g><g id="svga-group-glasses-single-move" transform="matrix(1,0,0,1,0,0)"><g id="svga-group-glasses-single" transform="matrix(1,0,0,1,0,0)"><path id="SvgjsPath27109" d="M94.7 85.4c-1-4.4-4.1-10.5-13.6-10.8s-13.8 6.8-14.5 13.2 4.3 12.2 7.7 13.7 10.3 2.9 15.6-1.8c5.3-4.9 5.8-10 4.8-14.3z" fill="#000000" stroke-width="none" opacity="1"></path><path id="SvgjsPath27110" d="M104.7 85.4c1-4.4 4.1-10.5 13.6-10.8s13.8 6.8 14.5 13.2-4.3 12.2-7.7 13.7c-3.4 1.5-10.3 2.9-15.6-1.8-5.3-4.9-5.7-10-4.8-14.3z" fill="#000000" stroke-width="none" opacity="1"></path><path id="SvgjsPath27111" d="m69.7 88.9 12-10 .1.2-12 10-.1-.2zm6.8 10.6 12-10 .1.2-12 10-.1-.2zm-1.1-4.4 16.3-13.6.1.2-16.2 13.5-.2-.1zm-4.7-1.2 16-13.3.1.2-16 13.2-.1-.1z" fill="#ffffff" stroke-width="none" opacity="1"></path><path id="SvgjsPath27112" d="m107 88.9 12-10 .1.2-12 10-.1-.2zm6.8 10.6 12-10 .1.2-12 10-.1-.2zm-1.1-4.4L129 81.5l.1.2-16.3 13.6-.1-.2zm-4.8-1.2 16-13.3.1.2-16 13.3-.1-.2z" fill="#ffffff" stroke-width="none" opacity="1"></path><path id="SvgjsPath27113" d="M135.6 86.7c-.1-.1-1.5-.1-2.2-.1-1.1-6.3-5.6-13-15-12.7-9.3.3-12.7 6-13.9 10.2-.5-.5-1.2-.9-1.6-1-.6-.1-4.2-.2-5.7-.1-1.5.2-1.9 1.1-1.9 1.1l-.1.1C94 80.1 90.7 74.3 81.3 74c-9.4-.3-13.9 6.4-15 12.7-.8 0-2.1 0-2.2.1-.2.2 0 1.8 0 1.8h2c-.2 6.1 4.5 11.8 8.2 13.4.9.4 3.7 1.5 7.1 1.5 2.9 0 6.2-.8 9.2-3.4 4.6-4.2 6.2-9 5-14.8.1-.2.2-.3.2-.4.2-.4 1-1 1.6-1.1s4.1 0 4.7 0 1.2.4 1.6.7c.2.2.4.5.5.8-1.2 5.8.4 10.6 5 14.8 2.9 2.7 6.3 3.4 9.2 3.4 3.4 0 6.3-1.1 7.1-1.5 3.7-1.6 8.4-7.4 8.2-13.4h2c-.1-.1.1-1.7-.1-1.9zM89.5 99.1c-5.8 5.3-13.4 2.4-14.9 1.7-2.9-1.3-8-6.9-7.3-13 .7-5.8 4.5-12.6 13.3-12.6h.5c8.9.3 12 5.8 13 10.3 1.1 5.3-.3 9.8-4.6 13.6zm35.3 1.7c-1.5.6-9.1 3.5-14.9-1.7-4.2-3.8-5.8-8.3-4.6-13.6 1-4.5 4.1-10 13-10.3h.5c8.7 0 12.6 6.7 13.3 12.6.8 6.1-4.3 11.7-7.3 13z" fill="#ffffff" stroke-width="none" opacity="1"></path><path id="SvgjsPath27114" d="M81.1 75c-9.2-.3-13.3 6.8-14 12.8-.7 6.2 4.5 11.9 7.5 13.2.8.3 3.5 1.4 6.7 1.4 2.7 0 5.7-.7 8.4-3.2 4.3-3.9 5.8-8.4 4.7-13.8-1.1-4.5-4.2-10.1-13.3-10.4zm8.2 23.9c-5.7 5.2-13.2 2.3-14.7 1.7-2.9-1.2-7.9-6.8-7.2-12.8.7-5.7 4.5-12.4 13.1-12.4h.5c8.8.3 11.8 5.7 12.8 10.1 1.2 5.3-.3 9.7-4.5 13.4zm46.4-12.4c-.1-.1-.2-.2-2.2-.2-1.2-6.4-5.8-13-15.2-12.7-9 .3-12.6 5.5-14 10-.5-.4-1-.7-1.4-.8-.6-.1-4.2-.2-5.8-.1-1.1.1-1.6.5-1.9.8-1.4-4.5-5-9.7-14-9.9-9.4-.3-14 6.3-15.2 12.7-2 0-2.1.1-2.2.2-.1.1-.3.2-.1 2v.2h2c-.1 6.3 4.8 11.9 8.3 13.4.8.3 3.7 1.5 7.2 1.5 3.6 0 6.7-1.2 9.3-3.5 4.7-4.2 6.3-9.1 5.1-14.9.1-.1.1-.2.2-.3.2-.3.9-.9 1.4-1 .6-.1 3.9 0 4.6 0 .6 0 1.2.4 1.5.7.1.1.2.3.4.7-1.2 5.8.4 10.7 5.1 14.9 2.6 2.3 5.7 3.5 9.3 3.5 3.5 0 6.4-1.2 7.2-1.5 3.5-1.5 8.4-7.2 8.3-13.4h2v-.2c.4-1.8.2-2 .1-2.1zm-.3 1.8h-2.1v.2c.2 6.2-4.6 11.8-8 13.2-.8.3-3.6 1.5-7.1 1.5-3.5 0-6.5-1.1-9-3.4-4.6-4.1-6.2-8.9-4.9-14.6V85c-.2-.4-.4-.7-.6-.9-.4-.3-1.1-.8-1.8-.8-.4 0-1.8-.1-3.1-.1-.8 0-1.4 0-1.7.1-.7.1-1.5.8-1.7 1.2-.1.1-.2.3-.3.4v.2c1.2 5.7-.4 10.5-4.9 14.6-2.5 2.2-5.5 3.4-9 3.4-3.4 0-6.3-1.1-7.1-1.5-3.4-1.5-8.2-7.1-8-13.2v-.2H64c-.1-.6-.1-1.2 0-1.4.2 0 .8-.1 2.1-.1h.2v-.2c1.1-6.2 5.6-12.8 14.8-12.5 9 .3 12.4 5.6 13.7 10.1l.1.5.3-.5s.4-.8 1.8-.9c1.6-.2 5.2-.1 5.7.1.4.1 1.1.5 1.5.9l.3.3.1-.4c1.3-4.4 4.7-9.7 13.7-10 9.3-.3 13.7 6.3 14.8 12.5v.2h.2c1.3 0 1.9 0 2.1.1v1.4zM118.9 75h-.5c-9.1.3-12.2 5.8-13.2 10.5-1.2 5.4.3 9.9 4.7 13.8 2.7 2.4 5.8 3.2 8.4 3.2 3.2 0 5.9-1 6.7-1.4 3-1.3 8.2-7 7.5-13.2-.8-6-4.7-12.9-13.6-12.9zm5.9 25.6c-1.4.6-8.9 3.5-14.7-1.7-4.2-3.8-5.7-8.1-4.5-13.3 1-4.5 4-9.8 12.8-10.1h.5c8.6 0 12.4 6.7 13.1 12.4.6 6-4.4 11.5-7.2 12.7z" fill="#000000" stroke-width="none" opacity="1"></path></g></g></g></g></g><rect id="svga-credit-rect" width="200" height="15" x="0" y="185" fill="#ecf0f1" opacity="0.5" style="display: none;"></rect><text id="svga-credit-text" font-family="Avenir Next, Roboto, Helvetica, Arial, sans-serif" font-size="10px" text-anchor="start" font-weight="400" size="10px" anchor="start" weight="400" fill="#333333" x="33.394142150878906" y="182.50772333145142" style="display: none;"><tspan id="SvgjsTspan25144" dy="13" x="33.394142150878906">Created on AvatarMaker.com</tspan></text></g></svg>