<svg xmlns="http://www.w3.org/2000/svg" version="1.1" width="600px" height="600px" viewBox="0 0 200 200" style="overflow:hidden!important;"><g id="svga-group-wrapper"><g id="svga-group-backs-single"></g><g id="svga-group-humanwrap-move" transform="matrix(1,0,0,1,0,0)"><g id="svga-group-humanwrap"><g id="svga-group-hair-back-move" transform="matrix(1,2.856368900253737e-18,-2.856368900253737e-18,1,0,0)"><g id="svga-group-hair-back"></g></g><g id="svga-group-humanbody-back"><path id="SvgjsPath21302" d="M166.5 181.1c-10.9-6.6-24-7.8-31-12.1s-9.1-4.7-8.9-17.8 1.9-42.4 1.9-42.4H71.4s1.6 29.4 1.9 42.4-1.9 13.5-8.9 17.8-20.1 5.4-31 12.1c-10.8 6.6-10 18.9-10 18.9v19.7h153.3V200c-.1 0 .7-12.3-10.2-18.9z" fill="#f0c7b1" stroke-width="none" opacity="1"></path></g><g id="svga-group-chinshadow-single"><path id="SvgjsPath21298" d="M126.7 151.4v-.1c.3-13 1.9-42.4 1.9-42.4H71.4s1.6 29.4 1.9 42.4v.1c7.5 10 16.8 16.6 26.7 16.6s19.2-6.6 26.7-16.6z" fill="#d19271" stroke-width="none" opacity="1"></path></g><g id="svga-group-humanbody-front"><path id="SvgjsPath21303" d="M176.7 197.2c-.1-.9-.3-1.9-.5-2.8-.4-1.8-1.1-3.6-2-5.3-.4-.8-.9-1.6-1.5-2.4-.5-.8-1.1-1.5-1.8-2.2-1.3-1.4-2.8-2.6-4.4-3.5-3.5-2.1-7.2-3.7-11.1-5.1-1.9-.7-3.8-1.3-5.8-1.9-1.9-.6-3.9-1.2-5.8-1.8-1.9-.6-3.8-1.3-5.6-2.2-.9-.4-1.8-.9-2.6-1.4L133 167c-1.7-1.1-3.3-2.2-4.2-3.9-.2-.4-.4-.8-.6-1.3-.2-.5-.3-.9-.4-1.4-.2-.9-.3-1.9-.4-2.9-.1-2-.1-4 0-6s.2-4 .3-6.1c.2-4 .4-8.1.6-12.1l1.3-24.3.1-1.2h-1.2c-4.8 0-9.5.1-14.3.1l-14.2.1-28.6.4h-.5v.5c.6 10 1.2 19.9 1.6 29.9.2 5 .4 10 .4 15 0 1.2-.1 2.5-.2 3.7s-.3 2.4-.6 3.6c-.3 1.1-.9 2.2-1.7 3.1-.8.9-1.8 1.6-2.8 2.2-1 .7-2.1 1.3-3.2 1.9-.5.3-1.1.6-1.6.9-.5.3-1.1.5-1.7.8-2.3.9-4.6 1.6-7 2.3-4.8 1.4-9.7 2.7-14.4 4.6-2.3 1-4.6 2.1-6.8 3.4-2.2 1.3-4.3 3.1-5.9 5.2-1.6 2.1-2.8 4.4-3.6 6.9-.4 1.2-.7 2.5-.9 3.8-.1.6-.2 1.3-.2 2 0 .3 0 .7-.1 1v20.9h154.6l.1-20c0-1.1-.1-2-.2-2.9zM24.6 217.7v-19.5c0-.6.1-1.2.2-1.8.2-1.2.4-2.3.8-3.5.7-2.3 1.8-4.4 3.2-6.3 1.4-1.9 3.2-3.5 5.2-4.7 2.1-1.3 4.3-2.4 6.5-3.4 4.5-2 9.3-3.4 14.1-4.9 2.4-.8 4.8-1.5 7.1-2.6.6-.3 1.2-.5 1.7-.8.3-.2.6-.3.8-.5.3-.2.6-.3.8-.5 1.1-.7 2.1-1.3 3.2-2s2.1-1.5 3-2.5c.4-.5.8-1.1 1.1-1.7.3-.6.5-1.2.7-1.8.4-1.3.5-2.5.6-3.8s.1-2.5.1-3.8 0-2.5-.1-3.8l-.1-3.7-.3-7.5-1.2-29.2 28 .4 14.3.2c4.4 0 8.7.1 13.1.1-.4 7.7-.8 15.4-1.1 23.1-.1 4.1-.3 8.1-.4 12.2 0 2-.1 4.1-.1 6.1s0 4.1.2 6.2c.1 1 .3 2.1.5 3.1.1.5.3 1 .5 1.5s.4 1 .7 1.5c.3.5.6.9 1 1.3s.8.8 1.2 1.1c.8.7 1.7 1.2 2.6 1.7l2.6 1.5c.9.5 1.8 1 2.8 1.4 1.9.8 3.8 1.4 5.8 2 3.9 1.1 7.8 2.2 11.7 3.5 1.9.6 3.8 1.4 5.7 2.2 1.8.8 3.6 1.8 5.4 2.8 1.6 1 3 2.2 4.3 3.5.6.7 1.2 1.4 1.7 2.2s1 1.6 1.4 2.4c.8 1.7 1.5 3.4 1.9 5.2.2.9.3 1.8.4 2.7.1.8.1 20.6.1 21.4-12.6-.2-151.7-1-151.7-1z" fill="#c27b55" stroke-width="none" opacity="1"></path><path id="SvgjsPath21304" d="M78.7 156.8c.5 4.8 1.7 9.4 3.1 13.9.8 2.3 1.6 4.6 2.6 6.9.8 2 1.7 4.2 3.1 5.9.3.4 1 0 .9-.5-.5-2.2-1.6-4.3-2.4-6.4-.9-2.2-1.7-4.4-2.5-6.6-1.5-4.4-2.8-8.9-4.1-13.3-.2-.4-.8-.3-.7.1zm41.3-1c-1.3 8.2-3.9 16.1-5.4 24.2-.1.4.4.5.6.2 3.1-7.7 4.1-16.1 5.1-24.3-.1-.2-.3-.2-.3-.1zm-25.8 11.9c-.9 3.6 1.9 8.6 6.2 7.6.5-.1.4-.8 0-1-1.4-.5-2.9-.9-3.9-2.1-1.1-1.2-1.5-2.9-1.4-4.5 0-.4-.8-.5-.9 0z" fill="#d19271" stroke-width="none" opacity="1"></path></g><g id="svga-group-clothes-single"><path id="SvgjsPath21183" d="M180.3 220.1c0-17.5-1.6-28.7-1.6-28.7-3.2-15.2-22.5-16.1-31.1-18.5-2.8-.8-11.3-5.4-11.3-5.4-4-8.6-9.1-13.4-9.1-13.4s-1.4 17.5-7.3 21.6c-2.8 1.9-8.9 3.1-11.2 5-2.4 2-5.9 10.2-5.9 10.2s-8.5-12.5-10.7-12.3c-4.7.5-8 0-9.2-.4-6.7-2-9.8-23.8-9.8-23.8s-6.5 4.6-9.4 12.4c-3.2 1.4-7.9 3.6-11.9 5.1-8.4 3.1-27.5 5.6-30.5 19.6 0 0-1.6 11.2-1.6 28.7l160.6-.1z" fill="#384d50" stroke-width="none" opacity="1"></path><path id="SvgjsPath21184" d="M180.6 210.1c0-3.3-.1-6.7-.3-10-.1-1.7-.2-3.3-.3-5l-.2-2.5-.1-1.3c-.1-.4-.2-.9-.3-1.3-.9-3.4-2.8-6.5-5.4-8.9-2.6-2.3-5.7-4-8.9-5.1-3.2-1.2-6.5-2-9.8-2.7l-4.9-1c-.8-.2-1.6-.4-2.3-.6-.7-.2-1.4-.5-2.2-.9-2.8-1.3-5.6-2.8-8.4-4.3-1.1-2.4-2.4-4.7-3.9-6.9-.8-1.2-1.6-2.3-2.5-3.4-.9-1.1-1.8-2.1-2.9-3.2-.2-.2-.5-.3-.8-.4-.7-.1-1.4.5-1.4 1.2v.1c-.4 3.8-1 7.7-2 11.4-.5 1.9-1.1 3.7-1.9 5.4-.8 1.7-1.8 3.2-3.2 4-1.5.9-3.4 1.5-5.2 2.2-.9.3-1.9.7-2.8 1.1-1 .4-1.9.9-2.9 1.6-1 .9-1.5 1.7-2.1 2.6-.6.9-1.1 1.8-1.5 2.6l-1.8 3.6c-2.2-3-4.4-6-7-8.7-.4-.4-.8-.8-1.3-1.2-.2-.2-.5-.4-.8-.6-.3-.2-.6-.4-1.2-.4h-.6l-.4.1-.8.1c-.5.1-1.1.1-1.6.1-1.1 0-2.1 0-3.2-.1-1-.1-2.2-.2-3-.5-.8-.3-1.6-1-2.2-1.8-.6-.8-1.2-1.7-1.7-2.6-1-1.9-1.8-3.9-2.4-5.9-1.3-4.1-2.2-8.4-2.9-12.6 0-.1-.1-.1-.1-.2-.2-.2-.5-.2-.7-.1-1.1.8-2.1 1.7-3 2.7s-1.8 2-2.6 3c-.8 1.1-1.5 2.2-2.2 3.3-.7 1.1-1.2 2.2-1.7 3.4-3.8 1.7-7.7 3.4-11.6 4.8-4 1.4-8.1 2.3-12.2 3.6-4.1 1.3-8.2 2.9-11.8 5.5-1.8 1.3-3.4 2.9-4.8 4.7-1.3 1.8-2.3 4-2.8 6.2v.1c-.3 2.4-.6 4.8-.8 7.2-.2 2.4-.4 4.8-.5 7.2-.1 2.4-.3 4.8-.3 7.2-.1 2.4-.1 4.8-.1 7.2 0 .8.6 1.4 1.4 1.4l40.5.2c13.5 0 27-.1 40.4-.2l40.2-.5 19.9-.3 19.8-.4c.1-3.5.1-6.9.1-10.2zM120.2 177c1-.6 1.9-1.5 2.5-2.4.7-.9 1.2-1.8 1.7-2.8.9-1.9 1.6-3.9 2.1-5.8.8-3 1.3-5.9 1.8-8.9.2.3.4.5.7.8.8 1 1.6 2.1 2.3 3.2 1.5 2.2 2.8 4.5 3.9 6.9.1.2.3.4.6.6.2.1.5.2.7.4.2 1.4.3 2.8.4 4.2l.6 7.5c.3 4.4.7 8.9 1.1 13.3-1.7-.8-3.4-1.8-4.9-2.8-2.1-1.4-4.1-2.9-6.1-4.4-2-1.6-3.9-3.1-5.8-4.9-.9-.9-1.8-1.8-2.9-2.5-.7-.4-1.5-.8-2.4-.9 1.2-.3 2.5-.8 3.7-1.5zm-22.1 19.1c-.6-1.7-1.3-3.3-2.2-4.9-.8-1.5-1.7-3-2.8-4.3.4 0 .8.1 1.2.1.9.1 1.9.1 2.8.2h1.7c1 1.4 1.9 2.7 2.8 4.1-1.2 1.4-2.3 2.9-3.4 4.4 0 .2 0 .2-.1.4zm-9.2-16.5c.6 0 1.1 0 1.7-.1l.8-.1H92s.2.1.3.2c.2.1.4.3.5.4.4.3.7.7 1.1 1.1 1.6 1.8 3.2 3.8 4.6 5.8-1.4-.2-2.8-.5-4.3-.7-1.8-.3-3.7-.6-5.5-1-1.8-.4-3.6-.8-5.4-1.3-1.7-.5-3.4-.9-5-1.5l.1-.1c.8-1 1.7-1.9 2.7-2.6.5-.3 1-.6 1.5-.8 1 .3 1.8.4 2.8.5 1.3.2 2.4.2 3.5.2zm-24.8-12.7c.5-1.2 1-2.4 1.6-3.5.6-1.1 1.3-2.2 2.1-3.2s1.6-2 2.6-2.9c.7-.7 1.5-1.4 2.2-2 .6 4.1 1.4 8.1 2.6 12 .6 2.1 1.3 4.2 2.3 6.2.5 1 1.1 2 1.8 2.9.7.9 1.6 1.8 2.8 2.3.2.1.3.1.5.1-.5.2-1 .4-1.4.7-1.1.6-2 1.6-2.9 2.5-1.8 1.7-3.8 3.3-5.8 4.9s-4 3.1-6.1 4.4c-1.6 1-3.3 2-5 2.8.4-4.4.8-8.9 1.1-13.3l.5-7.5c.2-2 .3-4.1.7-6.1.2-.1.3-.2.4-.3zm-4.6 51.6-38.5.2c0-4.3.1-8.6.2-12.9.1-2.4.2-4.8.4-7.1.2-2.4.4-4.7.6-7.1.4-1.9 1.2-3.8 2.3-5.4 1.1-1.6 2.5-3.1 4.2-4.4.3-.2.5-.4.8-.6 1.6 2.9 3.3 5.7 5 8.5 1.8 2.9 3.6 5.8 5.5 8.7.5.8.9 1.4 1.1 2.2.3.8.5 1.6.6 2.4.4 1.6.6 3.3.8 5l.6 5.1c.2 1.7.3 3.4.5 5.1v-5.1l-.3-5.1c-.1-1.7-.4-3.4-.7-5.1-.2-.9-.4-1.7-.6-2.6-.2-.9-.7-1.7-1.2-2.4-1.9-2.9-3.7-5.8-5.7-8.6-1.8-2.7-3.7-5.4-5.6-8.1 3.1-2.2 6.7-3.7 10.3-5 4-1.4 8.1-2.4 12.2-3.9 3.9-1.6 7.8-3.3 11.6-5.1-.4 2-.7 4-1 6l-1 7.5c-.7 5-1.5 9.9-2.3 14.9 0 .2 0 .4.1.6.2.5.8.7 1.3.5 2.4-1.2 4.5-2.6 6.6-4.1 2-1.6 4-3.2 5.9-4.9 1.8-1.7 3.7-3.3 5.3-5.2 1.5.9 3.2 1.6 4.8 2.2 1.8.6 3.6 1.1 5.4 1.5 1.4.3 2.8.5 4.1.6.6 1.7 1.3 3.3 2.2 4.8.9 1.6 1.8 3.1 3 4.5-.1.1-.2.3-.2.5-.1.4-.1.7-.2 1.1-.1.7-.1 1.4-.1 2.1v4.1c.1 2.7.2 5.4.4 8.1l.3 4.1c.1.9.2 1.8.3 2.6-13-.1-26-.2-39-.2zm39.9.3h-.7v-6.7l-.2-8.1c0-1.4-.1-2.7-.1-4 0-.7 0-1.3.1-2s.1-1.2.5-1.8c.6-1.2 1.4-2.3 2.2-3.4l.8-1.1c.1.1.2.2.4.3.6.3 1.3 0 1.6-.6.6-1.3 1.3-2.6 1.9-3.9 1.2 0 2.3-.1 3.4-.3 1.4-.2 2.8-.6 4.2-1-1.8 2.4-3.5 4.9-5.2 7.4-.9 1.3-1.8 2.6-2.7 4l-.7 1-.3.5c-.1.1-.3.5-.3.7-.2.9-.2 1.7-.3 2.5-.1 3.2.1 6.4.3 9.6.2 2.4.4 4.8.7 7.1l-5.6-.2zm40.2.5-34.3-.4-.1-2.4-.1-4.8c-.1-3.2-.2-6.4-.1-9.5 0-.8.1-1.6.2-2.3.1-.2 0-.2.2-.4l.3-.5.6-1c.8-1.4 1.7-2.7 2.5-4.1 1.6-2.6 3.1-5.1 4.6-7.8 1.4-.4 2.8-.9 4.1-1.5 1.3-.6 2.7-1.2 3.9-2l-4.2 1.2c-1.4.4-2.8.9-4.2 1.3l-4.2 1.2c-1 .3-2.1.5-3.1.8.2-.3.3-.7.5-1 .5-.9.9-1.7 1.5-2.5.5-.8 1.1-1.6 1.6-2 .6-.4 1.4-.9 2.3-1.2.9-.4 1.8-.7 2.7-1 .6-.2 1.2-.4 1.8-.7.8.2 1.7.6 2.4 1.1 1.1.7 1.9 1.6 2.7 2.6 1.7 1.9 3.6 3.6 5.4 5.3 1.9 1.7 3.8 3.3 5.9 4.9 2.1 1.5 4.2 2.9 6.6 4.1.2.1.4.1.6.1.5-.1.9-.6.8-1.1-.8-5-1.6-9.9-2.3-14.9l-1-7.5c-.2-1.4-.4-2.7-.6-4.1 2.6 1.4 5.3 2.7 8.1 4 .8.3 1.6.7 2.5.9.9.2 1.7.4 2.5.6l4.9 1c3.2.6 6.4 1.4 9.5 2.5 2.1.8 4.2 1.7 6.1 2.9-2 2.7-3.9 5.5-5.8 8.3-1.9 2.8-3.8 5.7-5.7 8.6-.4.7-1 1.5-1.2 2.4-.3.9-.5 1.7-.6 2.6-.3 1.7-.6 3.4-.7 5.1l-.3 5.1c0 1.7-.1 3.4 0 5.1.2-1.7.3-3.4.5-5.1l.6-5.1c.2-1.7.5-3.4.9-5l.6-2.4c.2-.8.6-1.4 1.1-2.2 1.8-2.9 3.7-5.8 5.5-8.7 1.8-2.9 3.5-5.8 5.1-8.7.8.5 1.6 1 2.3 1.6 2.4 2 4.2 4.7 5.1 7.8l.3 1.1.2 1.2.3 2.5.5 4.9c.3 3.3.6 6.6.8 9.9l.5 9.9-40.6-.7zm-37.8-21.9c.7 0 1.2.5 1.2 1.2s-.5 1.2-1.2 1.2-1.2-.5-1.2-1.2.5-1.2 1.2-1.2zm9.1-15.2c.7 0 1.2.5 1.2 1.2s-.5 1.2-1.2 1.2-1.2-.5-1.2-1.2.6-1.2 1.2-1.2zM102 216c.7 0 1.2.5 1.2 1.2s-.5 1.2-1.2 1.2-1.2-.5-1.2-1.2.5-1.2 1.2-1.2z" fill="#192e31" stroke-width="none" opacity="1"></path></g><g id="svga-group-head" transform="matrix(1,2.856368900253737e-18,-2.856368900253737e-18,1,0,0)"><g id="svga-group-ears-left-move" transform="matrix(1,0,0,1,0,0)"><g id="svga-group-ears-left" transform="matrix(0.9499998000000001,0,0,0.9499998000000001,2.807998826554865,5.01909623292083)"><path id="SvgjsPath21196" d="M58.8 91.7s-2.6-4.9-5.3-5.7-4.4.7-3.9 6.6 5.2 23.2 10.6 22.2c5.4-1.1.9-19.6-1.4-23.1z" fill="#f0c7b1" stroke-width="none" opacity="1"></path><path id="SvgjsPath21197" d="M59.8 93.6c.3.7.6 1.5.8 2.2.5 1.5 1 3.1 1.4 4.8.4 1.6.7 3.4.9 5.2.1.9.2 1.8.2 2.7 0 .9 0 1.8-.1 2.8-.1.9-.3 1.8-.7 2.5-.3.7-.8 1.2-1.2 1.5-.9.5-1.9.4-2.8-.1-.9-.5-1.8-1.5-2.6-2.7s-1.4-2.5-2-4c-.6-1.4-1.1-3-1.6-4.5s-1-3.1-1.4-4.7-.8-3.3-1.1-5-.5-3.6-.3-5.4c.1-.9.3-1.8.7-2.4s.8-1 1.3-1.2.9-.2 1.4-.1.9.3 1.4.6c.9.6 1.7 1.5 2.5 2.5s1.5 2.2 2.2 3.4c.4.5.7 1.2 1 1.9zm-3.2-5c-.8-.9-1.6-1.6-2.5-1.9-.8-.3-1.7-.4-2.5-.1-.4.2-.7.4-1 .9s-.5 1.1-.6 1.8c-.2 1.4-.2 3.2.1 4.8.2 1.7.5 3.3.9 5 .8 3.2 1.8 6.3 3.1 8.9.6 1.3 1.3 2.5 2 3.5s1.5 1.8 2.3 2.2c.4.2.8.3 1.2.3s.8-.1 1.2-.4c.3-.2.7-.6.9-1.1s.4-1.2.5-1.9c.2-1.4.1-3.1 0-4.8-.1-1.7-.4-3.3-.7-5s-.7-3.3-1.1-4.9c-.4-1.6-1-3.1-1.7-4.3-.6-1-1.3-2.1-2.1-3z" fill="#e1ac8f" stroke-width="none" opacity="1"></path><path id="SvgjsPath21198" d="M52.4 89.6c2.3 1.5 4.4 5.7 5.4 9.9v.1c0 .3-.2.4-.2.1-.4-1.2-.9-1.2-1.5 0-.1.8-.1 1.5.1 2.3.2.7.4 1.4.7 2 .5 1.2 1.2 2.1 1.8 3.1.2.3 0 .7-.2.6-1.4-1.1-3.4-4.7-3-7.8.2-1.5 1-2.3 1.6-1.7-.8-2.1-1.7-4-2.8-5.5-.6-.8-2-2.7-2.7-2.4-1.3.6-.6 4.8-.5 6.6 0 .3-.2.4-.3.1-.7-3.3-.8-9 1.6-7.4z" fill="#d19271" stroke-width="none" opacity="1"></path><path id="SvgjsPath21199" d="M58 108.6c-2.4-.9-4.2-4.8-5.2-9-.6-2.6-1.8-8.6.5-8.5.2 0 .3.5.1.6-2.2 1.1.2 9.2.9 11.1 1 2.6 2.2 4.4 3.8 5.4.1.1 0 .5-.1.4z" fill="#d19271" stroke-width="none" opacity="1"></path></g></g><g id="svga-group-ears-right-move" transform="matrix(1,0,0,1,0,0)"><g id="svga-group-ears-right" transform="matrix(0.9499998000000001,0,0,0.9499998000000001,7.187040466796873,5.020128112658682)"><path id="SvgjsPath21200" d="M141.2 91.7s2.6-4.9 5.3-5.7 4.4.7 3.9 6.6-5.2 23.2-10.6 22.2c-5.4-1.1-.9-19.6 1.4-23.1z" fill="#f0c7b1" stroke-width="none" opacity="1"></path><path id="SvgjsPath21201" d="M141.1 91.7c.7-1.2 1.4-2.4 2.2-3.4s1.6-1.9 2.5-2.5c.5-.3.9-.5 1.4-.6s.9-.1 1.4.1.9.5 1.3 1.2c.4.6.6 1.5.7 2.4.2 1.8 0 3.7-.3 5.4-.3 1.7-.7 3.4-1.1 5-.4 1.6-.9 3.2-1.4 4.7s-1 3.1-1.6 4.5-1.3 2.8-2 4c-.8 1.2-1.6 2.2-2.6 2.7-.9.5-1.9.7-2.8.1-.5-.3-.9-.8-1.2-1.5s-.5-1.6-.7-2.5c-.1-.9-.1-1.8-.1-2.8 0-.9.1-1.8.2-2.7.2-1.8.5-3.5.9-5.2s.9-3.2 1.4-4.8c.3-.8.5-1.5.8-2.2.4-.7.7-1.4 1-1.9zm.1.1c-.7 1.2-1.2 2.7-1.7 4.3-.4 1.6-.8 3.2-1.1 4.9-.3 1.7-.5 3.3-.7 5-.1 1.6-.2 3.3 0 4.8.1.7.3 1.4.5 1.9s.6.9.9 1.1c.3.3.8.3 1.2.4.4 0 .8-.1 1.2-.3.8-.4 1.6-1.2 2.3-2.2s1.4-2.2 2-3.5c1.3-2.6 2.3-5.7 3.1-8.9.4-1.6.7-3.3.9-5 .2-1.6.3-3.4.1-4.8-.1-.7-.3-1.3-.6-1.8-.3-.4-.6-.7-1-.9-.8-.3-1.7-.2-2.5.1-.8.4-1.7 1-2.5 1.9-.7.7-1.4 1.8-2.1 3z" fill="#e1ac8f" stroke-width="none" opacity="1"></path><path id="SvgjsPath21202" d="M147.6 89.6c-2.3 1.5-4.4 5.7-5.4 9.9v.1c0 .3.2.4.2.1.4-1.2.9-1.2 1.5 0 .1.8.1 1.5-.1 2.3-.2.7-.4 1.4-.7 2-.5 1.2-1.2 2.1-1.8 3.1-.2.3 0 .7.2.6 1.4-1.1 3.4-4.7 3-7.8-.2-1.5-1-2.3-1.6-1.7.8-2.1 1.7-4 2.8-5.5.6-.8 2-2.7 2.7-2.4 1.3.6.6 4.8.5 6.6 0 .3.2.4.3.1.7-3.3.8-9-1.6-7.4z" fill="#d19271" stroke-width="none" opacity="1"></path><path id="SvgjsPath21203" d="M142 108.6c2.4-.9 4.2-4.8 5.2-9 .6-2.5 1.8-8.5-.5-8.5-.2 0-.3.5-.1.6 2.2 1.1-.2 9.2-.9 11.1-1 2.6-2.2 4.4-3.8 5.4-.1.1 0 .5.1.4z" fill="#d19271" stroke-width="none" opacity="1"></path></g></g><g id="svga-group-faceshape-wrap"><g id="svga-group-faceshape-single"><path id="SvgjsPath21284" d="M143.6 82c-1.2-30.1-20.8-46.6-43.6-46.6S57.6 51.9 56.4 82c0 .9-.1 1.9-.1 2.8 0 31.9 20.2 68.9 43.7 68.9s43.7-37 43.7-68.9c0-1 0-1.9-.1-2.8z" fill="#f0c7b1" stroke-width="none" opacity="1"></path><path id="SvgjsPath21285" d="M100 153.7c23.5 0 43.7-37 43.7-68.9 0-1 0-1.9-.1-2.8-1.2-30.1-20.8-46.6-43.6-46.6S57.6 51.9 56.4 82c0 .9-.1 1.9-.1 2.8 0 31.9 20.2 68.9 43.7 68.9zm-33.9-33.2c-1.4-3-2.7-6.1-3.8-9.2s-2-6.3-2.8-9.6c-3.1-12.9-3.4-27 1.8-39.4l1.1-2.2c.4-.7.7-1.5 1.1-2.2l1.3-2.1.7-1.1c.2-.3.5-.7.8-1 1-1.3 2-2.6 3.2-3.8.6-.6 1.1-1.2 1.7-1.8l1.9-1.6c5.1-4.2 11.2-6.8 17.5-8.1 1.6-.4 3.2-.5 4.8-.7.8-.1 1.6-.1 2.4-.1l2.4-.1c3.2.1 6.4.4 9.6 1.1.8.2 1.6.3 2.3.5l2.3.7 1.2.4 1.1.5 2.2.9c.7.3 1.4.8 2.1 1.1.7.4 1.5.7 2.1 1.2 1.3.9 2.8 1.7 4 2.8 5.1 4.1 9.3 9.4 12 15.5s4.1 12.8 4.4 19.6c.3 6.7-.5 13.5-2.2 20-1.6 6.5-4 12.8-7 18.8s-6.6 11.5-10.7 16.5c-2.1 2.5-4.4 4.8-6.8 6.8-2.5 2-5.1 3.7-8 4.9-2.8 1.2-5.8 1.9-8.8 1.9s-6-.7-8.8-1.9c-5.7-2.4-10.6-6.8-14.7-11.9-4.2-4.7-7.6-10.4-10.4-16.4z" fill="#c27b55" stroke-width="none" opacity="1"></path></g></g><g id="svga-group-mouth-single-move" transform="matrix(1,0,0,1,0.5,3)"><g id="svga-group-mouth-single" transform="matrix(0.7499990000000003,0,0,0.7499990000000003,25.339393883415198,32.093990909019425)"><path id="SvgjsPath21131" d="M88.06 127.9c.58.94 1.36 1.56 2.23 2.23.18.14.49.11.68 0 4.46-2.65 9.65-3.36 14.58-1.56 2.37.87 7.55 2.77 8.5-1.12.11-.43-.44-.79-.77-.45-2.03 2.13-4.29 1.42-6.75.47-1.98-.77-4-1.25-6.13-1.31-1.98-.06-4.01.21-5.89.81-.97.31-1.92.71-2.83 1.18-1.34.71-2.04.16-3.17-.69-.28-.2-.61.18-.45.44z" fill="#d19271" stroke-width="none" opacity="1"></path><path id="SvgjsPath21132" d="M94.08 134.86c.84 1.86 3.1 1.44 4.79 1.35 2.83-.15 5.83-.07 8.61-.63.44-.09.3-.71-.1-.74-2.04-.17-4.15.11-6.19.23-1.92.11-5.14.94-6.74-.48-.2-.2-.47.03-.37.27z" fill="#d99e80" stroke-width="none" opacity="1"></path><path id="SvgjsPath21133" d="M107.16 122.57c-1.07-1.06-3.02-1.9-4.5-2.13a.361.361 0 0 0-.25.06c-.14.03-.26.12-.31.31-.24.97-.77 1.95-1.91 1.97-1.04.02-1.54-.74-2.15-1.44-.01-.01-.02-.01-.02-.01-.02-.2-.16-.38-.41-.37-1.35.07-2.86.7-3.67 1.82-.13.18.09.49.31.4.54-.22 1.05-.51 1.58-.75.58-.26 1.17-.42 1.78-.59.17 1.23 1.7 2.04 2.85 1.93 1.23-.12 2.41-1.2 2.52-2.45.58.28 1.18.52 1.76.8.7.34 1.37.77 2.12 1.01.3.08.53-.34.3-.56z" fill="#e0ab90" stroke-width="none" opacity="1"></path><path id="SvgjsPath21134" d="M112.9 126.33c.49.43 1.02.73 1.3 1.35.13.29.2.59.24.9.04.32-.04.63.04.95.08.32.51.52.79.32.84-.57.79-1.97.42-2.8-.39-.89-1.31-1.87-2.37-1.74-.47.06-.85.64-.42 1.02z" fill="#e8b9a0" stroke-width="none" opacity="1"></path><path id="SvgjsPath21135" d="M87.44 127.13c-.26.46-.64.98-.67 1.51-.01.19.24.34.4.23.44-.31.68-.9.93-1.36.22-.43-.42-.81-.66-.38z" fill="#e8b9a0" stroke-width="none" opacity="1"></path><path id="SvgjsPath21136" d="M97 135.04c2.93.55 6.09.02 9.06-.08 1.78-.06 4.18-.03 4.6-2.2.05-.27-.24-.45-.45-.26-1.82 1.62-4.85 1.41-7.16 1.57-2.03.14-4.1.15-6.05.77-.1.01-.12.17 0 .2z" fill="#f8d5c3" stroke-width="none" opacity="1"></path><path id="SvgjsPath21137" d="M90.27 128.16c4.08-.61 7.99-3.01 12.23-2.02 3.22.75 5.9 3.1 9.31 1.79.27-.11.17-.49-.12-.44-4.15.71-7.42-2.97-11.56-2.9-3.33.06-7.16 1.58-9.99 3.24-.19.12-.06.36.13.33z" fill="#f8d5c3" stroke-width="none" opacity="1"></path></g></g><g id="svga-group-eyes-left-move" transform="matrix(1,0,0,1,1,0)"><g id="svga-group-eyes-left" transform="matrix(0.9499998000000001,0,0,0.9499998000000001,3.9258392964340203,4.73001884370575)"><g id="svga-group-eyesback-left"><path id="SvgjsPath21242" d="M87.1 98.5s.3.9 1.3.7c1-.2 1.1-2.3 1-2.9-.1-.6-.5-3-1.7-4.2-1.2-1.2-3.1-1.7-3.1-1.7l-13.8.6s-1.1 3.4.3 5c1.3 1.7 4 3.3 6.9 3.3 2.9.1 6.7-.1 9.1-.8z" fill="#ffffff" stroke-width="none" opacity="1"></path></g><g id="svga-group-eyesiriswrapper-left" transform="matrix(1,0,0,1,0,0)"><g id="svga-group-eyesiriscontrol-left" transform="matrix(1,0,0,1,0,0)"><g id="svga-group-eyesiris-left"><path id="SvgjsPath21382" d="M80.1 88.4c2.8 0 5.2 2.3 5.2 5.2s-2.3 5.2-5.2 5.2-5.2-2.3-5.2-5.2 2.3-5.2 5.2-5.2z" fill="#633e17" stroke-width="none" opacity="1"></path><path id="SvgjsPath21383" d="M80.1 90.8c1.5 0 2.8 1.2 2.8 2.8s-1.2 2.8-2.8 2.8-2.8-1.2-2.8-2.8 1.2-2.8 2.8-2.8z" fill="#000000" stroke-width="none" opacity="1"></path><path id="SvgjsPath21384" d="m79.4 91.3-.6-.6c-.2-.2-.4-.3-.7-.3-.2 0-.5.1-.7.3-.2.2-.3.4-.3.7s.1.5.3.7l.6.6c.2.2.4.3.7.3.2 0 .5-.1.7-.3.3-.5.4-1.1 0-1.4zm2.5 4.7c.9 0 .9-1.4 0-1.4s-.8 1.4 0 1.4z" fill="#ffffff" stroke-width="none" opacity="1"></path></g></g></g><g id="svga-group-eyesfront-left"><path id="SvgjsPath21250" d="M69.4 94.6c0 6.4 4.7 11.5 10.6 11.5s10.6-5.2 10.6-11.5S85.9 83.1 80 83.1s-10.6 5.1-10.6 11.5zM71 96c-1.3-1.7-.3-5-.3-5l13.8-.7s1.9.5 3.1 1.7 1.6 3.6 1.7 4.2 0 2.7-1 2.9c-1 .2-1.3-.7-1.3-.7-2.4.8-6.2 1-9.2.9S72.4 97.7 71 96z" fill="#f0c7b1" stroke-width="none" opacity="1"></path><path id="SvgjsPath21251" d="M66.8 92.4c1.1-.4 2.2-.6 3.3-.8-1.6 2.6 1.1 6.1 3.5 7.2 3.8 1.8 9.4 1.4 13.4 0v.1c.6.6 1.6 1.1 2.3.3.7-.8.4-2.6.3-3.5-.3-2-1.5-4.2-3.3-5.1 1 0 1.9.1 2.8.5.6.3.7.5 1.4.7h.1c1-3.5-8-2.3-9.4-2.2-3.1.1-6.1.4-9.2.6-1.9.1-4.2 0-5.5 1.6-.3.2-.1.7.3.6zm4.3-.9c2.7-.3 5.4-.3 8.1-.5 1.9-.1 3.7-.2 5.6-.3 1.7.5 3 1.6 3.6 3.3.4 1.1 1.4 5.3-1 4.6.1 0 .2-.1.3-.1.3-.1.2-.5-.1-.5-3.6.7-7.3 1.5-11 .7-1.8-.4-3.6-1.1-4.7-2.7-1.2-1.5-1-2.8-.8-4.5z" fill="#535353" stroke-width="none" opacity="1"></path></g></g></g><g id="svga-group-eyes-right-move" transform="matrix(1,0,0,1,-1,0)"><g id="svga-group-eyes-right" transform="matrix(0.9499998000000001,0,0,0.9499998000000001,6.0770375145347515,4.73001884370575)"><g id="svga-group-eyesback-right"><path id="SvgjsPath21243" d="M112.9 98.5s-.3.9-1.3.7c-1-.2-1.1-2.3-1-2.9.1-.6.5-3 1.7-4.2 1.2-1.2 3.1-1.7 3.1-1.7l13.8.7s1.1 3.4-.3 5c-1.3 1.7-4 3.3-6.9 3.3-2.9 0-6.7-.2-9.1-.9z" fill="#ffffff" stroke-width="none" opacity="1"></path></g><g id="svga-group-eyesiriswrapper-right" transform="matrix(1,0,0,1,0,0)"><g id="svga-group-eyesiriscontrol-right" transform="matrix(1,0,0,1,0,0)"><g id="svga-group-eyesiris-right"><path id="SvgjsPath21385" d="M119.9 88.4c2.8 0 5.2 2.3 5.2 5.2s-2.3 5.2-5.2 5.2-5.2-2.3-5.2-5.2 2.4-5.2 5.2-5.2z" fill="#633e17" stroke-width="none" opacity="1"></path><path id="SvgjsPath21386" d="M119.9 90.8c1.5 0 2.8 1.2 2.8 2.8s-1.2 2.8-2.8 2.8-2.8-1.2-2.8-2.8 1.3-2.8 2.8-2.8z" fill="#000000" stroke-width="none" opacity="1"></path><path id="SvgjsPath21387" d="m119.3 91.3-.6-.6c-.2-.2-.4-.3-.7-.3-.2 0-.5.1-.7.3-.2.2-.3.4-.3.7s.1.5.3.7l.6.6c.2.2.4.3.7.3.2 0 .5-.1.7-.3.3-.5.4-1.1 0-1.4zm2.5 4.7c.9 0 .9-1.4 0-1.4s-.9 1.4 0 1.4z" fill="#ffffff" stroke-width="none" opacity="1"></path></g></g></g><g id="svga-group-eyesfront-right"><path id="SvgjsPath21252" d="M120 83.1c-5.9 0-10.6 5.2-10.6 11.5s4.7 11.5 10.6 11.5 10.6-5.2 10.6-11.5-4.8-11.5-10.6-11.5zm2 16.3c-2.9.1-6.8-.2-9.2-.9 0 0-.3.9-1.3.7-1-.2-1.1-2.3-1-2.9s.5-3 1.7-4.2 3.1-1.7 3.1-1.7l13.8.7s1.1 3.4-.3 5c-1.2 1.6-3.8 3.2-6.8 3.3z" fill="#f0c7b1" stroke-width="none" opacity="1"></path><path id="SvgjsPath21255" d="M133.6 91.7c-1.3-1.6-3.6-1.4-5.5-1.6-3.1-.2-6.1-.5-9.2-.6-1.4-.1-10.4-1.3-9.4 2.2h.1c.6-.2.7-.3 1.4-.7.9-.5 1.8-.6 2.8-.5-1.8.9-3 3-3.3 5.1-.1.9-.5 2.7.3 3.5.7.8 1.7.3 2.3-.3v-.1c4 1.4 9.5 1.8 13.4 0 2.3-1.1 5.1-4.6 3.5-7.2 1.1.2 2.2.4 3.3.8.3.2.5-.3.3-.6zm-5.4 4.3c-1.1 1.5-2.9 2.3-4.7 2.7-3.7.8-7.4 0-11-.7-.3-.1-.4.4-.1.5.1 0 .2.1.3.1-2.4.7-1.4-3.5-1-4.6.7-1.7 1.9-2.9 3.6-3.3 1.9.1 3.7.2 5.6.3 2.7.1 5.4.2 8.1.5.1 1.7.3 3-.8 4.5z" fill="#535353" stroke-width="none" opacity="1"></path></g></g></g><g id="svga-group-facehighlight-single"></g><g id="svga-group-eyebrows-left-move" transform="matrix(1,0,0,1,2,0)"><g id="svga-group-eyebrows-left-rotate" transform="matrix(1,0,0,1,0,0)"><g id="svga-group-eyebrows-left" transform="matrix(1.1000004000000003,0,0,1.1000004000000003,-7.795896051623558,-8.122397678059414)"><path id="SvgjsPath21159" d="M67 82.5c.1-.3.3-.6.5-.8.1-.2.3-.5.5-.7.2-.2.4-.4.7-.6.5-.9 1.7-1.6 2.5-2.1.9-.5 1.8-.9 2.9-.9 1-.2 2.1-.2 2.9.2.4 0 .7.1 1 .3 1.1-.1 2.3.2 3.3.4 1.4.3 2.8.6 4.1 1.2 1.4 0 2.8.1 4.1.5h.2c.1 0 .2.1.2.1h.1c.1 0 .2.1.3.2.1.1 0 .3 0 .4v.1c0 .2 0 .4-.1.6 0 .6-.1 1.1-.5 1.6 0 .1 0 .2-.1.3-.1.5-.2 1.1-.7 1.4-.2.2-.5.3-.8.3-.1 0-.2 0-.3-.1h-.6c-.6.2-1.4 0-1.9-.1-.6-.1-1.2-.3-1.7-.6-1.8-.3-3.5-.8-5.3-1.2-1.6-.4-4-.4-5.4-1.3-.7.1-1.3.2-2 .2-.3 0-.7.1-1.1 0-.2 0-.5 0-.7-.2 0 0-.1 0-.1-.1h-.1l-.4.4c-.3.3-.7.7-1.2.8-.1.2-.3 0-.3-.3z" fill="#4e454f" stroke-width="none" opacity="1"></path><path id="SvgjsPath21160" d="M87.7 83c-.1-.6-.2-1.2-.4-1.7 0-.2.2-.3.3-.1.7 1 .9 2.8.2 3.9-.1.2-.3.1-.3-.1.1-.8.2-1.4.2-2zm-3.4-3.2c1.3.8 2.1 2.6 2.1 4 0 .2-.3.3-.3.1-.2-.7-.4-1.3-.7-1.9-.3-.7-.9-1.2-1.3-1.9-.3-.2 0-.4.2-.3zm-3.3-.7c2.2.8 3.8 3.2 4.2 5.3 0 .2-.2.2-.3.1-.4-1-.9-2-1.7-2.8-.7-.9-1.6-1.4-2.5-2.2-.2-.1.1-.5.3-.4zm-4.9-.8c2.4.6 4.8 2.6 5.8 4.7.1.2-.3.4-.4.2-.8-1-1.6-1.9-2.6-2.7-.9-.7-2-1.2-3-1.8-.2-.1-.1-.4.2-.4zM67.4 82c1.6-1.8 3.8-4.3 6.5-4 .2 0 .2.3 0 .3-2.6.2-4.3 2.5-6.3 3.9-.2.1-.4-.1-.2-.2z" fill="#5e5c5e" stroke-width="none" opacity="1"></path><path id="SvgjsPath21161" d="M90.9 80.6c-.1-.3-.5-.3-.6 0-.3 1.1-.3 2.4-1.2 3.3-.6.7-1.5.8-2.4.7.3-1.5.2-3.7-.8-4.9-.2-.2-.5-.1-.4.2 0 .8.4 1.6.5 2.4.1.8.2 1.5.2 2.3-.1 0-.2 0-.3-.1-.3-2-1.3-4.1-2.8-5.5 2.3.5 4.6.9 6.9 1.1.1 0 .2-.2.1-.2-2.6-.9-5.3-1.4-8-2-2.4-.5-5.1-1.4-7.6-1.5-2.1-.1-3.6.9-5 2.2-1.5 1.4-3.1 3.1-4.1 4.9l-.2.2c-.1.1-.2.3-.1.4 0 0 0 .1-.1.1-.2.4.3.7.6.4.1 0 .2 0 .3-.1 1.4-.7 2.5-1.4 4.1-1.6 1.3-.2 2.7-.1 4 .1 2.9.4 5.6 1.3 8.3 2.1 2.1.6 4.9 1.7 6.9.2 1.7-1 1.9-3.1 1.7-4.7zm-13.4 1.3c-.5-.1-1.1-.2-1.7-.3.1-1.1-.3-2.3-.8-3.3.7.6 1.4 1.2 2 1.9.6.6.9 1.4 1.5 2-.4-.1-.7-.2-1-.3zM70 79.5c1.2-1.1 2.5-1.7 4-1.9.2.8.6 1.6.7 2.4l.3 1.5c-.3 0-.7-.1-1-.1-.5-.9-1.3-1.8-2.3-2.1-.2-.1-.3.2-.2.4.4.4.9.8 1.3 1.2.1.2.2.3.4.5-1.9-.1-3.8.1-5.4.8.6-1 1.3-1.9 2.2-2.7zm15.2 4.8c-.2-.1-.4-.1-.6-.2-.4-.1-.9-.3-1.3-.4-.8-1.8-2.1-3.6-3.7-4.8-.2-.1-.4.1-.3.2 1.2 1.4 2.2 2.9 3.3 4.4-1.1-.4-2.2-.7-3.2-1.1-.2-1.1-1.2-2.2-1.9-3-.7-.7-1.5-1.4-2.4-1.9.4 0 .8.1 1.3.1 2 .3 4 .8 6 1.2v.1c.7 1.1 1.5 2.2 2.1 3.3.2.7.4 1.4.7 2.1z" fill="#3e3140" stroke-width="none" opacity="1"></path></g></g></g><g id="svga-group-eyebrows-right-move" transform="matrix(1,0,0,1,-2,0)"><g id="svga-group-eyebrows-right-rotate" transform="matrix(1,0,0,1,0,0)"><g id="svga-group-eyebrows-right" transform="matrix(1.1000004000000003,0,0,1.1000004000000003,-12.187345807293752,-8.12239844100192)"><path id="SvgjsPath21162" d="M133 82.5c-.1-.3-.3-.6-.5-.8-.1-.2-.3-.5-.5-.7-.2-.2-.4-.4-.7-.6-.5-.9-1.7-1.6-2.5-2.1-.9-.5-1.8-.9-2.9-.9-1-.2-2.1-.2-2.9.2-.4 0-.7.1-1 .3-1.1-.1-2.3.2-3.3.4-1.4.3-2.8.6-4.1 1.2-1.4 0-2.8.1-4.1.5h-.2c-.1 0-.2.1-.2.1h-.1c-.1 0-.2.1-.3.2-.1.1 0 .3 0 .4v.1c0 .2 0 .4.1.6 0 .6.1 1.1.5 1.6 0 .1 0 .2.1.3.1.5.2 1.1.7 1.4.2.2.5.3.8.3.1 0 .2 0 .3-.1h.6c.6.2 1.4 0 1.9-.1.6-.1 1.2-.3 1.7-.6 1.8-.3 3.5-.8 5.3-1.2 1.6-.4 4-.4 5.4-1.3.7.1 1.4.2 2 .2.3 0 .7.1 1.1 0 .2 0 .5 0 .7-.2 0 0 .1 0 .1-.1h.1l.4.4c.3.3.7.7 1.2.8.1.2.3 0 .3-.3z" fill="#4e454f" stroke-width="none" opacity="1"></path><path id="SvgjsPath21163" d="M112.3 83c.1-.6.2-1.2.4-1.7 0-.2-.2-.3-.3-.1-.7 1-.9 2.8-.2 3.9.1.2.3.1.3-.1-.1-.8-.2-1.4-.2-2zm3.4-3.2c-1.3.8-2.1 2.6-2.1 4 0 .2.3.3.3.1.2-.7.4-1.3.7-1.9.3-.7.9-1.2 1.3-1.9.3-.2 0-.4-.2-.3zm3.3-.7c-2.2.8-3.8 3.2-4.2 5.3 0 .2.2.2.3.1.4-1 .9-2 1.7-2.8.7-.9 1.6-1.4 2.5-2.2.2-.1-.1-.5-.3-.4zm4.9-.8c-2.4.6-4.8 2.6-5.8 4.7-.1.2.3.4.4.2.8-1 1.6-1.9 2.6-2.7.9-.7 2-1.2 3-1.8.2-.1.1-.4-.2-.4zm8.7 3.7c-1.6-1.8-3.8-4.3-6.5-4-.2 0-.2.3 0 .3 2.6.2 4.3 2.5 6.3 3.9.2.1.4-.1.2-.2z" fill="#5e5c5e" stroke-width="none" opacity="1"></path><path id="SvgjsPath21164" d="M110.6 85.3c2 1.5 4.8.4 6.9-.2 2.8-.8 5.5-1.8 8.3-2.1 1.3-.2 2.7-.3 4-.1 1.6.2 2.7.9 4.1 1.6.1.1.2.1.3.1.3.3.8 0 .6-.4 0 0 0-.1-.1-.1 0-.1 0-.3-.1-.4l-.2-.2c-1-1.8-2.6-3.5-4.1-4.9-1.4-1.3-2.9-2.3-5-2.2-2.5.1-5.2 1-7.6 1.5-2.7.6-5.4 1.1-8 2-.2.1-.1.2.1.2 2.3-.2 4.6-.6 6.9-1.1-1.5 1.4-2.5 3.5-2.8 5.5-.1 0-.2 0-.3.1.1-.8.1-1.5.2-2.3.1-.8.5-1.6.5-2.4 0-.2-.3-.3-.4-.2-1 1.2-1.1 3.4-.8 4.9-.9.1-1.7 0-2.4-.7-.8-.9-.9-2.2-1.2-3.4-.1-.3-.5-.3-.6 0 0 1.7.2 3.8 1.7 4.8zm10.9-3.2c.5-.6.9-1.4 1.5-2 .6-.7 1.3-1.3 2-1.9-.5 1-.9 2.3-.8 3.3-.6.1-1.2.2-1.7.3-.3.2-.6.3-1 .3zm10.8 0c-1.6-.7-3.6-.9-5.4-.8.1-.2.2-.3.4-.5.4-.5.9-.8 1.3-1.2.1-.1.1-.4-.2-.4-1 .3-1.8 1.2-2.3 2.1-.3 0-.7.1-1 .1l.3-1.5c.2-.8.5-1.6.7-2.4 1.4.2 2.7.8 4 1.9.8.9 1.5 1.8 2.2 2.7zm-16.7.2c.6-1.2 1.4-2.2 2.1-3.3v-.1c2-.4 4-.9 6-1.2.4-.1.9-.1 1.3-.1-.9.5-1.7 1.2-2.4 1.9-.7.8-1.7 1.9-1.9 3-1.1.3-2.2.7-3.2 1.1 1-1.5 2.1-2.9 3.3-4.4.1-.2-.1-.3-.3-.2-1.6 1.2-2.9 3-3.7 4.8-.4.1-.9.3-1.3.4-.2.1-.4.1-.6.2.2-.8.4-1.5.7-2.1z" fill="#3e3140" stroke-width="none" opacity="1"></path></g></g></g><g id="svga-group-beardwrap"><g id="svga-group-beard-single-move" transform="matrix(1,0,0,1,0,0)"><g id="svga-group-beard-single"></g></g></g><g id="svga-group-mustache-single-move" transform="matrix(1,0,0,1,0,0)"><g id="svga-group-mustache-single"></g></g><g id="svga-group-nose-single-move" transform="matrix(1,0,0,1,0,4)"><g id="svga-group-nose-single" transform="matrix(0.9499998000000001,0,0,0.9499998000000001,4.996426159330738,5.247287758476247)"><path id="SvgjsPath21417" d="M105.53 106.38c.26.82 3.73 4.55 3.79 6.57.06 2.02-2.08 4.04-4.74 2.21 0 0-2.46 1.89-4.74 1.64s-3.54-1.83-3.54-1.83-2.15.82-3.98.19c-1.83-.63-2.27-2.84-.95-4.86 1.33-2.02 3.6-5.49 4.1-7.45.52-1.96 7.09-5.62 10.06 3.53z" fill="#f0c7b1" stroke-width="none" opacity="1"></path><path id="SvgjsPath21418" d="M105.49 105.94c-.16-.2-.5.06-.36.28.93 1.43 1.95 2.83 2.81 4.31.59 1 1.18 2.25.77 3.46-.67 1.98-2.42 1.87-3.83 1.11.53-.68.84-1.48.77-2.36-.02-.22-.32-.41-.48-.2-1.4 1.76-2.29 3.6-4.89 3.7-2.75.11-4.52-2.12-5.25-4.51-.06-.21-.35-.16-.36.05-.07 1.1.27 2.16.87 3.06-.4.07-.8.15-1.2.17-1.28.08-1.49-.02-2.33-1.09-.89-1.12-.89-1.4-.4-2.65.23-.58.58-1.08.91-1.61 1.08-1.68 2.04-3.39 2.75-5.26 1.43-3.73 2.05-7.86 1.36-11.81-.03-.17-.29-.12-.29.04-.01 3.2-.21 6.36-1.15 9.44-.97 3.19-2.81 5.59-4.34 8.46-.8 1.49-1.13 3.46.23 4.74 1.35 1.28 3.43.87 5.01.27.94 1.02 2.24 1.72 3.61 1.85 1.55.14 3.58-.61 4.83-1.88 1.45 1.61 4.23.86 4.96-1.19 1.09-3.12-2.3-6.24-4-8.38z" fill="#c27b55" stroke-width="none" opacity="1"></path><path id="SvgjsPath21419" d="M102.24 108.78c-.89-.83-2.3-1.07-3.3-.3-.36.28-.58.63-.67 1-.17.06-.34.16-.48.3-.76.74-.44 1.9.21 2.59.55.59 1.45.87 2.24.83.97-.05 1.85-.51 2.39-1.33.63-.95.44-2.31-.39-3.09z" fill="#f8d5c3" stroke-width="none" opacity="1"></path></g></g><g id="svga-group-hair-front"></g><g id="svga-group-glasses-single-move" transform="matrix(1,0,0,1,0,0)"><g id="svga-group-glasses-single"><path id="SvgjsPath21316" d="M64.17 89.45c-1.04.99-.67 5.4.13 9.31.81 3.91 1.35 6.41 3.85 7.42 2.5 1.01 9.24 2.02 16.32 1.28s7.42-2.63 8.36-3.98c.94-1.35 3.58-8.9 3.71-10.79.13-1.89-3.1-2.63-4.99-2.97-1.89-.34-11.94-1.15-17-1.48-5.05-.34-9.1-.01-10.38 1.21z" fill="url(#SvgjsLinearGradient21317)" opacity="1"></path><path id="SvgjsPath21321" d="M135.83 89.45c1.04.99.67 5.4-.13 9.31s-1.35 6.41-3.85 7.42c-2.5 1.01-9.24 2.02-16.32 1.28s-7.42-2.63-8.36-3.98c-.94-1.35-3.58-8.9-3.71-10.79-.13-1.89 3.1-2.63 4.99-2.97 1.89-.34 11.94-1.15 17-1.48 5.05-.34 9.1-.01 10.38 1.21z" fill="url(#SvgjsLinearGradient21322)" opacity="1"></path><path id="SvgjsPath21326" d="M138.52 88.47c-.68-.54-3.81-.7-7.72-.9-3.75-.19-15.06.05-21.72 1.19-3.82.65-6.9 1.41-8.32 1.41h-1.5c-1.43 0-4.51-.75-8.32-1.41-6.66-1.14-17.97-1.38-21.72-1.19-3.91.2-7.04.36-7.72.9-.68.54 0 4.01.27 4.75.27.75.61.61.95 1.09.34.48.82 5.98 1.7 8.76.88 2.79 2.11 4.55 9.71 5.16 7.61.61 14.26-.34 16.78-1.49 2.51-1.15 4.35-6.11 4.82-7.68.48-1.56 1.02-3.26 1.43-4.08.41-.82 2.11-1.4 2.11-1.4h1.5s1.7.58 2.11 1.4c.41.82.95 2.51 1.43 4.08.48 1.56 2.31 6.52 4.82 7.68 2.51 1.15 9.17 2.11 16.78 1.49 7.61-.61 8.83-2.38 9.71-5.16.88-2.79 1.36-8.29 1.7-8.76.34-.48.68-.34.95-1.09.25-.74.93-4.2.25-4.75zm-43.28 6.39c-.95 4.35-3.04 9.19-4.51 10.37-2.22 1.79-11.4 2.38-16.55 1.79-5.15-.59-7.58-1.35-8.61-4.88-1.03-3.53-1.52-9.01-1.22-10.63.29-1.62 1.78-2.57 5.75-2.57s7.84.05 12.84.34c5 .29 8.82 1.08 10.73 1.96s1.89 2.15 1.57 3.62zm39.18 7.28c-1.03 3.53-3.46 4.29-8.61 4.88-5.15.59-14.33 0-16.55-1.79-1.47-1.18-3.55-6.02-4.51-10.37-.32-1.47-.35-2.72 1.56-3.61s5.73-1.67 10.73-1.96c5-.29 8.87-.34 12.84-.34s5.46.95 5.75 2.57c.31 1.61-.18 7.09-1.21 10.62z" fill="#26120b" stroke-width="none" opacity="1"></path><path id="SvgjsPath21327" d="M138.5 88.49c-.61-.36-1.36-.4-2.06-.5-.71-.08-1.43-.13-2.14-.18-1.43-.08-2.87-.16-4.3-.21-2.87-.05-5.74.03-8.61.15-2.87.14-5.73.33-8.58.65-2.85.3-5.66.88-8.48 1.44-1.4.26-2.84.6-4.3.54-1.46.09-2.91-.26-4.31-.51-2.82-.56-5.63-1.14-8.48-1.43-5.7-.6-11.45-.86-17.19-.79-1.43.05-2.87.12-4.3.21-.72.05-1.43.1-2.14.18-.7.1-1.45.15-2.04.48-.24.19-.26.59-.29.93-.02.35 0 .71.04 1.06a15 15 0 0 0 .36 2.11c.09.34.17.7.37.97.18.26.6.37.78.75.24.72.3 1.42.43 2.14.22 1.42.43 2.84.71 4.25.28 1.4.6 2.82 1.3 4.05.7 1.24 2.01 1.97 3.35 2.39 1.35.43 2.78.64 4.2.8 2.85.28 5.72.36 8.58.22 2.85-.15 5.73-.45 8.44-1.27.68-.21 1.32-.47 1.83-.93.52-.45.96-1 1.36-1.58.79-1.17 1.4-2.47 1.92-3.79.53-1.32.87-2.71 1.36-4.08.12-.34.24-.68.38-1.02.14-.32.26-.71.56-1.01.58-.56 1.25-.85 1.95-1.12l.03-.01h1.58l.03.01c.61.23 1.2.49 1.73.92.26.19.52.54.62.83.13.3.25.59.36.89.44 1.19.79 2.41 1.17 3.59.41 1.17.9 2.33 1.48 3.42.59 1.09 1.27 2.14 2.17 2.94.89.77 2.17 1.04 3.36 1.33 1.21.27 2.45.46 3.69.6 2.48.28 4.99.37 7.49.32 2.5-.08 5.02-.22 7.45-.76 1.21-.28 2.41-.7 3.37-1.46.98-.77 1.48-1.96 1.84-3.15.69-2.4.97-4.91 1.39-7.39.06-.31.11-.62.2-.93.07-.35.39-.54.63-.71.49-.38.54-1.08.69-1.67.12-.61.23-1.23.28-1.86.01-.61.12-1.32-.26-1.81zm.03-.03c.24.24.26.59.3.89.02.32.01.63-.01.95-.04.63-.14 1.25-.26 1.87-.06.31-.13.62-.22.92-.09.3-.22.62-.5.82-.25.18-.54.36-.58.66-.08.3-.13.61-.19.92-.4 2.48-.65 4.98-1.32 7.42-.35 1.2-.85 2.45-1.88 3.27-1 .81-2.24 1.26-3.46 1.55-2.47.58-4.99.75-7.51.86-2.52.09-5.04.03-7.56-.23-1.26-.13-2.51-.3-3.75-.58-.62-.15-1.24-.3-1.84-.51-.6-.2-1.23-.49-1.73-.93-.98-.88-1.68-1.97-2.28-3.09-.59-1.13-1.09-2.29-1.5-3.49-.4-1.21-.73-2.41-1.17-3.58-.11-.29-.22-.58-.34-.86-.12-.3-.25-.46-.49-.66-.45-.36-1.02-.63-1.58-.84l.08.01h-1.5l.08-.01c-.64.24-1.31.55-1.76 1-.22.2-.32.53-.47.86-.13.33-.25.66-.37 1-.48 1.34-.82 2.74-1.37 4.09-.54 1.34-1.15 2.67-1.98 3.88-.41.6-.87 1.18-1.44 1.67-.57.51-1.3.8-1.98 1.01-2.8.83-5.69 1.09-8.56 1.23-2.88.11-5.77.01-8.63-.3-1.43-.17-2.86-.39-4.25-.84-1.36-.44-2.75-1.21-3.48-2.52-.72-1.29-1.02-2.72-1.3-4.13-.27-1.41-.47-2.84-.68-4.26-.11-.7-.19-1.44-.4-2.09-.13-.31-.51-.41-.76-.73-.23-.32-.3-.69-.39-1.03-.16-.7-.28-1.42-.35-2.13-.03-.36-.06-.72-.04-1.09.03-.35.02-.77.35-1.06.68-.38 1.41-.41 2.12-.53.72-.09 1.43-.14 2.15-.19 1.44-.1 2.87-.18 4.31-.24 5.75-.11 11.5.1 17.23.66 2.87.27 5.7.84 8.52 1.37 2.82.65 5.64.66 8.46.01 2.82-.53 5.65-1.09 8.52-1.35 2.86-.29 5.73-.46 8.61-.57 2.87-.1 5.75-.16 8.62-.07 1.44.06 2.87.15 4.3.25.72.05 1.43.11 2.15.2.7.11 1.45.15 2.08.54z" fill="#070201" stroke-width="none" opacity="1"></path><path id="SvgjsPath21328" d="M95.27 94.87c-.37 1.73-.89 3.42-1.49 5.08-.62 1.65-1.29 3.3-2.34 4.77-.53.77-1.43 1.21-2.26 1.48-.85.29-1.72.49-2.6.64-1.75.32-3.52.45-5.29.54-3.54.15-7.1-.09-10.57-.81-.86-.19-1.72-.46-2.51-.87a5.14 5.14 0 0 1-1.97-1.79c-.48-.76-.75-1.63-.97-2.49-.23-.86-.4-1.73-.56-2.6-.31-1.74-.53-3.5-.61-5.28-.01-.88-.11-1.79.24-2.71.38-.92 1.3-1.45 2.16-1.71 1.76-.51 3.58-.44 5.33-.4l5.3.14c1.77.06 3.53.09 5.3.16 1.77.09 3.53.29 5.28.56 1.75.28 3.49.64 5.16 1.25.81.32 1.7.66 2.21 1.43.52.79.38 1.77.19 2.61zm-.05-.02c.18-.84.3-1.8-.22-2.53-.51-.72-1.37-1.06-2.19-1.35-1.67-.54-3.42-.84-5.16-1.07-3.49-.49-7.03-.4-10.55-.52l-5.29-.14c-1.76-.06-3.54-.14-5.19.33-.81.24-1.57.69-1.89 1.43-.31.74-.26 1.66-.26 2.52.05 1.75.23 3.51.5 5.25.14.87.3 1.73.51 2.59.21.85.46 1.7.91 2.44a4.87 4.87 0 0 0 1.88 1.75c.77.42 1.62.66 2.48.84 3.45.7 7 .77 10.51.56 1.76-.09 3.51-.28 5.24-.55.86-.14 1.72-.32 2.55-.59.83-.27 1.62-.6 2.14-1.3 1.06-1.38 1.8-3 2.46-4.63.66-1.62 1.17-3.31 1.57-5.03z" fill="#070201" stroke-width="none" opacity="1"></path><path id="SvgjsPath21329" d="M134.45 102.15c-.24.85-.61 1.68-1.19 2.36-.58.68-1.35 1.18-2.17 1.51-1.66.67-3.43.9-5.18 1.15-3.53.43-7.09.35-10.61-.06-1.75-.25-3.52-.53-5.18-1.24-.41-.18-.82-.41-1.14-.74-.31-.33-.58-.69-.81-1.07-.47-.75-.87-1.55-1.23-2.36-.71-1.62-1.31-3.29-1.81-4.99-.23-.86-.48-1.7-.61-2.59-.06-.44-.06-.92.09-1.36.15-.45.45-.83.81-1.11.74-.57 1.6-.84 2.44-1.12.85-.26 1.72-.47 2.59-.65 1.74-.35 3.5-.58 5.27-.72 3.53-.23 7.06-.26 10.6-.36l2.65-.07c.88-.03 1.78-.03 2.67.07.89.1 1.79.26 2.63.67.41.21.8.5 1.08.88s.44.85.49 1.3c.14 1.8-.09 3.56-.32 5.31-.27 1.75-.57 3.49-1.07 5.19zm-.05-.02c.47-1.7.77-3.44.97-5.19.17-1.75.33-3.53.15-5.25-.1-.85-.66-1.55-1.43-1.88-.77-.35-1.63-.49-2.5-.55-1.73-.12-3.51.02-5.27.05l-5.29.14c-1.76.06-3.53.02-5.28.17-1.75.13-3.5.33-5.23.63-.86.16-1.72.34-2.56.58-.83.25-1.69.52-2.37 1.02-.34.25-.6.59-.74.98s-.15.83-.1 1.25c.11.86.35 1.72.57 2.57.46 1.7 1.03 3.37 1.78 4.97.37.8.77 1.58 1.25 2.32.24.37.51.71.81 1.01.3.3.69.49 1.08.66 1.61.64 3.38.87 5.12 1.08 3.49.36 7.03.46 10.53.16 1.75-.19 3.52-.36 5.17-.96.82-.3 1.58-.79 2.16-1.44.55-.66.93-1.47 1.18-2.32z" fill="#070201" stroke-width="none" opacity="1"></path></g></g></g></g></g><rect id="svga-credit-rect" width="200" height="15" x="0" y="185" fill="#ecf0f1" opacity="0.5" style="display: none;"></rect><text id="svga-credit-text" font-family="Avenir Next, Roboto, Helvetica, Arial, sans-serif" font-size="10px" text-anchor="start" font-weight="400" size="10px" anchor="start" weight="400" fill="#333333" x="33.40447998046875" y="182.60824704170227" style="display: none;"><tspan id="SvgjsTspan21125" dy="13" x="33.40447998046875">Created on AvatarMaker.com</tspan></text></g><defs id="SvgjsDefs21072"><linearGradient id="SvgjsLinearGradient21317" x1="80.0429" y1="88.1094" x2="80.0429" y2="107.7139" gradientUnits="userSpaceOnUse" class="svga-on-canvas-glasses-gradient-single-0-null"><stop id="SvgjsStop21318" stop-opacity="1" stop-color="#bfeaf2" offset="0" ></stop><stop id="SvgjsStop21319" stop-opacity="0.649" stop-color="#a1cae3" offset="0.351" ></stop><stop id="SvgjsStop21320" stop-opacity="0" stop-color="#6086c4" offset="1" ></stop></linearGradient><linearGradient id="SvgjsLinearGradient21322" x1="-19.9571" y1="88.1094" x2="-19.9571" y2="107.7139" gradientTransform="matrix(-1 0 0 1 100 0)" gradientUnits="userSpaceOnUse" class="svga-on-canvas-glasses-gradient-single-1-null"><stop id="SvgjsStop21323" stop-opacity="1" stop-color="#bfeaf2" offset="0" ></stop><stop id="SvgjsStop21324" stop-opacity="0.649" stop-color="#a1cae3" offset="0.351" ></stop><stop id="SvgjsStop21325" stop-opacity="0" stop-color="#6086c4" offset="1" ></stop></linearGradient></defs></svg>