<svg xmlns="http://www.w3.org/2000/svg" version="1.1" width="600px" height="600px" viewBox="0 0 200 200" style="overflow:hidden!important;"><defs id="SvgjsDefs9541"></defs><g id="svga-group-wrapper"><g id="svga-group-backs-single"></g><g id="svga-group-humanwrap-move" transform="matrix(1,0,0,1,0,0)"><g id="svga-group-humanwrap" transform="matrix(1,0,0,1,0,0)"><g id="svga-group-hair-back-move" transform="matrix(1,0,0,1,0,0)"><g id="svga-group-hair-back" transform="matrix(1,0,0,1,0,0)"><path id="SvgjsPath10274" d="M71.8 42.3c.7-.3 1.3-.6 2-.7.3-.3.6-.6 1-.8 2.4-1.1 5.1-.8 6.6 1.6 1.4 2.1.4 4.9-1.6 6.2-1.1.7-2.5.8-3.7.5-.1 0-.3-.1-.4-.1h-.3c-.1 0-.3.1-.4.1-.1 0-.2.1-.3.1-.4.2-.9.3-1.4.3-.8 0-1.7 0-2.4-.5-2.7-1.7-1.6-5.4.9-6.7zm89 94.4v-.1.1zm11.4 2.6c-.3.3-.8 0-.7-.4.4-1.2-.5-2.5-1.6-3.9-.8 2-2.8 3.7-2.8 6 0 .6-.8.7-1 .3-.8-1.2-.6-2-.1-3.3 1.4-3.3 2.8-4-.9-6.1-1.1-.6-1.9-1.3-2.4-2.1.1.5.2 1 .5 1.9.2.6.9 1 1 1.6.3 1.9-.4 3.5-.2 5.4.2 1.8.8 2.3-.6 3.8-.4.4-1.4.1-1.3-.6.2-1.9-1.4-3.4-1.3-5.3.1 0 .4-2.1.6-2.1-.2-.3-1.6-1.4-1.5-1.2-1.1-1.8-.9-2.4-1.1-4.5-.4-3.5-2.5-4.1-3.5-6.9-.1.3-.3.6-.4.9-1.5 3.8 2.5 5.3 3 9 .3 2.9-1.8 4.5-1.5 7.2.2 2 1.1 2.4-.2 4.2-.3.4-1.1.2-.9-.4.7-2.6-1.8-4.1-1.4-6.5.4-3 2.6-1.6.3-5.2-.2.9-.9 1.6-1.3 2.6-1.5 3.2-.8 4.6-.9 7.6-.1 1.5-.4 2.6-1.3 3.8-.8 1-2.4.2-1.7-1 .9-1.7.3-3.6-.2-5.5l-.3.6c-.5 1.8-.3 2.7-.4 4.6 0 1.4.3 1.4-.5 2.6-.3.4-1.1.3-1.1-.3.1-1.2-.3-2.1-.6-3.1-.2.7-.6 1.5-1.4 2.3-.5.5-1.2-.2-1-.8 1.1-2.4-.2-3.9-1.3-5.5.1 2 .1 4-1 6-.3.7-1 .6-1.5.2-.2.3-.6.6-1 .9-.8.5-1.5-.6-.9-1.2 1.3-1.4-1.9-4.7-2.2-6.2-.1-.8 0-1.6.2-2.3-.8 1.8-1.4 2.9-1.2 5.1 0 .7.4 1.3.4 2-.1 1.2-.5 1.8-1.5 2.6-.7.5-1.2-.5-.8-1.1.7-.8.4-1.8 0-2.7-.1 1.1-.6 2.1-1.7 3.3-.6.6-1.6-.2-1.2-.9 1.3-2 .6-3.6-.1-5.3-.7 2-1.6 3.8-1.4 6.2 0 .7-1 .8-1.2.2-.2-.7-.7-1.5-1.1-2.4 0 1.6-.5 2.9-2.3 3.6-.3 1.1-1.8.7-1.9-.3-.1-1-.3-2.2-.3-3.4-.3 1.1-.3 2.2-.5 3.5 0 .4-.6.8-.9.4-.4-.4-.6-.8-.9-1.1-.3-.1-.5-.3-.7-.7-3.1-8.1-4.4-16.3-4.2-24.5-.3-3.7-.5-7.4-.6-10.8-.3-7.3-.1-14.6.9-21.9 1-7.4 3.1-14.5 5.5-21.6 2-6.1 3.7-12.5 6.6-18.2 0-.9.5-1.8 1.2-2.3 1-.8 2.2-.8 3.4-.2 2.9 1.4 4.7 4.5 4.6 7.7 0 .3-.1.6-.1.9 1.1 1.4 2.1 2.8 3 4.3.1 0 .3.1.4.2 1.7 1.3 3.1 1.8 5.2 2.2 1.5.3 2.6.8 3.5 2 1.3 1.8 1.7 4.9 1.2 7.4l.9.6c.4-.7 1.6-.8 1.9.2 1 2.8 1.8 6.1.1 8.8-.1.2-.2.3-.4.3-.2 1-.6 1.9-.9 2.9.2.2.3.5.4.8.3 1 .8 2.5 1.1 4 .2 0 .5.1.7.3 1.8 1.1 2.7 2.8 2.8 4.8.1.2.3.5.4.7.2.1.4.1.6.3 3.3 2.9 7.9 7.4 6.3 12.2-.1.2-.1.4-.2.6.2.4.4.9.5 1.4.3 1.2-.2 3.5-.3 5.3.4.5 1 .6 2.2 1.7.7.6 1.2 1.2 1.5 2 .4.2.8.4 1 .7 1 1.2.8 2.3.7 3.7-.3 3.3.2 2 2.1 4.1 1.8 2.1.3 4 1 6.3.4 2.5 3.4 4.2.7 7zm-26.4-4.6c-.1-.4-.2-.7-.3-1-.2.2-.3.4-.5.6-1.2 2.1-.8 2.4.2 4.7.1.3.2.6.4.9.1-1.8.5-3.4.2-5.2zm3.4-5c-.3.7-.5 1.4-.6 2.1-.1.8 0 1.5.1 2.2.2-.5.3-.9.5-1.5.7-1.7.5-2.2 0-2.8zm8-23.1c-.1-1.3 0-3-.4-4.6-.2.9-.4 1.9-.6 2.9-.3 1.9-.2 3.3.6 4.7.1-.5.2-1 .4-1.4v-1.6zm5.6 13.5c-.2-.2-.4-.3-.6-.5-.7-.5-1.6-.7-2.2-1.4-.2 1-.2 1.9.2 2.9.6 1.4 1.4 2.2 2 3.3l.3-1.2c.1-1.3.4-2.2.3-3.1zm3.5 7.3c-.3-.2-.6-.3-1-.5v.2c.3 1.3 1.5 2 2.6 2.7.1-.4-.1-1-1.6-2.4zm-78.2-9.9c.2 6.6 1.2 16.2-2.9 21.8-.5 2.4-1.9 4.4-2.2 6.9-.1.7-1.2 1-1.7.4-.9-1-1.1-1.8-1.2-2.8-.3.6-.6 1.2-.8 1.9-.2.7-1.2.7-1.4 0-.1-.2-.1-.4-.1-.6-.5.4-1.3.4-1.5-.4v-.1c-.3.3-.5.5-.4.5.5.8-.6 1.4-1.2.9-.8-.7-1.2-1.5-1-2.5.2-.9.7-1.5.9-2.2-.2-.1-.4-.4-.5-.7-1.1 1.3-2.4 2.4-1.4 4.2.4.7-.6 1.5-1.1.9-.7-.7-1.2-1.4-1.4-2.3-.2.8-.8 1.3-1.6 1.8-.5.2-1.1-.4-.6-.8 1.3-1.1-2-6.5-1.6-8.6.2-1 1-1.8 1.2-2.7 1.4-7.2.4-5-.5-4.3.2.8.3 1.6.1 2.6-.3 1.2-1.2 2.1-1.5 3.3-1.2 4.1.8 4.2 1.7 7 .6 1.9.6 3.6-1 4.9-.7.6-1.8-.2-1.3-1 1-1.9-.3-3.9-1.5-5.9 0 .5.1 1 .2 1.4.3 1.9.9 2.5-.4 4.2-.3.4-1 .1-1-.4.3-2.9-2.5-5-2.7-8-.1-.9-.1-1.8-.3-2.7-.7 1.1-1.1 1.5 0 4 .4 1 1.4 1.8 1.7 2.8.7 1.9.6 3.1-.6 4.8-.5.8-1.9.3-1.6-.7.9-3.2-3.1-5.1-4-7.6-.6-1.6-.1-2.6.1-4.2v-.2c-.4 1.2-.7 2.5-.5 3.7.5 2.8 2.1 4.3 1.9 7.4-.1.8-1.2 1.1-1.5.2 0-.2-.1-.3-.2-.4-.1.2-.2.5-.4.7-.6 1-2.3.3-1.9-.8 1.2-3-2.9-6.2-3.2-9.6-.6 1-1 2.1-.6 3.5.7 2.8 3 5.4-.3 7.3-1.1.7-2.2-.6-1.7-1.7.6-1.1-1-3.3-2.1-5.2-.6 1.7-1.3 3.5-.3 5.1.6.8-.7 1.8-1.4 1-2.1-2.4-.7-4-.4-6.8.3-2.4-.9-4.3-1.3-6.4 0 .1-.1.3-.1.4-.7 2.2-1.2 4-.8 6.6.1.6.5 1.1.5 1.7.2 1.6 0 2.1-.8 3.5-.5.8-1.7.3-1.5-.6.5-1.8-.3-3.3-.9-4.8-.8 1.4-2 2.8-1.6 4.2.2.8-1 1.3-1.4.6-.7-1.3-.8-2.1-.4-3.5.5-2.1 1.5-2 .1-4.6-.4-.7-1.3-1.1-1.8-1.9-.8-1.4-.6-2.4-.3-3.8.6-2.8 3.8-.5.5-6.3v-.1c-.7.6-1.3 1.2-1.5 2.2-.4 1.9 1.2 3.5.8 5.5-.5 2.3-4.4 4.5-3.4 7 .2.7-.7 1-1.1.6-1-.9-1.2-1.2-1.1-2.6.1-1.2.5-1.3 1-2.3 1.4-3.3 2.1 2 1.3-6.2-.1-1.4-.8-2.2-.3-3.7.2-.6.6-1 .9-1.4.9-1.8 1.5-2.7 1-4.7-.4-1.7-1.5-2.8-1-4.7.4-1.8 2.2-2.7 2.6-4.4.4-1.5-.6-2.8 0-4.4.5-1.3 1.1-1.2 1.9-2.2.9-1.2 1.4-2.3 2.1-3.6.4-.6 1-.8 1.7-.7 0-.2-.1-.3-.1-.5-.4-1.2.4-2.2 1.5-2.7.6-.8 1.1-1.5 1.7-2.3.2-.4.5-.7.8-.9.3-.9.7-1.8 1.2-2.7-.2-.2-.4-.4-.5-.6-1.3-2.2-.5-4.9.7-7.1.6-1.1 1.5-2 2.6-2.6l.3-.9c.1-.3.3-.6.5-.9-.4-.2-.8-.4-1.1-.7-1.4-1.1-1.6-3.4-1-4.9.6-1.3 1.7-2.3 3.1-2.7 1.2-.3 2.5-.2 3.6.5v-.2c.2-1.4.7-2.5 1.2-3.6-.1-.1-.2-.2-.3-.4-.6-.9-.6-1.9-.4-3 .3-1.9 1.9-3.6 3.7-4.2.6-.2 1.2-.2 1.7 0 1.4-2.9 3.1-4.9 6.5-5.8 1.4-.4 3 0 4 1l.5.5c.6.6 1 1.5.9 2.4 10 9.2 13.9 25.9 16.5 38.5 1.8 7.9 2.7 16.2 3 24.4zm-52.6-6.8c0-.2-.1-.5-.1-.7-.1.2-.2.3-.3.5-1.3 1.8-1.8 2.5-1.5 3.9.8-1.1 1.7-2.2 1.9-3.7zm.7 8.3c.3-.7 1.1-1.6 1.3-2.4v-.3c-.5.4-.9.8-1.1 1.3-.8 1.6-.8 1.4-.3 1.9 0-.1.1-.3.1-.5zm1.7 7.9c-.6 1.7-1.7 3.4-1.1 5.3.1.3.2.6.4.8.3-.9.9-1.6 1.1-2.6.2-1.3 0-2.4-.4-3.5zm3.7-2.7c-.3-1.5-1-2.7-.6-4.3.2-.8.4-1.5.7-2.2h-.2c-.7 1.7-1.7 3.2-1.4 5.3.2 1.3 1 2.4 1.5 3.6.1-.9.1-1.6 0-2.4zm3.9 3c-.3 1.1-.8 2.1-.9 3.3 0 .8.1 1.5.2 2.1 0-.1.1-.2.1-.2.7-1.9 1.6-3.3.6-5.2zm25.4 9.2c-.4-.6-.7-1.2-.9-1.8-.1.2-.1.3-.2.5-.9 2.5.1 4 .5 6.3v.2c.3-.8.9-1.1 1.2-1.8.7-1.6.3-2-.6-3.4zm8.2 3.4c0-.9-.7-1.9-1.4-2.9v.8c.2.9.4 1.8.4 2.8.1.6.2 1.2.1 1.9v.6c.4-1.1 1-2 .9-3.2z" fill="#cea57c" stroke-width="none" opacity="1"></path></g></g><g id="svga-group-humanbody-back"><path id="SvgjsPath9801" d="m168.5 219.5-1.7-21.5s.7-9-8.8-15.3-23.4-10.1-29.5-14.2c-6.1-4.1-7.2-4.5-7-16.9s.9-40.3.9-40.3H77.6s.7 27.9.9 40.3c.2 12.4-.9 12.8-7 16.9-6.1 4.1-20 7.9-29.5 14.2S33.2 198 33.2 198l-1.6 21.5h136.9z" fill="#ffd0bc" stroke-width="none" opacity="1" stroke="none"></path></g><g id="svga-group-chinshadow-single"><path id="SvgjsPath10048" d="M121.5 151.5c.2-12.4.9-40.3.9-40.3H77.6s.7 27.9.9 40.3v4.9c5.2 3.1 12.6 4.8 21.5 4.8s16.4-1.7 21.5-4.8v-4.9z" fill="#e09879" stroke-width="none" opacity="1" stroke="none"></path></g><g id="svga-group-humanbody-front"><path id="SvgjsPath9802" d="M166.3 193.3c-.2-.7-.5-1.5-.8-2.2-.2-.3-.3-.7-.5-1.1l-.6-1c-.1-.2-.2-.3-.3-.5l-.3-.5-.3-.5c-.1-.2-.2-.3-.4-.5l-.7-.9-.8-.8-.4-.4-.4-.4-.9-.8c-.1-.1-.3-.2-.5-.4l-.5-.3-.9-.7-1.2-.8-.6-.4-.6-.4-1.3-.7-1.3-.7c-.8-.5-1.7-.9-2.6-1.3-.9-.4-1.7-.8-2.6-1.2-3.5-1.6-7.1-3.1-10.6-4.6-1.8-.8-3.5-1.6-5.2-2.4l-.6-.3-.6-.4c-.4-.2-.8-.5-1.2-.7-.8-.5-1.6-1.1-2.4-1.6-.4-.3-.8-.6-1.2-.8-.2-.1-.4-.3-.5-.4-.2-.1-.4-.3-.5-.5-.7-.6-1.2-1.3-1.6-2.1l-.1-.1-.1-.2-.1-.3-.1-.3c0-.1-.1-.2-.1-.3l-.2-.7-.1-.7c-.1-.9-.2-1.9-.2-2.8-.1-3.8.1-7.7.3-11.5l.4-11.6c.2-7.7.4-15.5.5-23.2v-1.1h-1.1c-3.7 0-7.5 0-11.2.1l-11.2.1-22.4.3h-.5v.5c.3 9.3.6 18.5.7 27.8.1 4.6.2 9.3.2 13.9 0 2.3 0 4.6-.3 6.9-.2 1.1-.4 2.2-.9 3.2s-1.2 1.8-2.1 2.5-1.8 1.3-2.8 2l-.7.5c-.2.2-.5.3-.7.4-.5.3-1 .6-1.5.8-2 1-4.2 1.9-6.3 2.8-4.3 1.7-8.6 3.4-12.9 5.3-2.1 1-4.2 2-6.3 3.2-2 1.2-4.1 2.6-5.8 4.3s-3.2 3.8-4.2 6c-.5 1.1-.9 2.3-1.1 3.5-.1.3-.1.6-.2.9-.1.3-.1.6-.1.9 0 .3-2 23.9-2 23.9H169s-2.2-25.2-2.7-26.7zM33.2 218.8c0-.2 1.2-22.4 1.2-22.5 0-.3.1-.5.1-.8s.1-.5.1-.8c.2-1.1.6-2.1 1-3.1.9-2 2.1-3.8 3.6-5.4 1.5-1.6 3.4-2.8 5.3-4 1.9-1.2 4-2.2 6-3.3 4.1-2 8.4-3.8 12.7-5.6 2.1-.9 4.3-1.9 6.3-3l1.5-.9c.3-.2.5-.3.8-.5l.7-.5c1-.7 1.9-1.3 2.9-2.1.2-.2.4-.4.7-.6.2-.2.4-.5.6-.7s.4-.5.5-.8c.2-.3.3-.5.5-.8.5-1.1.8-2.3.9-3.5.3-2.4.2-4.7.2-7l-.2-13.9c-.2-9.1-.4-18.2-.5-27.3l21.9.3 11.2.1c3.4 0 6.7.1 10.1.1-.2 7.4-.4 14.7-.5 22.1l-.1 11.6v5.8c0 1.9 0 3.9.2 5.9.1 1 .2 2 .4 3l.2.7c.1.2.1.5.2.7 0 .1.1.2.1.4l.1.4.2.4.1.2.1.2c.5.9 1.2 1.7 1.9 2.4.2.2.4.3.6.5.2.1.4.3.6.4.4.3.8.6 1.2.8.8.5 1.6 1.1 2.5 1.6.4.3.9.5 1.3.7l.7.3.7.3c1.8.8 3.6 1.6 5.3 2.3 3.6 1.4 7.2 2.9 10.7 4.4 3.5 1.6 7 3.3 10.2 5.4l.9.7.5.3c.2.1.3.2.4.4l.9.8c.1.1.3.2.4.4l.4.4.8.8.7.9c.1.2.2.3.3.5l.3.5.3.5c.1.2.2.3.3.5.8 1.3 1.4 2.7 1.8 4.2.2.7.3 1.5.5 2.2.1.7 1.8 22.6 1.8 23.2-11.2-.2-135.1-.2-135.1-.2z" fill="#d17f5b" stroke-width="none" opacity="1" stroke="none"></path><path id="SvgjsPath9803" d="M73.8 175.9c5.1 2.9 11.8 5.2 17.6 5.7.4 0 .4-.6.1-.7-2.8-1.1-5.9-1.7-8.8-2.6-2.9-.9-5.8-2-8.8-2.7-.1-.1-.3.2-.1.3z" fill="#e09879" stroke-width="none" opacity="1" stroke="none"></path><path id="SvgjsPath9804" d="M109 182.1c5.3-.6 11.3-3 15.9-5.8.3-.2.1-.6-.2-.5-2.6.9-5.2 2-7.8 2.9-2.6.9-5.4 1.5-8 2.5-.5.1-.5.9.1.9z" fill="#e09879" stroke-width="none" opacity="1" stroke="none"></path></g><g id="svga-group-clothes-single"><path id="SvgjsPath10198" d="m122.4 220 2.7-26.8s-14.3 16-25 19.1c0 0-16.5-9.3-26.3-19.1l3.9 26.8h44.7z" fill="#efefef" stroke-width="none" opacity="1"></path><path id="SvgjsPath10199" d="M125.3 192.9c-.2-.2-.4-.1-.6 0a147.859 147.859 0 0 1-11.5 10.9c-2 1.7-4.1 3.3-6.3 4.8-2.2 1.4-4.5 2.7-6.9 3.5-2.3-1.3-4.6-2.7-6.9-4.2-2.3-1.5-4.5-3-6.7-4.6-4.4-3.2-8.6-6.6-12.4-10.4-.1-.1-.2-.1-.3-.1-.2 0-.3.2-.3.4.6 4.5 1.2 8.9 1.8 13.4.6 4.5 1.2 8.9 1.9 13.4 0 .2.3.4.5.4h11.3l11.2-.1 11.2-.1 11.1-.2 1.6-13.3 1.5-13.5c0-.1-.1-.2-.2-.3zm-1.9 13.5-1.1 13.5-11.3-.2-11.2-.1-11.2-.1H77.9c-.6-4.3-1.3-8.6-1.9-13-.6-4.1-1.2-8.2-1.9-12.3 3.7 3.5 7.8 6.6 11.9 9.5 2.2 1.6 4.5 3.1 6.8 4.5s4.6 2.9 7 4.3h.1c2.6-.8 4.9-2 7.2-3.4s4.4-3 6.5-4.6c2.1-1.7 4.1-3.4 6-5.3 1.6-1.5 3.2-3.2 4.7-4.8-.2 4-.5 8-.9 12z" fill="#78389d" stroke-width="none" opacity="1"></path><path id="SvgjsPath10200" d="M75.7 167.9s1.2-3.7 1.7-6.4c.6-2.7.4-9.3.4-9.3s-1.9 4.1-4.6 6.4-13.2 9.1-13.2 9.1l2.3 1.6S37.7 178 36 179.2c-1.7 1.2-1.9 3.7-1.9 3.7l-2.1.6c-4.1 16.8-4.1 36.6-4.1 36.6h54.5s-2.3-16.6-3.3-23c-.9-6.5-3.4-29.2-3.4-29.2zm92.7 15.5-2.1-.6s-.2-2.5-1.9-3.7c-1.7-1.2-26.3-9.9-26.3-9.9l2.3-1.6s-10.4-6.8-13.2-9.1c-2.7-2.3-4.6-6.4-4.6-6.4s-.2 6.6.4 9.3 1.7 6.4 1.7 6.4-2.5 22.6-3.5 29c-1 6.4-3.3 23-3.3 23h54.5c0 .2 0-19.5-4-36.4z" fill="#9d69bc" stroke-width="none" opacity="1"></path><path id="SvgjsPath10201" d="M80.7 200.4c-.3-2.2-.6-4.3-.9-6.5-1.1-8.6-2.2-17.3-3.4-25.9.4-1.2.7-2.5 1-3.7.3-1.3.7-2.6.8-4 .1-1.4.1-2.7.1-4 0-1.3 0-2.7-.1-4 0-.1-.1-.2-.2-.3-.2-.1-.4 0-.5.2-.9 1.8-1.9 3.4-3.2 4.9-1.2 1.5-2.9 2.6-4.5 3.8-3 2.1-6 4.1-9.2 6-.3.2-.6.3-.9.5l-.1.1c-.2.2-.1.5.1.6.4.3.8.6 1.2.8l.2.2c-4.8 1.6-9.6 3.2-14.4 4.9-2.5.9-5.1 1.8-7.6 2.8l-1.9.8-1 .4c-.3.2-.7.3-1 .6-.7.5-1.2 1.2-1.5 1.9-.2.5-.4 1.1-.5 1.6l-1.6.4c-.3.1-.5.3-.6.6-1.4 6-2.2 12.2-2.8 18.3-.2 3.1-.5 6.1-.5 9.2 0 1.5-.1 3.1-.1 4.6v4.6l27 .6 13.8.2c4.6.1 9.2.1 13.8.1h.2c.6-.1 1-.6.9-1.2l-1.8-13-.8-6.1zM28 219.9c.1-.1 0-.3.1-.5v-.6l.1-1.1.1-2.3c.1-1.5.2-3.1.4-4.6.3-3.1.6-6.1 1-9.1s.9-6.1 1.4-9.1c.5-2.9 1.1-5.7 1.8-8.5l1.6-.4h.1c.5 1.2 1.1 2.4 1.5 3.7l.9 2.2.8 2.3c1 3 1.9 6.1 2.6 9.2.8 3.1 1.4 6.2 2 9.4.3 1.6.5 3.2.7 4.8.2 1.4.4 2.9.5 4.4l-15.6.2zm41-.8-13.5.2-12 .3c0-3.1-.2-6.2-.6-9.2-.4-3.2-1-6.4-1.7-9.5-.8-3.1-1.7-6.2-2.9-9.2-1-2.8-2.3-5.4-3.8-8 .2-.1.4-.4.4-.6.1-1.1.6-2.3 1.4-2.9.2-.2.4-.2.7-.4l.9-.4 1.9-.8 7.5-2.9 15-5.7c1.2.6 2.5 1.1 3.9 1.5-.5.4-1 .9-1.5 1.3-1.2 1-2.5 2-3.7 3-1.3.9-2.6 1.8-3.9 2.6-.4.2-.5.7-.4 1.1 1.3 3.3 2.6 6.6 3.8 9.9 1.2 3.3 2.3 6.7 3.5 10.1 1.1 3.4 2.1 6.8 3.1 10.2.9 3.1 1.6 6.3 2.4 9.5-.2-.1-.3-.1-.5-.1zm.6 0c-.3-3.3-.7-6.5-1.3-9.7-.7-3.5-1.5-7-2.5-10.5s-2.1-6.9-3.3-10.3c-1.2-3.1-2.4-6.2-3.8-9.3 1.2-.8 2.2-1.6 3.3-2.5 1.2-1 2.4-2.1 3.6-3.3 2.3-2.3 4.5-4.6 6.5-7.1-1.9 1.7-3.7 3.3-5.6 4.9-1.2-.9-2.4-1.6-3.7-2.3 0 0 0-.1-.1-.1l-1.1-.7c-.2-.1-.4-.3-.7-.4.1-.1.2-.1.3-.2 3-2 6-4.1 9-6.2 1.6-1.2 3.3-2.3 4.7-3.8 1-1.2 1.9-2.5 2.7-3.8 0 2.2-.1 4.4-.3 6.5-.2 1.3-.5 2.5-.9 3.8-.4 1.3-.8 2.5-1.2 3.8v.2c.8 8.7 1.8 17.4 2.8 26.1.2 2.2.5 4.4.8 6.5l.9 6.5 1.7 11.8c-4 0-7.9 0-11.8.1zm102.9-8.3c-.1-3.1-.3-6.1-.6-9.2-.5-6.1-1.4-12.3-2.8-18.3-.1-.3-.3-.5-.6-.6l-1.6-.4c-.1-.6-.2-1.1-.5-1.6-.3-.7-.8-1.4-1.5-1.9-.3-.3-.7-.4-1.1-.6l-1-.4-1.9-.8c-2.5-1-5.1-1.9-7.6-2.8-4.8-1.7-9.6-3.3-14.4-4.9l.2-.2c.4-.3.8-.5 1.2-.8.2-.1.3-.4.1-.6 0-.1-.1-.1-.1-.1-.3-.2-.6-.4-.9-.5-3.1-1.9-6.2-3.9-9.1-6-1.6-1.2-3.3-2.3-4.5-3.8-1.3-1.5-2.3-3.2-3.2-4.9-.1-.2-.3-.2-.5-.2-.1.1-.2.2-.2.3 0 1.3-.1 2.7-.1 4 0 1.3 0 2.7.1 4 .1 1.4.5 2.7.8 4 .3 1.2.7 2.5 1 3.7-1.2 8.6-2.3 17.2-3.4 25.9-.3 2.2-.6 4.3-.9 6.5l-1 6.5-1.8 13c-.1.6.3 1.1.9 1.2h.2c4.6 0 9.2 0 13.8-.1l13.8-.2 27-.6c.1-.3 0-.5.1-.6v-4c.2-2 .2-3.5.1-5zm-53.4 8.1 1.7-11.8.9-6.5c.3-2.2.6-4.3.8-6.5 1-8.7 1.9-17.4 2.8-26.1v-.2c-.4-1.2-.8-2.5-1.2-3.8-.3-1.3-.7-2.5-.9-3.8-.2-2.1-.3-4.3-.3-6.5.8 1.4 1.7 2.6 2.7 3.8 1.3 1.6 3.1 2.7 4.7 3.8 3 2.1 6 4.1 9 6.2.1.1.2.1.3.2-.2.1-.4.3-.7.4l-1.1.7-.1.1c-1.3.7-2.5 1.4-3.7 2.3-1.9-1.6-3.8-3.2-5.6-4.9 2 2.5 4.2 4.9 6.5 7.1 1.1 1.1 2.3 2.2 3.6 3.3 1.1.9 2.1 1.7 3.3 2.5-1.4 3.1-2.6 6.1-3.8 9.3-1.2 3.4-2.4 6.8-3.3 10.3-1 3.4-1.8 7-2.5 10.5-.6 3.2-1.1 6.5-1.3 9.7-4 0-7.9 0-11.8-.1zm25.8.4-13.5-.2h-.5c.8-3.2 1.5-6.3 2.4-9.5.9-3.4 2-6.9 3.1-10.2 1.1-3.4 2.2-6.8 3.5-10.1 1.2-3.3 2.5-6.7 3.9-9.9.2-.4 0-.9-.4-1.1-1.3-.7-2.6-1.6-3.9-2.6-1.3-.9-2.5-1.9-3.7-3-.5-.4-1-.9-1.5-1.3 1.3-.4 2.6-1 3.9-1.5l15 5.7 7.5 2.9 1.9.8.9.4c.3.1.5.2.7.4.8.6 1.3 1.8 1.4 2.9 0 .3.2.5.4.6-1.4 2.6-2.7 5.2-3.8 8-1.2 3-2.1 6.1-2.9 9.2-.7 3.1-1.4 6.3-1.7 9.5-.4 3.1-.6 6.1-.6 9.2l-12.1-.2zm12 .3c.2-1.5.3-2.9.6-4.4.2-1.6.5-3.2.7-4.8.6-3.2 1.2-6.3 1.9-9.4.7-3.1 1.6-6.2 2.6-9.2l.8-2.3.9-2.2c.4-1.2 1-2.4 1.5-3.7h.1l1.6.4c.6 2.8 1.3 5.6 1.8 8.5.5 3 1 6 1.4 9.1.4 3 .7 6.1.9 9.1.1 1.5.3 3.1.4 4.6l.1 2.3.1 1.1v.6c0 .2 0 .4.1.5l-15.5-.2z" fill="#78389d" stroke-width="none" opacity="1"></path><path id="SvgjsPath10202" d="M140.3 179c-1.8-1.9-4.2-3.2-6.2-5-2-1.8-3.6-3.9-5.4-5.9-.2-.2-.6.1-.4.3 1.3 2.5 3.1 4.7 5.1 6.7 1.7 1.7 3.9 3.9 6.3 4.7-5.2 9.5-8.4 21.2-9.6 31.9 0 .2.3.3.4.1 1.2-5.5 2.2-11 3.9-16.4 1.6-5.4 4.1-10.4 6.1-15.7.1-.1 0-.2-.1-.3.1-.1 0-.2-.1-.4zm-2-11.9c-2.1-1.2-4.3-2.2-6.3-3.6-2.2-1.5-4.2-3.3-6.1-5.2-.2-.2-.4.1-.2.2 3.1 3.9 7.5 7.8 12.4 9.1.3.2.5-.3.2-.5zm18.9 10.5c-5.7-2.4-11.6-4.6-17.5-6.4-.2-.1-.3.2-.1.3 3.5 1.7 7.1 3.3 10.7 4.8 4.6 1.9 10.2 3.1 12.7 7.8.2.4.8.1.7-.3-.6-3.5-3.5-5-6.5-6.2zm9.5 8.4c-.1-.4-.7-.3-.7.1.7 5.4 1.9 10.6 2.5 16 .6 5.4.4 10.9 1.1 16.2 0 .4.5.4.6 0 1.2-9.9-.4-22.8-3.5-32.3zm-92.6-16.9c.5-1 .6-2.2.8-3.3.3-1.2.7-2.4 1-3.6.1-.2-.2-.3-.3-.1-.7 1-1.1 2.1-1.6 3.2-.4 1.1-.9 2.4-.8 3.6.1.4.7.7.9.2zm-.3 1.6c0-.1-.2-.1-.2 0-.1 6.5 1.2 13.2 2.2 19.7 1 7.1 2.1 14.3 4 21.3 0 .1.1 0 .1 0-.7-6.6-1.8-13.1-2.8-19.6-1.2-7-1.5-14.4-3.3-21.4zm-5.1 0c-2.8 3.1-5.4 5.9-8.8 8.3-.4.3-.3.9.1 1 1.4 4.4 3.4 8.5 4.8 12.9 1.4 4.5 2.3 9.2 3.5 13.7.1.3.5.2.5-.1-.5-8.7-3.2-19.2-7.9-26.7 3.3-2.3 6.5-5.2 8.4-8.7 0-.4-.4-.7-.6-.4zm-32.6 11.1c1.3 5.7 3.9 11.4 5.9 16.9.1.3.5.2.5-.1-1.1-5.6-2.6-12.2-5.6-17.1-.4-.4-.9-.1-.8.3z" fill="#b186cb" stroke-width="none" opacity="1"></path></g><g id="svga-group-head" transform="matrix(1,0,0,1,0,0)"><g id="svga-group-ears-left-move" transform="matrix(1,0,0,1,0,0)"><g id="svga-group-ears-left" transform="matrix(1,0,0,1,0,0)"><path id="SvgjsPath10052" d="M64.4 97.4S60.2 93 59 91.6c-1.3-1.4-2.9-4.4-4.7-3.9s-1.2 2.6-1.3 5.4c-.1 2.9.3 8.6 2.1 11.7s2.7 4.2 3.3 7.5 2.6 3.9 3.8 3 4-6.6 4.1-9.6c.1-2.9-1.1-7-1.9-8.3z" fill="#ffd0bc" stroke-width="none" opacity="1" stroke="none"></path><path id="SvgjsPath10053" d="M65.3 99.4c.2.7.4 1.4.6 2.2.4 1.5.6 3 .6 4.6 0 .8-.2 1.5-.3 2.2-.2.7-.4 1.3-.6 2-.5 1.3-1 2.4-1.6 3.5-.3.6-.6 1.1-1 1.6-.2.2-.4.5-.7.7s-.6.3-.9.3c-.6.1-1.3-.1-1.9-.6-.6-.5-1.1-1.3-1.3-2.1l-.2-.6-.1-.6c-.1-.4-.1-.7-.2-1.1-.1-.7-.3-1.4-.6-2-.5-1.3-1.2-2.5-1.9-3.8-.4-.6-.7-1.3-1-2.1-.3-.7-.4-1.5-.6-2.2-.3-1.5-.5-3-.7-4.5-.1-1.5-.2-3-.2-4.4 0-.7-.1-1.4-.1-2.2 0-.4 0-.8.1-1.2.1-.4.2-.8.4-1.1.2-.3.5-.5.8-.6s.6-.2.9-.1c.7.1 1.3.5 1.8 1 1 1 1.8 2.3 2.6 3.2 1.8 2.1 3.5 4.2 5.3 6.1.3.4.6 1.1.8 1.8zM58.8 92c-1-1-1.8-2.1-2.7-2.9-.4-.4-.9-.7-1.3-.7s-.9.1-1.1.4c-.3.3-.4.9-.4 1.6v2.2c0 .8-.1 1.4-.1 2.2 0 .7 0 1.4.1 2.2.1 1.5.3 2.9.7 4.4.4 1.4.9 2.8 1.7 3.9.7 1.2 1.6 2.3 2.2 3.8.3.7.6 1.5.8 2.2.1.4.2.8.3 1.1l.1.5.1.5c.2.6.5 1.1.9 1.4s.8.4 1.2.3c.2 0 .4-.1.6-.2.2-.1.3-.3.5-.5.3-.4.6-.9.9-1.4.6-1 1.1-2.1 1.6-3.3.5-1.2.9-2.3 1.1-3.6.2-1.3 0-2.8-.2-4.3-.1-.7-.3-1.5-.5-2.2s-.5-1.4-.8-2c-1.9-2.1-3.8-3.8-5.7-5.6z" fill="#f0b399" stroke-width="none" opacity="1" stroke="none"></path><path id="SvgjsPath10054" d="M53.4 92.2c.5-1.8 2-.9 2.9.4 1.7 2.5 3 6.2 3.4 9.4 0 .1-.1.2-.1.1-.1.1-.2.1-.2-.1-1.1-.4-1.5-.2-1.2.7 0 .3.1.6.3.8.2.5.5 1 .8 1.4.5.8 1.1 1.4 1.6 2.2.2.3 0 .5-.2.4-1.3-.9-3.6-4.1-3-6.2.2-.8.9-1 1.4-.6-1-3.4-3.7-11.3-5.4-8.3-.1.1-.3-.1-.3-.2z" fill="#e09879" stroke-width="none" opacity="1" stroke="none"></path><path id="SvgjsPath10055" d="M56.1 92.6c-1 1.9-1.3 4.1-.8 6.7.3 1.4 2.8 8.9 4.6 7.9.2-.1.4.3.2.5-1.9 1.7-4-4.2-4.6-6.1-1.1-3.2-1.3-7 .5-9.1 0-.1.2 0 .1.1z" fill="#e09879" stroke-width="none" opacity="1" stroke="none"></path></g></g><g id="svga-group-ears-right-move" transform="matrix(1,0,0,1,0,0)"><g id="svga-group-ears-right" transform="matrix(1,0,0,1,0,0)"><path id="SvgjsPath10056" d="M135.6 97.4s4.2-4.4 5.4-5.8c1.3-1.4 2.9-4.4 4.7-3.9s1.2 2.6 1.3 5.4c.1 2.9-.3 8.6-2.1 11.7s-2.7 4.2-3.3 7.5-2.6 3.9-3.8 3-4-6.6-4.1-9.6c-.1-2.9 1.1-7 1.9-8.3z" fill="#ffd0bc" stroke-width="none" opacity="1" stroke="none"></path><path id="SvgjsPath10057" d="M135.6 97.4c1.8-1.9 3.5-4 5.3-6.1.8-1 1.5-2.3 2.6-3.2.5-.5 1.1-.9 1.8-1 .3 0 .6 0 .9.1.3.1.6.3.8.6.2.3.4.7.4 1.1.1.4.1.8.1 1.2 0 .8-.1 1.5-.1 2.2 0 1.4-.1 3-.2 4.4-.1 1.5-.3 3-.7 4.5-.2.7-.4 1.5-.6 2.2-.3.7-.6 1.4-1 2.1-.7 1.3-1.4 2.5-1.9 3.8-.3.6-.4 1.3-.6 2-.1.3-.1.7-.2 1.1l-.1.6-.2.6c-.3.8-.7 1.6-1.3 2.1s-1.3.7-1.9.6c-.3 0-.6-.1-.9-.3-.3-.2-.5-.4-.7-.7-.4-.5-.7-1-1-1.6-.6-1.1-1.2-2.3-1.6-3.5-.2-.6-.4-1.3-.6-2-.2-.7-.3-1.4-.3-2.2 0-1.6.3-3.1.6-4.6.2-.7.4-1.5.6-2.2.1-.5.4-1.2.8-1.8zm0 .1c-.3.6-.6 1.3-.8 2s-.4 1.4-.5 2.2c-.2 1.4-.4 3-.2 4.3s.7 2.5 1.1 3.6c.5 1.1 1 2.3 1.6 3.3.3.5.6 1 .9 1.4.2.2.3.4.5.5s.4.2.6.2c.4.1.8 0 1.2-.3s.7-.8.9-1.4l.1-.5.1-.5c.1-.4.2-.8.3-1.1.2-.8.4-1.5.8-2.2.6-1.4 1.5-2.6 2.2-3.8.8-1.1 1.3-2.5 1.7-3.9s.6-2.9.7-4.4c0-.7.1-1.5.1-2.2s-.1-1.4-.1-2.2v-2.2c0-.7-.1-1.3-.4-1.6-.3-.3-.7-.4-1.1-.4-.4 0-.9.3-1.3.7-.9.8-1.7 1.9-2.7 2.9-2 1.9-3.9 3.6-5.7 5.6z" fill="#f0b399" stroke-width="none" opacity="1" stroke="none"></path><path id="SvgjsPath10058" d="M146.6 92.2c-.5-1.8-2-.9-2.9.4-1.7 2.5-3 6.2-3.4 9.4 0 .1.1.2.1.1.1.1.2.1.2-.1 1.1-.4 1.5-.2 1.2.7 0 .3-.1.6-.3.8-.2.5-.5 1-.8 1.4-.5.8-1.1 1.4-1.6 2.2-.2.3 0 .5.2.4 1.3-.9 3.6-4.1 3-6.2-.2-.8-.9-1-1.4-.6 1-3.4 3.7-11.3 5.4-8.3.1.1.3-.1.3-.2z" fill="#e09879" stroke-width="none" opacity="1" stroke="none"></path><path id="SvgjsPath10059" d="M143.9 92.6c1 1.9 1.3 4.1.8 6.7-.3 1.4-2.8 8.9-4.6 7.9-.2-.1-.4.3-.2.5 1.9 1.7 4-4.2 4.6-6.1 1.1-3.2 1.3-7-.5-9.1 0-.1-.2 0-.1.1z" fill="#e09879" stroke-width="none" opacity="1" stroke="none"></path></g></g><g id="svga-group-faceshape-wrap" transform="matrix(1,0,0,1,0,0)"><g id="svga-group-faceshape-single"><path id="SvgjsPath10038" d="M141 85.4c-1.2-28.5-19.71-43.67-41.01-43.67C78.59 41.73 60.2 56.9 59 85.4c0 0-.2 10.7 2.2 23.9s7.5 22.3 10.9 29.6 13.96 10.88 27.96 10.88 24.54-3.58 27.84-10.88c3.4-7.3 8.5-16.3 10.9-29.6 2.5-13.2 2.2-23.9 2.2-23.9z" fill="#ffd0bc" stroke-width="none" opacity="1" stroke="none"></path><path id="SvgjsPath10039" d="M72.1 138.9c3.4 7.3 13.9 11.5 27.9 11.5s24.6-4.2 27.9-11.5c3.3-7.3 8.5-16.3 10.9-29.6 2.4-13.2 2.2-23.9 2.2-23.9-1.2-28.5-19.7-44.1-41-44.1S60.2 57 59 85.4c0 0-.2 10.7 2.2 23.9 2.4 13.3 7.5 22.3 10.9 29.6zM60 91.64c-.1-1.61-.2-3.23-.2-4.84v-1.22l.1-1.21.1-1.21.1-1.21.1-1.21c0-.4.1-.81.2-1.21l.2-1.21c.1-.4.1-.81.2-1.21.6-3.13 1.4-6.26 2.6-9.18 1.2-2.93 2.7-5.75 4.5-8.38 1.8-2.62 3.9-4.95 6.3-6.96 2.4-2.02 5-3.73 7.8-5.05.3-.2.7-.3 1-.5.4-.2.7-.3 1.1-.5l1.1-.4c.2-.1.4-.1.5-.2l.5-.2 1.1-.4 1.1-.3c.7-.2 1.5-.4 2.2-.61 3-.71 6-1.01 9.1-1.01h2.2l1.1.1c.4 0 .8 0 1.1.1.8.1 1.5.2 2.3.3.4.1.8.1 1.1.2l1.1.2c.8.1 1.5.3 2.2.5.4.1.7.2 1.1.3.4.1.7.2 1.1.3.7.3 1.4.5 2.2.81.4.1.7.3 1.1.4l1 .5c2.8 1.31 5.4 2.93 7.8 4.84 2.4 1.92 4.6 4.14 6.6 6.66 1.9 2.52 3.6 5.25 4.9 8.17 2.6 5.85 3.9 12.31 4.2 18.77 0 3.23-.2 6.46-.5 9.69s-.8 6.46-1.4 9.59c-.2.81-.3 1.61-.5 2.42l-.5 2.32-.6 2.32-.7 2.32c-.9 3.03-2.1 6.06-3.3 8.98-1.3 2.93-2.7 5.75-4.2 8.68l-2.2 4.34-1.1 2.22s-.9 1.41-1 1.61c-1.6 2.12-4 3.84-6.6 5.05-2.7 1.21-5.6 2.02-8.6 2.52s-6.1.71-9.2.81c-3.1 0-6.2-.1-9.2-.61-3-.4-6-1.11-8.7-2.32-2.7-1.11-5.2-2.72-7-4.74-.4-.5-.8-1.11-1.1-1.61-.3-.5-.7-1.31-1-2.12l-2.2-4.34c-1.4-2.93-2.8-5.75-4-8.68-.6-1.51-1.2-2.93-1.7-4.44l-.4-1.11-.4-1.11c-.1-.4-.3-.71-.4-1.11l-.3-1.11c-.9-3.03-1.6-6.16-2.2-9.29-.6-3.13-1.1-6.36-1.4-9.59-.1-1.49-.3-3-.4-4.62z" fill="#d17f5b" stroke-width="none" opacity="1" stroke="none"></path></g></g><g id="svga-group-mouth-single-move" transform="matrix(1,0,0,1,0,0)"><g id="svga-group-mouth-single" transform="matrix(1,0,0,1,0,3)"><path id="SvgjsPath10140" d="m112.6 130.4.5-.5s-1.4-.1-2.5-.9-2.5-3.9-3.5-4.9c-.9-1-3.2-2-5.6-.9-2.4 1-2.4.5-4.1-.3-1.6-.9-4.8.5-6.9 4.3s-3.8 3.5-3.8 3.5 1.7 1.3 3.9-.1c2.2-1.4 15.4-1.4 15.7-1.2s5 1.4 5 1.4l1.3-.4z" fill="#956253" stroke-width="none" opacity="1" stroke="none"></path><path id="SvgjsPath10141" d="M90.6 131.1s1.42 2.86 3.42 3.46c2 .6 12.46-.22 13.66-.92s2.01-3.04 2.01-3.04-3.2-1.6-4.5-2.7c-1.3-1.1 0 0 0 0s-2.1 1.7-3.9 1.7c0 0-2.7.9-6.5-1.5.11.1-1.79 2.5-4.19 3z" fill="#9D6D5F" stroke-width="none" opacity="1" stroke="none"></path><path id="SvgjsPath10142" d="M113.1 129.4c-2.3 1.9-6.1-.4-7.8-2.1-.2-.2-.4-.2-.6 0-.5.1-.7.4-1.2.8-.9.6-1.9.9-2.9 1.1-1.1.1-2.2 0-3.3-.4-.7-.3-1.3-.7-2.1-.9-.1-.2-.4-.3-.6-.1-2.1 2.2-4.8 3.4-7.9 2.7-.6-.1-.8.8-.3.9 3.1.9 6.7-.2 8.7-2.8 1.1 1.6 3.9 2 5.7 1.8 1.3-.1 3.5-.7 4.4-2 1.4 1.3 3.1 2.2 5 2.6 1.3.3 3.1.4 3.8-1 .1-.5-.5-.9-.9-.6z" fill="#8e5748" stroke-width="none" opacity="1" stroke="none"></path><path id="SvgjsPath10143" d="M92.3 133.2c1 2.4 5.4 1.5 7.3 1.4 2 0 4 0 6-.2 1.2-.2 2.2-.5 2.9-1.4.3-.4-.3-.8-.6-.6-2.3 1.2-5.3.8-7.9.9-2.2.1-5.4.9-7.4-.3-.1-.2-.4 0-.3.2z" fill="#8e5748" stroke-width="none" opacity="1" stroke="none"></path><path id="SvgjsPath10144" d="M95.8 128c2.9 1.7 8.6 1.9 9.9-2 .1-.2-.2-.3-.3-.2-1.2 1.1-2.2 2-3.8 2.4-1.9.5-3.7 0-5.6-.5-.2 0-.3.2-.2.3z" fill="#a5796c" stroke-width="none" opacity="1" stroke="none"></path><path id="SvgjsPath10145" d="M108.1 132c-1.1.1-2.1.6-3.2.8-1.4.3-2.8.3-4.3.4-.2 0-.2.3 0 .3 2.3.3 5.7.2 7.6-1.1.2-.2.2-.5-.1-.4z" fill="#a5796c" stroke-width="none" opacity="1" stroke="none"></path></g></g><g id="svga-group-eyes-left-move" transform="matrix(1,0,0,1,0,0)"><g id="svga-group-eyes-left" transform="matrix(1,0,0,1,0,0)"><g id="svga-group-eyesback-left"><path id="SvgjsPath10219" d="M91.1 103.2s-.2-2.1-.3-3-1.2-4.1-3.3-5.7c-2-1.6-4.2-2.7-7.8-2.6s-7 1-7 1 .7 2.1 1.5 3.4 2.9 3.9 4.5 4.8 4.7 2.3 8.2 2.2c3.4.1 4.2-.1 4.2-.1z" fill="#ffffff" stroke-width="none" opacity="1"></path></g><g id="svga-group-eyesiriswrapper-left" transform="matrix(1,0,0,1,0,0)"><g id="svga-group-eyesiriscontrol-left" transform="matrix(1,0,0,1,0,0)"><g id="svga-group-eyesiris-left" transform="matrix(1,0,0,1,0,0)"><path id="SvgjsPath10090" d="M82 91.2c2.9 0 5.2 2.3 5.2 5.2s-2.3 5.2-5.2 5.2-5.2-2.3-5.2-5.2 2.3-5.2 5.2-5.2z" fill="#566ea4" stroke-width="none" opacity="1"></path><path id="SvgjsPath10091" d="M82 101.8c-3 0-5.4-2.4-5.4-5.4S79 91 81.9 91s5.4 2.4 5.4 5.4c.1 3-2.3 5.4-5.3 5.4zm-.1-10.2c-2.7 0-4.9 2.2-4.9 4.9s2.2 4.9 4.9 4.9 4.9-2.2 4.9-4.9c0-2.8-2.2-5-4.9-4.9z" fill="#3f5a94" stroke-width="none" opacity="1"></path><path id="SvgjsPath10092" d="M82 92c2.4 0 4.4 2 4.4 4.4s-2 4.4-4.4 4.4-4.4-2-4.4-4.4 2-4.4 4.4-4.4z" fill="#6379ab" stroke-width="none" opacity="1"></path><path id="SvgjsPath10093" d="M82 92.6c2.1 0 3.8 1.7 3.8 3.8s-1.7 3.8-3.8 3.8-3.8-1.7-3.8-3.8 1.7-3.8 3.8-3.8z" fill="#7085b3" stroke-width="none" opacity="1"></path><path id="SvgjsPath10094" d="M82 93.6c1.5 0 2.8 1.3 2.8 2.8s-1.3 2.8-2.8 2.8-2.8-1.3-2.8-2.8 1.3-2.8 2.8-2.8z" fill="#000000" stroke-width="none" opacity="1"></path><path id="SvgjsPath10095" d="M80.7 93.6c.5 0 1 .4 1 1s-.4 1-1 1c-.5 0-1-.4-1-1s.5-1 1-1zm3.2 4.4c.2 0 .4.2.4.4s-.2.4-.4.4-.4-.2-.4-.4c.1-.2.2-.4.4-.4z" fill="#ffffff" stroke-width="none" opacity="1"></path></g></g></g><g id="svga-group-eyesfront-left"><path id="SvgjsPath10227" d="M70.73 98.03c0 6.9 4.93 12.5 11.02 12.5s11.02-5.6 11.02-12.5-4.93-12.5-11.02-12.5-11.02 5.59-11.02 12.5zm3.44-1.65c-.75-1.33-1.45-3.42-1.45-3.42s3.5-.84 7.05-.98 5.73.92 7.78 2.56 3.14 4.81 3.27 5.7c.14.89.31 3 .31 3s-.78.14-4.26.2c-3.48.07-6.48-1.3-8.15-2.22-1.68-.92-3.8-3.51-4.55-4.84z" fill="#ffd0bc" stroke-width="none" opacity="1"></path><path id="SvgjsPath10228" d="M88.89 95.15s-4.78-7.11-19.08-3.07c0 0 4.2 8.85 11.03 10.67 0 0-6.19-3.95-8.12-9.79 0 0 10.26-3.28 16.17 2.19z" fill="#f7c1aa" stroke-width="none" opacity="1"></path><path id="SvgjsPath10229" d="M69.71 91.84c4.9-1.53 10.32-2.65 15.28-.74 3.78 1.46 6.83 4.81 7.12 8.95.01.12-.2.15-.22.03-.83-4.67-4.22-7.93-8.8-9.06-4.42-1.09-8.82-.2-13.05 1.19 2.36 4.81 5.61 8.27 10.56 10.52.06.03.02.12-.04.1-5.01-1.56-9.29-5.77-11.11-10.68-.07-.18.1-.31.26-.31z" fill="#f0b399" stroke-width="none" opacity="1"></path><path id="SvgjsPath10230" d="M72.64 93.1c.63 3.73 3.76 7.19 6.96 9.02 3.45 1.98 7.75 1.8 11.54 1.21.1-.02.1-.15.03-.2.21-4.13-1.35-8.48-5.15-10.55-4.1-2.23-9.19-1.44-13.35.22-.14.06-.13.24-.03.3zm.27-.01c3.82-.73 7.89-1.18 11.63.27 4.06 1.57 6.1 5.6 6.51 9.76-3.75.21-7.72.32-11.06-1.65-3.39-2.01-5.31-5.01-7.08-8.38z" fill="#191c29" stroke-width="none" opacity="1"></path></g></g></g><g id="svga-group-eyes-right-move" transform="matrix(1,0,0,1,0,0)"><g id="svga-group-eyes-right" transform="matrix(1,0,0,1,0,0)"><g id="svga-group-eyesback-right"><path id="SvgjsPath10220" d="M108.9 103.2s.2-2.1.3-3 1.2-4.1 3.3-5.7c2-1.6 4.2-2.7 7.8-2.6s7 1 7 1-.7 2.1-1.5 3.4-2.9 3.9-4.5 4.8-4.7 2.3-8.2 2.2c-3.4.1-4.2-.1-4.2-.1z" fill="#ffffff" stroke-width="none" opacity="1"></path></g><g id="svga-group-eyesiriswrapper-right" transform="matrix(1,0,0,1,0,0)"><g id="svga-group-eyesiriscontrol-right" transform="matrix(1,0,0,1,0,0)"><g id="svga-group-eyesiris-right" transform="matrix(1,0,0,1,0,0)"><path id="SvgjsPath10096" d="M118 91.2c2.9 0 5.2 2.3 5.2 5.2s-2.3 5.2-5.2 5.2-5.2-2.3-5.2-5.2 2.3-5.2 5.2-5.2z" fill="#566ea4" stroke-width="none" opacity="1"></path><path id="SvgjsPath10097" d="M118.1 101.8c-3 0-5.4-2.4-5.4-5.4S115 91 118 91s5.4 2.4 5.4 5.4c.1 3-2.3 5.4-5.3 5.4zm-.1-10.2c-2.7 0-4.9 2.2-4.9 4.9s2.2 4.9 4.9 4.9 4.9-2.2 4.9-4.9c0-2.8-2.2-5-4.9-4.9z" fill="#3f5a94" stroke-width="none" opacity="1"></path><path id="SvgjsPath10098" d="M118 92c2.4 0 4.4 2 4.4 4.4s-2 4.4-4.4 4.4-4.4-2-4.4-4.4 2-4.4 4.4-4.4z" fill="#6379ab" stroke-width="none" opacity="1"></path><path id="SvgjsPath10099" d="M118 92.6c2.1 0 3.8 1.7 3.8 3.8s-1.7 3.8-3.8 3.8-3.8-1.7-3.8-3.8 1.7-3.8 3.8-3.8z" fill="#7085b3" stroke-width="none" opacity="1"></path><path id="SvgjsPath10100" d="M118 93.6c1.5 0 2.8 1.3 2.8 2.8s-1.3 2.8-2.8 2.8-2.8-1.3-2.8-2.8 1.3-2.8 2.8-2.8z" fill="#000000" stroke-width="none" opacity="1"></path><path id="SvgjsPath10101" d="M116.8 93.6c.5 0 1 .4 1 1s-.4 1-1 1-1-.4-1-1 .4-1 1-1zM120 98c.2 0 .4.2.4.4s-.2.4-.4.4-.4-.2-.4-.4.2-.4.4-.4z" fill="#ffffff" stroke-width="none" opacity="1"></path></g></g></g><g id="svga-group-eyesfront-right"><path id="SvgjsPath10231" d="M118.26 85.53c-6.08 0-11.02 5.6-11.02 12.5s4.93 12.5 11.02 12.5 11.02-5.6 11.02-12.5-4.94-12.5-11.02-12.5zm3.03 15.7c-1.67.92-4.67 2.29-8.15 2.22-3.48-.07-4.26-.2-4.26-.2s.17-2.11.31-3c.14-.89 1.23-4.06 3.27-5.7s4.23-2.69 7.78-2.56c3.55.14 7.05.98 7.05.98s-.7 2.09-1.45 3.42c-.76 1.32-2.88 3.91-4.55 4.84z" fill="#ffd0bc" stroke-width="none" opacity="1"></path><path id="SvgjsPath10234" d="M111.11 95.15s4.78-7.11 19.08-3.07c0 0-4.2 8.85-11.03 10.67 0 0 6.19-3.95 8.12-9.79 0 0-10.26-3.28-16.17 2.19z" fill="#f7c1aa" stroke-width="none" opacity="1"></path><path id="SvgjsPath10235" d="M130.29 91.84c-4.9-1.53-10.32-2.65-15.28-.74-3.78 1.46-6.83 4.81-7.12 8.95-.01.12.2.15.22.03.83-4.67 4.22-7.93 8.8-9.06 4.42-1.09 8.82-.2 13.05 1.19-2.36 4.81-5.61 8.27-10.56 10.52-.06.03-.02.12.04.1 5.01-1.56 9.29-5.77 11.11-10.68.07-.18-.1-.31-.26-.31z" fill="#f0b399" stroke-width="none" opacity="1"></path><path id="SvgjsPath10236" d="M127.32 92.81c-4.16-1.66-9.24-2.45-13.35-.22-3.81 2.07-5.36 6.41-5.15 10.55-.07.05-.07.18.03.2 3.79.59 8.09.77 11.54-1.21 3.2-1.84 6.33-5.3 6.96-9.02.11-.07.12-.25-.03-.3zm-7.3 8.65c-3.34 1.97-7.31 1.87-11.06 1.65.41-4.16 2.45-8.18 6.51-9.76 3.74-1.45 7.81-1 11.63-.27-1.78 3.38-3.7 6.38-7.08 8.38z" fill="#191c29" stroke-width="none" opacity="1"></path></g></g></g><g id="svga-group-facehighlight-single"></g><g id="svga-group-eyebrows-left-move" transform="matrix(1,0,0,1,0,0)"><g id="svga-group-eyebrows-left-rotate" transform="matrix(1,0,0,1,0,0)"><g id="svga-group-eyebrows-left" transform="matrix(1,0,0,1,0,0)"><path id="SvgjsPath10174" d="M68.7 87.4c.1-.1.3-.2.5-.3 0-.1.1-.2.2-.3 1.5-1 3.6-2.1 5.6-2.1.2-.1.4-.1.6-.2 1.9-.9 4.7-.9 6.6-.9 1.5-.3 3.2-.4 4.7.1.7 0 1.4 0 2.1.1.1 0 .1 0 .1.1h.1c.1-.2.4-.3.6-.1 0 0 0 .1.1.1h.2c.4.1.6.5.7.9.1-.2.1-.4.2-.6.1-.1.2-.2.3 0 .4.6.2 1.3-.2 1.9v.1c-.1.4-.3.8-.7 1.2-.3.2-.7.4-1 .4-.2.1-.4.1-.6 0l-.1.1c-.7.1-1.6.1-2.4 0h-.2c-.9 0-1.8 0-2.8-.1 0 .1-.1.1-.2.1-1.6.2-3.2.1-4.8 0-.8-.1-1.7-.1-2.6-.2-1.4.4-3.3.2-4.8-.1-.5.1-1 .2-1.6.1-.1 0-.1 0-.2-.1h-.4c0 .2-.3 0 0-.2z" fill="#ddbc9b" stroke-width="none" opacity="1"></path><path id="SvgjsPath10175" d="M88.8 87.5c.8-.3 1.3-.6 1.7-1.2.3-.6.4-1.3.6-2 .1-.2.4-.1.4 0 .2 1.2-.5 3.8-2.5 3.6-.3-.1-.5-.3-.2-.4zm-2.9-4.3c1 .3 1.5 1.1 1.9 1.8.4.8.2 1.7-.3 2.4-.1.1-.4 0-.3-.1.3-.8.4-1.6-.1-2.4-.3-.6-.8-1.1-1.4-1.6 0 .1.1-.1.2-.1zm-6.3.7c2.5-.5 5.6 1.7 6.2 3.7 0 .1-.2.2-.3.1-.7-.9-1.4-1.8-2.4-2.4-1.1-.7-2.2-.8-3.5-1.1-.2-.1-.2-.3 0-.3zm-4.7.3c2.4-.2 5.5 1.6 6.6 3.4.1.1-.1.3-.2.2-.9-.8-1.8-1.6-3-2.2-1.1-.5-2.3-.7-3.4-1.1-.2-.1-.1-.3 0-.3zm-4.3 1.7c2.6-.2 5.6.7 7.8 1.7.2.1.1.3-.1.3-1.2-.4-2.5-.8-3.8-1.1-1.3-.3-2.7-.3-4-.6-.1 0-.1-.3.1-.3zm-1.8 1.3c.8-.3 1.8-.2 2.7-.2 1.1.1 2.2.2 3.3.4.2.1.1.3-.1.2-1.8-.4-4.1-.6-5.8-.3-.1.2-.3 0-.1-.1z" fill="#ecd5bd" stroke-width="none" opacity="1"></path><path id="SvgjsPath10176" d="M67.9 87.6c-.1.2.1.4.2.4 5.8.3 11.7.2 17.5.1 1.5 0 4.2.3 5.3-.8.9-.9.8-2.6.1-3.5 0-.1-.2 0-.2 0 .1.8.3 1.7 0 2.4-.3.8-1 1.1-1.9 1.3.9-.8 1.3-2.1 1.1-3.1 0-.1-.3-.1-.3 0 0 .6-.1 1.2-.4 1.8-.3.5-.7.9-1.1 1.3h-1.1c.7-1.2.4-2.9-.6-4 1.1.1 2.3.1 3.4.2.3 0 .3-.3.1-.4-4-1.2-9.1-.6-13.2.2-2.9.8-6.9 1.8-8.9 4.1zm13.7.1h-.8c.1 0 .1-.1.1-.2-1.1-1.4-2.8-2.7-4.8-3.1l1.8-.3c2.9-.5 5.7-.6 8.5-.4.8 1.3.9 2.6.4 4h-.6c0-1.5-1.1-3.3-2.9-3.8-.1 0-.2.1-.1.2.7.5 1.3 1 1.8 1.7.4.6.7 1.3.8 1.9h-4.2zm-12.8-.2c1.5-1.5 4.1-2.3 6.6-2.9 0 0 0 .1.1.1 2 .8 3.8 1.6 5.2 3-4 0-7.9 0-11.9-.2z" fill="#cea57c" stroke-width="none" opacity="1"></path></g></g></g><g id="svga-group-eyebrows-right-move" transform="matrix(1,0,0,1,0,0)"><g id="svga-group-eyebrows-right-rotate" transform="matrix(1,0,0,1,0,0)"><g id="svga-group-eyebrows-right" transform="matrix(1,0,0,1,0,0)"><path id="SvgjsPath10177" d="M131.4 87.4c-.1-.1-.3-.2-.5-.3 0-.1-.1-.2-.2-.3-1.5-1-3.6-2.1-5.6-2.1-.2-.1-.4-.1-.6-.2-1.9-.9-4.7-.9-6.6-.9-1.5-.3-3.2-.4-4.7.1-.7 0-1.4 0-2.1.1-.1 0-.1 0-.1.1h-.1c-.1-.2-.4-.3-.6-.1 0 0 0 .1-.1.1h-.2c-.4.1-.6.5-.7.9-.1-.2-.1-.4-.2-.6-.1-.1-.2-.2-.3 0-.4.6-.2 1.3.2 1.9v.1c.1.4.3.8.7 1.2.3.2.7.4 1 .4.2.1.4.1.6 0l.1.1c.7.2 1.6.2 2.5.1h.2c.9 0 1.8 0 2.8-.1 0 .1.1.1.2.1 1.6.2 3.2.1 4.8 0 .8-.1 1.7-.1 2.6-.2 1.4.4 3.3.2 4.8-.1.5.1 1 .2 1.6.1.1 0 .1 0 .2-.1h.2c.1.1.3-.1.1-.3z" fill="#ddbc9b" stroke-width="none" opacity="1"></path><path id="SvgjsPath10178" d="M111.2 87.5c-.8-.3-1.3-.6-1.7-1.2-.3-.6-.4-1.3-.6-2-.1-.2-.4-.1-.4 0-.2 1.2.5 3.8 2.5 3.6.3-.1.5-.3.2-.4zm2.9-4.3c-1 .3-1.5 1.1-1.9 1.8-.4.8-.2 1.7.3 2.4.1.1.4 0 .3-.1-.3-.8-.4-1.6.1-2.4.3-.6.8-1.1 1.4-1.6 0 .1-.1-.1-.2-.1zm6.3.7c-2.5-.5-5.6 1.7-6.2 3.7 0 .1.2.2.3.1.7-.9 1.4-1.8 2.4-2.4 1.1-.7 2.2-.8 3.5-1.1.2-.1.2-.3 0-.3zm4.7.3c-2.4-.2-5.5 1.6-6.6 3.4-.1.1.1.3.2.2.9-.8 1.8-1.6 3-2.2 1.1-.5 2.3-.7 3.4-1.1.2-.1.1-.3 0-.3zm4.3 1.7c-2.6-.2-5.6.7-7.8 1.7-.2.1-.1.3.1.3 1.2-.4 2.5-.8 3.8-1.1 1.3-.3 2.7-.3 4-.6.1 0 .1-.3-.1-.3zm1.8 1.3c-.8-.3-1.8-.2-2.7-.2-1.1.1-2.2.2-3.3.4-.2.1-.1.3.1.2 1.8-.4 4.1-.6 5.8-.3.1.2.3 0 .1-.1z" fill="#ecd5bd" stroke-width="none" opacity="1"></path><path id="SvgjsPath10179" d="M123 83.7c-4-.8-9.2-1.4-13.2-.2-.2.1-.2.4.1.4 1.2-.1 2.3-.2 3.4-.2-1 1.1-1.3 2.7-.6 4h-1.1c-.4-.4-.9-.8-1.1-1.3-.3-.6-.4-1.2-.4-1.8 0-.1-.2-.2-.3 0-.2 1 .1 2.3 1.1 3.1-.8-.2-1.5-.5-1.9-1.3-.3-.8-.1-1.6 0-2.4 0-.1-.1-.1-.2 0-.7.9-.8 2.7.1 3.5 1.1 1.1 3.8.7 5.3.8 5.8.1 11.7.2 17.5-.1.2 0 .4-.2.2-.4-1.8-2.5-5.8-3.5-8.9-4.1zm-8.8 4c.2-.7.4-1.3.8-1.9.5-.7 1.2-1.2 1.8-1.7.1-.1 0-.2-.1-.2-1.7.6-2.9 2.3-2.9 3.8h-.6c-.5-1.4-.4-2.7.4-4 2.8-.1 5.6-.1 8.5.4.6.1 1.1.2 1.8.3-2 .4-3.8 1.7-4.8 3.1-.1.1 0 .1.1.2h-5zm5.1 0c1.5-1.5 3.2-2.3 5.3-3.1 0 0 .1 0 .1-.1 2.4.5 5 1.4 6.5 2.9-4 .3-7.9.3-11.9.3z" fill="#cea57c" stroke-width="none" opacity="1"></path></g></g></g><g id="svga-group-nose-single-move" transform="matrix(1,0,0,1,0,0)"><g id="svga-group-nose-single" transform="matrix(1,0,0,1,0,2)"><path id="SvgjsPath10160" d="M97.72 89.37c-.8 3.33-.91 6.89-1.27 10.29-.38 3.64-1.08 7.4-1.03 11.06 0 .29.45.37.52.07.74-3.34.83-6.91 1.18-10.31.37-3.64 1.05-7.41.93-11.06 0-.19-.28-.24-.33-.05z" fill="#d17f5b" stroke-width="none" opacity="1"></path><path id="SvgjsPath10161" d="M94.71 108.8c-.98 1.31-1.8 2.73-2.52 4.2-.46.95-1.04 2.07-.73 3.16.5 1.8 2.79 2.36 4.28 1.51.44-.26.24-.95-.26-.95-.87-.01-1.89.27-2.58-.47-.84-.89-.01-2.5.36-3.4.55-1.32 1.22-2.59 1.74-3.92.07-.19-.19-.26-.29-.13z" fill="#d17f5b" stroke-width="none" opacity="1"></path><path id="SvgjsPath10162" d="M94.57 116.21c2.7-.2 3.21 3.2 5.78 3.28 2.2.07 2.37-3.24 4.46-3.14.24.01.32-.33.12-.45-2.37-1.4-2.81 2.72-4.99 2.46-1.29-.15-2.21-2.05-3.37-2.6-.79-.37-1.36-.34-2.13.01-.19.11-.09.46.13.44z" fill="#d17f5b" stroke-width="none" opacity="1"></path><path id="SvgjsPath10163" d="M104.07 117.75c1.78.4 3.85-.15 4.27-2.13.21-.99-.12-1.97-.64-2.81-.84-1.37-1.93-2.53-2.73-3.95-.13-.24-.47-.12-.48.13-.1 1.59 1.08 2.69 1.92 3.92.78 1.13 1.45 2.69.14 3.81-.6.51-1.74.42-2.48.56-.24.05-.23.42 0 .47z" fill="#d17f5b" stroke-width="none" opacity="1"></path><path id="SvgjsPath10164" d="M102.32 112.41c-.39-.7-1.4-.81-1.96-.25-.05.05-.23.28-.28.34-.06.08-.19.25-.21.28-.06.1-.12.2-.17.3l-.11.26c0-.01-.01.01-.03.05-.06.06-.12.13-.17.19-.17.18-.34.36-.48.57-.4.63-.08 1.35.46 1.75.83.62 2.03.12 2.61-.58.7-.84.89-1.92.34-2.91z" fill="#ffd9c9" stroke-width="none" opacity="1"></path></g></g><g id="svga-group-hair-front" transform="matrix(1,0,0,1,0,0)"><path id="SvgjsPath10272" d="M172.8 133.8c-.3-1.3-1.3-1.6-2-2.6-1.8-2.6-.7-2.9.3-5.1.8-1.7.8-3-.3-4.5s-2.3-1.2-2.3-3.7c0-1.4 1.1-2.8 1.3-4.2.2-1.7 0-3.1-1.1-4.4-1.7-1.9-3-.5-2.6-4.2.1-1.3.9-2.5.9-3.9 0-1.7-.4-3.6-1.8-4.6-1-.8-2.9-.7-3.4-2.2-.2-.7.8-3.5.7-4.8-.2-1.3-.9-2.2-2.2-2.3-.6-.1-1.3-.1-1.9-.2.4-1.4 1.5-2.9 1.3-4.3-.3-1.5-1.2-2.5-2.5-3.1-2.2-1-2.5-.4-2.1-3.1.1-.8.7-1.6.9-2.5.3-1.6.2-3.2-.8-4.5-1.3-1.7-2.7-1.3-4.4-1.9-.7-.3-1.1-.4-1.3-.7-.1-.4-.2-.8-.4-1.1 0-.4 0-.9-.1-1.6-.1-1.4.2-1.9-.4-3.2-1.2-2.8-4.2-3.9-6.8-3.1-.2-1.5.4-4.2-.8-5.4-.8-.8-1.8-1.2-2.8-1.4-.1-.2-.3-.3-.5-.5-.3-.2-.6-.5-.9-.6-.2-3.7-.8-8.2-4.9-7.8-1.1.1-1.9 1.1-2.9.5-.7-.5-1.1-2.8-1.7-3.5-1.1-1.3-2.3-2-4-2-2.7 0-3.8 1.5-5.7 1.7l-.3-.3c-1.3-1.1-2.8-1.5-4.4-1.4-.9-.6-1.8-1.1-3.3-.9-.7.1-1.2.5-1.8.8 0 0-.1 0-.1-.1h-.1c-.9-.7-1.1-1.5-2.5-1.8-1.7-.3-3 .3-3.8 1.4-.1 0-.3 0-.4-.1h-1.1c-.9-1-1.9-1.9-3.3-2.1-.6-.1-1.1 0-1.6.2-2.1-1.2-4.8-1.5-7.1-.9-1.5.5-2.4 1.3-3.3 2.2-.3.2-.7.4-1 .6-.4.3-.8.7-1.1 1.1-1.4.8-2.8.8-4.2.5-.9-.3-1.9-.7-2.6-.8-.6-.1-1.2-.1-1.8-.1-.5-.1-1.1-.1-1.7 0-1.9.2-3.7.9-5 2.4-.2.3-.4.6-.6.8-.5.7-1 1.4-1.3 2.2 0 .1-.1.3-.1.6-.4.4-.9.8-1.9 1.1-2.4.7-4.2 1.2-5.8 3.3-1.6 2.2-1.2 4.4-3.5 6-1.8 1.2-3.5 1.4-4.7 3.6-1 1.8-.6 3.8-.8 5.5-.3.6-.6 1.2-.8 1.8-1.2 1.5-3.5 1.9-4.7 3.7-1.5 2.1-1.1 3.7-1 5.7-.3.2-.6.3-.9.5-1.8 1.4-3.5 3.4-3.5 5.9 0 .3 0 .6.1.9 0 0 0 .1-.1.1-1.1 2.1-.8 4-.5 6.2.3 2.9-1.6 2.7-2.9 5-1.7 2.8.7 6-1.4 8.9-1.3 1.9-3.3 2.3-3.3 5.1 0 2.7 3.3 4.9 1.5 7.5-1.3 1.9-3 2-3.4 4.7-.4 3.2 1.5 6.4.9 9.7-.2.8.7 1.3 1.3.8.6-.5 1-.9 1.2-1.5v.8c.3 2 1.4 2.7.8 4.8-.5 2-2.1 2.6-3 4.3-1.5 2.9 0 6 1.4 8.6 1 1.8 3.6.2 2.7-1.6-1.3-2.8-.7-4.8 1-7.2.5-.7 1.3-1.2 1.7-2 1-2 .2-3.3-.2-5.3-1-4.2.8-5.1 2.8-8.2 1-1.6 1.7-3.2 1.4-5.1-.3-2.3-2.3-3.7-2.9-5.7-.5-1.9.6-2.8 1.8-3.6.5 1.4 1.4 2.6 2.3 4 1.6 2.5 1.3 4.1.3 6.8-.4.9-.6 1.8-.6 2.8 0 3.1 3.6 5.5 2.8 8.6-.6 2.1-2.6 3.3-2.6 5.7 0 1.2.6 2 1 3.1 1 2.4 1.5 4 .5 6.6-.3.7.6 1.2 1.1.9 2-1 3.1-2.7 3-5-.1-3.6-2.7-4.7-.4-8.3 1.4-2.1 2.3-4 1.5-6.6-.4-1.3-1.8-2.2-2.1-3.4-.7-2.4.8-3.2 1.7-4.8l.3-.6c.3.1.7.2 1 .3.3 2.6 1.9 3.4 3.5 5.1-1 .9-2.1 1.6-2.5 3.4-.3 1.4-.1 2.9 1 3.9.1.1.2.2.3.2-.2.2-.4.5-.6.8-.9 1.4-1.3 2.8-1 4.4.8 4 5.3 5.3 1.3 10-.9 1 .5 2.4 1.5 1.5 1.3-1.2 2.6-2.6 3-4.3 1.4 1.4 2.6 3 1.4 3.7-.9.5-.1 1.9.8 1.5 2.4-1.1 2-3.6.6-5.5-1.3-1.8-3.1-1.5-2.1-4.9.2-.6.8-1.2 1.1-1.7.7-1.5 1.1-3.4.4-4.9-.4-.7-1.2-1.3-1.9-1.8.9-1.1 1.7-2.2 1.9-3.6.4.4.9.7 1.2 1.4 2 3.5 1.3 3.6.6 6.3-.5 1.8-1 3.5-.3 5.4.8 2.1 5.7 4.7 3.9 7.3-.4.6.4 1.4 1 1 2.1-1.4 1.6-3.8.2-5.7-1.4-1.9-2.9-3.3-2.7-6 .1-1.1 1.1-2.5 1.3-3.6.4-1.6.6-3.1-.1-4.7-.3-.9-1.3-1.6-1.6-2.4-1.4-3.8-.2-3.2.6-5.6.7-2.2 1.5-4.3.7-6.6-.9-2.6-3-3.4-1.8-6.5.8-2 2.4-3.4 2.7-5.7.3-1.8-.3-3.3-1.2-4.9-1.7-3.2-1.6-4 1-6.4 2.4-2.3 4.3-4.9 2.5-8.1l5.4-1.1c0-5.1 2.1-13.2 2.1-13.2-1.1 6-.4 13.3-.4 13.3l8.5-.3 2.4-11.6c-.8 6-.8 11.9-.8 11.9l5.8.1c0-3.2 2.5-22.5 2.5-22.5-.8 6.6-.8 22.2-.8 22.2 4.3.6 10.4 0 10.4 0 .4-3.2 1-21.3 1-21.3 1.2 8 2.2 21.1 2.2 21.1.7-2 2-8.3 2-8.3.3 2.1-.4 8.6-.4 8.6l4.4.1.5-4.8 1.8 4.6c.7-8.6-.5-21.8-.5-21.8 1.5 7.4 2.1 21.2 2.2 21.3h8.5c.8-3.2-.3-15-.3-15 2.2 5.3 2.1 15.3 2.1 15.3 3.1.3 5.8.8 5.8.8l.5-10.5c.3 2.4.9 10.8.9 10.8s3.1 1 5.2 1.5c-.1.4-.1.7 0 1.1.3 1.4 1.5 2.1 2.4 2.9-.5 1.2-.9 2.3-.9 3.4.1.7.2 1.2.4 1.7-1.4 1.3-3.2 2.1-3.7 4.3-.5 2.2.7 3.3 1.9 5 1.4 1.8 2.3 3.1.4 5.2-.6.7-1.9 1.1-2.6 1.8-1.1 1-2 2.2-2 3.8 0 1.8 1.1 3 2.4 4 2.3 1.9 7 3 2.6 6.3-3.1 2.3-7.8 4-3.8 8.6 1.5 1.8 3.4 3.7 2.6 6.6-.3 1.1-1.8 1.8-2.1 3-.4 1.8 2.1 4.1 1.6 5.3-.5 1.1 1.1 2.1 1.7 1 .8-1.7.4-1.5 0-3.3-.6-2.6-.2-3 .9-4.9.4-.7 1-1.2 1.2-2 .5-1.7-.1-3.3-1.1-4.7-.6-.8-2.1-1.6-2.5-2.4-1-2.5.9-3.8 2.9-4.8 1.2-.6 2.3-1.5 3-2.5.9 2 2.2 2.2 1 4.9-.7 1.6-1.9 2.3-1.5 4.3.5 2.8 3.5 2.4 1.3 5.6-.6.9-1.9 1.3-2.1 2.5-.8 3.4 4 3 1.1 8.2-.3.5.4 1 .8.6 1.3-1.2 1.9-2.6 1.6-4.5-.1-.7-.8-1.5-.9-2.1-.5-4.3.8-2.1 1.9-3.9 1.1-1.8 1.3-1.8 1.1-4-.1-1.5-1.4-2-.6-3.9.4-1 1.8-1.8 2.2-2.9.9-2.2-.1-3.1-.8-5.1-.6-1.9-.8-3.2-.2-5 .3-.9.9-1.7 1.2-2.6.6.8 1.4 1.4 2.3 2 .2.1.5.3.7.4.5 2.5 1.9 4.7 1 7.6-.9 2.9-2.4 5.1-1 8.3.8 1.9 1 1.2.5 2.5-.4 1-1.3 1.5-1.6 2.7-.6 2.8 2 5.2 1.6 7.8-.2 1.6 1.6 2.4 2.5 1.1 1.2-1.7 1-3 .8-5-.2-1.8-.5-2.2.6-4 .5-.8 1.1-1.1 1.4-2.1.4-1.4-.2-2.6-.8-3.8 1.5 1.6 3.5 2.9 3.1 5.5-.4 3-2.7 5.5 1.3 7.2 1.5.6 2.3-1.8 1.1-2.5-.5-.3-.2-1.6.3-3 .8.7 2.2.3 2.3-1 .2-2.8 2.6-5.5 2.1-8.4-.2-1-.8-1.5-1.1-2.3-.9-2-1.1.1-.6-2.8.3-1.5 1-1.9 1.6-2.9 0 .1.1.2.1.3.5 1.1 1.3 1.2 1.9 2.2 1.5.4 1.9 1.6 1.2 3.5-.5.6-.9 1.3-1.1 2.1-.4 1.5 0 2.1.6 3.5.3.4.7.7 1.1 1 1.5 1.6 1.6 2.9.2 3.8 0 .5-.3 1-.3 1.6-.1 1.4 2 1.4 2.1 0-.1-2.5 2.1-2.6 1.6-4.9zM33.5 121.9c-.8 1.1-1.6 2.2-2.1 3.4v-1c-.1-1.3-1-3.1-.8-4.5.6-3.8 2.1-2.2 3.2-4.1.2-.3.4-.7.5-1 1.5 3 1.1 4.6-.8 7.2zm.2-16.3c-.4.3-.7.7-.9 1.1 0-1.9 1.7-2.1 3-3.8.4-.5.7-1 .8-1.5.1.3.2.7.1 1.1-.2 2-1.7 1.8-3 3.1zM133 54.8c-.2 0-.4-.1-.5-.1-.4-.6-.8-1.1-1.2-1.7.4-.1.8-.1 1.2-.2.5.7 1.1 1.4 1.6 2.1-.4 0-.7 0-1.1-.1zm-2-7.7c1.9.1.6-2.7 1.9 1.2.1.3.2.7.2 1-1 .2-1.7.4-2.4-1.3l-.3-.9h.6zm-55.7-4.7c.4 0 .7.1 1.1.2-.3.5-.6 1-.7 1-.4.2.2-.2-1.2-.6-.7-.2-1.3-.3-1.9-.3.7-.3 1.6-.4 2.7-.3zm-8.4 11.5c-.1.9-.5 1.7-1.6 2.1.1-.4 0-.8-.3-1.2.7-.3 1.3-.6 1.9-.9zm-11.6 3.4c-.1.6-.5 1.2-1.4 1.9l-1.2.6c.6-1.3 1.5-2.1 2.6-2.5zm-2.8 11.5c.2-3 1.1-3.7 2.6-4.4.1 1.7.8 2.8-.5 4.2-.7.7-1.3.9-2.1 1.2v-1zm1.4 13.5c-.1-.1-.2-.2-.2-.3-.8-1.1-.7-2.4-.2-3.9v.1c.4 1.9.8 3 .4 4.1zM47 70.6c-.2.6-.6 1.2-1.1 1.7l-.1.1c.2-.8.7-1.3 1.2-1.8zm-5.7 29.9c-.1.2-.3.3-.4.4-1.1-2.7-3.4-5.2-1.4-7.4.2-.2.4-.5.7-.6v.1c.1 3.2 3.2 5 1.1 7.5zm1.5-19.4c1.3-.9 2.7-1.7 3-3.5v-.2s.1 0 .1-.1c.2-.1.4-.1.6-.2-.2 1.5.2 2.8.5 4.5.3 2 .4 2.4-1.4 3.7-.2.2-.5.4-.8.5-.3-.9-.8-1.5-1.2-2.4-.7-1.8-1.3-1-.8-2.3zm2.6 27.5c-.9-1-1.8-2.2-1.4-3.2.2-.5 1.4-1.1 2.3-1.6.1.3.3.6.5.9.4.5.8.9 1.3 1.3-.8.8-1.8 1.6-2.7 2.6zM47.5 91c.3-.3.6-.5 1-.8.4-.3.9-.6 1.3-.8 0 .1.1.2.1.3-.8.4-1.7.8-2.4 1.3zm2.6 2.7c-.2.6-.6 1.2-1 1.8.1-.7.4-1.3 1-1.8zm.7 17.5c-.4.9-.9 1.6-1.3 2.2-.9-.3-1.2-1.1-.5-2.9.4-.9 1.2-1.6 2.1-2.3.2.8.2 1.7-.3 3zm2.2 25.1c-.1.3-.1.5-.2.8-.3-.4-.5-.8-.7-1.2-.8-2 0-3.5 1.2-5 .8.3.9 1.2.1 2.7.3 1.1.2 2-.4 2.7zm.7-11.1s.1 0 0 0c.2.6.1 1.1-.2 1.6 0-.4 0-1 .2-1.6zm.3-5.8c-.3-.6-.5-1.1-.6-1.6.5.3.8.7.6 1.6zm4-3c-.7-1.3-2.1-2.2-3.8-2.5H54c.2-.5.5-.9.7-1.4.5-.9.9-1.7 1.2-2.5.3.6.9 1 1.2 1.7 1.3 2.3 1.4 3.5.9 4.7zm.6-16.8c-.2 1.9-2.2 3.8-2.9 5.6l-.3 1.2c-.4-.6-.9-1-1.4-1.4 1.3-3.2-.5-4.4-2.4-5.9 1.1-1.6 3-3.2 3.6-4.9.6-1.8.2-2.8-.4-3.9.9-1.1 1.6-2.3 1.6-3.8 0 0 0-.1.1-.1.1.1.1.3.2.4.1.5.1 1 .1 1.5-.7 1.1-1 2.3-.9 3.6.2 3 3.1 4.9 2.7 7.7zM61.1 84c-.1.2-.2.5-.4.7v-1.5c0-.8-.3-1.5-.6-2.1.8.9 1.4 1.9 1 2.9zm88.3-9.8c.3-.8.5-1.7.5-2.5.5.1.9.2 1.1.4.9.9-.1 2.6-.7 4-.5-.3-.9-.6-1.2-1.1.1-.3.2-.5.3-.8zm-9.2-12.7c.6.4 1.4.2 1.9-.2 1.8.3 2.9.9 3.2 1.6-.1 0-.2-.1-.3-.1-1.4-.4-4.1-.1-5.2-1l-.1-.1c0-.2-.1-.5-.1-.7.2.2.4.4.6.5zm-.7 31.2c.3.2.5.4.8.7.3.2.7.4 1 .6.2.5.4 1 .7 1.4.1 1.5-.5 2.7-1.7 3.5-.1.1-.2.3-.3.4-.6-.5-1.4-1-1.8-1.6-1.1-2-.3-3.6 1.3-5zm1.9 22c-.2.4-.4.9-.5 1.3-1-1.5-2.8-1.9-4.1-3.1-3.3-2.9-.6-4 1.9-5.9.3-.2.7-.5 1-.8.5.5 1.1.9 1.5 1.5 2.9 3.8 1.4 4.2.2 7zm4.4-9.9c-.1.2-.1.4-.2.7-1-.9-2.5-2-2.3-3.4.1-.9 2.7-3 3.2-4.2.2.1.5.1.7.2.1 1.2.1 2.5.2 3.7-.3 1-1.3 1.9-1.6 3zm2.8-10.3c-.5-.1-1.1-.2-1.5-.4-.1-.1-.2-.2-.4-.2-.2-.5-.4-.9-.7-1.3-.3-.5-.8-.8-1.2-1.1-.2-1.1.4-2.1.8-3.4.4-1.1.8-2.1 1.2-3.2.3.2.5.4.8.7 4 3.2 1.5 5.3 1 8.9zM151 110c-.1-.4-.2-1-.4-1.8-.9-4-.4-3 .8-5.8.2-.4.3-.8.5-1.2.4.4.8.9 1.2 1.5 1.4 2.5-.8 4.9-2.1 7.3zm3.6-13.8c0 .2-.1.5-.1.7-.6-1.2-.6-2.3-.3-3.3.3.5.6 1.2.4 2.6zm7.2 4c-1-.4-1.9-.5-2.5-1 .8.3 1.8.4 2.5 1zm-.7 31.2c-.2-.2-.4-.5-.6-.7-1.8-2.2-4.1-2.2-2.6-6.2.2-.5.5-1 .8-1.5-.4 2.5 1.3 3.1 2.3 5.1.6 1.1.4 2.2.1 3.3zm-.8-11.9c-.1.1-.2.3-.2.4v-.1c.1-3.2-2.3-5.1-4.8-6.5.2-1.3.8-2.5 1.7-3.9 1.1-1.9 2.2-3.8 1.9-6.1.9.4.8-.3 1.2 1.4.3 1.7-.2 1.2-.6 2.4-.4 1-1 1.8-1.1 2.9-.3 2.4.6 3.2 2 4.8.2.2.8.2 1 .3 1.2 1.7-.3 2.9-1.1 4.4zm3.8-8c-1.1-1-.9.5-1.2-1.2.9.8 1.9 1.2 2.4 2.1-.4-.3-.8-.5-1.2-.9z" fill="#ddbc9b" stroke-width="none" opacity="1"></path><path id="SvgjsPath10273" d="M85.6 49c-4.5 8.4-6.6 17.1-7.1 26.5 0 .1-.2.1-.2 0-.2-9.5 2.5-18.5 7.1-26.7 0-.1.2 0 .2.2zm-.2-6.9c-7 8.3-10.5 20.2-9.2 31 0 .2.4.2.4 0 0-11.5 2.9-21 9.2-30.6.2-.3-.2-.7-.4-.4zm-8.6 8.1c.1-.2-.2-.2-.3-.1-3 7.8-4.5 15.9-3.8 24.2 0 .2.3.2.3 0-.2-8.3.9-16.2 3.8-24.1zm18.6-5.4c0-.1-.2-.1-.2 0 .5 10 .5 20 .7 30 0 .2.4.2.4 0 .7-10 .1-20.1-.9-30zm1.1 1c.7 10.9.8 21.4-.2 32.3 0 .3.4.3.5.1 1.8-10.5 2-21.9.1-32.4-.1-.2-.4-.1-.4 0zm4.8-2.3c2.5 10.4 4.8 20.5 4.4 31.3 0 .3.4.3.4 0 1.1-10.7-1.5-21.2-4.4-31.4-.1-.2-.5-.1-.4.1zm3.8 4.5c1.6 5.9 2.8 11.9 3.8 17.9 0 .2.5.2.5-.1-.5-6.1-1.9-12.2-3.9-18-.1-.1-.5 0-.4.2zm2.4-3.6c4.1 10.3 8 19.7 7.6 31 0 .3.5.3.5 0 1.4-10.7-2.7-21.8-7.8-31.1-.1-.2-.4-.1-.3.1zm10.9 3c6.5 7.5 8.2 16.6 8.9 26.3 0 .2.3.2.3 0-.4-9.5-2.2-19.4-9.1-26.4 0-.1-.1 0-.1.1zm9.2 12.8c-.5-2.9-1.7-5.7-3.2-8.2-.1-.1-.3 0-.2.1 1.4 2.6 2.4 5.3 3.2 8.1 0 .2.3.2.2 0zm6.3 17.9c.1-8.3-1.7-16.6-5.4-24-.1-.2-.3 0-.3.1 2.9 7.9 4.6 15.5 5.2 23.9 0 .4.4.4.5 0zM72.2 54c-1.8 3.2-3.1 6.6-4 10.1 0 .1.2.2.2 0 1.1-3.4 2.4-6.8 4.1-10 .1-.1-.2-.3-.3-.1zm-5.7-6.4c-1.9.3-3.4 1.2-4.2 3-.7 1.5-.8 3.7-1.2 5.3-1 3.4-1.5 2.7-3.7 4.5-1.2 1-2.1 1.9-2.1 3.6 0 .9.5 1.6.7 2.5.5 2.3.3 4.4-1.1 6.1-.6.7-1.6 1-2.3 1.7-1.2 1.2-2.1 2.5-1.6 4.2.6 2.2 2.7 3.6 1.5 6.5-.4.8-1.7 1.5-2.2 2.3-1.5 1.9-1 2.7-.5 4.8.8 4-1.6 6.4-1.1 10.2 0 .2.3.2.3 0-.1-4.2 3-4.5 3-7.7 0-1.1-.7-1.5-1-2.5-.7-2.7-.2-3.8 1.6-5.7.9-1 2.1-2 2.2-3.4.4-3.7-5-3.2-.2-8.6 1.3-1.5 3.4-1.9 3.8-4.2.5-3.4-3.8-5.1.1-9 1.2-1.2 3.1-1.5 4.2-3 2.2-3.1-2-8 4.2-9.8.3-.2.1-.9-.4-.8zM44.9 85.3c.2-.2 0-.6-.2-.4-6.3 3.9 1.5 6.9-2.6 12.5-2.6 3.6-3 3.9-1 8 1.1 2.3 1.1 3.7-.4 5.8-.5.7-1.3 1.2-1.7 2-.8 1.5-.6 2.1-.2 3.6.4 1.5.9 1.6 1.4 3.5.6 2.9-.5 2.7-.5 5.1-.1 2.7 3 4.1 2.4 7 0 .2.3.3.4.1.5-1.7 0-2-.4-3.8-1.1-1.6-1.2-3.4-.3-5.5l.6-1.2c0-.5.3-1.1.2-1.6-.2-1.5-1.5-2-2.1-3.2-2.1-4.6 1.9-4.7 2.8-7.8.3-1.1.1-1.9-.3-3-1.1-2.5-1.8-1.5-1.3-4.9.4-2.9.8-2.5 2.2-4.5.8-1.1 1.3-1.9 1.2-3.3-.2-3-4.5-5.3-.2-8.4zm105.5 25.6c-.6-2.9-.1-5.4 1.2-7.9.3-.5.6-1 .8-1.6.3-1.1.5-1.9.2-3s-.9-1.3-1.5-2.1c-1.4-2.2-2.8-4.5-2.2-7.3.3-1.8 1.4-3.4 1-5.3-.2-1.3-.9-2.2-1.9-3.1-.7-.6-1.7-.9-2.4-1.6-2.4-2.2-2.4-4.8-2.4-7.6.1-4-.6-6.8-4.1-9.1-2.8-1.9-3.4-1.2-4.9-6.2-.3-1.1 0-2.2-.4-3.4-.4-1.2-1.1-2-2.1-2.7-1.7-1.3-3.5-1.3-5.4-1.9-7.7-2.3-3.3-1.8-5.6-5.2-2.2-3.3-8.2-2.9-11.4-1.8-.4.1-.2.7.2.6 4.9-1.1 8.1-.4 11 4 .8 1.2.1 1.4 1.3 2.4.8.7 1.9.7 2.9 1 1.2.3 2.6.2 3.8.6 3.2 1.2 3.8 3.4 4.5 6.5.6 2.9.8 4.3 3.4 6.1 4.2 2.8 6 5 5.3 10.4-.2 1.3-.4 2.5 0 3.8.3 1.1.9 1.8 1.8 2.6 2.1 1.8 2.8 1.4 4.1 4.5 1.6 3.7 0 4.1-.2 7.8 0 1 0 1.8.4 2.7.6 1.3 1.9 1.9 2.7 3 2.4 3.4.2 5.1-1.1 8.2-.4 1-.8 1.8-.8 2.9.1 2.5 3.8 6.3.8 8.5-.2.2 0 .5.2.4 3-1.5 1.3-3.9.8-6.2zm12 15.1c.2-1.8 1-2.4.5-4.2-.8-2.9-3.4-4.4-3.1-7.8.2-2.2 1.6-4.2 1.7-6.5 0-1.4-.3-2.5-1.1-3.7-.4-.5-1-.8-1.3-1.3-2.4-3.2-2.3-4.5-2-7.9.4-4-.3-7.1-3.2-10-.3-.3-.7.1-.5.5 2.9 3.6 2.9 6.7 2.4 11-.2 1.7-.4 3.2.4 4.8.6 1.2 1.8 1.7 2.5 2.8 2.2 3.7.7 5.9-.1 9.4-.7 3.5 1.1 4.5 2.5 7.4 1.3 2.8.3 4-.1 6.7-.4 2.5 1.5 3.9 1.6 6.5 0 .4.5.3.5 0 .4-2.5-1-5-.7-7.7zm-19-18.8c-1.9-3.5-1.5-5.6 0-8.4 2.7-5.2-1.6-5.1-2.1-10.5-.2-1.7.7-2.4-.4-4-.4-.6-1-.9-1.5-1.3-2.8-2.7-3.8-5.5-3.2-9.5 0-.2-.2-.3-.3-.1-1.3 4.4.5 6.7 2.9 10.1 2.2 3 .3 4.8 1.2 7.4.2.5.6.8.8 1.2 1.1.7 1.6 1.8 1.5 3.2.9 1.3.9 2.5-.2 3.5-1.3 3.3-3 4-.7 7.5 2 3 3.9 4.2 2.9 8.4-.3 1.3-1.1 2.4-1.2 3.7-.2 3.1 2.9 5.9.7 9.1-.2.2.2.4.4.2.9-1.1 1.1-2 1-3.5-.4-3.7-1.8-2.5-.6-8 .3-1.2.7-1.5.9-2.7.2-1.5-.1-3.1-.7-4.5-.6-.9-.9-1-1.4-1.8zM88.9 38c-1 .2-1.5.7-2.4 1.2-1.6.9-2.9 2.1-5 2.4-1 .1-2-.2-3 0-1.8.3-2.4.9-3.3 2.4-.6.9-.5 1.5-1.3 2.7-1.2 1.7-1.3 1.2-2.4 2.3-.7.7-1.2.9-1.7 1.8-.1.3.2.5.4.2 1.2-1.8 3.4-2 4.6-3.6 1.6-2.1.9-4.2 4.9-5 1.4-.3 2.9.4 4.3 0 3-1 5.7-4.8 9.2-2.1.3.3.8-.3.5-.6-1.3-1.3-2.9-2-4.8-1.7zm-34.7 93.6c-.6-3.1-3.4-3.3-1.6-7.8.5-1.2 1.6-2.2 1.6-3.6.2-4-5.1-3.8-1.3-9.7.1-.2-.2-.5-.3-.3-1.2 1.6-1.9 3.2-1.4 5.3.3 1 1.2 1.6 1.5 2.5.5 1.6.1 3.4-.5 4.8-.4 1.1-1.3 1.9-1.5 3.1-.1.9.1 1.5.4 2.3.9 2.1 1.8 3.2 1.5 5.8-.2 2.4-.9 3.7 1 5.8.2.2.6-.1.4-.3-2.2-3.8.8-4.8.2-7.9zm99.6-11.9c-.4-1.4-.7-2.8-.9-4.2.2-1.3.5-2.7.8-4 0-1.8.2-1.1-.4-2.8-.1-.4-.8-.2-.6.2.6 2.6-.6 4.2-.6 6.6 0 2.9 1.7 4.6.4 7.9-.8 2.1-1.4 2.3-1.2 4.6.2 2 1.4 3.6.4 5.8-.3.7-1 1.2-1.2 2-1 2.8 1.2 3.3 1.9 6 0 .1.3.1.3 0-.1-3 .1.9-.6-2.1-1.2-1.2-1.3-2.7-.3-4.5.5-.6.9-1.2 1.3-1.9 1-2.1.1-2.6-.4-4.6-.8-3.3 1.4-5.6 1.1-9zm-19.8 4.8c.2-.2-.1-.5-.3-.3-2.4 2.1-.4 4.2 1 6.2 3.1 4.5.4 4.8-.3 8.2-.4 1.9 1.1 3 .9 4.9 0 .4.5.4.6.1.4-1.6 0-.3-.1-2-.1-2.1-.2-3.3.6-5.1.2-.5.5-.9.7-1.4.8-3.5-5.4-8.2-3.1-10.6z" fill="#ecd5bd" stroke-width="none" opacity="1"></path></g><g id="svga-group-glasses-single-move" transform="matrix(1,0,0,1,0,0)"><g id="svga-group-glasses-single" transform="matrix(1,0,0,1,0,0)"></g></g></g></g></g><rect id="svga-credit-rect" width="200" height="15" x="0" y="185" fill="#ecf0f1" opacity="0.5" style="display: none;"></rect><text id="svga-credit-text" font-family="Avenir Next, Roboto, Helvetica, Arial, sans-serif" font-size="10px" text-anchor="start" font-weight="400" size="10px" anchor="start" weight="400" fill="#333333" x="33.40447998046875" y="182.60824704170227" style="display: none;"><tspan id="SvgjsTspan9589" dy="13" x="33.40447998046875">Created on AvatarMaker.com</tspan></text></g></svg>