<svg xmlns="http://www.w3.org/2000/svg" version="1.1" width="600px" height="600px" viewBox="0 0 200 200" style="overflow:hidden!important;"><defs id="SvgjsDefs8092"></defs><g id="svga-group-wrapper"><g id="svga-group-backs-single"></g><g id="svga-group-humanwrap-move" transform="matrix(1,0,0,1,0,0)"><g id="svga-group-humanwrap" transform="matrix(1,0,0,1,0,0)"><g id="svga-group-hair-back-move" transform="matrix(1,0,0,1,0,0)"><g id="svga-group-hair-back" transform="matrix(1,0,0,1,0,0)"></g></g><g id="svga-group-humanbody-back"><path id="SvgjsPath8352" d="m168.5 219.5-1.7-21.5s.7-9-8.8-15.3-23.4-10.1-29.5-14.2c-6.1-4.1-7.2-4.5-7-16.9s.9-40.3.9-40.3H77.6s.7 27.9.9 40.3c.2 12.4-.9 12.8-7 16.9-6.1 4.1-20 7.9-29.5 14.2S33.2 198 33.2 198l-1.6 21.5h136.9z" fill="#b2713b" stroke-width="none" opacity="1" stroke="none"></path></g><g id="svga-group-chinshadow-single"><path id="SvgjsPath8584" d="M121.5 151.5c.2-12.4.9-40.3.9-40.3H77.6s.7 27.9.9 40.3v4.9c5.2 3.1 12.6 4.8 21.5 4.8s16.4-1.7 21.5-4.8v-4.9z" fill="#934d13" stroke-width="none" opacity="1" stroke="none"></path></g><g id="svga-group-humanbody-front"><path id="SvgjsPath8353" d="M166.3 193.3c-.2-.7-.5-1.5-.8-2.2-.2-.3-.3-.7-.5-1.1l-.6-1c-.1-.2-.2-.3-.3-.5l-.3-.5-.3-.5c-.1-.2-.2-.3-.4-.5l-.7-.9-.8-.8-.4-.4-.4-.4-.9-.8c-.1-.1-.3-.2-.5-.4l-.5-.3-.9-.7-1.2-.8-.6-.4-.6-.4-1.3-.7-1.3-.7c-.8-.5-1.7-.9-2.6-1.3-.9-.4-1.7-.8-2.6-1.2-3.5-1.6-7.1-3.1-10.6-4.6-1.8-.8-3.5-1.6-5.2-2.4l-.6-.3-.6-.4c-.4-.2-.8-.5-1.2-.7-.8-.5-1.6-1.1-2.4-1.6-.4-.3-.8-.6-1.2-.8-.2-.1-.4-.3-.5-.4-.2-.1-.4-.3-.5-.5-.7-.6-1.2-1.3-1.6-2.1l-.1-.1-.1-.2-.1-.3-.1-.3c0-.1-.1-.2-.1-.3l-.2-.7-.1-.7c-.1-.9-.2-1.9-.2-2.8-.1-3.8.1-7.7.3-11.5l.4-11.6c.2-7.7.4-15.5.5-23.2v-1.1h-1.1c-3.7 0-7.5 0-11.2.1l-11.2.1-22.4.3h-.5v.5c.3 9.3.6 18.5.7 27.8.1 4.6.2 9.3.2 13.9 0 2.3 0 4.6-.3 6.9-.2 1.1-.4 2.2-.9 3.2s-1.2 1.8-2.1 2.5-1.8 1.3-2.8 2l-.7.5c-.2.2-.5.3-.7.4-.5.3-1 .6-1.5.8-2 1-4.2 1.9-6.3 2.8-4.3 1.7-8.6 3.4-12.9 5.3-2.1 1-4.2 2-6.3 3.2-2 1.2-4.1 2.6-5.8 4.3s-3.2 3.8-4.2 6c-.5 1.1-.9 2.3-1.1 3.5-.1.3-.1.6-.2.9-.1.3-.1.6-.1.9 0 .3-2 23.9-2 23.9H169s-2.2-25.2-2.7-26.7zM33.2 218.8c0-.2 1.2-22.4 1.2-22.5 0-.3.1-.5.1-.8s.1-.5.1-.8c.2-1.1.6-2.1 1-3.1.9-2 2.1-3.8 3.6-5.4 1.5-1.6 3.4-2.8 5.3-4 1.9-1.2 4-2.2 6-3.3 4.1-2 8.4-3.8 12.7-5.6 2.1-.9 4.3-1.9 6.3-3l1.5-.9c.3-.2.5-.3.8-.5l.7-.5c1-.7 1.9-1.3 2.9-2.1.2-.2.4-.4.7-.6.2-.2.4-.5.6-.7s.4-.5.5-.8c.2-.3.3-.5.5-.8.5-1.1.8-2.3.9-3.5.3-2.4.2-4.7.2-7l-.2-13.9c-.2-9.1-.4-18.2-.5-27.3l21.9.3 11.2.1c3.4 0 6.7.1 10.1.1-.2 7.4-.4 14.7-.5 22.1l-.1 11.6v5.8c0 1.9 0 3.9.2 5.9.1 1 .2 2 .4 3l.2.7c.1.2.1.5.2.7 0 .1.1.2.1.4l.1.4.2.4.1.2.1.2c.5.9 1.2 1.7 1.9 2.4.2.2.4.3.6.5.2.1.4.3.6.4.4.3.8.6 1.2.8.8.5 1.6 1.1 2.5 1.6.4.3.9.5 1.3.7l.7.3.7.3c1.8.8 3.6 1.6 5.3 2.3 3.6 1.4 7.2 2.9 10.7 4.4 3.5 1.6 7 3.3 10.2 5.4l.9.7.5.3c.2.1.3.2.4.4l.9.8c.1.1.3.2.4.4l.4.4.8.8.7.9c.1.2.2.3.3.5l.3.5.3.5c.1.2.2.3.3.5.8 1.3 1.4 2.7 1.8 4.2.2.7.3 1.5.5 2.2.1.7 1.8 22.6 1.8 23.2-11.2-.2-135.1-.2-135.1-.2z" fill="#843e04" stroke-width="none" opacity="1" stroke="none"></path><path id="SvgjsPath8354" d="M73.8 175.9c5.1 2.9 11.8 5.2 17.6 5.7.4 0 .4-.6.1-.7-2.8-1.1-5.9-1.7-8.8-2.6-2.9-.9-5.8-2-8.8-2.7-.1-.1-.3.2-.1.3z" fill="#934d13" stroke-width="none" opacity="1" stroke="none"></path><path id="SvgjsPath8355" d="M109 182.1c5.3-.6 11.3-3 15.9-5.8.3-.2.1-.6-.2-.5-2.6.9-5.2 2-7.8 2.9-2.6.9-5.4 1.5-8 2.5-.5.1-.5.9.1.9z" fill="#934d13" stroke-width="none" opacity="1" stroke="none"></path></g><g id="svga-group-clothes-single"><path id="SvgjsPath8722" d="M163.5 187.5s-9.4 9.9-64.1 11.4c-52.2 1.4-63.4-12-63.4-12s-5.7 7.5-7.8 10.1-3.4 4.1-3.4 4.1 1.2 3.1 3.2 3.4 2-1.1 3.8-.3 3.8 3.1 3.4 4.1c-.5 1.1.2 2.8 1.8 3.5 1.7.8 5.7 2.9 6.3 1.8s3.1-1.2 2.8.1c-.3 1.4 2.3 2.9 3.4 3.2 1.1.3 3.3-2.1 4.4-2.7.7-.4 2.2-.2 3.4.2v5.4h86.1l-.1-3.1c4-.4 9.4-.8 10.7-1.6 1.8-1.1 2.8-4.6 4.5-3.4s4.9 1.2 6.7.3.3-2.6.6-4c0 0-.4-1.8 2.3-2.1s5.9-4.2 5.9-4.2l-10.5-14.2z" fill="#591956" stroke-width="none" opacity="1"></path><path id="SvgjsPath8723" d="M174.6 201.5 164.2 187l-.1-.1c-.3-.4-.9-.4-1.3-.1l-.1.1c-.1.1-.4.4-.7.5-.2.2-.5.4-.8.5-.6.3-1.1.6-1.7.9-1.2.6-2.4 1.1-3.7 1.5-1.2.5-2.6.8-3.9 1.2-1.3.4-2.6.7-3.9 1-5.3 1.3-10.7 2.1-16.1 2.9-10.8 1.4-21.7 2-32.7 2.4-10.9.4-21.9.2-32.7-1.1-5.4-.6-10.8-1.6-16-3.1-2.6-.7-5.2-1.6-7.7-2.7-1.2-.6-2.5-1.1-3.6-1.9-.6-.4-1.2-.7-1.7-1.1-.3-.2-.5-.4-.8-.6-.1-.1-.3-.2-.4-.3l-.2-.2-.1-.1s0-.1-.2-.1c-.2.1-.2.2-.2.3l-.2.2-.3.4-.7.9-1.4 1.8-2.8 3.5c-1.9 2.4-3.9 4.6-5.8 7-.1.1-.1.3-.1.5.4.9.8 1.6 1.4 2.4.3.4.7.7 1.1 1 .4.3 1 .4 1.5.4s1.1-.1 1.5-.2c.5-.2.7-.3 1-.3.6 0 1.4.5 2 1 .6.5 1.2 1.1 1.5 1.8.2.3.3.7.2.8v.1l-.1.2c0 .1-.1.3-.1.4v.9c.2 1.1.9 2 1.7 2.6.2.1.5.3.7.4l.6.3 1.2.6c.8.4 1.6.7 2.5 1 .5.1.9.3 1.5.3.3 0 .7 0 1.1-.3.2-.1.4-.5.4-.4 0 0 0-.1.1-.1.2-.1.5-.3.8-.3h.4c-.1.4 0 .8.1 1.1.2.6.6 1 1 1.4.7.7 1.5 1.2 2.4 1.6.1.1.2.1.4.1H49.8c.4 0 .7-.1.9-.2.5-.2.9-.5 1.2-.8.7-.6 1.4-1.1 2-1.6.2-.1.3-.2.3-.2.1 0 .3-.1.4-.1.3 0 .7 0 1.1.1.3.1.7.1 1.1.3-.1 1.5-.1 3-.2 4.6 0 .3.2.5.5.5l10.8.2 10.8.1c7.2.1 14.3.1 21.5-.1 7.2-.1 14.3-.4 21.5-.4 7.2 0 14.4.1 21.5.2.3 0 .5-.2.5-.5v-2.7c2.3-.2 4.6-.4 6.9-.7.9-.1 1.7-.2 2.6-.5.4-.1 1-.4 1.3-.7.4-.3.7-.7 1-1 .6-.7 1.1-1.5 1.6-1.9.3-.2.5-.3.6-.2.1 0 .1.1.2.1l.3.2c.2.1.4.2.6.4 1.8.8 3.7.8 5.6.3.5-.2.9-.3 1.4-.7.5-.4.8-1.1.8-1.7 0-.6-.1-1-.2-1.4-.1-.4-.1-.8-.1-1V208c0-.1.1-.2.2-.3.2-.2.5-.4.8-.4.2-.1.4-.1.6-.1.2 0 .5-.1.8-.1.5-.2 1-.4 1.4-.6.9-.5 1.6-1.1 2.3-1.7.7-.6 1.4-1.3 2-2 .4-.6.5-1 .2-1.3zm-116.9 18c0-1.3-.1-2.5-.2-3.8.1.1.3.1.4.2l.3.3.4.5c.1.2.3.4.6.6.3.2.5.4.8.4.4.1.6.2.8.2l.7.1c.5.1.9.1 1.3.2.9.1 1.8.2 2.7.2h1.4c.5-.1.9-.1 1.6-.3.2-.1.4-.2.6-.5l.2-.3c.1-.2.2-.4.3-.5.2-.3.5-.6.6-.6.1-.2 1.1.1 1.7.4.4.2.7.4 1 .6.2.1.3.2.4.3l.2.2.1.1.1.1.1.1c.3.2.6.3.8.4.2.1.5.2.7.2.4.1.9.2 1.3.3.4.1.8.1 1.2.2l-10 .1-10.1.3zm25.5-1.8c.1 0 .1 0 0 0zm.5 1.4c.3-.1.6-.2.9-.8l.1-.3c0-.1.1-.1.1-.2.3-.4.9-.7 1.7-.8h.6c.1 0 .2 0 .4.1.3.1.6.4.9.6.3.3.7.6 1.2.9.2.1.5.2.8.3.2.1.5.1.7.1.2 0 .4.1.7.1h-8.1zm59.1.4c-7 .1-14 .2-20.9.2-6.5 0-13-.2-19.5-.4.2-.1.6-.3.7-.4.3-.3.7-.5 1-.7 1.4-.9 3.1-1.5 4.6-1.2.7.2 1.5.7 2.3 1.1.8.4 1.6.8 2.5 1 .5.1.9.1 1.4 0 .4-.1.9-.2 1.4-.5.9-.6 1.2-1.5 1.7-2.1.3-.3.4-.4.7-.3.3.1.6.4 1 .7.7.5 1.5 1 2.3 1.3.8.4 1.7.6 2.6.7.9.1 1.8 0 2.7-.1.9-.1 1.8-.3 2.6-.5.9-.3 1.7-.5 2.5-1.1.7-.7 1.2-1.3 1.8-1.8.3-.2.7-.5 1-.5.3-.1.6.1.8.4.2.3.4.7.6 1.1.2.4.4.9.8 1.2 1 .7 2 .3 2.8.2.8-.1 1.6-.2 2.4-.2l.2 1.9zm28.7-16.2c-.6.6-1.3 1.1-2 1.5-.4.2-.7.4-1.1.5-.2.1-.3.1-.6.1h-.2c-.8-1.5-1.6-2.9-2.6-4.3-1.2-1.7-2.4-3.4-3.9-4.9.9 2 2 3.7 3.1 5.5.9 1.3 1.9 2.6 3 3.9h-.2c-.5.2-1.1.4-1.5.9-.4.5-.6 1.1-.5 1.7-.1 1.2.4 2 .3 2.6 0 .3-.1.4-.2.6-.2.2-.6.3-.9.5-1.5.5-3.3.5-4.7-.1-.2-.1-.4-.2-.5-.2l-.3-.2c-.1-.1-.2-.1-.4-.2-.9-2.5-1.9-4.9-3-7.2-1.3-2.7-2.6-5.3-4.3-7.8.9 2.9 2.1 5.6 3.4 8.2 1.1 2.3 2.3 4.5 3.6 6.7h-.7c-.3.1-.6.3-.8.4-.8.7-1.2 1.4-1.7 2.1-.3.3-.5.6-.8.9-.3.3-.6.4-1 .5-.8.2-1.6.4-2.5.5-3.4.5-6.9.8-10.4 1.2-.4.1-.9.1-1.3.2-.4 0-.8 0-1-.2-.4-.3-.6-1.1-1-1.7-.4-2.3-.9-4.5-1.5-6.8-.8-2.7-1.6-5.4-2.8-8.1.4 2.8 1.1 5.6 1.8 8.3.5 1.9 1.1 3.8 1.8 5.7-.1-.1-.1-.1-.2-.1-.3-.1-.6-.1-.8-.1-.5.1-.9.4-1.3.7-.7.6-1.3 1.3-1.9 1.9-.6.5-1.4.8-2.2 1-.8.2-1.7.4-2.5.5-.8.1-1.7.2-2.5.1s-1.7-.3-2.4-.7c-.8-.3-1.5-.8-2.2-1.3l-.5-.4c-.2-.1-.4-.3-.6-.4h-.1c0-2.3-.3-4.5-.6-6.7-.4-2.4-.9-4.8-1.6-7.1 0 2.4.3 4.9.7 7.2.4 2.2.8 4.4 1.5 6.5-.2 0-.4 0-.7.1-.3.1-.5.3-.6.5-.6.8-.9 1.5-1.5 1.9-.3.2-.7.3-1.1.4-.4.1-.8.1-1.2 0-.8-.1-1.6-.5-2.3-.9l-1.1-.6c-.4-.2-.8-.5-1.3-.6-.9-.3-1.9-.1-2.8.1-.9.2-1.7.6-2.5 1.1l-.9.6c.2-1.5.1-2.9.1-4.4-.1-1.8-.3-3.6-.8-5.4-.3 1.8-.3 3.6-.2 5.4.1 1.5.2 3.1.6 4.6-.1.1-.2.1-.3.2-.2.1-.3.1-.6.1-.8.1-1.7.1-2.5.1-1.7-.1-3.4-.2-5.2-.4-.9-.1-1.7-.2-2.6-.4-.2 0-.4-.1-.6-.1-.2-.1-.3-.1-.4-.2-.3-.2-.6-.4-.9-.7s-.7-.6-1.2-.9c-.3-.1-.6-.2-.9-.2h-.7c-.5 0-1 .1-1.5.3-.3.1-.7.3-1 .6.1-.7.2-1.3.2-2l.3-3.9c.1-2.6.2-5.3 0-7.9-.6 2.6-.8 5.2-.9 7.9-.1 1.3-.1 2.6-.1 4 0 .8 0 1.7.1 2.5-.1.1-.1.2-.2.3 0 .1-.1.1-.1.2h-.1c-.3.1-.7.1-1.1.1-.8 0-1.7 0-2.5-.1s-1.7-.2-2.5-.4l-1.2-.3c-.4-.1-.8-.3-.9-.4l-.1-.1-.3-.3c-.2-.2-.4-.3-.6-.5-.4-.3-.8-.5-1.2-.7-.4-.2-.9-.4-1.4-.5-.3-.1-.5-.1-.9-.1s-.7.1-1 .2c-.4.2-.6.4-.9.7.3-1.2.6-2.4.8-3.6.3-2 .6-4.1.5-6.1-.7 1.9-1.2 4-1.5 6-.2 1-.3 2-.4 3.1 0 .6-.1 1.1-.1 1.6l-.1.1-.1.2c-.2.1-.6.1-.9.1h-1.2c-.8 0-1.7-.1-2.5-.2-.4 0-.8-.1-1.3-.1l-.6-.1c-.2 0-.4-.1-.5-.1-.3-.1-.4-.2-.7-.5l-.4-.5c-.1-.1-.4-.5-.7-.6-1-.6-1.8-.8-2.8-1-.5-.1-1-.1-1.5-.1-.3 0-.5.1-.8.2.8-1.9 1.5-3.9 2.1-5.9.8-2.8 1.6-5.5 2.1-8.4-1.2 2.6-2.2 5.4-3 8.1-.7 2.1-1.3 4.3-1.7 6.5-.1 0-.1.1-.2.1-.8.6-1.4 1.1-2 1.6-.3.2-.7.5-1 .6-.1.1-.3.1-.3.1-.1 0-.2-.1-.2-.1-.7-.3-1.4-.7-2-1.2-.3-.2-.5-.5-.5-.7v-.2c.1-.3.1-.8-.2-1.3-.3-.4-.7-.6-1-.6-.3-.1-.6-.1-.9 0-.6.1-1.1.3-1.6.7l-.4.4h-.1c-.3 0-.7-.1-1.1-.2-.8-.2-1.6-.6-2.3-.9l-1.2-.5-.6-.3c-.2-.1-.3-.1-.5-.2-.6-.4-1-1-1.2-1.6v-.7l.1-.3v-.6c1.3-1.9 2.5-3.8 3.6-5.8 1.4-2.5 2.7-5.1 3.8-7.8-1.8 2.3-3.2 4.8-4.7 7.3-1 1.9-2 3.7-2.9 5.7-.1-.2-.2-.4-.2-.5-.5-.9-1.2-1.5-1.9-2.1-.8-.6-1.5-1.1-2.7-1.2-.6 0-1.1.3-1.5.4-.4.1-.7.2-1 .2-1.3 0-2.4-1.4-3.1-2.8l5.4-6.9 2.7-3.7 1.3-1.8.7-.9.3-.5.2-.2c0-.1.1-.1.1-.1l.1.1.2.2.4.4c.3.2.5.4.8.7.5.4 1.1.8 1.7 1.2 1.2.8 2.4 1.4 3.6 2 2.5 1.2 5.1 2.2 7.7 3 5.3 1.7 10.7 2.7 16.1 3.6 5.4.8 10.9 1.2 16.4 1.5 5.5.2 11 .3 16.5.2 11-.3 22-.9 32.9-2.3 5.5-.7 10.9-1.6 16.3-3 1.3-.4 2.7-.7 4-1.1 1.3-.4 2.7-.8 4-1.3 1.3-.5 2.6-1 3.9-1.6.6-.3 1.3-.6 1.9-1l.9-.6s.1 0 .1-.1l9.6 13.1c-1 .2-1.5.7-2 1.1z" fill="#3a0538" stroke-width="none" opacity="1"></path><path id="SvgjsPath8724" d="M170.6 200.7c-.9-1.8-2.4-3.3-3.6-4.9-1.2-1.6-2.4-3.3-3.5-4.9-.1-.2-.4 0-.3.2 1.9 3.4 3.9 7.5 6.9 10.1.3.2.7-.1.5-.5zm-19.5-1.4c-.1-.2-.5 0-.4.2 1.5 3.4 2.7 7.2 4.6 10.4-1.5.1-2.4 2-3.8 2.7-3 1.7-7 1.5-10.2 2.7-.3.1-.2.5.1.5 2.9 0 5.9-.6 8.7-1.2.9-.2 1.8-.4 2.6-.9 1.4-.9 1.7-2.4 3.4-2.9.3 0 .5-.3.4-.6-1-3.8-3.4-7.5-5.4-10.9zm13.7 6.8c-1.1-.1-1.9 1.1-1.8 2.1 0 .7.6 1.2.7 1.9.2 1.2-1.3 1.2-1.9 1-.5-.1-1.1-.4-1.5-.7-.2-.1-.4.2-.2.3 1.1.9 2.9 1.9 4.1.5.4-.5.5-1.1.3-1.7-.1-.5-.5-1-.5-1.5 0-.6.6-1.1 1.1-1.5 0 0-.1-.3-.3-.4zm-30.1 6.4c-1-4.3-2.5-8.5-3.6-12.7-.1-.2-.4-.2-.4.1.5 4.4 1.4 9 3.2 13 .2.5.9.1.8-.4zm.3.9c-1.5-.2-2.6.5-3.8 1.4-2.8 2.1-5.6 3-8.9 1.2-.1-.1-.3.1-.2.2 1.6 1.3 3.3 1.9 5.4 1.6 2.9-.4 4.6-2.9 7.4-3.6.5-.2.5-.8.1-.8zM115.3 203c-.1-.3-.6-.3-.6.1.2 2 .5 4 .8 6 .3 2 .4 4.1 1.2 5.9.1.3.6.1.6-.2.2-1.9-.4-3.8-.8-5.6-.3-2-.6-4.2-1.2-6.2zm0 12.6c-2.4.9-4.2-1.2-6.4-1.5-1.9-.2-3.4.4-4.8 1.6-.2.2.1.5.3.4 1.3-.9 3.1-1.4 4.8-1.1 1.3.3 2.3 1.3 3.6 1.7 1.2.4 2.2.4 3-.6.1-.3-.2-.6-.5-.5zm-14.5.9c-1.3-.4-2.2-.2-3.5-.1-3.1.4-4.2-.4-6.7-1.6-1.8-.9-3.5-1.2-5.1.1-.2.1.1.4.2.3 3.2-1.4 5.2 1.3 7.9 2.1 2.3.7 4.5-.7 6.8 0 .7.3 1-.6.4-.8zm-18.5-.6c-4.3 1.2-7.2-4.1-11.3-2.9-.3.1-.3.5 0 .6 2.5.7 4.6 2 7 2.9 1.6.6 3.1.7 4.6 0 .4-.2.1-.7-.3-.6zm-17.4-1.4c-.4-.1-.8.1-1.2 0-1.7-.2-1.6-.8-2.6-1.6-1.6-1.3-3.5-1.3-5.5-.9 1.9-3.7 3.9-8.6 3.8-12.9 0-.3-.4-.4-.5-.1-.9 1.9-1.3 4-1.8 6.1-.7 2.3-1.4 4.6-2 6.9v.2c-.1.1 0 .3.1.3 1.3.1 2.8 0 4 .5 1.1.5 1.5 1.4 2.4 2.1 1.3 1 2.8.1 4.1.9.3.2.8-.2.6-.6-.3-.6-.7-.8-1.4-.9zm-19.4-19.1c.2-.4-.5-.6-.7-.3-3.1 4.3-5.8 9.1-8.8 13.5-.2.3.3.7.5.4 3.6-3.9 7.1-8.7 9-13.6zm5.6 18.3c-1.2.1-2-2.5-2.8-3.2-.6-.5-1.3-.8-2.1-.9-.5 0-.8 0-1.2.1 2.3-3.1 4.5-6.6 5.6-10.2.1-.3-.3-.4-.5-.2-2.4 3.4-4.3 7.3-6.4 10.9-.2.1-.4.2-.6.2-.5.6-1 .7-1.7.3-.7 0-1.4-.2-1.9-.6-.8-.4-1.7-.9-2.5-1.4-.3-.2-.8.3-.4.6 2 1.9 4.3 3.6 6.9 2.5 3.3-1.4 3.1-1.3 5.2 1.3.4.5.3.8.9 1.2.7.5 1.1.4 1.8 0 .2 0 .1-.6-.3-.6zm-14.8-9.6c-.4-1.2-1.6-2-2.8-2.4-.7-.2-1.4-.3-2.1-.2-.7.1-5.1 1.4-4.1-.9.1-.3-.3-.6-.5-.3-.8 1.2 0 2.4 1.3 2.7 1.2.3 2.3-.4 3.5-.5 1.7-.1 2.7 1 3.8 2 .5.4 1.1.1.9-.4zm68.3 9.9c.2-3.3-.3-6.7-1.2-9.9-.1-.3-.6-.3-.6.1.3 3.3.6 6.7 1.3 9.9.1.2.5.1.5-.1z" fill="#682865" stroke-width="none" opacity="1"></path></g><g id="svga-group-head" transform="matrix(1,0,0,1,0,0)"><g id="svga-group-ears-left-move" transform="matrix(1,0,0,1,0,0)"><g id="svga-group-ears-left" transform="matrix(1,0,0,1,0,0)"><path id="SvgjsPath8588" d="M65.3 102.4s-1.6-4.3-3.2-7-4-6.4-5.5-7.4-2.6-.5-2.2 2c.5 2.5 2.3 10.7 2.8 13.2s1.7 7.9 3.2 11.5c1.5 3.5 2.3 5.2 3.7.5 1.5-4.7 2.3-9.8 1.2-12.8z" fill="#b2713b" stroke-width="none" opacity="1"></path><path id="SvgjsPath8589" d="M69.1 106.8c0 1.5-.8 6.7-2.1 10-1.2 1.1-4.4 2-4.5 2s-.2 0-.3-.1c-.4-.2-.7-.6-.9-.9s-.4-.7-.5-1c-.3-.7-.6-1.3-.9-2-.5-1.4-1-2.8-1.4-4.3-.8-2.9-1.4-5.9-1.9-8.8-.6-2.9-1.1-5.9-1.8-8.8l-.5-2.2c-.2-.7-.4-1.5-.2-2.4.1-.4.3-.9.5-1.1.3-.2.6-.3.9-.2.6.1 6.4.8 6.9 1.2 3.2 1.3 6.8 8 6.7 18.6zm-7.6-11.9c-.7-1.1-1.5-2.2-2.3-3.3-.8-1.1-1.5-2.1-2.4-2.9-.4-.4-.9-.7-1.3-.8-.4-.1-.8.1-.9.6-.1.6 0 1.3.1 2s.3 1.5.4 2.2c.6 2.9 1.3 5.8 2 8.7.7 2.9 1.4 5.8 2.2 8.6.4 1.4.9 2.8 1.4 4.1.3.6.5 1.3.8 1.9.1.3.3.6.4.8.1.2.3.4.4.5.1 0 .1 0 .3-.1.1-.1.1-.1.2-.3.1-.1.1-.2.2-.4.3-.5.5-1.2.7-1.8.4-1.3.8-2.6 1.1-3.9.3-1.3.6-2.7.8-4.1.1-1.4.1-3-.4-4.3-1-2.7-2.2-5.3-3.7-7.5z" fill="#a35e26" stroke-width="none" opacity="1"></path><path id="SvgjsPath8590" d="M55.1 90.7c3 3.3 5.4 8.9 5.8 14.1 0 .4-.3.4-.4.1-.1-.5-.2-1-.3-1.4-.3-.7-.7-.8-1.3-.2 0 .4.1.8.2 1.2.1.5.3 1.1.5 1.6.5 1.2 1.1 2.2 1.7 3.3.1.2 0 .6-.2.4-1.4-1.2-2.9-4.5-2.8-6.8 0-.7.2-1.4.8-1.4.3 0 .6.1.8.4-1.1-4.1-2.5-7.5-4.9-10.9-.2-.3-.1-.6.1-.4z" fill="#934d13" stroke-width="none" opacity="1"></path></g></g><g id="svga-group-ears-right-move" transform="matrix(1,0,0,1,0,0)"><g id="svga-group-ears-right" transform="matrix(1,0,0,1,0,0)"><path id="SvgjsPath8591" d="M134.7 102.4s1.6-4.3 3.2-7 4-6.4 5.5-7.4 2.6-.4 2.1 2.1-2.3 10.7-2.8 13.2-1.7 7.9-3.2 11.5c-1.5 3.5-2.3 5.2-3.7.5-1.4-4.8-2.2-9.9-1.1-12.9z" fill="#b2713b" stroke-width="none" opacity="1"></path><path id="SvgjsPath8592" d="M137.6 88.2c.5-.4 6.3-1.1 6.9-1.2.3 0 .6 0 .9.2.3.2.5.6.5 1.1.1.9-.1 1.7-.2 2.4l-.5 2.2c-.7 2.9-1.2 5.8-1.8 8.8-.5 2.9-1.1 5.9-1.9 8.8-.4 1.4-.8 2.9-1.4 4.3-.3.7-.5 1.4-.9 2-.2.3-.3.7-.5 1s-.5.7-.9.9c-.1 0-.2.1-.3.1s-3.3-.9-4.5-2c-1.3-3.3-2-8.5-2.1-10-.1-10.6 3.5-17.3 6.7-18.6zm-2.9 14.2c-.5 1.4-.5 2.9-.4 4.3s.4 2.8.8 4.1c.3 1.3.7 2.6 1.1 3.9.2.6.4 1.3.7 1.8.1.1.1.3.2.4.1.1.1.2.2.3.1.1.2.2.3.1s.2-.2.4-.5c.2-.2.3-.5.4-.8.3-.6.6-1.3.8-1.9.5-1.3 1-2.7 1.4-4.1.8-2.8 1.5-5.7 2.2-8.6s1.4-5.8 2-8.7c.1-.7.3-1.5.4-2.2.1-.7.2-1.5.1-2-.1-.6-.5-.7-.9-.6s-.9.4-1.3.8c-.8.8-1.6 1.9-2.4 2.9-.8 1.1-1.5 2.2-2.3 3.3-1.4 2.2-2.6 4.8-3.7 7.5z" fill="#a35e26" stroke-width="none" opacity="1"></path><path id="SvgjsPath8593" d="M144.9 90.7c-3 3.3-5.4 8.9-5.8 14.1 0 .4.3.4.4.1.1-.5.2-1 .3-1.4.3-.7.7-.8 1.3-.2 0 .4-.1.8-.2 1.2-.1.5-.3 1.1-.5 1.6-.5 1.2-1.1 2.2-1.7 3.3-.1.2 0 .6.2.4 1.4-1.2 2.9-4.5 2.8-6.8 0-.7-.2-1.4-.8-1.4-.3 0-.6.1-.8.4 1.1-4.1 2.5-7.5 4.9-10.9.2-.3.1-.6-.1-.4z" fill="#934d13" stroke-width="none" opacity="1"></path></g></g><g id="svga-group-faceshape-wrap" transform="matrix(1,0,0,1,0,0)"><g id="svga-group-faceshape-single"><path id="SvgjsPath8574" d="M141 85.4c-1.2-28.5-19.71-43.67-41.01-43.67C78.59 41.73 60.2 56.9 59 85.4c0 0-.2 10.7 2.2 23.9s7.5 22.3 10.9 29.6 13.96 10.88 27.96 10.88 24.54-3.58 27.84-10.88c3.4-7.3 8.5-16.3 10.9-29.6 2.5-13.2 2.2-23.9 2.2-23.9z" fill="#b2713b" stroke-width="none" opacity="1" stroke="none"></path><path id="SvgjsPath8575" d="M72.1 138.9c3.4 7.3 13.9 11.5 27.9 11.5s24.6-4.2 27.9-11.5c3.3-7.3 8.5-16.3 10.9-29.6 2.4-13.2 2.2-23.9 2.2-23.9-1.2-28.5-19.7-44.1-41-44.1S60.2 57 59 85.4c0 0-.2 10.7 2.2 23.9 2.4 13.3 7.5 22.3 10.9 29.6zM60 91.64c-.1-1.61-.2-3.23-.2-4.84v-1.22l.1-1.21.1-1.21.1-1.21.1-1.21c0-.4.1-.81.2-1.21l.2-1.21c.1-.4.1-.81.2-1.21.6-3.13 1.4-6.26 2.6-9.18 1.2-2.93 2.7-5.75 4.5-8.38 1.8-2.62 3.9-4.95 6.3-6.96 2.4-2.02 5-3.73 7.8-5.05.3-.2.7-.3 1-.5.4-.2.7-.3 1.1-.5l1.1-.4c.2-.1.4-.1.5-.2l.5-.2 1.1-.4 1.1-.3c.7-.2 1.5-.4 2.2-.61 3-.71 6-1.01 9.1-1.01h2.2l1.1.1c.4 0 .8 0 1.1.1.8.1 1.5.2 2.3.3.4.1.8.1 1.1.2l1.1.2c.8.1 1.5.3 2.2.5.4.1.7.2 1.1.3.4.1.7.2 1.1.3.7.3 1.4.5 2.2.81.4.1.7.3 1.1.4l1 .5c2.8 1.31 5.4 2.93 7.8 4.84 2.4 1.92 4.6 4.14 6.6 6.66 1.9 2.52 3.6 5.25 4.9 8.17 2.6 5.85 3.9 12.31 4.2 18.77 0 3.23-.2 6.46-.5 9.69s-.8 6.46-1.4 9.59c-.2.81-.3 1.61-.5 2.42l-.5 2.32-.6 2.32-.7 2.32c-.9 3.03-2.1 6.06-3.3 8.98-1.3 2.93-2.7 5.75-4.2 8.68l-2.2 4.34-1.1 2.22s-.9 1.41-1 1.61c-1.6 2.12-4 3.84-6.6 5.05-2.7 1.21-5.6 2.02-8.6 2.52s-6.1.71-9.2.81c-3.1 0-6.2-.1-9.2-.61-3-.4-6-1.11-8.7-2.32-2.7-1.11-5.2-2.72-7-4.74-.4-.5-.8-1.11-1.1-1.61-.3-.5-.7-1.31-1-2.12l-2.2-4.34c-1.4-2.93-2.8-5.75-4-8.68-.6-1.51-1.2-2.93-1.7-4.44l-.4-1.11-.4-1.11c-.1-.4-.3-.71-.4-1.11l-.3-1.11c-.9-3.03-1.6-6.16-2.2-9.29-.6-3.13-1.1-6.36-1.4-9.59-.1-1.49-.3-3-.4-4.62z" fill="#843e04" stroke-width="none" opacity="1" stroke="none"></path></g></g><g id="svga-group-mouth-single-move" transform="matrix(1,0,0,1,0,0)"><g id="svga-group-mouth-single" transform="matrix(1,0,0,1,0,3)"><path id="SvgjsPath8650" d="m112.6 130.4.5-.5s-1.4-.1-2.5-.9-2.5-3.9-3.5-4.9c-.9-1-3.2-2-5.6-.9-2.4 1-2.4.5-4.1-.3-1.6-.9-4.8.5-6.9 4.3s-3.8 3.5-3.8 3.5 1.7 1.3 3.9-.1c2.2-1.4 15.4-1.4 15.7-1.2s5 1.4 5 1.4l1.3-.4z" fill="#d89490" stroke-width="none" opacity="1"></path><path id="SvgjsPath8651" d="M90.6 131.1s1.42 2.86 3.42 3.46c2 .6 12.46-.22 13.66-.92s2.01-3.04 2.01-3.04-3.2-1.6-4.5-2.7c-1.3-1.1 0 0 0 0s-2.1 1.7-3.9 1.7c0 0-2.7.9-6.5-1.5.11.1-1.79 2.5-4.19 3z" fill="#e0a4a0" stroke-width="none" opacity="1"></path><path id="SvgjsPath8652" d="M113.1 129.4c-2.3 1.9-6.1-.4-7.8-2.1-.2-.2-.4-.2-.6 0-.5.1-.7.4-1.2.8-.9.6-1.9.9-2.9 1.1-1.1.1-2.2 0-3.3-.4-.7-.3-1.3-.7-2.1-.9-.1-.2-.4-.3-.6-.1-2.1 2.2-4.8 3.4-7.9 2.7-.6-.1-.8.8-.3.9 3.1.9 6.7-.2 8.7-2.8 1.1 1.6 3.9 2 5.7 1.8 1.3-.1 3.5-.7 4.4-2 1.4 1.3 3.1 2.2 5 2.6 1.3.3 3.1.4 3.8-1 .1-.5-.5-.9-.9-.6z" fill="#d18580" stroke-width="none" opacity="1"></path><path id="SvgjsPath8653" d="M92.3 133.2c1 2.4 5.4 1.5 7.3 1.4 2 0 4 0 6-.2 1.2-.2 2.2-.5 2.9-1.4.3-.4-.3-.8-.6-.6-2.3 1.2-5.3.8-7.9.9-2.2.1-5.4.9-7.4-.3-.1-.2-.4 0-.3.2z" fill="#d18580" stroke-width="none" opacity="1"></path><path id="SvgjsPath8654" d="M95.8 128c2.9 1.7 8.6 1.9 9.9-2 .1-.2-.2-.3-.3-.2-1.2 1.1-2.2 2-3.8 2.4-1.9.5-3.7 0-5.6-.5-.2 0-.3.2-.2.3z" fill="#e8b4b1" stroke-width="none" opacity="1"></path><path id="SvgjsPath8655" d="M108.1 132c-1.1.1-2.1.6-3.2.8-1.4.3-2.8.3-4.3.4-.2 0-.2.3 0 .3 2.3.3 5.7.2 7.6-1.1.2-.2.2-.5-.1-.4z" fill="#e8b4b1" stroke-width="none" opacity="1"></path></g></g><g id="svga-group-eyes-left-move" transform="matrix(1,0,0,1,0,0)"><g id="svga-group-eyes-left" transform="matrix(1,0,0,1,0,0)"><g id="svga-group-eyesback-left"><path id="SvgjsPath8737" d="M90.9 101.3s-.3-2.5-1-3.8-3.7-4.4-7-5c-4.9-1-9.3 1.7-9.3 1.7s0 2.4 1.5 4.1c1.4 1.7 3.9 2.6 4.9 2.7s4.6.3 6.5 0c1.3-.2 2.8-.2 3.4 0 .5.2 1 .3 1 .3z" fill="#ffffff" stroke-width="none" opacity="1"></path></g><g id="svga-group-eyesiriswrapper-left" transform="matrix(1,0,0,1,0,0)"><g id="svga-group-eyesiriscontrol-left" transform="matrix(1,0,0,1,0,0)"><g id="svga-group-eyesiris-left" transform="matrix(1,0,0,1,0,0)"><path id="SvgjsPath8620" d="M82 91.5c2.7 0 4.9 2.2 4.9 4.9s-2.2 4.9-4.9 4.9-4.9-2.2-4.9-4.9 2.2-4.9 4.9-4.9z" fill="#ea02f5" stroke-width="none" opacity="1"></path><path id="SvgjsPath8621" d="M82 93.8c1.4 0 2.6 1.2 2.6 2.6S83.4 99 82 99s-2.6-1.2-2.6-2.6 1.2-2.6 2.6-2.6z" fill="#000000" stroke-width="none" opacity="1"></path><path id="SvgjsPath8622" d="m81.3 94.3-.5-.5c-.2-.2-.4-.3-.7-.3s-.5.1-.7.3c-.2.2-.3.4-.3.7s.1.5.3.7l.5.5c.2.2.4.3.7.3.2 0 .5-.1.7-.3.4-.5.4-1 0-1.4zm2.5 4.4c.8 0 .8-1.3 0-1.3s-.9 1.3 0 1.3z" fill="#ffffff" stroke-width="none" opacity="1"></path></g></g></g><g id="svga-group-eyesfront-left"><path id="SvgjsPath8745" d="M70.73 98.03c0 6.9 4.93 12.5 11.02 12.5s11.02-5.6 11.02-12.5-4.93-12.5-11.02-12.5-11.02 5.59-11.02 12.5zm2.88-3.78s4.42-2.71 9.34-1.75c3.29.64 6.2 3.74 6.95 5.03.75 1.28 1.03 3.82 1.03 3.82s-.53-.14-1.11-.32c-.57-.18-2.05-.19-3.39.04-1.89.32-5.46.18-6.45.04-1-.14-3.49-1.07-4.92-2.75-1.41-1.69-1.45-4.11-1.45-4.11z" fill="#b2713b" stroke-width="none" opacity="1"></path><path id="SvgjsPath8746" d="M73.27 94.64c-.1.42-.12.84-.06 1.25-.57-.03-1.21.05-1.59.44-.14.14.01.33.18.3.3-.05.58-.2.88-.27.21-.05.42-.06.63-.05.06.21.13.42.22.63-.18.06-.35.14-.5.21-.38.17-.75.42-.99.76-.11.15.09.28.22.22.35-.16.68-.38 1.03-.55.15-.07.32-.12.49-.18.16.28.35.54.56.8-.41.24-.78.58-.9 1.03-.03.1.09.21.19.15.36-.24.65-.57.96-.88 1.11 1.22 2.67 2.16 3.92 2.57 1.88.62 3.93.72 5.89.62 1.85-.09 4.72-1.14 6.43-.21.07.04.13.02.17-.02l.03-.03c.01-.02.02-.04.02-.06 0-.01.01-.01.01-.03-.1-4.06-2.64-7.49-6.4-8.97-2.08-.82-4.37-1.02-6.58-.69-2.59.39-4.87 1.66-7.54 1.44-.23-.02-.34.3-.18.44.9.88 1.89 1.13 2.91 1.08zm.67-.07c1.99-.32 4.11-1.54 6.09-1.68 5.13-.36 10.05 3 10.7 8.24-2.39-.82-5.13-.1-7.59-.15-2.01-.04-4.14-.32-5.91-1.34-2.21-1.28-2.61-2.93-3.29-5.07z" fill="#2c1630" stroke-width="none" opacity="1"></path></g></g></g><g id="svga-group-eyes-right-move" transform="matrix(1,0,0,1,0,0)"><g id="svga-group-eyes-right" transform="matrix(1,0,0,1,0,0)"><g id="svga-group-eyesback-right"><path id="SvgjsPath8738" d="M109.1 101.3s.3-2.5 1-3.8 3.7-4.4 7-5c4.9-1 9.3 1.7 9.3 1.7s0 2.4-1.5 4.1c-1.4 1.7-3.9 2.6-4.9 2.7s-4.6.3-6.5 0c-1.3-.2-2.8-.2-3.4 0-.5.2-1 .3-1 .3z" fill="#ffffff" stroke-width="none" opacity="1"></path></g><g id="svga-group-eyesiriswrapper-right" transform="matrix(1,0,0,1,0,0)"><g id="svga-group-eyesiriscontrol-right" transform="matrix(1,0,0,1,0,0)"><g id="svga-group-eyesiris-right" transform="matrix(1,0,0,1,0,0)"><path id="SvgjsPath8623" d="M118 91.5c2.7 0 4.9 2.2 4.9 4.9s-2.2 4.9-4.9 4.9-4.9-2.2-4.9-4.9 2.2-4.9 4.9-4.9z" fill="#ea02f5" stroke-width="none" opacity="1"></path><path id="SvgjsPath8624" d="M118 93.8c1.4 0 2.6 1.2 2.6 2.6S119.4 99 118 99s-2.6-1.2-2.6-2.6 1.2-2.6 2.6-2.6z" fill="#000000" stroke-width="none" opacity="1"></path><path id="SvgjsPath8625" d="m117.4 94.3-.5-.5c-.2-.2-.4-.3-.7-.3s-.5.1-.7.3c-.2.2-.3.4-.3.7s.1.5.3.7l.5.5c.2.2.4.3.7.3.2 0 .5-.1.7-.3.3-.5.4-1 0-1.4zm2.4 4.4c.8 0 .8-1.3 0-1.3s-.8 1.3 0 1.3z" fill="#ffffff" stroke-width="none" opacity="1"></path></g></g></g><g id="svga-group-eyesfront-right"><path id="SvgjsPath8747" d="M118.26 85.53c-6.08 0-11.02 5.6-11.02 12.5s4.93 12.5 11.02 12.5 11.02-5.6 11.02-12.5-4.94-12.5-11.02-12.5zm6.67 12.82c-1.43 1.68-3.92 2.6-4.92 2.75-1 .14-4.56.29-6.45-.04-1.34-.23-2.82-.21-3.39-.04-.57.18-1.11.32-1.11.32s.29-2.53 1.03-3.82c.75-1.28 3.66-4.38 6.95-5.03 4.92-.96 9.34 1.75 9.34 1.75s-.03 2.43-1.45 4.11z" fill="#b2713b" stroke-width="none" opacity="1"></path><path id="SvgjsPath8750" d="M129.64 93.58c.15-.15.04-.46-.18-.44-2.68.22-4.96-1.05-7.54-1.44-2.21-.33-4.49-.13-6.58.69-3.76 1.48-6.31 4.91-6.4 8.97 0 .01.01.02.01.03 0 .02.01.04.02.06l.03.03c.04.04.1.06.17.02 1.71-.93 4.58.11 6.43.21 1.96.1 4.02-.01 5.89-.62 1.25-.41 2.81-1.35 3.92-2.57.31.31.6.64.96.88.1.06.22-.04.19-.15-.12-.45-.5-.79-.9-1.03.21-.26.4-.52.56-.8.17.06.34.11.49.18.35.17.68.39 1.03.55.13.06.33-.07.22-.22-.25-.34-.61-.59-.99-.76-.15-.07-.32-.15-.5-.21.09-.21.17-.42.22-.63.21 0 .42.01.63.05.3.07.58.21.88.27.17.03.31-.16.18-.3-.38-.39-1.02-.48-1.59-.44.06-.41.04-.83-.06-1.25 1.02.03 2.01-.22 2.91-1.08zm-6.87 6.06c-1.77 1.03-3.9 1.3-5.91 1.34-2.46.05-5.21-.67-7.59.15.65-5.24 5.56-8.6 10.7-8.24 1.98.14 4.1 1.36 6.09 1.68-.68 2.14-1.08 3.79-3.29 5.07z" fill="#2c1630" stroke-width="none" opacity="1"></path></g></g></g><g id="svga-group-facehighlight-single"></g><g id="svga-group-eyebrows-left-move" transform="matrix(1,0,0,1,0,0)"><g id="svga-group-eyebrows-left-rotate" transform="matrix(1,0,0,1,0,0)"><g id="svga-group-eyebrows-left" transform="matrix(1,0,0,1,0,0)"><path id="SvgjsPath8698" d="M69.6 87.3c0-.4.2-.7.5-.9.1-.2.3-.4.4-.6.1-.2.2-.3.4-.4.6-.8 1.8-1.5 2.6-2 1.2-.8 2.6-1.1 4.1-1.3 1.3-.4 2.8-.5 4-.2.1 0 .1.1.2.1 1 0 2 .2 3 .5.5.1 1 .2 1.5.5.1.1.2.2.2.3.6.2 1.1.4 1.6.7.8.4 1.6 1 2 1.6.1-.1.2-.1.4-.1.9.3 1 1 .6 1.6.3.3-.2.8-.7.6-.2 0-.3 0-.4-.1-1.4.7-3.5.3-5.1 0-.1 0-.1.1-.2.1-1.1 0-2.1-.1-3.2-.1-1.9.3-3.7.3-5.6.2-.6-.1-1.3-.1-1.9-.2-.3.1-.6.1-.9.1h-2.4c-.1.1-.3.1-.5 0-.4.1-.6-.1-.6-.4z" fill="#73625b" stroke-width="none" opacity="1"></path><path id="SvgjsPath8699" d="M90.2 86.9c.1-.4.1-.8-.2-1.1-.1-.1.1-.3.3-.2.8.5.8 1.8-.1 2.2-.1 0-.2 0-.2-.1-.1-.2.1-.5.2-.8zm-5.3-4.2c1.2.1 2.1 1.3 2.8 2 .7.8 1.7 1.8 1.6 2.9 0 .1-.2.2-.3.1-.6-.9-1-1.8-1.8-2.6-.7-.8-1.7-1.4-2.4-2.2 0-.1 0-.2.1-.2zm-4.1-.9c1.5 0 2.8 1.1 3.7 2 1.1 1.1 2.1 2.4 2.4 3.9 0 .2-.2.3-.3.1-1.4-2.4-2.5-4.7-5.8-5.7-.2-.1-.2-.3 0-.3zM75 83c4.4-.5 8.6 1.5 10.5 4.7.2.3-.3.5-.5.2-2-3.2-5.6-4.8-9.9-4.7-.2 0-.3-.2-.1-.2zm-3.2 1.1c3.3-.2 7.3 1.4 9.2 3.6.1.1-.1.2-.2.1-1.3-.9-2.6-1.8-4.2-2.4-1.6-.6-3.2-.8-4.9-1-.1-.1-.1-.3.1-.3zm-1.1 1.7c2.4-.3 6.5.2 8.2 1.8.1.1 0 .3-.2.2-2.4-1.4-5.2-1.5-7.9-1.7-.2-.1-.3-.3-.1-.3zm-1 1.8c1.1-.3 2.4-.1 3.5-.1.2 0 .2.3 0 .3-1.2 0-2.4.1-3.5-.1-.1 0 0-.1 0-.1z" fill="#827874" stroke-width="none" opacity="1"></path><path id="SvgjsPath8700" d="M69.8 85.9c-.6.7-1.4 1.8 0 2.2.7.2 1.7 0 2.4 0h16.4c1 0 3.5.2 3.1-1.2 0-.1-.2-.1-.3 0 0 .2-.1.3-.3.4.5-.9-.5-2.2-1.3-2.7-.1-.1-.2 0-.2.1-2.3-2-5.8-3.1-9-3.3-4-.2-8.4 1.6-10.8 4.5zM89 87.8c-.7-1.7-2.1-3.4-3.7-4.8 1.4.5 2.7 1.2 3.9 2.1.3.4.5.9.5 1.4.1.4 0 .8-.1 1.3H89zm1.8-.2c-.2.1-.4.1-.6.1.3-.6.3-1.2.1-1.8.3.2.5.5.8.7-.1.3-.2.6-.3 1 0-.1 0-.1 0 0zm-20.6-1.3c.5-.6 1.1-1.2 1.7-1.7.1-.1.2-.1.2-.2 2.5.9 4.9 1.8 7.2 3 .1.1.3-.1.2-.2-2-1.4-4.4-2.6-7-3.1 3.7-2.5 8.2-2.7 12.1-1.5.8.8 1.6 1.7 2.4 2.6.6.8 1.1 1.6 1.7 2.4-.8 0-1.7 0-2.5-.1-1.2-2.6-3.9-4.8-7.2-5.6-.2 0-.3.2-.1.2 3 1.3 5.3 2.9 7 5.3-.5 0-.9-.1-1.2-.1h-1.5v-.1c-1.8-2-4.4-3.7-7.4-4.3-.2 0-.3.2-.1.2 2.8 1.1 5.1 2.3 7.2 4.2h-11c-.3 0-1.4.2-1.7 0-.6 0-.3-.6 0-1zm1.3.3c.8 0 1.6.4 2.2.8.2.1 0 .3-.2.2-.3-.2-.7-.3-1-.4-.4-.1-.7-.2-1.1-.3-.1-.1-.1-.3.1-.3z" fill="#644e45" stroke-width="none" opacity="1"></path></g></g></g><g id="svga-group-eyebrows-right-move" transform="matrix(1,0,0,1,0,0)"><g id="svga-group-eyebrows-right-rotate" transform="matrix(1,0,0,1,0,0)"><g id="svga-group-eyebrows-right" transform="matrix(1,0,0,1,0,0)"><path id="SvgjsPath8701" d="M130.4 87.3c0-.4-.2-.7-.5-.9-.1-.2-.3-.4-.4-.6-.1-.2-.2-.3-.4-.4-.6-.8-1.8-1.5-2.6-2-1.2-.8-2.6-1.1-4.1-1.3-1.3-.4-2.8-.5-4-.2-.1 0-.1.1-.2.1-1 0-2 .2-3 .5-.5.1-1 .2-1.5.5-.1.1-.2.2-.2.3-.6.2-1.1.4-1.6.7-.8.4-1.6 1-2 1.6-.1-.1-.2-.1-.4-.1-.9.3-1 1-.6 1.6-.3.3.2.8.7.6.2 0 .3 0 .4-.1 1.4.7 3.5.3 5.1 0 .1 0 .1.1.2.1 1.1 0 2.1-.1 3.2-.1 1.9.3 3.7.3 5.6.2.6-.1 1.3-.1 1.9-.2.3.1.6.1.9.1h2.4c.1.1.3.1.5 0 .4.1.6-.1.6-.4z" fill="#73625b" stroke-width="none" opacity="1"></path><path id="SvgjsPath8702" d="M109.8 86.9c-.1-.4-.1-.8.2-1.1.1-.1-.1-.3-.3-.2-.8.5-.8 1.8.1 2.2.1 0 .2 0 .2-.1.1-.2-.1-.5-.2-.8zm5.3-4.2c-1.2.1-2.1 1.3-2.8 2-.7.8-1.7 1.8-1.6 2.9 0 .1.2.2.3.1.6-.9 1-1.8 1.8-2.6.7-.8 1.7-1.4 2.4-2.2 0-.1 0-.2-.1-.2zm4.1-.9c-1.5 0-2.8 1.1-3.7 2-1.1 1.1-2.1 2.4-2.4 3.9 0 .2.2.3.3.1 1.4-2.4 2.5-4.7 5.8-5.7.2-.1.2-.3 0-.3zM125 83c-4.4-.5-8.6 1.5-10.5 4.7-.2.3.3.5.5.2 2-3.2 5.6-4.8 9.9-4.7.2 0 .3-.2.1-.2zm3.2 1.1c-3.3-.2-7.3 1.4-9.2 3.6-.1.1.1.2.2.1 1.3-.9 2.6-1.8 4.2-2.4 1.6-.6 3.2-.8 4.9-1 .1-.1.1-.3-.1-.3zm1.1 1.7c-2.4-.3-6.5.2-8.2 1.8-.1.1 0 .3.2.2 2.4-1.4 5.2-1.5 7.9-1.7.2-.1.3-.3.1-.3zm1 1.8c-1.1-.3-2.4-.1-3.5-.1-.2 0-.2.3 0 .3 1.2 0 2.4.1 3.5-.1.1 0 .1-.1 0-.1z" fill="#827874" stroke-width="none" opacity="1"></path><path id="SvgjsPath8703" d="M119.2 81.4c-3.2.2-6.7 1.3-9 3.3 0-.1-.1-.2-.2-.1-.8.5-1.8 1.8-1.3 2.7-.1-.1-.2-.2-.3-.4 0-.1-.2-.1-.3 0-.4 1.4 2.1 1.2 3.1 1.2h16.4c.7 0 1.8.2 2.5 0 1.4-.4.6-1.5 0-2.2-2.3-2.9-6.7-4.7-10.9-4.5zm-8.9 6.3c0-.4-.1-.8-.1-1.3.1-.5.3-.9.5-1.4 1.2-.9 2.5-1.6 3.9-2.1-1.6 1.3-3 3.1-3.7 4.8-.2.1-.4.1-.6 0zm-1.1-.2c-.2-.3-.3-.6-.3-.9.3-.3.5-.5.8-.7-.2.6-.3 1.3.1 1.8-.2 0-.4-.1-.6-.2zm20.5.2c-.3.2-1.3 0-1.6 0h-11c2.1-1.9 4.4-3.1 7.2-4.2.2-.1.1-.3-.1-.2-3 .6-5.6 2.3-7.4 4.3v.1h-1.5c-.2 0-.7 0-1.2.1 1.7-2.4 4-4 7-5.3.2-.1.1-.3-.1-.2-3.3.8-6 3-7.2 5.6-.8 0-1.6.1-2.5.1.6-.8 1.1-1.7 1.7-2.4.7-.9 1.6-1.7 2.4-2.6 4-1.3 8.5-1 12.1 1.5-2.6.5-5 1.8-7 3.1-.1.1 0 .2.2.2 2.3-1.2 4.7-2.1 7.2-3 .1.1.2.1.2.2.7.5 1.2 1.1 1.7 1.7.3 0 .6.6-.1 1zm-1.2-1.1c-.8 0-1.6.4-2.2.8-.2.1 0 .3.2.2.3-.2.7-.3 1-.4.4-.1.7-.2 1.1-.3.1-.1.1-.3-.1-.3z" fill="#644e45" stroke-width="none" opacity="1"></path></g></g></g><g id="svga-group-nose-single-move" transform="matrix(1,0,0,1,0,0)"><g id="svga-group-nose-single" transform="matrix(1,0,0,1,0,2)"><path id="SvgjsPath8670" d="M97.41 88.35c-.43 3.42-.6 6.9-.93 10.33-.32 3.37-.96 6.96-.81 10.33.01.26.42.35.48.06.66-3.22.58-6.75.8-10.03.24-3.56.6-7.14.72-10.7.01-.16-.24-.15-.26.01z" fill="#843e04" stroke-width="none" opacity="1"></path><path id="SvgjsPath8671" d="M95.97 108.03c-1.67-2.43-3.11 3.48-3.25 4.2-.19 1.03-.68 2.71-.03 3.69.75 1.12 2.15.36 3.2.7.36.12.61-.45.26-.62-.4-.2-.66-.26-1.11-.26-.24 0-.59.14-.82.07-.62-.19-.98-1.07-1.04-1.69-.1-.89.9-6.69 2.49-5.81.18.1.43-.1.3-.28z" fill="#843e04" stroke-width="none" opacity="1"></path><path id="SvgjsPath8672" d="M94.5 114.84c.91.57 1.71 1.26 2.33 2.13.58.82.82 1.79 1.37 2.62.53.81 1.3 1.45 2.33 1.36 1.02-.1 1.78-.91 2.25-1.75.41-.74.59-1.59.97-2.34.52-1.04 1.32-1.71 2.12-2.51.16-.16 0-.5-.23-.4-.82.34-1.42.84-1.96 1.55-.73.96-.95 2.74-1.75 3.53-2.76 2.7-3.63-1.25-4.6-2.49-.72-.93-1.58-1.53-2.65-2-.2-.08-.37.18-.18.3z" fill="#843e04" stroke-width="none" opacity="1"></path><path id="SvgjsPath8673" d="M102.05 89.61c.22 3.47.64 6.95.99 10.41.32 3.22.39 6.58 1.03 9.76.06.29.52.22.51-.07-.04-3.45-.75-6.98-1.14-10.41-.37-3.23-.68-6.5-1.17-9.72-.01-.13-.22-.1-.22.03z" fill="#843e04" stroke-width="none" opacity="1"></path><path id="SvgjsPath8674" d="M104.41 108.12c.81-.51 1.87 3.42 1.98 3.75.19.54.48 1.11.59 1.67.35 1.74-.61 2.03-1.93 2.54a.26.26 0 0 0 .14.5c.92-.15 1.98-.51 2.42-1.41.58-1.19-.3-2.66-.74-3.75-.27-.68-1.24-4.88-2.67-3.59-.17.14.03.4.21.29z" fill="#843e04" stroke-width="none" opacity="1"></path><path id="SvgjsPath8675" d="M102.32 111.01c-.35-.36-1.01-.29-1.25.16-.38.69-.16 1.5-.28 2.26-.11.72-.34 1.42-.33 2.15 0 .2.2.38.41.31.87-.29 1.42-1.12 1.68-1.97.29-.91.49-2.17-.23-2.91z" fill="#ba7b47" stroke-width="none" opacity="1"></path><path id="SvgjsPath8676" d="M101.23 98.62c-.19-2.61-.23-5.22-.55-7.82-.02-.12-.18-.12-.19 0-.56 5.04-.21 10.72.86 15.68.06.28.51.22.5-.07-.09-2.6-.43-5.2-.62-7.79z" fill="#ba7b47" stroke-width="none" opacity="1"></path></g></g><g id="svga-group-hair-front" transform="matrix(1,0,0,1,0,0)"><path id="SvgjsPath8784" d="M77.1 48.8s-6.2-1.8-5.1-14S88.7 18 101.4 18s23.6 4.9 26.5 13.8c2.9 8.9.5 16.1-3.6 17.2s-47.2-.2-47.2-.2z" fill="#644e45" stroke-width="none" opacity="1"></path><path id="SvgjsPath8785" d="M134.7 54.9C123.8 36.7 100 38.1 100 38.1s-24.7-.9-35.7 17.2C54.1 72.3 57.1 88 57.1 88s2.2 2.2 3.5 10.2c.1.8 1.5.7 1.7-.2.5-2.6.2-8.2 1.9-15.6C67 70.6 76.4 60.5 86.5 57.6c5.4-1.6 22.5-.9 27.9.6 10.1 3 18.1 12.1 20.9 23.9 1.7 7.3 1.7 13.3 2.2 15.9.2.8 1.5 1 1.7.2 1.4-8 3.6-9.8 3.6-9.8s2.2-16.6-8.1-33.5zM129 36c-.2-1.3-.5-2.8-1-4.2-2.9-8.9-13.8-13.8-26.5-13.8-3.4 0-7.1.3-10.6 1.1-2.9 1.7-5.3 4.1-4.9 7.4 1.1 8 8.4 8.4 19 9.3 8.6.7 20.8 7.1 24 .2z" fill="#73625b" stroke-width="none" opacity="1"></path><path id="SvgjsPath8786" d="M64.1 64.6c.3-4.9 1.7-9.5 3.7-13.9-1.2 1.4-2.4 2.9-3.4 4.6-5.6 9.2-7.2 18.1-7.6 24.3.5 5.9 2.2 12.2 5.8 16.4.1-1.5.2-3.4.4-5.7-1.8-5-3.7-9.7-3.8-15.6-.1-5.6 1.2-10.6 3.2-15.4-1.9 7.3-1.7 15.5 2.2 21 0 .1.1.1.2.2.3-1 .7-2 1.1-3-.9-4.3-2.1-8.4-1.8-12.9zm6.6-16.7c-.9.8-1.8 1.6-2.6 2.5-2.4 7.3-3.4 16.1-.2 22.8.4-.8.9-1.5 1.4-2.3-.2-3.5-.8-6.9-.7-10.5.1-4.2.9-8.4 2.1-12.5zM72.2 59c0-4.6.8-9.1 1.8-13.6-.6.4-1.1.8-1.7 1.2-2.6 6.8-3.5 15.1-1.5 22.2.7-.8 1.3-1.6 2-2.4-.3-2.5-.6-4.9-.6-7.4zm6.6-16.3c-.9.4-1.8.9-2.6 1.3-3.1 6.4-4.6 15-2.8 21.9.9-.9 1.7-1.7 2.7-2.5-.4-2.2-.7-4.4-.6-6.7.1-5 1.5-9.5 3.3-14zm4.7-1.9c-.8.3-1.7.6-2.5.9-3 5.7-4.3 13.3-1.9 19.3.7-.5 1.4-.9 2.1-1.3-.8-6.7-.8-12.4 2.3-18.9zm1.7-.5c-1.3 5.9-2.1 12.1-.8 18 .4-.1.7-.3 1.1-.4 0-5.8-.3-11.5.7-17.3 0-.2-.1-.4-.2-.5-.3 0-.5.1-.8.2zm6.2-1.5c-.5.1-1 .2-1.6.3-1.1 5.8-1 12.1.2 17.9.5 0 1.1-.1 1.6-.1-.1-6.1-.3-12-.2-18.1zm4.7-.3c0-.1 0-.2-.1-.2-.3 0-.5 0-.8.1v.2c-.5 6-.5 12.3 1 18.2h1c-.4-6.2-1.1-12.2-1.1-18.3zm7.8 8.2c.2 3.4.2 6.8.5 10.2.3 0 .7 0 1 .1.6-6.4-1-12.5-1-18.7-.3 0-.6 0-.9-.1-.3 2.8.2 5.7.4 8.5zm7.9-5.6c.4 5.6 0 11-.8 16.5.5.1.9.2 1.4.2.9-5.5.9-11.1.3-16.7 0-.6-.9-.6-.9 0zm11 7.9c.1 4.3-.7 8.1-2.5 11.8.4.2.8.5 1.2.8 2.3-3.8 3.1-8.3 2.1-12.7 0-.5-.8-.4-.8.1zm6.6-.3c-.1-.6-.9-.4-.9.1-.4 5.6-1 10.9-2.6 16.2l.9.9c2.4-5.2 3.7-11.3 2.6-17.2zm-1.3 18.8c.3.4.7.8 1 1.3 3.2-3.9 5.3-8.8 5.7-13.8v-.1c-.6-.9-1.1-1.8-1.8-2.6-.7 5.5-2.1 10.4-4.9 15.2zm6.7-12.5c-.2 2.8-.3 5.5-1.1 8.2-.7 2.2-1.8 5.2-3.5 7.2.3.5.7 1.1 1 1.6 1.8-1.5 3-4.2 3.9-6.1 1-2.2 1.6-4.7 1.8-7.2-.7-1.3-1.4-2.5-2.1-3.7zm2.1 4.9c-1 4.2-1.7 10.1-4.8 13.7.3.5.5 1.1.8 1.6 1.7-1.5 2.8-3.8 3.6-5.7 1.1-2.5 1.8-5.1 1.7-7.8-.3-.7-.6-1.5-1-2.2-.1 0-.3.2-.3.4zm-.3 30.3c3-6.1 4.2-13.3 4.5-20.1-.6-2.2-1.3-4.5-2.2-6.9-.7 5.8-1.4 11.2-4.4 16.3.2.7.4 1.5.6 2.2 1.3-1.7 2.3-3.5 3.2-5.4-.7 2.9-1.6 5.7-2.5 8.6.4 1.9.6 3.7.8 5.3zm2.5 8c1.4-8 3.6-9.8 3.6-9.8s.4-2.7.1-6.9h-.1c0-.2.1-.5.1-.8-.1-1.9-.4-4.1-.8-6.5-.9 3.8-1.5 7.7-2.7 11.5-.7 2.3-1.6 4.4-2.5 6.6.2 1.8.3 3.3.4 4.5.3-.5.6-.9.8-1.4-.2.7-.5 1.5-.7 2.2 0 .1 0 .2.1.4.1.7 1.1.9 1.5.5 0-.1.1-.1.1-.2.1 0 .1-.1.1-.1zM89.7 26.1c.2-2.9 1.3-5.4 3.2-7.4l-1.5.3c-1.7 2.1-2.6 5-2.7 7.7-.1 1.5.1 3.9.8 6 .4.3.9.5 1.4.7-1.1-2.3-1.3-5.4-1.2-7.3zm24.2 11.5c3.3-3.5 6.6-10.4 5.6-15.5-.4-.2-.8-.5-1.2-.7 1.8 4.9-1.9 11.8-5.1 15.9.3.2.5.3.7.3zm11.9-9.9c.8 2 .7 4.1-1.1 6.2-2.2 2.4-5.2 4-8.4 4.4.8.2 1.6.3 2.3.5 3.5-.7 7.1-3.5 8.3-6.5.2-.6.4-1.3.4-1.9-.3-1-.9-1.9-1.5-2.7zm-28.1-9.6c-.3 0-.6 0-1 .1-1.6 5.4-.8 12.2 1.7 17 .3 0 .5.1.8.1-2.3-5.1-3-11.6-1.5-17.2zm11.9 18.5c3.4-5.1 4.8-11.8 2.4-17.4l-1.2-.3c2.4 5.9 1.2 11.7-1.9 17.5.2.1.5.1.7.2zm-4.7-.8h.2c.4-4.9.7-12.6-1.7-17.8h-1.2c2.6 5.1 2.2 12.4 2.2 17.8h.5z" fill="#644e45" stroke-width="none" opacity="1"></path><path id="SvgjsPath8787" d="M119.9 43.2c0-.2-.5-.2-.4.1.5 4.1.1 7.9-.5 12 0 .3.4.4.5.1 1.2-3.9 1-8.2.4-12.2zm-1 .8c0-.2-.3-.2-.3 0-.2 3.8-.6 7.5-.9 11.2 0 .3.4.3.4.1.9-3.7 1.1-7.7.8-11.3zm-1.5 0c0-.2-.4-.3-.4 0 0 3.3-.4 6.5-.7 9.8 0 .3.4.3.5.1.8-3.2.8-6.7.6-9.9zm-2 .3c0-.2-.3-.2-.3 0 .1 2.8-.2 5.5-.2 8.3 0 .3.4.4.5.1.4-2.8.3-5.7 0-8.4zm-2-.9c0-.1-.2-.1-.2 0 .3 2.3.3 4.5.3 6.8 0 .2.2.2.2 0 .2-2.2 0-4.5-.3-6.8zm-3.2-1.5c0-.4-.7-.4-.7 0 0 4.6-.5 9.2-.6 13.7 0 .3.5.4.6.1 1.1-4.5 1.1-9.2.7-13.8zm-2.1.2c0-.2-.4-.2-.4 0 0 4.1-.3 8.1-.3 12.2 0 .2.4.3.4.1.6-4.1.5-8.2.3-12.3zm-2.1.8c0-.2-.4-.2-.4 0-.1 3.7-.4 7.3-.2 11 0 .3.4.3.4 0 .4-3.6.2-7.3.2-11zm-4.5-.8c0-.3-.4-.3-.4 0-.3 4-.4 8.2.1 12.2 0 .4.6.4.6 0 .1-4.1-.2-8.2-.3-12.2zm-1.8 1c0-.3-.4-.3-.4 0-.1 3.5-.4 7.2.1 10.8 0 .3.5.2.5-.1.1-3.6-.3-7.1-.2-10.7zm-2 .2c0-.4-.5-.3-.6 0-.4 3.2-.6 6.6 0 9.7.1.3.6.2.6-.1 0-3.2-.2-6.4 0-9.6zm-4.2.3c-.5 3.7-.8 7.5-.3 11.2 0 .3.5.3.5 0 0-3.7-.1-7.5.2-11.2 0-.2-.4-.3-.4 0zm-6.2-.7c-.4 3.8-.7 7.7-.2 11.5 0 .2.4.3.4 0 .1-3.8.1-7.7.2-11.5 0-.3-.4-.2-.4 0zm-3.3 1c-.7 3.7-1.1 7.7-.8 11.4 0 .4.6.4.6 0 .2-3.8.3-7.6.6-11.4 0-.2-.4-.2-.4 0zm-1.7 2c-.8 3.3-1.3 6.9-.9 10.2 0 .3.4.3.5 0 .2-3.4.4-6.7.8-10.1 0-.2-.3-.3-.4-.1zm-4.5-.2c.1-.3-.3-.4-.4-.1-1.5 4.1-2 8.4-1.2 12.7.1.2.4.2.4-.1-.1-4.3.2-8.4 1.2-12.5zm44.1 1.5c0-.4-.6-.4-.6 0-.1 3.8-.6 7.6-.8 11.4 0 .3.5.4.5.1 1-3.8 1.1-7.8.9-11.5zm3.9.2c0-.2-.4-.2-.4.1.2 4.1-.1 7.9-.8 12-.1.3.4.4.5.1 1.2-3.9 1.4-8.1.7-12.2zm1.1 4.3c0-.2-.3-.2-.3 0-.1 3.6-.7 7.1-1.4 10.6 0 .2.3.3.3.1 1.2-3.4 1.6-7 1.4-10.7zm4.5.2c0-.3-.4-.3-.4 0-.4 4.1-1.3 7.8-2.4 11.8-.1.3.3.4.4.2 2-3.5 2.7-8 2.4-12zm2.2 7.4c-.5 2.7-1.3 5.3-2.3 7.8-.1.2.2.3.4.2 1.4-2.4 2.1-5.1 2.5-7.9 0-.4-.6-.4-.6-.1zm.7 6.3c-.3.6-.6 1.2-.8 1.9 0 .1.2.2.2.1l.9-1.8c.2-.3-.2-.5-.3-.2zm2.9 0c-.7 3.4-1.7 6.5-2.6 9.8-.1.3.3.4.4.2 1.7-2.9 2.5-6.6 2.6-10 .1-.2-.3-.3-.4 0zm1.1 4.2c-1.1 2.8-2.4 5.6-3.2 8.5-.1.3.4.6.6.2 1.3-2.7 2.2-5.7 3.2-8.6.1-.3-.5-.5-.6-.1zm-.1 7.3c-.3.9-.8 1.8-.9 2.8 0 .2.3.4.4.2.5-.8.8-1.8 1.2-2.7.2-.6-.5-.7-.7-.3zm-14.4-50.3c-.8 2.1-1.7 4.1-3 5.9-1.3 1.8-3.1 3.1-4.6 4.8-.2.2 0 .4.3.3 4-1.7 7-6.8 7.8-10.9.1-.3-.4-.5-.5-.1zm-1.9.6c-1.3 3.1-3.1 5.6-4.9 8.4-.2.3.2.6.5.4 2.3-2.3 3.9-5.5 4.8-8.6-.1-.2-.3-.4-.4-.2zm-6.5-4.3c-.2 3.6-1.1 6.8-2.2 10.2-.1.3.4.5.5.2 1.8-3.1 2.4-6.9 2.3-10.5.1-.3-.5-.3-.6.1zm-1.9 1.9c-.1 2.5-.8 4.6-1.6 6.9-.1.3.3.5.5.2 1.2-2.1 1.6-4.7 1.6-7.1 0-.4-.5-.4-.5 0zm-4.2-3.1c-.2-.1-.4.2-.2.4.8.8.2 4.2.1 5.2-.2 1.8-.6 3.7-.9 5.5-.1.3.3.4.5.1.9-2.5 1.3-5 1.4-7.6 0-1 .4-3.2-.9-3.6zm-2.1 1.8c-.1-.3-.4-.1-.4.1.5 3.7 0 7.1-.7 10.7-.1.3.4.4.5.1 1.3-3.4 1.3-7.2.6-10.9zm-4.3-1.5c0-.3-.5-.4-.5-.1-.6 4-.8 8.2.2 12.2.1.2.4.2.4-.1-.2-4-.5-7.9-.1-12zm-2.1-.6c0-.3-.4-.2-.4 0-.4 3.6-.5 7.6.5 11.1.1.2.4.2.4-.1-.1-3.7-.7-7.3-.5-11zm-2.1.6c0-.3-.4-.3-.5 0-.4 3.5-.4 7.1.7 10.6.1.3.5.2.5-.1-.6-3.5-1-6.9-.7-10.5zm-4.3.8c.1-.3-.4-.5-.5-.1-.8 3.1-.8 6.6.3 9.6.1.3.6.2.5-.1-.5-3.3-.8-6.2-.3-9.4zm-2.5.4c0-.2-.3-.2-.4 0-.4 3.4-.1 6.6 1.3 9.8.1.2.4 0 .3-.1-.9-3.2-1.3-6.4-1.2-9.7zm-5-.1c-1.6 3-2 6.6-.4 9.8.1.3.6.1.5-.2-.9-3.1-1.1-6.2.4-9.3.2-.4-.3-.7-.5-.3zm-2.2 1.1c0-.3-.4-.3-.4 0-.3 3.2-.1 6.5 1.2 9.5.1.3.5.1.4-.2-.8-3.1-1.4-6.1-1.2-9.3z" fill="#827874" stroke-width="none" opacity="1"></path></g><g id="svga-group-glasses-single-move" transform="matrix(1,0,0,1,0,0)"><g id="svga-group-glasses-single" transform="matrix(1,0,0,1,0,0)"></g></g></g></g></g><rect id="svga-credit-rect" width="200" height="15" x="0" y="185" fill="#ecf0f1" opacity="0.5" style="display: none;"></rect><text id="svga-credit-text" font-family="Avenir Next, Roboto, Helvetica, Arial, sans-serif" font-size="10px" text-anchor="start" font-weight="400" size="10px" anchor="start" weight="400" fill="#333333" x="33.40447998046875" y="182.60824704170227" style="display: none;"><tspan id="SvgjsTspan8140" dy="13" x="33.40447998046875">Created on AvatarMaker.com</tspan></text></g></svg>