<svg xmlns="http://www.w3.org/2000/svg" version="1.1" width="600px" height="600px" viewBox="0 0 200 200" style="overflow:hidden!important;"><defs id="SvgjsDefs14753"><linearGradient id="SvgjsLinearGradient15422" x1="80.8481" y1="82.7246" x2="80.8481" y2="107.5423" gradientUnits="userSpaceOnUse" class="svga-on-canvas-glasses-gradient-single-0-null"><stop id="SvgjsStop15423" stop-opacity="1" stop-color="#3d2d1c" offset="0.0208" ></stop><stop id="SvgjsStop15424" stop-opacity="0.6291" stop-color="#402e1c" offset="0.3825" ></stop><stop id="SvgjsStop15425" stop-opacity="0.3897" stop-color="#48321d" offset="0.6159" ></stop><stop id="SvgjsStop15426" stop-opacity="0.1881" stop-color="#57381f" offset="0.8124" ></stop><stop id="SvgjsStop15427" stop-opacity="7.593334e-03" stop-color="#6c4221" offset="0.9884" ></stop><stop id="SvgjsStop15428" stop-opacity="0" stop-color="#6d4221" offset="0.9958" ></stop></linearGradient><linearGradient id="SvgjsLinearGradient15430" x1="-18.8571" y1="82.7246" x2="-18.8571" y2="107.5423" gradientTransform="matrix(-1 0 0 1 100.2947 0)" gradientUnits="userSpaceOnUse" class="svga-on-canvas-glasses-gradient-single-1-null"><stop id="SvgjsStop15431" stop-opacity="1" stop-color="#3d2d1c" offset="0.0208" ></stop><stop id="SvgjsStop15432" stop-opacity="0.6291" stop-color="#402e1c" offset="0.3825" ></stop><stop id="SvgjsStop15433" stop-opacity="0.3897" stop-color="#48321d" offset="0.6159" ></stop><stop id="SvgjsStop15434" stop-opacity="0.1881" stop-color="#57381f" offset="0.8124" ></stop><stop id="SvgjsStop15435" stop-opacity="7.593334e-03" stop-color="#6c4221" offset="0.9884" ></stop><stop id="SvgjsStop15436" stop-opacity="0" stop-color="#6d4221" offset="0.9958" ></stop></linearGradient></defs><g id="svga-group-wrapper"><g id="svga-group-backs-single"></g><g id="svga-group-humanwrap-move" transform="matrix(1,0,0,1,0,0)"><g id="svga-group-humanwrap" transform="matrix(1,0,0,1,0,0)"><g id="svga-group-hair-back-move" transform="matrix(1,0,0,1,0,0)"><g id="svga-group-hair-back" transform="matrix(1,0,0,1,0,0)"><path id="SvgjsPath15514" d="M123.7 122c1.7 12.1 2.4 24.2 2.3 36.3 0 2.4 3.7 2.4 3.8 0 .1-12.5-.7-24.9-2.4-37.3-.4-2.4-4-1.4-3.7 1zm3.8-4.1c2.3 11.6 3.3 23.3 3.1 35.2-.1 2.4 3.7 2.4 3.8 0 .3-12.2-.8-24.2-3.2-36.2-.6-2.4-4.2-1.4-3.7 1zm7.2-6.8c-.7-2.3-4.4-1.3-3.6 1 3.9 12.1 4 25.7 3.5 38.3-.1 2.4 3.7 2.4 3.8 0 .5-12.9.3-26.9-3.7-39.3z" fill="#6b4e40" stroke-width="none" opacity="1" stroke="none"></path><path id="SvgjsPath15515" d="M135.2 110.9c-.5-1.5-1.9-1.9-3.1-1.5-1.1.3-2 1.4-1.5 2.8 2.2 7 3.2 14.6 3.6 22-.5-5.9-1.4-11.7-2.6-17.5-.2-.8-.6-1.4-1.4-1.6-.8-.3-1.8-.1-2.5.6-.7.6-.9 1.4-.8 2.3.1.6.2 1.3.3 1.9-.5-.6-1.2-.8-1.9-.7-1.3.2-2.5 1.3-2.3 2.9 1.6 11.8 2.4 24 2.3 36.2 0 .9.4 1.6 1.1 2 .4.2.8.3 1.3.3.4 0 .9-.1 1.3-.3.7-.4 1.1-1.1 1.1-2v-4.4c.3.9 1.2 1.4 2.1 1.4h.1c1.2 0 2.4-.8 2.4-2.3v-.9c.4.4 1 .6 1.5.6h.1c1.2 0 2.4-.8 2.4-2.3.6-12.3.6-26.6-3.5-39.5zm-6.6 48.5c-.5.3-1.1.3-1.6 0-.3-.2-.6-.5-.6-1.1.1-12.3-.7-24.6-2.3-36.4-.2-1.1.7-1.7 1.4-1.8h.2c.4 0 .9.1 1 .9 1.7 12.4 2.5 25 2.4 37.2.1.7-.2 1.1-.5 1.2zm-.1-32.8c1 7.2 1.6 14.6 1.6 22-.2-7.3-.7-14.6-1.6-22zm5.3 26.4c0 .9-.7 1.3-1.4 1.3-.6 0-1.3-.4-1.3-1.3.3-11.9-.8-23.8-3.1-35.3-.1-.7.2-1.1.4-1.3.3-.3.7-.4 1.1-.4.1 0 .3 0 .4.1.4.1.6.4.7.9 2.4 11.9 3.5 24 3.2 36zm4.1-2.6c0 .9-.8 1.3-1.5 1.3-.6 0-1.3-.4-1.2-1.3.5-12.1.4-26.1-3.6-38.5-.3-.9.3-1.4.9-1.6.2-.1.3-.1.5-.1.5 0 1.1.3 1.3 1 4 12.7 4 27 3.6 39.2z" fill="#5c3d2e" stroke-width="none" opacity="1" stroke="none"></path><path id="SvgjsPath15516" d="M74.9 121.6c-1.1 12.1-1.2 24.3-.5 36.4.1 2.4-3.6 2.6-3.8.2-.7-12.5-.5-24.9.6-37.4.2-2.4 3.9-1.6 3.7.8zm-4-3.9c-1.8 11.7-2.2 23.5-1.3 35.3.2 2.4-3.6 2.6-3.8.2-.9-12.1-.4-24.2 1.4-36.3.4-2.4 4-1.6 3.7.8zm-7.6-6.4c.6-2.3 4.3-1.5 3.7.8-3.2 12.3-2.7 25.9-1.6 38.5.2 2.4-3.5 2.6-3.8.2-1.1-12.9-1.6-26.9 1.7-39.5z" fill="#6b4e40" stroke-width="none" opacity="1" stroke="none"></path><path id="SvgjsPath15517" d="M61.1 150.8c.1 1.5 1.4 2.2 2.6 2.2h.1c.5-.1 1.1-.3 1.5-.6 0 .3 0 .6.1.9.1 1.5 1.3 2.2 2.5 2.2h.1c.9-.1 1.8-.6 2.1-1.6.1 1.5.1 2.9.2 4.4.1.9.5 1.6 1.2 1.9.4.2.8.3 1.3.3.4 0 .9-.2 1.3-.4.7-.4 1-1.2 1-2-.7-12.2-.5-24.5.5-36.3.1-1.6-1.1-2.7-2.4-2.8-.7-.1-1.4.2-1.9.8.1-.6.2-1.3.3-1.9.1-.9-.2-1.7-.9-2.2-.7-.6-1.7-.7-2.5-.4-.7.3-1.2.9-1.3 1.7-.9 5.8-1.4 11.7-1.7 17.6 0-7.4.6-15.1 2.5-22.2.4-1.5-.6-2.5-1.6-2.8-1.2-.3-2.6.2-3 1.7-3.7 12.9-3.1 27.2-2 39.5zm10.1 7.4c-.7-12.2-.5-24.8.6-37.3.1-.8.6-1 1-1h.2c.7.1 1.6.6 1.5 1.7-1 11.9-1.2 24.2-.5 36.5 0 .6-.3 1-.5 1.1-.4.3-1.1.3-1.5.1-.4-.2-.8-.5-.8-1.1zm-1.4-9.6c-.3-7.4-.2-14.8.5-22.1-.5 7.4-.6 14.8-.5 22.1zM67.7 117c.1-.5.3-.8.7-.9.1-.1.3-.1.4-.1.4 0 .8.1 1.1.4.3.2.6.6.5 1.3-1.7 11.6-2.2 23.5-1.3 35.4.1.9-.6 1.3-1.2 1.4-.7 0-1.4-.3-1.5-1.2-1-12.2-.5-24.3 1.3-36.3zm-3.9-5.6c.2-.7.7-1 1.2-1 .2 0 .3 0 .5.1.6.2 1.2.6.9 1.5-3.3 12.6-2.7 26.6-1.7 38.6.1.9-.6 1.3-1.2 1.4-.7 0-1.5-.3-1.6-1.2-.8-12.3-1.5-26.5 1.9-39.4z" fill="#5c3d2e" stroke-width="none" opacity="1" stroke="none"></path><path id="SvgjsPath15518" d="M64.8 148.8c-.1 0-.1-.1-.2-.1.1-.1.1-.3 0-.4-.6-.6-1.3-1-1.8-1.7s-.6-1.4-1-2.1c-.1-.2-.5-.2-.5.1-.2 1.3.8 3.1 2.1 3.9-.5 0-.9 0-1.3.1-.1 0-.2.1-.2.2v.2c.1.1.2.2.3.2.4 0 .8-.1 1.2-.1s.8.2 1.1.2c.4 0 .6-.3.3-.5zm-.7-4.7-1.2-1.2c-.4-.4-1.1-1-.9-1.6.1-.2-.3-.5-.5-.3-1.2 1.3 1.3 3.1 2.3 3.4.3.1.5-.2.3-.3zm-1.1-4.4c-.3-.6-.6-1-.6-1.7 0-.4-.5-.4-.5 0 0 .7.2 1.5.8 2 .1.2.5 0 .3-.3zm.9-4.6c-.4-.5-1-.9-1.3-1.6-.4-.6-.6-1.4-.6-2.1 0-.3-.4-.4-.5-.1-.3 1.6.4 3.8 2.1 4.3.4 0 .5-.3.3-.5zm-.1-4c-.2-.4-.6-.7-.8-1.1-.3-.4-.4-.9-.5-1.4 0-.3-.5-.3-.5 0 0 1 .4 2.5 1.5 2.8.2.1.4-.1.3-.3zm-1.3-6.4c0-.4-.7-.4-.7 0 0 .9.2 2 .8 2.6.2.2.4 0 .4-.2-.2-.8-.5-1.5-.5-2.4zm6.3 27.5c-1.1-.6-2.2-1.4-2.4-2.7 0-.2-.4-.2-.4.1 0 1.4 1.1 3.2 2.7 3 .2 0 .3-.3.1-.4zm-.5-3.2c-.2-.4-.7-.7-.9-1-.3-.4-.5-.9-.6-1.4-.1-.3-.5-.2-.5.1 0 1 .6 2.7 1.8 2.8.1 0 .3-.3.2-.5zm-.7-3c-.5-.8-1-1.5-1.1-2.5 0-.3-.5-.3-.5 0 0 1 .3 2.1 1.1 2.8.3.2.7 0 .5-.3zm.5-5.7c-.7-.6-1.4-1.3-1.5-2.3 0-.3-.4-.3-.4 0 0 1.1.6 2.4 1.8 2.6 0 .1.2-.1.1-.3zm-.2-2.9c-.2-.4-.6-.8-.8-1.2-.2-.4-.4-1-.5-1.5-.1-.3-.5-.2-.5.1 0 1.1.4 2.6 1.5 3 .2.1.4-.2.3-.4zm3.6 17.6c-.4.1-.3.7.1.7s.8 0 1.2.2c.3.1.6.4.9.4.2 0 .3-.2.3-.4-.3-1-1.8-1.1-2.5-.9zm2-2c-.3-.3-.7-.5-1.1-.8-.4-.3-.7-.6-.9-1.1-.2-.3-.5 0-.4.2.4.9 1.2 2 2.2 2.1.2 0 .4-.3.2-.4zm-.4-2.1c-.2-.4-.4-.7-.7-1.1-.3-.4-.7-.8-.9-1.3-.2-.3-.7 0-.5.3.4.8 1 1.9 1.9 2.3.1.2.3 0 .2-.2zm.1-2.3c-.3-.4-.8-.7-1.1-1.1-.3-.5-.6-1-.6-1.6 0-.4-.6-.4-.6 0 0 .7.1 1.4.5 2 .3.5.9 1.1 1.5 1 .3.1.4-.1.3-.3zm-.7-4c-.1-.4-.4-.7-.6-1-.2-.4-.4-.8-.5-1.2-.1-.3-.7-.3-.6.1.1.8.5 2.2 1.4 2.5.1 0 .4-.2.3-.4zm.3-5.7c-.2-.4-.5-.6-.7-.9-.2-.3-.5-.7-.6-1.1-.1-.3-.5-.2-.5.1.2.8.6 2 1.5 2.3.2.1.3-.2.3-.4zm56.7 17.7c-.6-.4-1.3-.6-1.8-1.1-.6-.5-1.1-1.1-1.3-1.8-.1-.3-.5-.2-.5.1.3 1.6 1.8 3.5 3.6 3.2.2.1.2-.2 0-.4zm-1.1-3.7c-.3-.4-.7-.6-1-1-.3-.4-.5-.9-.6-1.4-.1-.3-.6-.2-.5.1.1 1.1.8 2.6 2 2.7.1 0 .2-.3.1-.4zm-.3-3.2c-.2-.4-.6-.7-.9-1.1-.3-.4-.5-.9-.7-1.4-.1-.3-.6-.2-.5.1.2 1 .8 2.2 1.8 2.6.3.2.4 0 .3-.2zm1.1-6.4c-.7-.4-1.4-.7-2-1.3-.6-.6-1.1-1.3-1.4-2.1-.1-.2-.5-.2-.4.1.3 1.6 1.8 3.6 3.6 3.7.4.1.4-.3.2-.4zm-.9-3.7c-.4-.4-1-.6-1.4-1-.4-.5-.7-1.1-.9-1.7-.1-.2-.4-.2-.4.1.1 1.2 1 3.1 2.5 3.1.2 0 .3-.3.2-.5zm-1.4-3.2c-.5-.5-1-1-1.4-1.7-.1-.2-.4 0-.3.2.4.7.9 1.3 1.5 1.7.1.1.3-.1.2-.2zm-.1-5.2c-.1-.3-.3-.5-.5-.7-.1-.2-.3.1-.2.2.2.2.3.4.6.6.1.1.2 0 .1-.1zm6.7 19.9c-.4-.4-.9-.6-1.2-1.1-.3-.5-.5-1.1-.4-1.7 0-.2-.3-.2-.4-.1-.3 1.3.4 3.1 1.9 3.3.1 0 .2-.3.1-.4zm-.1-4.3c-.2-.3-.5-.6-.7-.9-.2-.3-.4-.6-.6-1-.1-.2-.5-.1-.4.2.3.7.7 1.6 1.4 2 .1.2.4-.1.3-.3zm-.1-6.2c-.4-.4-.8-.7-1.1-1.1-.4-.4-.6-1-.8-1.5-.1-.2-.4-.2-.4.1.1 1.2.8 2.6 2.1 3 .2 0 .4-.3.2-.5zm-.7-3.6c-.2-.3-.6-.6-.8-.9-.3-.4-.5-.8-.6-1.2-.1-.3-.5-.2-.5.1.1.9.6 2.1 1.6 2.4.2 0 .4-.2.3-.4zm-1.8-4.7c-.1-.2-.4 0-.3.2.2.4.4.9.7 1.3.1.1.3.1.3-.1-.2-.5-.4-.9-.7-1.4zm6.3 14.8c-.6-.6-1.1-1.2-1.1-2.2 0-.2-.4-.2-.4 0-.1.9.4 2.1 1.3 2.5.2.2.4-.1.2-.3zm.3-3.7c-.2-.4-.5-.7-.8-1.1-.2-.4-.4-.9-.6-1.3-.1-.2-.4-.2-.4.1.1 1 .4 2.2 1.3 2.8.4.1.7-.2.5-.5zm-.1-4.2c-.5-.9-1.1-1.6-1.4-2.6-.1-.3-.5-.1-.4.1.2 1 .7 2.1 1.5 2.7.1.3.4.1.3-.2zm.2-4.9c-.7-.4-1.4-.6-1.9-1.4-.1-.2-.5 0-.4.2.4.8 1.2 1.7 2.2 1.6.2 0 .2-.3.1-.4zm-.3-7.3c-.1-.3-.5-.2-.4.1.4 1.3.1 3.1-1.3 3.7-.2.1-.2.3 0 .4.8.2 1.4-.5 1.7-1.2.4-.9.4-2 0-3zm-.9.1c-.6 0-1.3.2-1.6-.6-.1-.3-.6-.2-.5.2.2.8 1.6 1.7 2.3.8.1-.2 0-.4-.2-.4zm-.9-5.7c-.1-.2-.3-.2-.4 0-.2.5-.5.9-1 .6-.2-.1-.4.3-.2.4.7.3 1.8-.2 1.6-1z" fill="#7a6155" stroke-width="none" opacity="1" stroke="none"></path></g></g><g id="svga-group-humanbody-back"><path id="SvgjsPath15173" d="M166.5 181.1c-10.9-6.6-24-7.8-31-12.1s-9.1-4.7-8.9-17.8 1.9-42.4 1.9-42.4H71.4s1.6 29.4 1.9 42.4-1.9 13.5-8.9 17.8-20.1 5.4-31 12.1c-10.8 6.6-10 18.9-10 18.9v19.7h153.3V200c-.1 0 .7-12.3-10.2-18.9z" fill="#875732" stroke-width="none" opacity="1" stroke="none"></path></g><g id="svga-group-chinshadow-single"><path id="SvgjsPath15417" d="M127.2 160.2c-.5-2.1-.6-4.9-.5-9 .3-13 1.9-42.4 1.9-42.4H71.4s1.6 29.4 1.9 42.4c.1 4-.1 6.8-.5 8.9 4.9 5.2 14.7 6.9 27.2 6.9 12.5.1 22.3-1.7 27.2-6.8z" fill="#683712" stroke-width="none" opacity="1" stroke="none"></path></g><g id="svga-group-humanbody-front"><path id="SvgjsPath15174" d="M176.7 197.2c-.1-.9-.3-1.9-.5-2.8-.4-1.8-1.1-3.6-2-5.3-.4-.8-.9-1.6-1.5-2.4-.5-.8-1.1-1.5-1.8-2.2-1.3-1.4-2.8-2.6-4.4-3.5-3.5-2.1-7.2-3.7-11.1-5.1-1.9-.7-3.8-1.3-5.8-1.9-1.9-.6-3.9-1.2-5.8-1.8-1.9-.6-3.8-1.3-5.6-2.2-.9-.4-1.8-.9-2.6-1.4L133 167c-1.7-1.1-3.3-2.2-4.2-3.9-.2-.4-.4-.8-.6-1.3-.2-.5-.3-.9-.4-1.4-.2-.9-.3-1.9-.4-2.9-.1-2-.1-4 0-6s.2-4 .3-6.1c.2-4 .4-8.1.6-12.1l1.3-24.3.1-1.2h-1.2c-4.8 0-9.5.1-14.3.1l-14.2.1-28.6.4h-.5v.5c.6 10 1.2 19.9 1.6 29.9.2 5 .4 10 .4 15 0 1.2-.1 2.5-.2 3.7s-.3 2.4-.6 3.6c-.3 1.1-.9 2.2-1.7 3.1-.8.9-1.8 1.6-2.8 2.2-1 .7-2.1 1.3-3.2 1.9-.5.3-1.1.6-1.6.9-.5.3-1.1.5-1.7.8-2.3.9-4.6 1.6-7 2.3-4.8 1.4-9.7 2.7-14.4 4.6-2.3 1-4.6 2.1-6.8 3.4-2.2 1.3-4.3 3.1-5.9 5.2-1.6 2.1-2.8 4.4-3.6 6.9-.4 1.2-.7 2.5-.9 3.8-.1.6-.2 1.3-.2 2 0 .3 0 .7-.1 1v20.9h154.6l.1-20c0-1.1-.1-2-.2-2.9zM24.6 217.7v-19.5c0-.6.1-1.2.2-1.8.2-1.2.4-2.3.8-3.5.7-2.3 1.8-4.4 3.2-6.3 1.4-1.9 3.2-3.5 5.2-4.7 2.1-1.3 4.3-2.4 6.5-3.4 4.5-2 9.3-3.4 14.1-4.9 2.4-.8 4.8-1.5 7.1-2.6.6-.3 1.2-.5 1.7-.8.3-.2.6-.3.8-.5.3-.2.6-.3.8-.5 1.1-.7 2.1-1.3 3.2-2s2.1-1.5 3-2.5c.4-.5.8-1.1 1.1-1.7.3-.6.5-1.2.7-1.8.4-1.3.5-2.5.6-3.8s.1-2.5.1-3.8 0-2.5-.1-3.8l-.1-3.7-.3-7.5-1.2-29.2 28 .4 14.3.2c4.4 0 8.7.1 13.1.1-.4 7.7-.8 15.4-1.1 23.1-.1 4.1-.3 8.1-.4 12.2 0 2-.1 4.1-.1 6.1s0 4.1.2 6.2c.1 1 .3 2.1.5 3.1.1.5.3 1 .5 1.5s.4 1 .7 1.5c.3.5.6.9 1 1.3s.8.8 1.2 1.1c.8.7 1.7 1.2 2.6 1.7l2.6 1.5c.9.5 1.8 1 2.8 1.4 1.9.8 3.8 1.4 5.8 2 3.9 1.1 7.8 2.2 11.7 3.5 1.9.6 3.8 1.4 5.7 2.2 1.8.8 3.6 1.8 5.4 2.8 1.6 1 3 2.2 4.3 3.5.6.7 1.2 1.4 1.7 2.2s1 1.6 1.4 2.4c.8 1.7 1.5 3.4 1.9 5.2.2.9.3 1.8.4 2.7.1.8.1 20.6.1 21.4-12.6-.2-151.7-1-151.7-1z" fill="#592a06" stroke-width="none" opacity="1" stroke="none"></path><path id="SvgjsPath15175" d="M78.7 156.8c.5 4.8 1.7 9.4 3.1 13.9.8 2.3 1.6 4.6 2.6 6.9.8 2 1.7 4.2 3.1 5.9.3.4 1 0 .9-.5-.5-2.2-1.6-4.3-2.4-6.4-.9-2.2-1.7-4.4-2.5-6.6-1.5-4.4-2.8-8.9-4.1-13.3-.2-.4-.8-.3-.7.1zm41.3-1c-1.3 8.2-3.9 16.1-5.4 24.2-.1.4.4.5.6.2 3.1-7.7 4.1-16.1 5.1-24.3-.1-.2-.3-.2-.3-.1zm-25.8 11.9c-.9 3.6 1.9 8.6 6.2 7.6.5-.1.4-.8 0-1-1.4-.5-2.9-.9-3.9-2.1-1.1-1.2-1.5-2.9-1.4-4.5 0-.4-.8-.5-.9 0z" fill="#683712" stroke-width="none" opacity="1" stroke="none"></path></g><g id="svga-group-clothes-single"><path id="SvgjsPath15317" d="M179.3 220.1c0-17.5-1.6-26.7-1.6-26.7-3.2-15.2-21.5-18.1-30.1-20.5-2.8-.8-7.9-2.4-7.9-2.4-4.8 5.3-10.2 10.8-16.2 16.3-7.5 7-14.9 13-21.8 18.1-6.4-4-13.8-9.3-21.4-16.1-7.7-6.9-13.9-13.7-18.6-19.7-3.1.5-6.3 1.8-10 2.6-8.7 1.9-26.5 7.6-29.5 21.6 0 0-1.6 9.2-1.6 26.7h158.7z" fill="#39557e" stroke-width="none" opacity="1"></path><path id="SvgjsPath15318" d="M179.6 210.9c0-3.1-.1-6.1-.3-9.2-.1-1.5-.2-3.1-.3-4.6l-.2-2.3-.1-1.2c0-.4-.2-.8-.3-1.2-.2-.8-.4-1.6-.7-2.3l-.9-2.2-1.2-2.1c-.4-.7-1-1.3-1.5-1.9-2.1-2.4-4.7-4.4-7.5-5.9s-5.7-2.6-8.7-3.6c-3-.9-6-1.7-8.9-2.5-2.9-.8-5.8-1.8-8.7-2.7-.5-.1-1 0-1.4.4-5.8 6.3-11.8 12.3-18.1 18.1-6.1 5.6-12.4 11.1-19.1 16.1-3.6-2.2-7.2-4.6-10.6-7.1-3.6-2.6-7.1-5.4-10.5-8.4-3.4-3-6.6-6.1-9.7-9.3-3.1-3.3-6-6.7-8.8-10.2-.1-.1-.3-.2-.5-.2-3.2.6-6.1 1.7-9.2 2.4-3.1.6-6.2 1.4-9.2 2.4-6 2.1-11.9 4.9-16.5 9.7-2.3 2.4-4.1 5.2-5.1 8.4l-.4 1.2c-.1.2-.1.4-.2.6v.7l-.3 2.4c-.2 1.6-.4 3.2-.5 4.7-.6 6.3-.8 12.6-.9 19 0 .8.6 1.4 1.4 1.4l40 .2c13.3 0 26.7-.1 39.9-.2l39.7-.5 19.7-.3 19.5-.4c.1-1.5.1-3.2.1-4.7v-4.7zM23 196.6c.1-.8.2-1.6.3-2.3l.1-.6c0-.2.1-.3.1-.5l.3-1.1c.8-2.8 2.4-5.5 4.4-7.7 1.5-1.6 3.2-3.1 5-4.4 1.1 1.1 2 2.4 2.8 3.7.9 1.5 1.7 3 2.4 4.6 1.4 3.2 2.4 6.5 3.2 9.9.4 1.7.8 3.4 1.1 5.1.3 1.7.6 3.4.9 5.2.5 3.3 1 6.6 1.5 10l-22.8.1c0-5.8.1-11.6.5-17.4-.1-1.4 0-3 .2-4.6zm116.1 22.7-39.7-.5c-13.2-.1-26.3-.2-39.4-.2l-15 .1c.3-3.4.2-6.8 0-10.2-.3-3.5-.8-7.1-1.6-10.6-.4-1.7-.9-3.5-1.5-5.2-.6-1.7-1.3-3.4-2.2-4.9-.8-1.6-1.8-3.1-3-4.5-1-1.2-2.1-2.4-3.4-3.2 3.2-2.2 6.8-3.9 10.4-5.2 2.9-1.1 5.9-1.9 9-2.6 3-.7 5.9-1.8 8.8-2.4 2.8 3.4 5.7 6.7 8.7 9.9 3.1 3.3 6.3 6.4 9.7 9.5 6.7 6.1 13.8 11.6 21.4 16.6.3.2.7.2 1 0 7-5 13.8-10.3 20.2-16.1 3.2-2.9 6.4-5.8 9.4-8.9 2.9-2.8 5.6-5.8 8.3-8.8l8.1 2.4c3 .8 6 1.4 8.9 2.3 2.9.9 5.7 1.9 8.4 3.3.3.1.5.3.8.4-1.1.8-2.1 1.8-2.9 2.9-1.1 1.4-2.1 2.9-3 4.5-.9 1.6-1.6 3.2-2.2 4.9-.6 1.7-1.1 3.4-1.5 5.2-.8 3.5-1.3 7-1.6 10.6-.2 3.5-.3 7.1 0 10.6l1.5-10.5c.3-1.7.6-3.5.9-5.2.3-1.7.6-3.4 1.1-5.1.8-3.4 1.8-6.7 3.2-9.9.7-1.6 1.5-3.1 2.4-4.6.7-1.2 1.5-2.3 2.4-3.3 2.2 1.2 4.3 2.8 6.1 4.6.5.6 1 1.1 1.4 1.7l1.2 1.8.9 2c.3.7.4 1.4.7 2.1.1.4.2.7.3 1.1l.2 1.1.3 2.3.5 4.6c.3 3 .6 6.1.7 9.2l.5 9.1-40.4-.9zm-4.2-34.6c-3.4 3.3-6.9 6.5-10.4 9.5-7.1 6.1-14.3 11.9-21.9 17.3-4.3-2.5-8.5-5.3-12.5-8.3-4.1-3.1-8-6.3-11.8-9.7-3.8-3.4-7.5-6.9-11.1-10.6-3.6-3.6-7.1-7.4-10.4-11.3 3.2 4 6.5 7.9 10 11.6 3.5 3.7 7.2 7.4 10.9 10.8 3.8 3.5 7.8 6.7 11.8 9.9 4.1 3.1 8.4 6 12.8 8.6.2.1.4.1.5 0 3.8-2.8 7.6-5.6 11.3-8.6 3.7-3 7.3-6 10.8-9.2 3.5-3.1 6.9-6.4 10.3-9.8 3.3-3.4 6.5-6.9 9.5-10.4-3.1 3.5-6.3 6.9-9.8 10.2z" fill="#18355f" stroke-width="none" opacity="1"></path></g><g id="svga-group-head" transform="matrix(1,0,0,1,0,0)"><g id="svga-group-ears-left-move" transform="matrix(1,0,0,1,0,0)"><g id="svga-group-ears-left" transform="matrix(1,0,0,1,0,0)"><path id="SvgjsPath15327" d="M61.3 90s-2.5-2.4-5.4-3.5-6.1.7-7.1 3.7c-1 2.9 1.3 15.1 5 19.5s6.2 4.8 8.7 2.5c2.5-2.3 7-10.8-1.2-22.2z" fill="#875732" stroke-width="none" opacity="1" stroke="none"></path><path id="SvgjsPath15328" d="M62.6 91.8c.4.6.8 1.3 1.2 1.9.4.6.7 1.4 1.1 2 .3.7.6 1.4.9 2.2.2.8.5 1.5.6 2.4.1.4.2.8.2 1.2l.1 1.2c0 1.7-.2 3.4-.7 4.9-.5 1.6-1.2 3-2.2 4.2-.2.3-.5.6-.8.8-.3.2-.6.5-.9.7-.6.4-1.3.7-2.1.8-.7.1-1.5 0-2.2-.3s-1.3-.7-1.8-1.2c-.6-.5-1.1-1-1.6-1.6s-.9-1.1-1.4-1.8c-1.7-2.6-2.6-5.7-3.4-8.7-.4-1.5-.8-3-1.1-4.6s-.6-3.2-.5-4.9c0-.4.1-.9.2-1.3.1-.2.1-.4.2-.6l.3-.6c.4-.7.9-1.3 1.5-1.8 1.2-1 2.6-1.4 4-1.2.7.1 1.4.3 2 .6.6.3 1.2.7 1.8 1.1 1.2.8 2.3 1.6 3.3 2.6l1.3 2zm-4.7-4.1c-.6-.3-1.2-.6-1.8-.8-.6-.2-1.2-.3-1.8-.3-1.2.1-2.3.6-3.3 1.4-.5.4-.9.9-1.2 1.5-.2.3-.3.6-.4.9-.1.3-.2.6-.2.9-.2 1.4-.1 3 .1 4.6.2 1.5.4 3.1.8 4.6.8 3 1.9 6 3.6 8.2.9 1.1 1.9 2.1 3 2.9s2.2 1.3 3.3 1.1c.5-.1 1.1-.3 1.6-.7.5-.4 1-.8 1.4-1.3.8-1 1.5-2.3 1.9-3.7.5-1.4.7-2.8.7-4.3s-.2-3-.4-4.5c-.6-3-2-5.8-3.7-8.2-1.3-.9-2.4-1.7-3.6-2.3z" fill="#784620" stroke-width="none" opacity="1" stroke="none"></path><path id="SvgjsPath15329" d="M52.6 89.6c3.3.6 5.4 6.1 6 9.8.1.1.1.2.2.3.4.6-.4 1.2-.8.6-.5-.8-1-1.6-1.8-1.9-1.4-.5-2.1 1.1-1.8 2.6.4 1.9 1.6 3 2.6 4.4.1.1 0 .3-.1.2-1.7-1-4.3-4.8-3.1-7.2.9-1.7 2.3-1.4 3.4-.4-.8-2.1-1.4-4.3-3-5.9-.5-.5-1.5-1.4-2.2-1.3-1.3.2-1.3 2.1-1.3 3.4-.1 1.7.1 3.4.4 5 0 .2-.2.2-.3.1-.7-2.4-2-10.4 1.8-9.7z" fill="#683712" stroke-width="none" opacity="1" stroke="none"></path></g></g><g id="svga-group-ears-right-move" transform="matrix(1,0,0,1,0,0)"><g id="svga-group-ears-right" transform="matrix(1,0,0,1,0,0)"><path id="SvgjsPath15330" d="M138.7 90s2.5-2.4 5.4-3.5 6.1.7 7.1 3.7c1 2.9-1.3 15.1-5 19.5s-6.2 4.8-8.7 2.5c-2.5-2.3-7-10.8 1.2-22.2z" fill="#875732" stroke-width="none" opacity="1" stroke="none"></path><path id="SvgjsPath15331" d="M138.6 89.9c1.1-1 2.2-1.8 3.3-2.6.6-.4 1.2-.7 1.8-1.1.6-.3 1.3-.6 2-.6 1.4-.2 2.8.3 4 1.2.6.5 1.1 1.1 1.5 1.8l.3.6c.1.2.2.4.2.6.1.4.2.9.2 1.3.1 1.7-.2 3.3-.5 4.9s-.7 3.1-1.1 4.6c-.9 3-1.8 6-3.4 8.7-.4.7-.9 1.2-1.4 1.8-.5.6-1 1.1-1.6 1.6s-1.2.9-1.8 1.2c-.7.3-1.4.4-2.2.3-.7-.1-1.4-.4-2.1-.8-.3-.2-.6-.4-.9-.7-.3-.3-.6-.5-.8-.8-1-1.2-1.7-2.6-2.2-4.2s-.7-3.3-.7-4.9l.1-1.2c0-.4.1-.8.2-1.2.1-.8.4-1.6.6-2.4.3-.7.6-1.5.9-2.2.4-.7.7-1.4 1.1-2 .4-.6.8-1.3 1.2-1.9l1.3-2zm.1.1c-1.7 2.4-3 5.2-3.7 8.2-.3 1.5-.5 3-.4 4.5s.3 2.9.7 4.3 1.1 2.6 1.9 3.7c.4.5.8 1 1.4 1.3.5.4 1 .6 1.6.7 1.1.2 2.2-.3 3.3-1.1 1-.8 2.1-1.8 3-2.9 1.7-2.3 2.8-5.2 3.6-8.2.4-1.5.6-3.1.8-4.6s.3-3.1.1-4.6c0-.4-.1-.6-.2-.9-.1-.3-.3-.6-.4-.9-.3-.6-.7-1-1.2-1.5-.9-.8-2.1-1.3-3.3-1.4-.6 0-1.2.1-1.8.3-.6.2-1.2.5-1.8.8-1.4.6-2.5 1.4-3.6 2.3z" fill="#784620" stroke-width="none" opacity="1" stroke="none"></path><path id="SvgjsPath15332" d="M147.4 89.6c-3.3.6-5.4 6.1-6 9.8-.1.1-.1.2-.2.3-.4.6.4 1.2.8.6.5-.8 1-1.6 1.8-1.9 1.4-.5 2.1 1.1 1.8 2.6-.4 1.9-1.6 3-2.6 4.4-.1.1 0 .3.1.2 1.7-1 4.3-4.8 3.1-7.2-.9-1.7-2.3-1.4-3.4-.4.8-2.1 1.4-4.3 3-5.9.5-.5 1.5-1.4 2.2-1.3 1.3.2 1.3 2.1 1.3 3.4.1 1.7-.1 3.4-.4 5 0 .2.2.2.3.1.7-2.4 2-10.4-1.8-9.7z" fill="#683712" stroke-width="none" opacity="1" stroke="none"></path></g></g><g id="svga-group-faceshape-wrap" transform="matrix(1,0,0,1,0,0)"><g id="svga-group-faceshape-single"><path id="SvgjsPath15407" d="M143.6 82.2v-.3C142.3 52 122.5 35.3 100 35.3S57.8 52.1 56.5 82.1v.3c0 1.8.3 11.9 2.6 24.5 2.6 13.9 7.9 28.3 11.5 35.9 3.5 7.7 14.6 10.1 29.4 10.1s25.8-2.4 29.4-10.1c3.5-7.7 8.9-22 11.5-35.9 2.3-12.7 2.7-22.9 2.7-24.7z" fill="#875732" stroke-width="none" opacity="1" stroke="none"></path><path id="SvgjsPath15408" d="M70.6 142.8c3.5 7.7 14.6 10.1 29.4 10.1s25.8-2.4 29.4-10.1c3.5-7.7 8.9-22 11.5-35.9 2.3-12.7 2.7-22.9 2.7-24.7v-.3C142.3 52 122.5 35.3 100 35.3S57.8 52.1 56.5 82.1v.3c0 1.8.3 11.9 2.6 24.5 2.6 13.9 7.9 28.3 11.5 35.9zM58.1 75.5c.3-1.7.5-3.4.9-5l.7-2.5c.2-.8.4-1.7.7-2.4l.9-2.4c.2-.4.3-.8.5-1.2l.6-1.1 1.1-2.3c.4-.8.9-1.5 1.3-2.2.5-.7.9-1.4 1.4-2.1l1.6-2 .8-1 .9-.9 1.8-1.8c.6-.6 1.3-1.1 1.9-1.6.7-.5 1.2-1.1 2-1.6 1.4-.9 2.7-1.9 4.2-2.6 2.9-1.7 6-2.7 9.2-3.7 6.4-1.6 13.1-1.8 19.6-.7 6.4 1.3 12.7 3.8 18 7.9 5.3 4.1 9.6 9.5 12.4 15.8 2.8 6.2 4.7 13.3 4.9 20.2-.1 6.9-1.1 13.6-2.4 20.4-1.2 6.8-3.3 13.4-5.6 19.8-2.4 6.4-5 12.8-7.9 19-.2.4-1 2-2.5 3.3-1.1.9-2.3 1.7-3.7 2.4-2.8 1.2-6 2-9.3 2.4-6.6.9-13.5.9-20.2.4-3.3-.2-6.6-.7-9.7-1.6-3.1-.9-5.9-2.2-7.8-4.3-.4-.5-.9-1.1-1.2-1.7l-1.1-2.3c-.7-1.5-4.6-11.1-5.8-14.3-2.3-6.5-4.4-13-5.8-19.7-1.5-6.6-2.5-13.5-2.8-20.4-.3-3.4.1-6.8.4-10.2z" fill="#592a06" stroke-width="none" opacity="1" stroke="none"></path></g></g><g id="svga-group-mouth-single-move" transform="matrix(1,0,0,1,0,0)"><g id="svga-group-mouth-single" transform="matrix(1,0,0,1,0,3)"><path id="SvgjsPath15278" d="M115.2 128.3c-1.4.3-2.8.6-4.2.1-1.3-.4-2.3-1.2-3.5-1.8.6-.4 1.2-.8 1.7-1.2.1-.1 0-.3-.2-.3-.8.2-1.2.6-1.9 1-1.6.9-3.4 1.4-5.3 1.6-3.1.3-6.5-.1-9.2-1.8-.2-.1-.4.1-.2.3.4.4.9.7 1.4 1-.6.3-1.1.8-1.7 1-1.4.6-3.4.8-4.8.1-.2-.1-.4.2-.2.4 1.4.9 3.2.9 4.8.4.9-.2 2.2-.7 2.7-1.6 3.6 1.7 8.5 1.4 12.2-.4.9 1.2 2.9 1.9 4.3 2.3 1.5.4 3.1.3 4.4-.6 0-.3-.1-.5-.3-.5zm-6 2.2c-2.6.5-5 1.6-7.8 1.6-3.1.1-6.2-.3-9.1-1.4-.1-.1-.2.1-.1.2 4.5 2.6 12.8 3.5 17.2 0 .3-.1 0-.4-.2-.4zM93 121.6c3.5 0 6.4 1.8 9.9 1.3 2.3-.3 5.1-1.8 7.4-1.2 2.2.6 3.1 3.3 4.5 4.9.2.2.4-.1.3-.2-1-1.8-2.2-4.5-4.3-5.3-2.5-.9-5.5.6-8 .8-3.7.4-7.3-1.6-10.9-1-3.4.6-4.3 3-6.1 5.4-.1.1.1.3.2.2 2.1-2.2 3.3-4.9 7-4.9z" fill="#ff5027" stroke-width="none" opacity="1" stroke="none"></path><path id="SvgjsPath15279" d="M89.4 125.7c.7-1 1.3-2 2.6-2.4 1.2-.4 2.3-.1 3.5.3.2.1.5-.2.3-.4-2.1-2.1-6.5-.7-6.8 2.3-.1.3.2.4.4.2zm11.9-1.7c3.3.9 10.6-3.1 11.2 3.1 0 .4.6.6.7.1.5-2.2-.9-4.1-2.7-4.7-3.1-.9-6 1.8-9.2 1.2-.1.1-.1.3 0 .3zm-4.9 6.7c2.6.9 5.9 1 8.6.2.2-.1.2-.4-.1-.4-1.4 0-2.8.3-4.2.2-1.4 0-2.8-.3-4.2-.4-.2.1-.2.4-.1.4z" fill="#8f603c" stroke-width="none" opacity="1" stroke="none"></path></g></g><g id="svga-group-eyes-left-move" transform="matrix(1,0,0,1,0,0)"><g id="svga-group-eyes-left" transform="matrix(1,0,0,1,0,0)"><g id="svga-group-eyesback-left"><path id="SvgjsPath15359" d="M89.7 96.1s-1.3-3.1-3.3-4.7c-1.9-1.6-5.1-3.9-9.7-1.9s-6.5 5.7-6.5 5.7.7 2.7 2 3.9c1.3 1.2 4 2.7 8.4 2.1 4.5-.6 6.6-2 7.3-2.7.8-.6 1.8-2.4 1.8-2.4z" fill="#ffffff" stroke-width="none" opacity="1"></path></g><g id="svga-group-eyesiriswrapper-left" transform="matrix(1,0,0,1,0,0)"><g id="svga-group-eyesiriscontrol-left" transform="matrix(1,0,0,1,0,0)"><g id="svga-group-eyesiris-left" transform="matrix(1,0,0,1,0,0)"><path id="SvgjsPath15548" d="M80.1 87.8c3.2 0 5.7 2.6 5.7 5.7s-2.6 5.7-5.7 5.7-5.7-2.6-5.7-5.7 2.5-5.7 5.7-5.7z" fill="#ea02f5" stroke-width="none" opacity="1"></path><path id="SvgjsPath15549" d="M80.1 88.1c3 0 5.5 2.4 5.5 5.5 0 3-2.4 5.5-5.5 5.5-3 0-5.5-2.4-5.5-5.5s2.4-5.5 5.5-5.5m0-.6c-3.3 0-6 2.7-6 6s2.7 6 6 6 6-2.7 6-6-2.7-6-6-6z" fill="#cd00d6" stroke-width="none" opacity="1"></path><path id="SvgjsPath15550" d="M77 95.1c0 1.4.6 2.7 1.4 3.6.5.2 1.1.2 1.6.2 3 0 5.5-2.4 5.5-5.5 0-1.1-.3-2.2-.9-3-.7-.4-1.5-.6-2.4-.6-2.9.1-5.2 2.5-5.2 5.3z" fill="#f51cff" stroke-width="none" opacity="1"></path><path id="SvgjsPath15551" d="M80.1 90.6c1.6 0 2.9 1.3 2.9 2.9s-1.3 2.9-2.9 2.9-2.9-1.3-2.9-2.9 1.2-2.9 2.9-2.9z" fill="#000000" stroke-width="none" opacity="1"></path><path id="SvgjsPath15552" d="M78.7 90.5c.6 0 1 .5 1 1s-.5 1-1 1-1-.5-1-1 .5-1 1-1zm3.4 4.7c.2 0 .4.2.4.4s-.2.4-.4.4-.4-.2-.4-.4.2-.4.4-.4z" fill="#ffffff" stroke-width="none" opacity="1"></path><path id="SvgjsPath15553" d="M80.1 99c.3 0 .6 0 .8-.1-.2 0-.4-.2-.4-.4-.1.3-.3.4-.4.5-.3 0-.5-.2-.6-.4-.1.2-.4.3-.6.3-.2-.1-.4-.3-.4-.5-.2.2-.4.2-.7.1s-.4-.3-.3-.6c-.2.2-.5.1-.7 0s-.2-.5-.1-.7c-.2.2-.5.2-.7 0-.2-.2-.2-.5 0-.7-.3 0-.5-.1-.7-.3.8 1.6 2.6 2.8 4.8 2.8zm-5-3.2zm9.5.7c-.1.1-.3.2-.5.2.1.4-.4.9-.8.8.1.2 0 .5-.2.6-.2.1-.5.1-.6 0 0 .2-.2.5-.4.5-.2.1-.5 0-.6-.2 0 .2-.1.4-.2.5 1.3-.3 2.5-1.2 3.3-2.4zm-2-7.6c.3-.1.6.2.6.5.4-.2.8.3.7.6.2-.1.4 0 .5.2.1.2.1.4-.1.5.2 0 .5.1.6.3s.1.5-.1.7c.2 0 .5.2.5.4s0 .5-.2.6c.2.1.4.3.4.5s-.1.4-.3.5c.2.1.3.3.3.6s-.2.4-.4.4c.3.2.1.8-.3.8.1.1.1.3.1.5.5-.8.8-1.8.8-2.8 0-2.2-1.3-4.1-3.1-4.9-.1.4 0 .5 0 .6zm-.6-.3c.1-.1.2-.1.4 0-.5-.2-1-.4-1.6-.5l-.1.1c.5-.1 1 .1 1.3.4z" fill="#be00c7" stroke-width="none" opacity="1"></path></g></g></g><g id="svga-group-eyesfront-left"><path id="SvgjsPath15367" d="M69.4 94.6c0 6.4 4.7 11.5 10.6 11.5s10.6-5.2 10.6-11.5S85.9 83.1 80 83.1s-10.6 5.1-10.6 11.5zm2.9 4.5c-1.3-1.2-2-3.9-2-3.9s1.9-3.8 6.5-5.7 7.8.3 9.7 1.9c1.9 1.6 3.3 4.7 3.3 4.7s-1 1.8-1.7 2.4c-.7.6-2.9 2.1-7.3 2.7-4.6.6-7.2-.9-8.5-2.1z" fill="#875732" stroke-width="none" opacity="1" stroke="none"></path><path id="SvgjsPath15368" d="M90.5 97.3c-1.1-5.1-4.1-10.3-9.7-11.1-6.2-.9-8.8 4.5-10.9 9.2-.1.2-.4.1-.4-.2.9-5.4 5.5-10.5 11.3-9.7 5.8.9 8.9 6.4 9.9 11.6 0 .3-.2.4-.2.2z" fill="#784620" stroke-width="none" opacity="1" stroke="none"></path><path id="SvgjsPath15369" d="M90.3 98.3c-2-4.7-5.1-9.3-10.9-8.7-5.5.6-8 5.2-11 9.1-.2.3-.8 0-.7-.4 1.8-4.8 6.6-9.9 12.1-10 5.4-.1 10.1 4.7 10.9 9.9 0 .1-.3.3-.4.1z" fill="#1b2a40" stroke-width="none" opacity="1" stroke="none"></path><path id="SvgjsPath15370" d="M89.5 96.7c-1.3 4.1-7.9 5.2-11.6 5-3.6-.2-8-2.7-7.9-6.8 0-.3.5-.4.5-.1.9 4.1 4.1 6.2 8.3 6.1 3.6-.1 8.4-1 10.3-4.4.2-.1.5 0 .4.2z" fill="#1b2a40" stroke-width="none" opacity="1" stroke="none"></path></g></g></g><g id="svga-group-eyes-right-move" transform="matrix(1,0,0,1,0,0)"><g id="svga-group-eyes-right" transform="matrix(1,0,0,1,0,0)"><g id="svga-group-eyesback-right"><path id="SvgjsPath15360" d="M110.3 96.1s1.3-3.1 3.3-4.7c1.9-1.6 5.1-3.9 9.7-1.9s6.5 5.7 6.5 5.7-.7 2.7-2 3.9c-1.3 1.2-4 2.7-8.4 2.1-4.5-.6-6.6-2-7.3-2.7-.8-.6-1.8-2.4-1.8-2.4z" fill="#ffffff" stroke-width="none" opacity="1"></path></g><g id="svga-group-eyesiriswrapper-right" transform="matrix(1,0,0,1,0,0)"><g id="svga-group-eyesiriscontrol-right" transform="matrix(1,0,0,1,0,0)"><g id="svga-group-eyesiris-right" transform="matrix(1,0,0,1,0,0)"><path id="SvgjsPath15554" d="M119.9 87.8c3.2 0 5.7 2.6 5.7 5.7s-2.6 5.7-5.7 5.7-5.7-2.6-5.7-5.7 2.6-5.7 5.7-5.7z" fill="#ea02f5" stroke-width="none" opacity="1"></path><path id="SvgjsPath15555" d="M119.9 88.1c3 0 5.5 2.4 5.5 5.5 0 3-2.4 5.5-5.5 5.5-3 0-5.5-2.4-5.5-5.5.1-3.1 2.5-5.5 5.5-5.5m0-.6c-3.3 0-6 2.7-6 6s2.7 6 6 6 6-2.7 6-6-2.6-6-6-6z" fill="#cd00d6" stroke-width="none" opacity="1"></path><path id="SvgjsPath15556" d="M116.9 95.1c0 1.4.6 2.7 1.4 3.6.5.2 1.1.2 1.6.2 3 0 5.5-2.4 5.5-5.5 0-1.1-.3-2.2-.9-3-.7-.4-1.5-.6-2.4-.6-2.9.1-5.2 2.5-5.2 5.3z" fill="#f51cff" stroke-width="none" opacity="1"></path><path id="SvgjsPath15557" d="M119.9 90.6c1.6 0 2.9 1.3 2.9 2.9s-1.3 2.9-2.9 2.9-2.9-1.3-2.9-2.9 1.3-2.9 2.9-2.9z" fill="#000000" stroke-width="none" opacity="1"></path><path id="SvgjsPath15558" d="M118.6 90.5c.6 0 1 .5 1 1s-.5 1-1 1-1-.5-1-1 .5-1 1-1zm3.4 4.7c.2 0 .4.2.4.4s-.2.4-.4.4-.4-.2-.4-.4.2-.4.4-.4z" fill="#ffffff" stroke-width="none" opacity="1"></path><path id="SvgjsPath15559" d="M119.9 99c.3 0 .6 0 .8-.1-.2 0-.4-.2-.4-.4 0 .3-.2.4-.4.5-.3 0-.5-.2-.6-.4-.1.2-.4.3-.6.3-.2-.1-.4-.3-.4-.5-.2.2-.4.2-.7.1s-.4-.3-.3-.6c-.2.2-.5.1-.7 0s-.2-.5-.1-.7c-.2.2-.5.2-.7 0-.2-.2-.2-.5 0-.7-.3 0-.5-.1-.7-.3.9 1.6 2.7 2.8 4.8 2.8zm-4.9-3.2zm9.5.7c-.1.1-.3.2-.5.2.1.4-.4.9-.8.8.1.2 0 .5-.2.6-.2.1-.5.1-.6 0 0 .2-.2.5-.4.5-.2.1-.5 0-.6-.2 0 .2-.1.4-.2.5 1.3-.3 2.5-1.2 3.3-2.4zm-2-7.6c.3-.1.6.2.6.5.4-.2.8.3.7.6.2-.1.4 0 .5.2.1.2.1.4-.1.5.2 0 .5.1.6.3.1.2.1.5-.1.7.2 0 .5.2.5.4s0 .5-.2.6c.2.1.4.3.4.5s-.1.4-.3.5c.2.1.3.3.3.6s-.2.4-.4.4c.3.2.1.8-.3.8.1.1.1.3.1.5.5-.8.8-1.8.8-2.8 0-2.2-1.3-4.1-3.1-4.9-.1.4 0 .5 0 .6zm-.6-.3c.1-.1.2-.1.4 0-.5-.2-1-.4-1.6-.5l-.1.1c.5-.1 1 .1 1.3.4z" fill="#be00c7" stroke-width="none" opacity="1"></path></g></g></g><g id="svga-group-eyesfront-right"><path id="SvgjsPath15371" d="M120 83.1c-5.9 0-10.6 5.2-10.6 11.5s4.7 11.5 10.6 11.5 10.6-5.2 10.6-11.5-4.8-11.5-10.6-11.5zm-.7 18.1c-4.5-.6-6.6-2-7.3-2.7-.7-.6-1.7-2.4-1.7-2.4s1.3-3.1 3.3-4.7c1.9-1.6 5.1-3.9 9.7-1.9s6.5 5.7 6.5 5.7-.7 2.7-2 3.9-4 2.7-8.5 2.1z" fill="#875732" stroke-width="none" opacity="1" stroke="none"></path><path id="SvgjsPath15374" d="M109.5 97.3c1.1-5.1 4.1-10.3 9.7-11.1 6.2-.9 8.8 4.5 10.9 9.2.1.2.4.1.4-.2-.9-5.4-5.5-10.5-11.3-9.7-5.8.9-8.9 6.4-9.9 11.6 0 .3.2.4.2.2z" fill="#784620" stroke-width="none" opacity="1" stroke="none"></path><path id="SvgjsPath15375" d="M109.7 98.3c2-4.7 5.1-9.3 10.9-8.7 5.5.6 8 5.2 11 9.1.2.3.8 0 .7-.4-1.8-4.8-6.6-9.9-12.1-10-5.4-.1-10.1 4.7-10.9 9.9 0 .1.3.3.4.1z" fill="#1b2a40" stroke-width="none" opacity="1" stroke="none"></path><path id="SvgjsPath15376" d="M110.5 96.7c1.3 4.1 7.9 5.2 11.6 5 3.6-.2 8-2.7 7.9-6.8 0-.3-.5-.4-.5-.1-.9 4.1-4.1 6.2-8.3 6.1-3.6-.1-8.4-1-10.3-4.4-.2-.1-.5 0-.4.2z" fill="#1b2a40" stroke-width="none" opacity="1" stroke="none"></path></g></g></g><g id="svga-group-facehighlight-single"></g><g id="svga-group-eyebrows-left-move" transform="matrix(1,0,0,1,0,0)"><g id="svga-group-eyebrows-left-rotate" transform="matrix(1,0,0,1,0,0)"><g id="svga-group-eyebrows-left" transform="matrix(1,0,0,1,0,0)"><path id="SvgjsPath15293" d="M65.5 85.3c.1-.5.4-.9.6-1.4.2-.5.5-1.1.8-1.5-.1-.2-.1-.5.1-.7.4-.6.8-1.1 1.2-1.8.3-.6.5-1.3.9-1.8.5-.7 1.8-.6 2.8-.4.5-.1 1.1-.1 1.6 0 .2 0 .9.1 1.3.3h.1c1.2-.2 2.4-.3 3.6.3.7 0 1.4 0 2.1.1 1.1.1 2.3.1 3.3.4H85.6c.7-.1 1.4-.1 2.2-.2h.1c.3-.1.5-.2.8-.3.2-.1.3 0 .4.1.1 0 .2-.1.3-.1.1 0 .2 0 .2.1.5-.2 1-.4 1.5-.5h.1c.2-.2.5-.1.4.2-.1.6-.3 1-.7 1.5-.3.4-.6.8-1 1.1.3 0 .7-.1 1-.1.1-.1.3-.2.4-.3.4-.4.9-.9 1.2-1.4.1-.2.4.1.3.2-.1.1-.2.2-.2.4v.1c0 .1-.1.1-.1.1v.2c-.2.7-.6 1.4-1.1 2 .1.1.1.2.1.3-.4 1.1-1.6 2.1-2.7 2.7-.2.1-.5.1-.6-.1-1.6.2-3.5.2-5.3.2-1.3 0-3 .1-4.2-.6-.8.1-1.7-.2-2.6-.4-1 .5-2.1.1-3.1-.2-.4-.1-.7-.3-1.1-.4-.3.1-.7.1-1.1.1h-.5c-.3.3-.6.5-1 .8-.5.3-1 .7-1.6.8h-.2c-.3.2-.6.4-.9.5-.1.2-.2.4-.4.6-.1.1-.2.1-.3.1-.2.2-.4.4-.7.4-.2 0-.3-.2-.3-.3 0-.5.3-.8.6-1.1z" fill="#6b4e40" stroke-width="none" opacity="1"></path><path id="SvgjsPath15294" d="M84.8 84.3c1.4-.6 2.8-1 4.1-1.8 1.4-.8 2.5-1.9 3.7-3.1.1-.1.3 0 .2.2-1.6 2.4-4.8 4.8-7.8 5-.3.1-.4-.2-.2-.3zm.4.6c1.9-.4 3.6-.9 5.2-1.9.1-.1.2.1.1.2-1.5 1.2-3.4 2-5.3 2-.1-.1-.1-.3 0-.3zm-2.8-1.3c1.1-.7 2.2-1.3 3.3-2.1s1.9-1.8 2.8-2.7c.1-.1.2 0 .2.1-1.1 2.1-3.8 4.3-6.2 4.8-.2.1-.2-.1-.1-.1zm-5.6.7c2.6-1.4 5-2.5 6.5-5.2.1-.1.2 0 .2.1-1.2 2.6-3.8 4.6-6.6 5.3-.2 0-.3-.2-.1-.2zm-3.5-1.1c.7-.7 1.6-1.3 2.2-2.1.7-.9 1.1-1.9 1.7-2.8.1-.1.3-.1.2.1-.2 1.9-2.2 4.5-4 5.1-.1.1-.2-.1-.1-.3zm-2.6-.1c1.6-1.5 3-2.8 3.9-4.8.1-.1.3 0 .2.1-.7 2-1.9 4.1-3.9 5-.1 0-.3-.2-.2-.3zm-5.6 1.8c.9-.6 1.9-.9 2.9-1.3.8-.3 1.6-.7 2.5-.4.1 0 .1.2 0 .2-.9-.1-1.8.4-2.7.8-.8.3-1.7.8-2.6.9-.2.1-.3-.1-.1-.2z" fill="#7a6155" stroke-width="none" opacity="1"></path><path id="SvgjsPath15295" d="M64 87c-.2.2 0 .4.2.4h.1c.1.1.3.1.4 0 0-.1.1-.1.1-.1 1.1-.4 2.1-1.2 3-1.8.9-.5 1.8-1 2.6-1.7 2.9.8 6.2.9 9.2 1.2 2.9.2 6 .4 9 .2.1.1.2.1.3.1.1 0 .1-.1.1-.1h.3c.2 0 .2-.2.2-.3 2.1-1.5 3.5-3.7 3.7-6.3 0-.1 0-.1-.1-.1 0-.1-.2-.2-.3-.1l-1.2 1.2-.1.1c.3-.4.4-1 .5-1.5 0-.3-.3-.3-.4-.1-.2.6-.4 1.1-.8 1.6-.3.4-.9.8-1.1 1.2-.1.1 0 .2.1.2.2 0 .5-.1.7-.3h.1c.6-.2 1-.5 1.5-.9.2-.2.5-.5.7-.8-.6 2.3-1.9 4.2-3.9 5.4-1.6-.1-3.1-.1-4.7-.2 1-.5 2-1.3 2.7-1.9 1.3-1.1 2.3-2.5 3-4.1.7-.1 1.3-.3 1.9-.6.1-.1.1-.2-.1-.2-1 0-1.9.3-2.9.4-.9.1-1.8.1-2.7.1-1.8 0-3.6-.1-5.4-.3-3.6-.3-7.6-1.1-11.2-.7-.2 0-.3.2-.3.4-1.1 1.4-1.9 3-2.7 4.6-.7 1.4-1.6 3-2 4.5l-.5.5zm1.5-1.1c.6-1.2 1-2.4 1.6-3.6.8-1.5 1.6-2.9 2.3-4.5 2 .1 4 0 5.9.2 1.9.2 3.8.4 5.7.5 1.9.2 3.8.3 5.7.2.8 0 1.8-.1 2.7-.2-.9 1.4-1.9 2.6-3.2 3.6-.7.5-1.4 1-2.2 1.4-.6.3-1.2.4-1.7.8h-.9c1.6-.9 3.1-2.4 3.6-4.1.1-.2-.2-.3-.3-.2-.6.7-1.1 1.6-1.8 2.3-.7.7-1.5 1.3-2.3 1.9h-.7c-1.5-.1-3.1-.3-4.6-.4.9-.8 1.6-2 1.8-3.1 0-.1-.2-.2-.2-.1-.3.6-.6 1.2-1 1.7-.3.5-.8.9-1.2 1.3-1.1-.2-2.2-.4-3.3-.5.1-.1 0-.4-.2-.3-.2.1-.4.2-.7.3 0 0-.1 0-.1.1-1 .5-1.9 1.1-2.8 1.6-.8.4-1.4.7-2.1 1.1z" fill="#5c3d2e" stroke-width="none" opacity="1"></path></g></g></g><g id="svga-group-eyebrows-right-move" transform="matrix(1,0,0,1,0,0)"><g id="svga-group-eyebrows-right-rotate" transform="matrix(1,0,0,1,0,0)"><g id="svga-group-eyebrows-right" transform="matrix(1,0,0,1,0,0)"><path id="SvgjsPath15296" d="M134.5 85.3c-.1-.5-.4-.9-.6-1.4-.2-.5-.5-1.1-.8-1.5.1-.2.1-.5-.1-.7-.4-.6-.9-1.1-1.2-1.8-.3-.6-.5-1.3-.9-1.8-.5-.7-1.8-.6-2.8-.4-.5-.1-1.1-.1-1.6 0-.2 0-.9.1-1.3.3h-.1c-1.2-.2-2.4-.3-3.6.3-.7 0-1.4 0-2.1.1-1.1.1-2.3.1-3.3.4H114.4c-.7-.1-1.4-.1-2.2-.2h-.1c-.3-.1-.5-.2-.8-.3-.2-.1-.3 0-.4.1-.1 0-.2-.1-.3-.1-.1 0-.2 0-.2.1-.5-.2-1-.4-1.5-.5h-.1c-.2-.2-.5-.1-.4.2.1.6.3 1 .7 1.5.3.4.6.8 1 1.1-.3 0-.7-.1-1-.1-.1-.1-.3-.2-.4-.3-.4-.4-.9-.9-1.2-1.4-.1-.2-.4.1-.3.2.1.1.2.2.2.4v.1c0 .1.1.1.1.1v.2c.2.7.6 1.4 1.1 2-.1.1-.1.2-.1.3.4 1.1 1.6 2.1 2.7 2.7.2.1.5.1.6-.1 1.8.1 3.7.1 5.6.1 1.3 0 3 .1 4.2-.6.8.1 1.7-.2 2.6-.4 1 .5 2.1.1 3.1-.2.4-.1.7-.3 1.1-.4.4.1.7.1 1.1.1h.5c.3.3.6.5 1 .8.5.3 1 .7 1.6.8h.2c.3.2.6.4.9.5.1.2.2.4.4.6.1.1.2.1.3.1.2.2.4.4.7.4.2 0 .3-.2.3-.3-.3-.4-.6-.7-.9-1z" fill="#6b4e40" stroke-width="none" opacity="1"></path><path id="SvgjsPath15297" d="M115.2 84.3c-1.4-.6-2.8-1-4.1-1.8-1.4-.8-2.5-1.9-3.7-3.1-.1-.1-.3 0-.2.2 1.6 2.4 4.8 4.8 7.8 5 .3.1.4-.2.2-.3zm-.4.6c-1.9-.4-3.6-.9-5.2-1.9-.1-.1-.2.1-.1.2 1.5 1.2 3.4 2 5.3 2 .1-.1.1-.3 0-.3zm2.8-1.3c-1.1-.7-2.2-1.3-3.3-2.1s-1.9-1.8-2.8-2.7c-.1-.1-.2 0-.2.1 1.1 2.1 3.8 4.3 6.2 4.8.2.1.2-.1.1-.1zm5.6.7c-2.6-1.4-5-2.5-6.5-5.2-.1-.1-.2 0-.2.1 1.2 2.6 3.8 4.6 6.6 5.3.2 0 .3-.2.1-.2zm3.5-1.1c-.7-.7-1.6-1.3-2.2-2.1-.7-.9-1.1-1.9-1.7-2.8-.1-.1-.3-.1-.2.1.2 1.9 2.2 4.5 4 5.1.1.1.2-.1.1-.3zm2.6-.1c-1.6-1.5-3-2.8-3.9-4.8-.1-.1-.3 0-.2.1.7 2 1.9 4.1 3.9 5 .1 0 .3-.2.2-.3zm5.6 1.8c-.9-.6-1.9-.9-2.9-1.3-.8-.3-1.6-.7-2.5-.4-.1 0-.1.2 0 .2.9-.1 1.8.4 2.7.8.8.3 1.7.8 2.6.9.2.1.3-.1.1-.2z" fill="#7a6155" stroke-width="none" opacity="1"></path><path id="SvgjsPath15298" d="M135.6 86.7c-.4-1.6-1.3-3.1-2-4.5-.8-1.6-1.6-3.2-2.7-4.6 0-.2-.1-.4-.3-.4-3.7-.5-7.6.3-11.2.7-1.8.2-3.6.3-5.4.3-.9 0-1.8-.1-2.7-.1-1-.1-1.9-.4-2.9-.4-.1 0-.2.2-.1.2.6.3 1.2.5 1.9.6.7 1.6 1.7 3 3 4.1.7.6 1.7 1.4 2.7 1.9-1.6.1-3.1.1-4.7.2-2-1.2-3.4-3.2-3.9-5.4.2.3.5.5.7.8.4.4.9.8 1.5.9h.1c.2.2.4.3.7.3.1 0 .2-.1.1-.2-.2-.5-.8-.8-1.1-1.2-.4-.5-.6-1.1-.8-1.6-.1-.2-.4-.2-.4.1 0 .5.2 1 .5 1.5l-.1-.1-1.2-1.2c-.1-.1-.3 0-.3.1l-.1.1c.2 2.6 1.6 4.9 3.7 6.3 0 .1 0 .3.2.3h.3c.1 0 .1.1.1.1.1.1.2 0 .3-.1 3 .2 6 0 9-.2s6.3-.3 9.2-1.2c.8.6 1.8 1.1 2.6 1.7.9.6 1.9 1.3 3 1.8 0 .1.1.1.1.1.1.2.3.2.4 0h.1c.2.1.4-.2.2-.4-.2-.3-.3-.4-.5-.5zm-3-1.9c-.9-.6-1.8-1.2-2.8-1.6 0 0-.1 0-.1-.1l-.6-.3c-.2-.1-.3.2-.2.3-1.1.1-2.2.3-3.3.5-.4-.4-.8-.8-1.2-1.3-.4-.6-.7-1.1-1-1.7-.1-.1-.2 0-.2.1.2 1.1.9 2.3 1.8 3.1-1.5.2-3.1.3-4.6.4h-.7c-.8-.6-1.7-1.2-2.3-1.9-.7-.7-1.2-1.5-1.8-2.3-.1-.2-.4 0-.3.2.5 1.7 2 3.2 3.6 4.1h-.9c-.5-.4-1.1-.6-1.7-.8-.8-.4-1.5-.9-2.2-1.4-1.3-1-2.3-2.2-3.2-3.6.9.1 1.8.2 2.7.2 1.9.1 3.8 0 5.7-.2 1.9-.2 3.8-.4 5.7-.5 2-.2 4-.1 5.9-.2.6 1.6 1.5 3 2.3 4.5.6 1.1 1 2.4 1.6 3.6-1-.4-1.6-.7-2.2-1.1z" fill="#5c3d2e" stroke-width="none" opacity="1"></path></g></g></g><g id="svga-group-beardwrap" transform="matrix(1,0,0,1,0,0)"><g id="svga-group-beard-single-move" transform="matrix(1,0,0,1,0,0)"><g id="svga-group-beard-single" transform="matrix(1,0,0,1,0,0)"></g></g></g><g id="svga-group-mustache-single-move" transform="matrix(1,0,0,1,0,0)"><g id="svga-group-mustache-single" transform="matrix(1,0,0,1,0,0)"></g></g><g id="svga-group-nose-single-move" transform="matrix(1,0,0,1,0,0)"><g id="svga-group-nose-single" transform="matrix(1,0,0,1,0,2)"><path id="SvgjsPath15607" d="M104.31 104.57c1.37.25 4.28.67 5.61 3.45 1.33 2.79-.41 3.93-1.08 4.28-.67.35-2.6.22-3.3-.32 0 0-.57 2.15-1.55 2.72-.98.57-3.61 1.68-6.15.86-2.53-.82-2.95-2.98-3.14-3.23s-.76-.76-2.09.03c-1.33.79-2.79-.51-3.2-2.06-.41-1.55.7-3.36 1.3-3.83.6-.48 2.22-1.77 3.87-2.28 1.66-.5 6.76-.16 9.73.38z" fill="#875732" stroke-width="none" opacity="1"></path><path id="SvgjsPath15608" d="M94.78 104.05c-2.51.17-5.71 2.79-5.82 5.44-.08 1.96 2.12 4.81 4.09 3.01.28-.25-.08-.63-.38-.49-.64.3-1.77.08-2.24-.45-.46-.5-.62-1.07-.67-1.7-.08-1.15.38-2.24 1.16-3.08 1.12-1.21 2.73-1.55 3.91-2.61.05-.04.01-.13-.05-.12z" fill="#592a06" stroke-width="none" opacity="1"></path><path id="SvgjsPath15609" d="M92.77 111.88c1.39-1.44 2.08 1.93 2.34 2.43.19.38.42.71.75.98 1.2.97 3.18.97 4.63.97 1.32 0 2.69-.22 3.74-1.09.48-.4.81-.85 1.06-1.43.14-.33.21-.68.32-1.02.26-.78.83-3.11 2.5-1.65.14.12.42.01.34-.2-.42-1.16-1.77-1.15-2.6-.35-.56.54-.74 1.29-.98 1.99-.72 2.02-1.91 2.88-4.06 2.94-1.55.05-3.59.08-4.62-1.19-.67-.83-.67-1.96-1.38-2.75-.71-.8-1.84-.91-2.45.05-.15.26.2.53.41.32z" fill="#592a06" stroke-width="none" opacity="1"></path><path id="SvgjsPath15610" d="M106.27 112.52c2.42 1.76 5.03-1.25 4.39-3.68-.7-2.63-3.83-5.04-6.6-4.45-.2.04-.19.34 0 .39 1.93.47 3.59.85 4.93 2.48.89 1.09 1.45 2.47.71 3.78-.74 1.32-2 1.34-3.34 1.17-.2-.04-.21.22-.09.31z" fill="#592a06" stroke-width="none" opacity="1"></path><path id="SvgjsPath15611" d="M96.12 103.88c1.81-.45 3.62-.63 5.47-.8.11-.01.15-.18.03-.21-1.89-.35-3.81-.04-5.6.64-.22.09-.14.43.1.37z" fill="#592a06" stroke-width="none" opacity="1"></path><path id="SvgjsPath15612" d="M106.47 107.66c-.46-2.36-4.41-2.81-6.35-2.83-2.78-.04-4.85.85-6.69 2.88-.22.24-.01.64.32.55 1.95-.53 4.36-.78 6.37-.62 1.08.08 2.17.36 3.17.76.9.35 1.52.75 2.51.45.52-.16.77-.66.67-1.19z" fill="#8f603c" stroke-width="none" opacity="1"></path><path id="SvgjsPath15613" d="M103.53 113.42c-.85.24-1.6.62-2.49.68-.97.07-1.92-.12-2.79-.53-.33-.15-.62.32-.29.5 1.68.93 4.33 1.25 5.83-.21.19-.18 0-.51-.26-.44z" fill="#8f603c" stroke-width="none" opacity="1"></path></g></g><g id="svga-group-hair-front" transform="matrix(1,0,0,1,0,0)"><path id="SvgjsPath15511" d="M143.6 75.2s.6-3.3-1.2-6.4c0 0 .6-3.2-1.2-5.6 0 0-.2-5.5-4.2-7.2 0 0 .2-4.5-4.1-6 0 0 .2-5-6.8-6.8 0 0-1.7-4.4-6.1-4.2 0 0-3.2-4.2-7.7-2.9 0 0-1.9-2.9-6.3-.8 0 0-2.8-2.2-6.1-.5h.1c-3.3-1.8-6.1.5-6.1.5-4.4-2.1-6.3.8-6.3.8-4.5-1.2-7.7 2.9-7.7 2.9-4.4-.2-6.1 4.2-6.1 4.2C66.8 45 67 50 67 50c-4.3 1.5-4.1 6-4.1 6-3.9 1.7-4.2 7.2-4.2 7.2-1.8 2.5-1.2 5.6-1.2 5.6-1.8 3.2-1.2 6.4-1.2 6.4S55 79.6 54.9 82s4.4 11.2 7.2 8-.1-6.6-.1-6.6c4.6 1.1 1.1-8.3 1.1-8.3 3.4-2.4 1.5-6.2 1.5-6.2 3.7-1.9 2.1-5.6 2.1-5.6 3.7-.2 3-3.8 3-3.8 3.3-.5 4.1-3.7 4.1-3.7 3.8.5 4.7-2.2 4.7-2.2 3.8 1.6 5.5-2.4 5.5-2.4 3.5 4.1 8.1.3 8.1.3 4.5 4.3 7.7-.5 7.7-.5h.3s3.2 4.7 7.7.5c0 0 4.6 3.7 8.1-.3 0 0 1.7 3.9 5.5 2.4 0 0 .9 2.7 4.7 2.2 0 0 .8 3.3 4.1 3.7 0 0-.7 3.6 3 3.8 0 0-1.6 3.7 2.1 5.6 0 0-1.9 3.8 1.5 6.2 0 0-3.5 9.5 1.1 8.3 0 0-2.9 3.4-.1 6.5 2.8 3.2 7.3-5.6 7.2-8 0-2.3-1.4-6.7-1.4-6.7z" fill="#6b4e40" stroke-width="none" opacity="1" stroke="none"></path><path id="SvgjsPath15512" d="M145.6 81.1c0-.1 0-.2-.1-.2 0-2.2-.6-4.4-1.4-6.1l-.2-.2c.9-1.9.2-4.4-1.1-5.9 0-.1-.1-.1-.1-.1.8-1.9 0-4.2-1.2-5.8-.1-.1-.2-.2-.4-.2.4-2.4-1.3-6.4-3.5-7.1h-.2c.4-2.5-1.9-5.3-4-6.2-.1 0-.2-.1-.3-.1-.6-3.2-3.4-6.3-6.7-6.5h-.2c-.6-2.2-3.5-4.4-5.8-4.1-.1 0-.2.1-.2.1-1.2-2.8-5.2-4-7.9-3.3-1.3-1.8-4.5-1.8-6.2-.6-1.5-1.5-4.2-1.7-6-.5-1.8-1.2-4.5-1-6 .5-1.8-1.2-4.9-1.3-6.2.6-2.9-.6-6.9.6-8.1 3.4-.1-.1-.1-.1-.2-.1-2.3-.3-5.2 1.8-5.8 4.1h-.2c-3.3.2-6.1 3.4-6.7 6.5-.1 0-.2 0-.3.1-2.1 1-4.4 3.7-4 6.2h-.2c-2.2.7-3.9 4.7-3.5 7.1-.1 0-.3 0-.4.2-1.2 1.5-2 3.9-1.2 5.8l-.1.1c-1.2 1.6-2 4-1.1 5.9-.1 0-.1.1-.2.2-.9 1.7-1.5 3.9-1.5 6.1 0 .1-.1.1-.1.2.2 2.6 2.2 8.6 5.3 9.4v.1c1.3.9 3.1-.3 3.6-1.6.7-1.6.2-3.8-1-5 3.8.3 2.4-6.7 1-8.7.1 0 .2 0 .2-.1 1.6-1.3 2.5-4.3 1.1-6.1 2.2-.8 3.4-3.5 2.3-5.5.9.2 2.1-.7 2.5-1.4.4-.6.7-1.8.3-2.6 1 .4 2.4-.6 3.1-1.3.5-.5.9-1.3 1-2.1 1.7.2 4-.6 4.4-2.4 1.2.5 2.6.4 3.7-.3.7-.4 1.5-1.1 1.8-2h.1c1.1 2.5 6.6 2.3 7.9 0 1.9 3.2 6.5 2.7 7.9-.6h.2c1.4 3.3 6 3.8 7.9.6 1.3 2.3 6.7 2.5 7.9 0h.1c.3.8 1.1 1.6 1.8 2 1.2.7 2.5.7 3.7.3.4 1.8 2.7 2.7 4.4 2.4.1.8.5 1.6 1 2.1.6.7 2 1.7 3.1 1.3-.4.7-.1 2 .3 2.6.5.7 1.6 1.6 2.5 1.4-1.1 2 .1 4.7 2.3 5.5-1.4 1.8-.4 4.8 1.1 6.1.1.1.1.1.2.1-1.3 1.9-2.8 9 1.1 8.7-1.3 1.2-1.7 3.5-1 5 .6 1.2 2.3 2.5 3.6 1.6v-.1c3.7-.9 5.7-6.9 5.9-9.5zm-83.8 8.4c-.5.4-1 .3-1.6.3-2.3-1.2-3.5-3.7-4.3-6.3-.1-1.1-.3-2.1-.3-3.2 0-1.4.4-2.8.9-4.1.2 3.4 1.8 6.4 5.3 7.6h.2c-.1.1-.2.2-.1.3.3 1.1 1 2 1 3.2-.1 1-.4 1.8-1.1 2.2zm.5-6.4c-.1 0-.2 0-.3.1-1.5-.8-3-1.6-3.8-3.2-.8-1.6-.8-3.4-1-5.2 0-.2-.2-.3-.3-.4-.2-1.5-.2-2.9.6-4.2 1 2.6 2.4 5.2 5.5 5.4.3 1 .7 2 .9 3.1.2 1.4.5 4.5-1.6 4.4zm2.3-11.2c-.1 1.1-.7 2-1.5 2.7-.1.1-.2.2-.2.3-1.2-.5-2.3-.8-3.1-1.9-.8-1.1-1.2-2.4-1.7-3.6 0-.1.1-.2.1-.3 0-.1.1-.1.1-.2-.3-1.9-.3-3.4.7-4.8.4 1.2 1.2 2.4 2 3.2s1.8 1.5 3 1.7c.3 1 .7 1.8.6 2.9zm-.3-3.4c-1-.6-1.9-1-2.7-1.8-.9-1-1.2-2.4-2.1-3.4v-.1c.4-1.3.4-2.7 1-4 .5-1.1 1.5-1.8 2.1-2.8.4 2.4 1.3 5.9 3.7 6.9.8 2.3.2 4.1-2 5.2zm4.6-6.7c-.3.4-.7.7-1.2.9-.3.1-.5.1-.8.2-.9-1-1.9-1.6-2.5-2.9-.6-1.3-.8-2.8-1.1-4.2v-.1c.3-1 .4-2 .9-2.9.5-.9 1.3-1.6 2.2-2.1.1 3.2.5 6.5 2.8 8.9 0 .3.1.5.1.8 0 .5-.1 1-.4 1.4zM82 52.6c-1 .6-2.1.5-3.2.2-1-4.7-.1-8.7 1.3-13.2.1-.2-.2-.3-.3-.1-2.3 4.3-2.8 8.9-1.9 13.6v.2c-.4.6-.7 1.2-1.4 1.6-.8.5-1.6.5-2.4.3-.2-3.6-.1-7-.1-10.6 0-.2-.3-.2-.3 0-.9 3.5-1.1 7.3-.4 10.8-.1.1-.1.3-.1.4-.3.7-.4 1.4-.9 2-.4.4-.8.6-1.3.8-.4.1-.8.1-1.1.3-.1.1-.2.2-.2.3-1.8-3-2.3-5.6-2.4-9 .1-.1.2-.3.1-.5.4-1.4 1.1-2.8 2.2-3.8 1.2-1.2 2.5-1.7 4.1-2.2.2-.1.3-.2.4-.4.1 0 .1 0 .1-.1.7-.9 1.3-1.8 2.3-2.5.9-.6 2-.7 3-1.1.1 0 .2-.1.2-.2.1.1.3.1.4 0 1.1-.9 1.9-1.9 3.2-2.4 1.4-.5 2.7-.6 4.2-.3-3.1 4-4.1 9.4-4.1 14.3-.4.5-.7 1.2-1.4 1.6zm6.3-.2c-.7.1-1.4.1-2-.2-.8-.3-1.2-1.1-1.8-1.6h-.1c0-5.2 1.7-9.4 3.9-14 .1-.2.2-.4.1-.6.8-.5 1.5-.9 2.5-1 1-.1 1.9.2 2.7.8-2 4.8-1.8 10.4-1.9 15.5v.1c-.9.6-2.3.8-3.4 1zm4.4-1.6c-.1-.1-.1-.2-.2-.2.1-5 .3-9.8 1.6-14.7.1 0 .1 0 .2-.1 1.6-1.4 3.5-1.8 5.4-.8-.4 5.1-.1 10.3-.1 15.5-.1 0-.1 0-.2.1-1.5 2.8-5 2.8-6.7.2zm14.6 0c-1.7 2.5-5.2 2.6-6.8-.2l-.1-.1c0-5.1.2-10.3-.2-15.5 2-1.1 3.8-.7 5.5.7.1.1.1.1.2.1 1.2 4.9 1.5 9.7 1.6 14.7-.1.2-.2.2-.2.3zm6.4 1.3c-.7.3-1.3.3-2 .2-1.1-.1-2.5-.4-3.4-1.1v-.1c-.1-5.1.2-10.7-1.9-15.5.8-.5 1.7-.8 2.7-.8 1 .1 1.7.5 2.5 1-.1.2-.1.4.1.6 2.2 4.7 3.9 8.9 3.9 14h-.1c-.6.7-1 1.4-1.8 1.7zm15.3 6.5c-.5-.2-.9-.4-1.3-.8-.6-.6-.7-1.3-.9-2 0-.2 0-.3-.1-.4.7-3.5.4-7.3-.4-10.8 0-.2-.3-.1-.3 0 .1 3.6.2 7-.1 10.6-.8.2-1.7.2-2.4-.3-.7-.4-1-1-1.4-1.6v-.2c.9-4.7.5-9.3-1.9-13.6-.1-.2-.3 0-.3.1 1.4 4.5 2.3 8.5 1.3 13.2-1.1.3-2.2.4-3.2-.2-.7-.4-1-1.1-1.5-1.7 0-4.9-1-10.3-4.1-14.3 1.4-.3 2.8-.2 4.2.3s2.2 1.5 3.2 2.4c.1.1.3.1.4 0l.2.2c1 .4 2 .5 3 1.1 1 .7 1.6 1.6 2.3 2.5l.1.1c0 .2.2.3.4.4 1.6.5 2.9 1 4.1 2.2 1.1 1.1 1.8 2.4 2.2 3.8 0 .2 0 .3.1.5 0 3.4-.6 6.1-2.4 9 0-.1-.1-.2-.2-.3-.3-.1-.6-.1-1-.2zm3.2 4c-.5-.2-.9-.5-1.2-.9-.3-.4-.4-.8-.4-1.3 0-.3.1-.6.1-.8 2.3-2.4 2.7-5.8 2.8-8.9.9.5 1.7 1.2 2.2 2.1.6.9.7 1.9.9 2.9v.1c-.3 1.4-.5 2.9-1.1 4.2-.6 1.3-1.6 1.9-2.5 2.9-.2-.2-.5-.2-.8-.3zm1.4.7c2.4-1 3.4-4.5 3.7-6.9.6 1 1.6 1.7 2.1 2.8.6 1.3.6 2.6 1.1 4v.1c-.9 1-1.2 2.4-2.1 3.4-.8.9-1.8 1.3-2.7 1.8-2.2-1.1-2.8-2.9-2.1-5.2zm1.8 8.6c-.1-1.1.2-1.9.6-2.8 1.1-.2 2.2-.9 3-1.7.8-.8 1.7-2.1 2-3.2 1 1.4 1 2.9.8 4.7 0 .1 0 .2.1.2 0 .1 0 .2.1.3-.5 1.2-.9 2.6-1.7 3.6-.8 1.1-2 1.4-3.1 1.9 0-.1 0-.2-.1-.3-1-.7-1.5-1.6-1.7-2.7zm.7 6.8c.2-1.1.6-2.1.9-3.1 3.1-.2 4.5-2.8 5.5-5.4.8 1.3.8 2.7.6 4.2-.2 0-.3.2-.3.4-.2 1.8-.2 3.6-1 5.2s-2.2 2.4-3.8 3.2c-.1-.1-.2-.1-.3-.1-2.1.1-1.8-3-1.6-4.4zm3.7 11.1c-.6 0-1.1 0-1.6-.3-.7-.5-1-1.3-1-2-.1-1.2.6-2.1 1-3.2.1-.2 0-.3-.1-.3.1 0 .2.1.2 0 3.5-1.2 5.1-4.2 5.3-7.6.5 1.3.8 2.6.9 4.1 0 1.1-.2 2.1-.3 3.2-.9 2.4-2.1 5-4.4 6.1z" fill="#5c3d2e" stroke-width="none" opacity="1" stroke="none"></path><path id="SvgjsPath15513" d="M96.6 51c-.9-.7-1.8-1.2-2.3-2.2-.6-1-.6-2-.7-3.1 0-.2-.2-.2-.3 0-.8 2.1 1 5.2 3.2 5.6.2-.1.3-.2.1-.3zm0-3.7c-1.3-1.7-2.1-3.4-2.6-5.5-.1-.2-.4-.2-.4 0 0 2.1 1 4.3 2.7 5.7.1.2.5 0 .3-.2zm.6-4.4c-1.3-1.6-1.8-3.3-2.1-5.3 0-.2-.3-.1-.4 0-.2 2.1.8 4.1 2.2 5.5.3.2.5 0 .3-.2zm-.3-5.6c-.1-.4-.2-.7-.4-1.1-.1-.1-.3-.1-.3.1 0 .4.2.7.3 1.1.1.3.5.1.4-.1zm-8 13.9c-.7-.5-1.4-1.2-1.9-2-.4-.7-.7-1.4-1.1-2.1-.1-.2-.4-.1-.4.1.1 1.9 1.6 3.6 3.1 4.5.3.1.5-.3.3-.5zm.1-3.6c-.9-1.4-1.3-2.9-1.8-4.5-.1-.2-.4-.2-.4 0-.1 1.7.7 3.3 1.7 4.7.2.3.7.1.5-.2zm0-4.6c-.2-.8-.4-1.7-.8-2.5-.1-.2-.4-.1-.4.1.1.8.4 1.7.7 2.5.1.3.6.2.5-.1zm.4-4.3c.1-.6.1-1.2.1-1.7 0-.1-.2-.1-.2 0-.2.6-.2 1.2-.3 1.8.1.1.4.1.4-.1zm-7.6 12.4c-1.4-.8-2-2.2-2.2-3.8 0-.2-.4-.2-.4 0-.5 1.8.8 3.6 2.3 4.3.3.2.6-.3.3-.5zm.2-3.3c-.8-1.5-1.2-3-1.8-4.6-.1-.2-.3-.1-.3 0 .2 1.7.8 3.3 1.7 4.8.2.2.5 0 .4-.2zm0-5c-.4-1.1-.6-2.3-.5-3.4 0-.2-.3-.2-.3 0-.2 1.3 0 2.5.5 3.6 0 .2.4 0 .3-.2zm1.2-3.7c.2-.5.4-1.1.5-1.6 0-.1-.2-.2-.2-.1-.3.5-.4 1.1-.6 1.6-.1.2.3.3.3.1zm-6.5 14.4c-1.1-.7-1.7-1.7-2.3-2.7-.1-.2-.4-.1-.4.1 0 1.4 1.2 2.5 2.4 3.1.4.1.6-.4.3-.5zm-.4-2.9c-.7-1.1-1-2.3-1.3-3.6 0-.2-.3-.1-.3 0-.1 1.3.5 2.7 1.2 3.8.2.3.6 0 .4-.2zm-.1-4c-.3-.7-.5-1.7-.9-2.3-.1-.2-.4-.1-.4.1.1.8.6 1.6.9 2.3 0 .3.4.2.4-.1zm.3-4.2c.2-.6.6-1.3.7-2 0-.2-.3-.2-.4-.1-.4.6-.5 1.3-.8 2-.1.3.4.4.5.1zm-4.8 14.5c-.6-.3-1.1-.6-1.6-1.1-.4-.4-.8-1-1.2-1.5-.1-.2-.4 0-.3.2.2 1.4 1.7 2.4 2.9 2.8.3.2.4-.3.2-.4zm-.6-2.9c-.4-.2-.7-.5-1-.9-.3-.3-.4-.8-.7-1.1-.1-.2-.4-.1-.4.1.1 1 1 1.8 1.8 2.3.4.1.6-.2.3-.4zm-.7-4c-.3-.4-.5-.8-.6-1.3-.1-.4-.1-.8-.2-1.2-.1-.2-.3-.2-.4-.1-.4 1 .2 2.2.9 2.9.1.3.5-.1.3-.3zm-5.3 10.8c.8.8 3.1.7 3.6-.4.1-.2-.1-.5-.3-.4-.5.2-.8.5-1.4.6-.6.1-1.1-.1-1.7-.2-.2-.1-.4.2-.2.4zm-1-2.9c.3.7 1.2 1.5 2 1.2.2-.1.2-.4 0-.5-.3-.1-.6-.1-.8-.2-.3-.2-.6-.4-.8-.7-.2-.2-.5 0-.4.2zm.1-1.8c.4.2.7.5 1.1.7.2.1.3-.2.2-.3-.3-.3-.7-.5-1.1-.8-.3-.2-.5.2-.2.4zm-2.4 9.7c.5.5 1.1.7 1.8.7.6 0 1.4-.3 1.7-.9.1-.2-.1-.5-.4-.4-.5.2-.8.5-1.3.6-.5.1-1-.1-1.5-.3-.2-.3-.5.1-.3.3zm-1-1.6c.6.7 2.1.9 2.5-.2.1-.2-.2-.3-.3-.2-.6.2-1.2.5-1.7 0-.4-.2-.8.2-.5.4zm-1.2 7.6c.8.7 2.4 1.4 3.4.6.2-.2.2-.5-.1-.5-.5 0-1 .2-1.5.1-.6 0-1.1-.2-1.6-.6-.1 0-.4.3-.2.4zm-1.1-3.4c.4.8 1.4 1.3 2.3.9.2-.1.1-.4-.1-.4-.7.1-1.4-.1-1.7-.7-.2-.4-.7-.1-.5.2zm.4 11.6c1 .9 2.5 1.4 3.7.7.1-.1.1-.3-.1-.3-1.2.1-2.4.1-3.4-.7-.1-.1-.4.2-.2.3zm-1.2-4c.4 1 1.4 2.2 2.6 2 .2 0 .2-.3.1-.4-.4-.3-.8-.4-1.2-.7-.5-.3-.8-.7-1.1-1.2-.1-.2-.5 0-.4.3zM56 83c.6 2 2.5 4.1 4.8 3.9.2 0 .3-.3.1-.4-2-.6-3.7-1.5-4.6-3.6-.1-.1-.4 0-.3.1zm-.1-1.9c.1.6.3 1.2.7 1.6.4.4 1 .9 1.6.9.3 0 .3-.3.1-.5-.4-.3-.9-.4-1.2-.8-.4-.4-.7-.8-.8-1.3-.1-.1-.4-.1-.4.1zM101 46c-.4 3 2.5 5.8 5.4 4.5.2-.1.1-.3-.1-.3-2.7.3-5.1-1.2-5.1-4.1.1-.3-.2-.3-.2-.1zm-.2-3.6c.2 1.6 1.4 3.8 3.2 4 .2 0 .5-.2.2-.4-.6-.5-1.3-.8-1.8-1.4-.6-.6-1-1.4-1.3-2.3-.1-.2-.4-.1-.3.1zm0-4c.3 1.2 1.1 2.7 2.3 3.3.2.1.5-.2.3-.3-.4-.4-.9-.8-1.2-1.2-.4-.5-.8-1.1-1-1.8-.2-.3-.5-.2-.4 0zm.9-2.8c.2.6.3 1.2.6 1.8.1.2.3.1.3-.1-.1-.6-.3-1.2-.5-1.8 0-.3-.5-.2-.4.1zm7.2 12c.6 1.4 1.8 2.7 3.3 3 .1 0 .2-.2.1-.2-1.3-.7-2.4-1.5-3.1-2.9 0-.2-.4-.1-.3.1zm.8-2.7c1.3.8 2.2 1.8 3.3 2.8.2.1.4 0 .3-.2-.7-1.3-2.1-2.2-3.4-2.8-.2-.2-.4.1-.2.2zm-.3-2.8c.6.3 1.3.6 1.9.9.1 0 .2-.1.1-.2-.6-.3-1.3-.6-1.9-.9-.1-.1-.2.1-.1.2zm-1.1-4.1c.6.5 1.3 1.1 2 1.5.1.1.2-.1.2-.2-.6-.6-1.2-1.1-1.9-1.6-.2-.1-.5.1-.3.3zm.5-1.3c.2 0 .2-.2 0-.2s-.2.2 0 .2zm8 12.1c.4.6.9 1.3 1.5 1.8.2.1.4-.1.3-.3-.3-.6-1-1.2-1.5-1.7-.1-.2-.4 0-.3.2zm-1.1-4.6c.3.8.8 1.5 1.3 2.1.5.5 1.1 1.1 1.8 1.2.2 0 .2-.2.2-.4-.4-.5-1.1-.9-1.6-1.3-.5-.5-1-1.1-1.4-1.7-.1-.4-.4-.1-.3.1zm-.9-3.5c.8.7 1.7 1.6 2.7 2.1.2.1.4-.1.2-.3-.3-.4-.8-.7-1.2-1.1-.5-.3-.9-.7-1.4-1-.2-.2-.5.1-.3.3zm-.2-3c.8.5 1.6 1.3 2.5 1.6.2.1.4-.2.2-.4-.6-.7-1.7-1.1-2.5-1.6-.3-.2-.5.2-.2.4zm7.9 14.1c.2 1 .8 2.1 1.8 2.5.1 0 .2-.1.1-.2-.7-.8-1.4-1.4-1.7-2.4 0-.2-.2-.1-.2.1zm.6-4.7c.4 1.2.8 2.6 1.5 3.7.1.2.4.1.3-.1-.4-1.3-1.1-2.5-1.6-3.7-.1-.1-.3 0-.2.1zm-1.2-4.1c.5.9 1 2 1.8 2.8.1.1.3 0 .3-.2-.4-1-1.1-2-1.7-2.9-.1-.1-.5.1-.4.3zm5.6 10.6c.5.9 1 1.9 1.6 2.8.1.1.3 0 .2-.1-.5-1-1.1-1.9-1.6-2.8 0-.2-.2-.1-.2.1zm.2-3.6c.2 1.1.7 2.3 1.6 3.1.1.1.4 0 .3-.2-.7-.9-1.3-1.8-1.6-2.9 0-.2-.3-.2-.3 0zm-.3-4.5c.2.3.3.7.6 1 .1.1.2 0 .2-.1-.1-.4-.3-.7-.5-1.1-.1-.1-.4.1-.3.2zm5 12.1c-.2 1.1-.3 2.3.2 3.3.1.2.4.1.4-.1-.1-1.1-.4-2.1-.3-3.2.1-.1-.2-.2-.3 0zm1.2-1.7c0 1-.1 2 .1 3 0 .2.3.1.3 0 .1-1-.1-2-.2-3 .1-.2-.2-.2-.2 0zm1 7.4c-.2.9-.2 1.9.4 2.7.1.1.2 0 .2-.1-.3-.8-.5-1.7-.3-2.5.1-.2-.2-.3-.3-.1zm1.5-2.3c-.6 1.1-1 2.7-.2 3.8.1.1.4.1.3-.1-.1-1.3-.4-2.3.2-3.6 0-.1-.2-.2-.3-.1zm1.3-1.7c-.1.3-.1.6-.1.9 0 .1.1.1.1 0 .1-.3.1-.6.2-.9h-.2zm-1.2 11c-.3 1-.4 2.2.2 3.1.1.2.4.1.3-.1-.2-1-.4-1.8-.2-2.9.1-.2-.2-.3-.3-.1zm1.5-.5c-.2 1-.1 2.1.5 2.9.1.1.2 0 .2-.1-.4-.9-.6-1.7-.5-2.7 0-.2-.2-.3-.2-.1zm-.5 5.7c-1.4 1.8-1.8 4.7-.1 6.5.2.2.4-.1.3-.2-1-2-1.3-4.1 0-6.1.1-.2-.1-.3-.2-.2zm1.3.5c-.5 1-.9 2.4-.4 3.5.1.2.4.1.4-.1 0-.5-.1-1-.1-1.5 0-.6.1-1.2.4-1.7.1-.3-.2-.5-.3-.2zm1.2-1c0 .6-.1 1.2 0 1.8 0 .1.2.1.3 0 .1-.6 0-1.2 0-1.8 0-.2-.3-.2-.3 0zm-.4 10.6c-.2.8-.4 1.8.1 2.6.1.1.3.1.3-.1 0-.8-.2-1.6 0-2.4.1-.3-.3-.4-.4-.1zm1.7-1.4c-.1.6-.2 1.2-.1 1.7 0 .2.3.3.4.1.2-.6.2-1.2.2-1.8 0-.3-.5-.3-.5 0z" fill="#7a6155" stroke-width="none" opacity="1" stroke="none"></path></g><g id="svga-group-glasses-single-move" transform="matrix(1,0,0,1,0,0)"><g id="svga-group-glasses-single" transform="matrix(1,0,0,1,0,0)"><path id="SvgjsPath15421" d="M80.93 82.78c-5.6-.23-12.71.11-14.86 2.8-2.15 2.69-2.26 13.25 0 17.55 2.26 4.31 12.92 5.6 20.79 3.23 7.86-2.36 10.98-18.3 10.34-20.13-.65-1.83-8.4-3.12-16.27-3.45z" fill="url(#SvgjsLinearGradient15422)" opacity="1"></path><path id="SvgjsPath15429" d="M119.07 82.78c5.6-.23 12.71.11 14.86 2.8s2.26 13.25 0 17.55-12.92 5.6-20.79 3.23c-7.86-2.37-10.98-18.31-10.34-20.14.65-1.82 8.4-3.11 16.27-3.44z" fill="url(#SvgjsLinearGradient15430)" opacity="1"></path><path id="SvgjsPath15437" d="M135.96 82.89c-2.3-1.18-10.57-1.66-16.77-1.46-8.47.27-15.56.76-19.19.78-3.63-.02-10.72-.51-19.19-.78-6.2-.2-14.47.28-16.77 1.46s-1.81 3.55-.97 10.65c.84 7.1 1.04 13.57 9.05 14.47 8 .9 14.06.56 17.68-2.23 3.62-2.78 7.24-11.48 8.14-12.94.76-1.23 1.52-1.62 2.07-1.71.55.09 1.31.48 2.07 1.71.9 1.46 4.52 10.16 8.14 12.94 3.62 2.78 9.67 3.13 17.68 2.23 8-.9 8.21-7.38 9.05-14.47.82-7.11 1.31-9.47-.99-10.65zM92.82 98.46c-3.94 7.45-6.36 8-15.89 8.22-9.53.22-10.63-5.37-10.85-9.31-.22-3.94-.77-8.11 1.64-10.96 2.16-2.55 9.58-2.45 14.62-2 4.13.37 7.95.76 10.48 2.11 2.77 1.48 3.94 4.49 0 11.94zm41.1-1.09c-.22 3.94-1.31 9.53-10.85 9.31-9.53-.22-11.94-.77-15.89-8.22-3.94-7.45-2.77-10.47 0-11.94 2.53-1.35 6.35-1.74 10.48-2.11 5.04-.45 12.45-.55 14.62 2 2.41 2.85 1.86 7.01 1.64 10.96z" fill="#da6972" stroke-width="none" opacity="1"></path><path id="SvgjsPath15438" d="M135.95 82.91c-1.32-.58-2.78-.75-4.21-.95-1.43-.18-2.88-.28-4.32-.36-2.89-.15-5.78-.16-8.67-.05-5.78.2-11.55.6-17.34.83-2.91.09-5.8-.08-8.69-.22l-8.67-.42c-2.89-.13-5.78-.24-8.67-.15-2.89.07-5.78.22-8.63.68-.71.13-1.42.26-2.09.5-.67.22-1.31.6-1.67 1.19-.38.59-.49 1.32-.52 2.03-.03.72.02 1.44.07 2.16.26 2.88.65 5.75.98 8.62.19 1.43.4 2.86.77 4.26.37 1.39.91 2.75 1.79 3.87.87 1.13 2.1 1.95 3.45 2.43 1.36.47 2.8.59 4.23.73 2.87.24 5.77.38 8.64.08 2.83-.3 5.75-1.07 7.84-3.01 2.02-2 3.44-4.57 4.81-7.1.67-1.28 1.31-2.57 1.95-3.87.33-.64.62-1.32 1.09-1.93.45-.59 1.06-1.16 1.88-1.31l.04-.01.04.01c.78.14 1.38.67 1.83 1.24.46.57.76 1.23 1.07 1.84.62 1.25 1.22 2.49 1.87 3.72 1.3 2.43 2.66 4.88 4.5 6.9 1.83 2.03 4.58 2.94 7.27 3.33 2.72.4 5.5.35 8.26.18 1.37-.12 2.78-.19 4.12-.44 1.34-.27 2.65-.74 3.72-1.59 1.08-.83 1.87-2 2.4-3.26.53-1.27.85-2.62 1.08-3.98.44-2.73.7-5.51 1.06-8.26.16-1.38.34-2.76.36-4.14 0-.69-.03-1.39-.27-2.04-.24-.68-.75-1.2-1.37-1.51zm.02-.05c.63.31 1.16.84 1.4 1.5.25.66.29 1.37.3 2.06 0 1.39-.17 2.78-.32 4.16-.34 2.76-.57 5.52-.99 8.28-.22 1.37-.53 2.75-1.06 4.05-.53 1.3-1.33 2.52-2.44 3.4-1.11.89-2.47 1.41-3.84 1.69-1.39.28-2.77.36-4.16.5-2.77.21-5.58.31-8.36-.09-1.39-.2-2.77-.53-4.08-1.08-1.3-.55-2.52-1.35-3.48-2.41-1.9-2.1-3.26-4.56-4.57-7.01-.65-1.23-1.25-2.49-1.87-3.73-.31-.62-.6-1.24-1.01-1.76-.4-.52-.93-.96-1.53-1.07h.08c-.63.11-1.18.58-1.59 1.13-.43.55-.71 1.2-1.04 1.85-.64 1.3-1.28 2.6-1.96 3.88-.68 1.28-1.39 2.55-2.18 3.77-.8 1.22-1.65 2.42-2.73 3.43-2.22 2.03-5.23 2.77-8.1 3.05-2.9.28-5.82.11-8.7-.15-1.43-.15-2.9-.28-4.29-.77-1.38-.5-2.65-1.35-3.54-2.53-.9-1.17-1.44-2.56-1.81-3.96-.36-1.41-.57-2.85-.74-4.29l-.49-4.31c-.17-1.44-.36-2.87-.49-4.32-.06-.72-.11-1.45-.09-2.18.03-.72.13-1.49.53-2.13.4-.66 1.08-1.06 1.78-1.3.69-.25 1.41-.38 2.12-.52 5.74-.9 11.57-.9 17.35-.66l8.68.36c2.89.1 5.78.34 8.66.27 5.78-.17 11.56-.5 17.35-.65 2.9-.09 5.79-.05 8.68.13 1.45.09 2.89.21 4.32.4 1.42.23 2.88.41 4.21 1.01z" fill="#bb3540" stroke-width="none" opacity="1"></path><path id="SvgjsPath15439" d="M92.84 98.48c-.84 1.59-1.73 3.17-2.9 4.56-.58.69-1.25 1.32-2 1.83-.77.48-1.6.9-2.48 1.14-1.75.55-3.58.67-5.37.79-1.8.09-3.6.16-5.42.02-1.81-.17-3.63-.65-5.16-1.68-1.54-1.02-2.57-2.68-3.02-4.43-.47-1.76-.48-3.58-.63-5.37-.11-1.79-.2-3.62.13-5.42.16-.9.45-1.78.9-2.58.44-.8 1.07-1.55 1.91-1.98 1.65-.88 3.5-1.13 5.29-1.3 3.62-.3 7.25-.03 10.82.36 1.79.2 3.6.42 5.36.91.88.25 1.74.56 2.55.99.82.42 1.56 1.06 2.03 1.87.48.81.64 1.76.61 2.67-.04.91-.22 1.81-.48 2.67-.52 1.72-1.3 3.36-2.14 4.95zm-.05-.03c.81-1.6 1.59-3.24 2.05-4.97.43-1.7.68-3.64-.26-5.15-.93-1.51-2.76-2.12-4.44-2.57-1.73-.43-3.5-.67-5.29-.85-3.57-.36-7.16-.66-10.73-.4-1.76.16-3.58.38-5.15 1.17-.78.39-1.36 1.04-1.81 1.81-.45.76-.74 1.6-.92 2.47-.35 1.75-.29 3.56-.2 5.35.11 1.79.09 3.61.61 5.33.48 1.71 1.5 3.29 3 4.24 1.49.97 3.27 1.37 5.03 1.51 1.77.14 3.57.02 5.37-.04 1.79-.09 3.59-.2 5.31-.65.87-.2 1.68-.58 2.45-1.03.75-.48 1.43-1.07 2.03-1.73 1.2-1.33 2.09-2.92 2.95-4.49z" fill="#bb3540" stroke-width="none" opacity="1"></path><path id="SvgjsPath15440" d="M133.95 97.37c-.1 1.79-.35 3.63-1.23 5.23-.83 1.62-2.36 2.85-4.07 3.48-1.72.64-3.56.83-5.37.82-1.81-.01-3.61-.09-5.41-.26-1.79-.21-3.63-.5-5.24-1.41-1.63-.87-2.84-2.32-3.82-3.82-.97-1.53-1.83-3.11-2.61-4.74-.75-1.64-1.44-3.34-1.63-5.16-.1-.9-.06-1.85.28-2.73.34-.88.98-1.62 1.76-2.13 1.58-.99 3.38-1.44 5.15-1.77 1.79-.32 3.58-.5 5.38-.68 1.79-.18 3.6-.28 5.41-.29 1.81-.01 3.63.06 5.42.38.89.18 1.79.39 2.64.76.84.36 1.66.94 2.15 1.72 1.06 1.53 1.39 3.41 1.43 5.2.04 1.81-.13 3.6-.24 5.4zm-.05 0c.08-1.8.25-3.6.15-5.39-.1-1.78-.49-3.6-1.55-5.02-1-1.48-2.9-1.9-4.61-2.2a33.97 33.97 0 0 0-5.34-.33c-1.79.01-3.58.14-5.37.29-1.79.16-3.58.32-5.34.62-1.75.31-3.52.72-5.03 1.63-.73.46-1.34 1.13-1.66 1.93-.34.8-.4 1.7-.31 2.58.16 1.77.82 3.47 1.54 5.11.75 1.63 1.58 3.23 2.59 4.71 1 1.47 2.21 2.87 3.8 3.67 1.56.86 3.38 1.08 5.14 1.25 1.78.16 3.58.19 5.38.24 1.78.04 3.58-.13 5.26-.68 1.68-.55 3.19-1.68 4.06-3.24.9-1.56 1.16-3.39 1.29-5.17z" fill="#bb3540" stroke-width="none" opacity="1"></path></g></g></g></g></g><rect id="svga-credit-rect" width="200" height="15" x="0" y="185" fill="#ecf0f1" opacity="0.5" style="display: none;"></rect><text id="svga-credit-text" font-family="Avenir Next, Roboto, Helvetica, Arial, sans-serif" font-size="10px" text-anchor="start" font-weight="400" size="10px" anchor="start" weight="400" fill="#333333" x="33.40447998046875" y="182.60824704170227" style="display: none;"><tspan id="SvgjsTspan14806" dy="13" x="33.40447998046875">Created on AvatarMaker.com</tspan></text></g></svg>