<svg xmlns="http://www.w3.org/2000/svg" version="1.1" width="600px" height="600px" viewBox="0 0 200 200" style="overflow:hidden!important;"><defs id="SvgjsDefs9652"><linearGradient id="SvgjsLinearGradient10416" x1="81.1774" y1="84.6913" x2="81.1774" y2="107.2461" gradientUnits="userSpaceOnUse" class="svga-on-canvas-glasses-gradient-single-0-null"><stop id="SvgjsStop10417" stop-opacity="1" stop-color="#9bc2cf" offset="0" ></stop><stop id="SvgjsStop10418" stop-opacity="0" stop-color="#6086c4" offset="1" ></stop></linearGradient><linearGradient id="SvgjsLinearGradient10420" x1="-18.8226" y1="84.6913" x2="-18.8226" y2="107.2461" gradientTransform="matrix(-1 0 0 1 100 0)" gradientUnits="userSpaceOnUse" class="svga-on-canvas-glasses-gradient-single-1-null"><stop id="SvgjsStop10421" stop-opacity="1" stop-color="#9bc2cf" offset="0" ></stop><stop id="SvgjsStop10422" stop-opacity="0" stop-color="#6086c4" offset="1" ></stop></linearGradient></defs><g id="svga-group-wrapper"><g id="svga-group-backs-single"></g><g id="svga-group-humanwrap-move" transform="matrix(1,0,0,1,0,0)"><g id="svga-group-humanwrap" transform="matrix(1,0,0,1,0,0)"><g id="svga-group-hair-back-move" transform="matrix(1,0,0,1,0,0)"><g id="svga-group-hair-back" transform="matrix(1,0,0,1,0,0)"></g></g><g id="svga-group-humanbody-back"><path id="SvgjsPath10072" d="M166.5 181.1c-10.9-6.6-24-7.8-31-12.1s-9.1-4.7-8.9-17.8 1.9-42.4 1.9-42.4H71.4s1.6 29.4 1.9 42.4-1.9 13.5-8.9 17.8-20.1 5.4-31 12.1c-10.8 6.6-10 18.9-10 18.9v19.7h153.3V200c-.1 0 .7-12.3-10.2-18.9z" fill="#ebaa82" stroke-width="none" opacity="1" stroke="none"></path></g><g id="svga-group-chinshadow-single"><path id="SvgjsPath10411" d="M112.2 166.9c2-2.4 4.1-10.2 11.5-16.6 1.1-.9 2.1-1.8 3.1-2.7.4-14.2 1.8-38.6 1.8-38.6H71.4s1.4 24.5 1.8 38.6c1 .9 2 1.8 3.1 2.7 7.4 6.5 9.5 14.2 11.5 16.6 2 2.4 8.9 2.4 12.2 1.5 3.3.9 10.2.9 12.2-1.5z" fill="#cc7b48" stroke-width="none" opacity="1" stroke="none"></path></g><g id="svga-group-humanbody-front"><path id="SvgjsPath10073" d="M176.7 197.2c-.1-.9-.3-1.9-.5-2.8-.4-1.8-1.1-3.6-2-5.3-.4-.8-.9-1.6-1.5-2.4-.5-.8-1.1-1.5-1.8-2.2-1.3-1.4-2.8-2.6-4.4-3.5-3.5-2.1-7.2-3.7-11.1-5.1-1.9-.7-3.8-1.3-5.8-1.9-1.9-.6-3.9-1.2-5.8-1.8-1.9-.6-3.8-1.3-5.6-2.2-.9-.4-1.8-.9-2.6-1.4L133 167c-1.7-1.1-3.3-2.2-4.2-3.9-.2-.4-.4-.8-.6-1.3-.2-.5-.3-.9-.4-1.4-.2-.9-.3-1.9-.4-2.9-.1-2-.1-4 0-6s.2-4 .3-6.1c.2-4 .4-8.1.6-12.1l1.3-24.3.1-1.2h-1.2c-4.8 0-9.5.1-14.3.1l-14.2.1-28.6.4h-.5v.5c.6 10 1.2 19.9 1.6 29.9.2 5 .4 10 .4 15 0 1.2-.1 2.5-.2 3.7s-.3 2.4-.6 3.6c-.3 1.1-.9 2.2-1.7 3.1-.8.9-1.8 1.6-2.8 2.2-1 .7-2.1 1.3-3.2 1.9-.5.3-1.1.6-1.6.9-.5.3-1.1.5-1.7.8-2.3.9-4.6 1.6-7 2.3-4.8 1.4-9.7 2.7-14.4 4.6-2.3 1-4.6 2.1-6.8 3.4-2.2 1.3-4.3 3.1-5.9 5.2-1.6 2.1-2.8 4.4-3.6 6.9-.4 1.2-.7 2.5-.9 3.8-.1.6-.2 1.3-.2 2 0 .3 0 .7-.1 1v20.9h154.6l.1-20c0-1.1-.1-2-.2-2.9zM24.6 217.7v-19.5c0-.6.1-1.2.2-1.8.2-1.2.4-2.3.8-3.5.7-2.3 1.8-4.4 3.2-6.3 1.4-1.9 3.2-3.5 5.2-4.7 2.1-1.3 4.3-2.4 6.5-3.4 4.5-2 9.3-3.4 14.1-4.9 2.4-.8 4.8-1.5 7.1-2.6.6-.3 1.2-.5 1.7-.8.3-.2.6-.3.8-.5.3-.2.6-.3.8-.5 1.1-.7 2.1-1.3 3.2-2s2.1-1.5 3-2.5c.4-.5.8-1.1 1.1-1.7.3-.6.5-1.2.7-1.8.4-1.3.5-2.5.6-3.8s.1-2.5.1-3.8 0-2.5-.1-3.8l-.1-3.7-.3-7.5-1.2-29.2 28 .4 14.3.2c4.4 0 8.7.1 13.1.1-.4 7.7-.8 15.4-1.1 23.1-.1 4.1-.3 8.1-.4 12.2 0 2-.1 4.1-.1 6.1s0 4.1.2 6.2c.1 1 .3 2.1.5 3.1.1.5.3 1 .5 1.5s.4 1 .7 1.5c.3.5.6.9 1 1.3s.8.8 1.2 1.1c.8.7 1.7 1.2 2.6 1.7l2.6 1.5c.9.5 1.8 1 2.8 1.4 1.9.8 3.8 1.4 5.8 2 3.9 1.1 7.8 2.2 11.7 3.5 1.9.6 3.8 1.4 5.7 2.2 1.8.8 3.6 1.8 5.4 2.8 1.6 1 3 2.2 4.3 3.5.6.7 1.2 1.4 1.7 2.2s1 1.6 1.4 2.4c.8 1.7 1.5 3.4 1.9 5.2.2.9.3 1.8.4 2.7.1.8.1 20.6.1 21.4-12.6-.2-151.7-1-151.7-1z" fill="#bd6630" stroke-width="none" opacity="1" stroke="none"></path><path id="SvgjsPath10074" d="M78.7 156.8c.5 4.8 1.7 9.4 3.1 13.9.8 2.3 1.6 4.6 2.6 6.9.8 2 1.7 4.2 3.1 5.9.3.4 1 0 .9-.5-.5-2.2-1.6-4.3-2.4-6.4-.9-2.2-1.7-4.4-2.5-6.6-1.5-4.4-2.8-8.9-4.1-13.3-.2-.4-.8-.3-.7.1zm41.3-1c-1.3 8.2-3.9 16.1-5.4 24.2-.1.4.4.5.6.2 3.1-7.7 4.1-16.1 5.1-24.3-.1-.2-.3-.2-.3-.1zm-25.8 11.9c-.9 3.6 1.9 8.6 6.2 7.6.5-.1.4-.8 0-1-1.4-.5-2.9-.9-3.9-2.1-1.1-1.2-1.5-2.9-1.4-4.5 0-.4-.8-.5-.9 0z" fill="#cc7b48" stroke-width="none" opacity="1" stroke="none"></path></g><g id="svga-group-clothes-single"><path id="SvgjsPath10314" d="M179.3 220.1c0-17.5-1.6-26.7-1.6-26.7-3-14-20.7-19.7-29.5-21.6-8.7-1.9-14.1-5-16.1-6.2-2.3-1.4-3.2-3.1-3.2-3.1S120.6 182 99.5 182 71 162.5 71 162.5s-.9 1.7-3.2 3.1c-2 1.2-7.4 4.4-16.1 6.2-8.7 1.9-26.5 7.6-29.5 21.6 0 0-1.6 9.2-1.6 26.7h158.7z" fill="#d46fbb" stroke-width="none" opacity="1"></path><path id="SvgjsPath10315" d="M179.6 209.2c-.1-3.6-.2-7.3-.5-10.9l-.3-2.7c-.1-.9-.1-1.8-.4-2.8l-.4-1.4c-.1-.5-.2-.9-.4-1.4l-.6-1.3-.3-.6-.4-.6c-1.8-3.3-4.5-6.1-7.5-8.3-3-2.2-6.3-3.9-9.8-5.4-3.4-1.4-7-2.5-10.6-3.3-3.5-.8-6.9-1.8-10.1-3.2-1.6-.7-3.2-1.5-4.7-2.4-.8-.5-1.5-.9-2.1-1.4-.3-.2-.6-.5-.9-.8-.2-.3-.5-.6-.6-.8-.1-.2-.3-.4-.6-.5-.7-.3-1.5 0-1.8.7-.6 1.2-1.3 2.6-2.2 3.8-.8 1.2-1.7 2.4-2.6 3.6-1.9 2.3-4.1 4.3-6.5 6.1-4.8 3.6-10.7 5.4-16.6 5.6-.8 0-1.5 0-2.2-.1-.8-.1-1.5 0-2.2-.1-1.5-.2-3-.4-4.4-.9l-1.1-.3-.5-.1-.5-.2-2.1-.9c-.7-.3-1.3-.7-2-1.1-.7-.3-1.3-.8-1.9-1.2-5-3.4-8.9-8.4-11.4-13.9 0-.1-.1-.2-.2-.2-.2-.1-.5-.1-.6.1-.4.7-1 1.4-1.7 1.9-.7.6-1.4 1-2.2 1.4-1.6.9-3.2 1.7-4.8 2.4-3.3 1.4-6.8 2.4-10.3 3.2-7.1 1.5-14.2 3.9-20.4 8.1-3 2.1-5.8 4.8-7.8 8.1l-.4.6-.3.6-.6 1.3c-.2.4-.4.9-.5 1.4l-.4 1.4c-.3 1-.3 1.9-.5 2.8l-.3 2.7c-.8 7.3-1.1 14.6-1.2 21.9 0 .8.6 1.4 1.4 1.4l40 .2c13.3 0 26.7-.1 39.9-.2l39.7-.5 19.7-.3 19.5-.4c.2-3.9.2-7.4.2-11.1zM22.8 198.5l.3-2.7.2-1.3.1-.7c0-.2.1-.4.1-.6l.3-1.2c.1-.4.2-.8.4-1.2l.5-1.2.2-.6.3-.6c1.7-3 4.2-5.6 7-7.7l.9-.6c1.1 1.1 2 2.4 2.8 3.7.9 1.5 1.7 3 2.4 4.6 1.4 3.2 2.4 6.5 3.2 9.9.4 1.7.8 3.4 1.1 5.1.3 1.7.6 3.4.9 5.2.5 3.3 1 6.6 1.5 10l-22.8.1c-.2-6.7 0-13.5.6-20.2zm136.3 21.1-20-.3-39.7-.5c-13.2-.1-26.3-.2-39.4-.2l-15 .1c.3-3.4.2-6.8 0-10.2-.3-3.5-.8-7.1-1.6-10.6-.4-1.7-.9-3.5-1.5-5.2-.6-1.7-1.3-3.4-2.2-4.9-.8-1.6-1.8-3.1-3-4.5-1-1.2-2.1-2.4-3.5-3.2 5.5-3.8 12-6.2 18.6-7.7 3.6-.8 7.1-1.9 10.5-3.4 1.7-.7 3.3-1.6 4.9-2.5 1.4-.8 2.7-1.8 3.7-3.1 1.2 2.6 2.7 5.1 4.5 7.3 1.9 2.4 4.2 4.7 6.7 6.5.6.5 1.3.9 2 1.3s1.3.8 2.1 1.2l2.2 1 .5.2.6.2 1.1.4c1.5.6 3.1.8 4.6 1.1.8.2 1.6.1 2.3.2.8 0 1.6.1 2.4.1 6.3 0 12.8-1.8 18-5.4 2.7-1.8 5-4 7.1-6.4 1.6-1.9 3.1-3.9 4.3-6.2.2.2.4.4.7.6.8.7 1.7 1.2 2.4 1.6 1.6.9 3.3 1.8 5 2.5 3.4 1.5 7 2.5 10.6 3.3 6.5 1.4 13 3.6 18.5 7.2-1.2.9-2.2 1.9-3.2 3.1-1.1 1.4-2.1 2.9-3 4.5-.9 1.6-1.6 3.2-2.2 4.9-.6 1.7-1.1 3.4-1.5 5.2-.8 3.5-1.3 7-1.6 10.6-.2 3.5-.3 7.1 0 10.6l1.5-10.5c.3-1.7.6-3.5.9-5.2.3-1.7.6-3.4 1.1-5.1.8-3.4 1.8-6.7 3.2-9.9.7-1.6 1.5-3.1 2.4-4.6.8-1.2 1.6-2.4 2.6-3.5l.9.6c2.9 2 5.4 4.5 7.2 7.4l.4.6.3.6.6 1.2c.2.4.3.8.4 1.2l.4 1.2c.1.2.1.4.2.6l.1.7.2 1.3.3 2.7c.4 3.6.8 7.2 1 10.8.2 3.6.4 7.3.6 10.8l-20.2-.3zm-42.4-37.2c-5.4 3.1-11.8 4.2-18 3.8-1.6-.1-3.1-.2-4.7-.4-1.5-.2-3.1-.5-4.5-1-1.5-.4-2.9-.9-4.4-1.6-1.4-.7-2.8-1.4-4.1-2.3-2.6-1.7-4.9-3.8-7-6.2-2.1-2.4-3.8-5.1-5.2-7.9 2.1 6.1 6 11.6 11.3 15.4 2.6 1.9 5.6 3.4 8.8 4.4 1.6.5 3.2.8 4.8 1.1 1.6.2 3.2.4 4.9.5 3.3.1 6.6 0 9.8-.8 3.2-.7 6.3-2 9.1-3.7 2.8-1.7 5.3-3.9 7.4-6.3 2.2-2.4 4.1-5 5.8-7.7-4.1 5-8.6 9.7-14 12.7z" fill="#b53b97" stroke-width="none" opacity="1"></path></g><g id="svga-group-head" transform="matrix(1,0,0,1,0,0)"><g id="svga-group-ears-left-move" transform="matrix(1,0,0,1,0,0)"><g id="svga-group-ears-left" transform="matrix(1,0,0,1,0,0)"><path id="SvgjsPath10324" d="M61.3 90s-2.5-2.4-5.4-3.5-6.1.7-7.1 3.7c-1 2.9 1.3 15.1 5 19.5s6.2 4.8 8.7 2.5c2.5-2.3 7-10.8-1.2-22.2z" fill="#ebaa82" stroke-width="none" opacity="1" stroke="none"></path><path id="SvgjsPath10325" d="M62.6 91.8c.4.6.8 1.3 1.2 1.9.4.6.7 1.4 1.1 2 .3.7.6 1.4.9 2.2.2.8.5 1.5.6 2.4.1.4.2.8.2 1.2l.1 1.2c0 1.7-.2 3.4-.7 4.9-.5 1.6-1.2 3-2.2 4.2-.2.3-.5.6-.8.8-.3.2-.6.5-.9.7-.6.4-1.3.7-2.1.8-.7.1-1.5 0-2.2-.3s-1.3-.7-1.8-1.2c-.6-.5-1.1-1-1.6-1.6s-.9-1.1-1.4-1.8c-1.7-2.6-2.6-5.7-3.4-8.7-.4-1.5-.8-3-1.1-4.6s-.6-3.2-.5-4.9c0-.4.1-.9.2-1.3.1-.2.1-.4.2-.6l.3-.6c.4-.7.9-1.3 1.5-1.8 1.2-1 2.6-1.4 4-1.2.7.1 1.4.3 2 .6.6.3 1.2.7 1.8 1.1 1.2.8 2.3 1.6 3.3 2.6l1.3 2zm-4.7-4.1c-.6-.3-1.2-.6-1.8-.8-.6-.2-1.2-.3-1.8-.3-1.2.1-2.3.6-3.3 1.4-.5.4-.9.9-1.2 1.5-.2.3-.3.6-.4.9-.1.3-.2.6-.2.9-.2 1.4-.1 3 .1 4.6.2 1.5.4 3.1.8 4.6.8 3 1.9 6 3.6 8.2.9 1.1 1.9 2.1 3 2.9s2.2 1.3 3.3 1.1c.5-.1 1.1-.3 1.6-.7.5-.4 1-.8 1.4-1.3.8-1 1.5-2.3 1.9-3.7.5-1.4.7-2.8.7-4.3s-.2-3-.4-4.5c-.6-3-2-5.8-3.7-8.2-1.3-.9-2.4-1.7-3.6-2.3z" fill="#dc9164" stroke-width="none" opacity="1" stroke="none"></path><path id="SvgjsPath10326" d="M52.6 89.6c3.3.6 5.4 6.1 6 9.8.1.1.1.2.2.3.4.6-.4 1.2-.8.6-.5-.8-1-1.6-1.8-1.9-1.4-.5-2.1 1.1-1.8 2.6.4 1.9 1.6 3 2.6 4.4.1.1 0 .3-.1.2-1.7-1-4.3-4.8-3.1-7.2.9-1.7 2.3-1.4 3.4-.4-.8-2.1-1.4-4.3-3-5.9-.5-.5-1.5-1.4-2.2-1.3-1.3.2-1.3 2.1-1.3 3.4-.1 1.7.1 3.4.4 5 0 .2-.2.2-.3.1-.7-2.4-2-10.4 1.8-9.7z" fill="#cc7b48" stroke-width="none" opacity="1" stroke="none"></path></g></g><g id="svga-group-ears-right-move" transform="matrix(1,0,0,1,0,0)"><g id="svga-group-ears-right" transform="matrix(1,0,0,1,0,0)"><path id="SvgjsPath10327" d="M138.7 90s2.5-2.4 5.4-3.5 6.1.7 7.1 3.7c1 2.9-1.3 15.1-5 19.5s-6.2 4.8-8.7 2.5c-2.5-2.3-7-10.8 1.2-22.2z" fill="#ebaa82" stroke-width="none" opacity="1" stroke="none"></path><path id="SvgjsPath10328" d="M138.6 89.9c1.1-1 2.2-1.8 3.3-2.6.6-.4 1.2-.7 1.8-1.1.6-.3 1.3-.6 2-.6 1.4-.2 2.8.3 4 1.2.6.5 1.1 1.1 1.5 1.8l.3.6c.1.2.2.4.2.6.1.4.2.9.2 1.3.1 1.7-.2 3.3-.5 4.9s-.7 3.1-1.1 4.6c-.9 3-1.8 6-3.4 8.7-.4.7-.9 1.2-1.4 1.8-.5.6-1 1.1-1.6 1.6s-1.2.9-1.8 1.2c-.7.3-1.4.4-2.2.3-.7-.1-1.4-.4-2.1-.8-.3-.2-.6-.4-.9-.7-.3-.3-.6-.5-.8-.8-1-1.2-1.7-2.6-2.2-4.2s-.7-3.3-.7-4.9l.1-1.2c0-.4.1-.8.2-1.2.1-.8.4-1.6.6-2.4.3-.7.6-1.5.9-2.2.4-.7.7-1.4 1.1-2 .4-.6.8-1.3 1.2-1.9l1.3-2zm.1.1c-1.7 2.4-3 5.2-3.7 8.2-.3 1.5-.5 3-.4 4.5s.3 2.9.7 4.3 1.1 2.6 1.9 3.7c.4.5.8 1 1.4 1.3.5.4 1 .6 1.6.7 1.1.2 2.2-.3 3.3-1.1 1-.8 2.1-1.8 3-2.9 1.7-2.3 2.8-5.2 3.6-8.2.4-1.5.6-3.1.8-4.6s.3-3.1.1-4.6c0-.4-.1-.6-.2-.9-.1-.3-.3-.6-.4-.9-.3-.6-.7-1-1.2-1.5-.9-.8-2.1-1.3-3.3-1.4-.6 0-1.2.1-1.8.3-.6.2-1.2.5-1.8.8-1.4.6-2.5 1.4-3.6 2.3z" fill="#dc9164" stroke-width="none" opacity="1" stroke="none"></path><path id="SvgjsPath10329" d="M147.4 89.6c-3.3.6-5.4 6.1-6 9.8-.1.1-.1.2-.2.3-.4.6.4 1.2.8.6.5-.8 1-1.6 1.8-1.9 1.4-.5 2.1 1.1 1.8 2.6-.4 1.9-1.6 3-2.6 4.4-.1.1 0 .3.1.2 1.7-1 4.3-4.8 3.1-7.2-.9-1.7-2.3-1.4-3.4-.4.8-2.1 1.4-4.3 3-5.9.5-.5 1.5-1.4 2.2-1.3 1.3.2 1.3 2.1 1.3 3.4.1 1.7-.1 3.4-.4 5 0 .2.2.2.3.1.7-2.4 2-10.4-1.8-9.7z" fill="#cc7b48" stroke-width="none" opacity="1" stroke="none"></path></g></g><g id="svga-group-faceshape-wrap" transform="matrix(1,0,0,1,0,0)"><g id="svga-group-faceshape-single"><path id="SvgjsPath10400" d="M143.6 82v-.3c-1.3-29.9-21.1-46.4-43.6-46.4S57.7 51.8 56.4 81.7v.3c0 2.4.3 22.6 3.7 32.7 3.6 10.8 8.9 14.9 16.2 21.4 7.4 6.5 9.5 14.2 11.5 16.6 2 2.4 8.9 2.4 12.2 1.5 3.3.9 10.2.9 12.2-1.5s4.1-10.2 11.5-16.6c7.4-6.5 12.6-10.6 16.2-21.4 3.3-10.1 3.7-30.3 3.7-32.7z" fill="#ebaa82" stroke-width="none" opacity="1" stroke="none"></path><path id="SvgjsPath10401" d="M112.2 152.7c2-2.4 4.1-10.2 11.5-16.6 7.4-6.5 12.6-10.6 16.2-21.4 3.3-10.1 3.7-30.3 3.7-32.7v-.3c-1.3-29.9-21.1-46.4-43.6-46.4S57.7 51.8 56.4 81.7v.3c0 2.4.3 22.6 3.7 32.7 3.6 10.8 8.9 14.9 16.2 21.4 7.4 6.5 9.5 14.2 11.5 16.6 2 2.4 8.9 2.4 12.2 1.5 3.3.9 10.2.9 12.2-1.5zm-11.5-1.1-.7-.2-.7.2c-1.8.5-4.2.6-6.3.4-1-.1-2.6-.1-4-2.2-1.1-2-2.2-4.4-3.6-6.5C82.4 138 75 132 75 132c-1.8-1.6-3.6-3.2-5.3-4.8-1.6-1.7-3.1-3.4-4.3-5.4-1.2-1.9-4.8-6-6.5-20-2.2-19-.6-26.8-.6-26.8 2.4-14.5 8.2-22.5 13.4-27.3 0 0 2.9-3.5 12.1-7.3 4.4-1.7 9-2.6 13.6-2.8 8.8-.5 13.9 1.5 13.9 1.5 9.2 2.7 17.2 7.9 22.8 15.6l2 3c.6 1 1.1 2.1 1.7 3.2.6 1.1 3 5.5 4.4 13.8.1.6.5 4 .5 4 .1 1.3.2 3.5.2 4.8-.1 7.3-.6 14.5-1.9 21.6-.7 3.8-1.6 7.5-3.1 11s-3.5 6.7-6 9.4-5.4 5.1-8.4 7.6c-1.4 1.2-3.1 2.6-4.5 4.1-1.5 1.5-2.7 3.2-3.8 4.9-1.1 1.7-2.1 3.5-3 5.3-.5.9-.9 1.7-1.3 2.5-1.3 2.4-4.4 2.2-5.3 2.2-1.6 0-3.5-.1-4.9-.5z" fill="#bd6630" stroke-width="none" opacity="1" stroke="none"></path></g></g><g id="svga-group-mouth-single-move" transform="matrix(1,0,0,1,0,0)"><g id="svga-group-mouth-single" transform="matrix(1,0,0,1,0,3)"><path id="SvgjsPath10277" d="M85.9 127.36c1.93 1.35 3.95.8 6.06.2 1.1-.31 1.84-.44 3.03-.4 1.4.05 1.65.32 2.77.82.84.37 1.64.61 2.55.48 1.07-.15 1.89-.82 2.89-1.19 2.34-.87 4.17.21 6.35.86 2.06.61 4.33 1.01 6.18-.31.5-.36.08-1.04-.47-.81-2.86 1.23-5.21-.02-8.04-.43-2.23-.32-3.9.22-6.05.57-2.45.4-4.48-1.02-6.92-1.03-2.61-.02-5.17 1.6-7.62 0-.78-.53-1.48.71-.73 1.24z" fill="#e28c7c" stroke-width="none" opacity="1" stroke="none"></path><path id="SvgjsPath10278" d="M90.88 131.69c5.13 2.8 13.52 3.04 18.9.91.23-.09.23-.49-.06-.47-3 .23-5.96.73-8.98.62-3.33-.12-6.39-1.07-9.64-1.56-.29-.05-.52.33-.22.5z" fill="#ea9b8c" stroke-width="none" opacity="1" stroke="none"></path><path id="SvgjsPath10279" d="M97.44 121.8c.65.79 2.04 1.02 3.16 1.01 1-.01 2.61-.2 2.96-1.06.09-.21-.14-.38-.39-.4-.88-.08-1.8.47-2.73.49-.96.03-1.8-.3-2.74-.39-.22-.03-.37.21-.26.35z" fill="#f1aa9d" stroke-width="none" opacity="1" stroke="none"></path></g></g><g id="svga-group-eyes-left-move" transform="matrix(1,0,0,1,0,0)"><g id="svga-group-eyes-left" transform="matrix(1,0,0,1,0,0)"><g id="svga-group-eyesback-left"><path id="SvgjsPath10356" d="M89.4 94.9s-.7-2.1-2.6-3.5-5-2.8-8.5-1.5-8 5.4-8 5.4 0 2.1 1.6 3.9 4.4 3.2 8.2 2.6c3.8-.6 6.7-3.6 7.3-4.1s2-2.8 2-2.8z" fill="#ffffff" stroke-width="none" opacity="1"></path></g><g id="svga-group-eyesiriswrapper-left" transform="matrix(1,0,0,1,0,0)"><g id="svga-group-eyesiriscontrol-left" transform="matrix(1,0,0,1,0,0)"><g id="svga-group-eyesiris-left" transform="matrix(1,0,0,1,0,0)"><path id="SvgjsPath10490" d="M80.1 88.1c3 0 5.5 2.4 5.5 5.5S83.1 99 80.1 99s-5.5-2.4-5.5-5.5 2.4-5.4 5.5-5.4z" fill="#9b1d1b" stroke-width="none" opacity="1"></path><path id="SvgjsPath10491" d="M80.1 87.8c-3.2 0-5.7 2.6-5.7 5.7 0 3.2 2.6 5.7 5.7 5.7 3.2 0 5.7-2.6 5.7-5.7s-2.6-5.7-5.7-5.7zm4.7 7.7c-.6-.3-1.2-.6-1.9-.8.1-.2.2-.5.2-.8.7.1 1.3.1 2 .1.1.5-.1 1-.3 1.5zm-.3.6c-.5-.4-1.1-.8-1.7-1.1 0-.1.1-.1.1-.2l1.8.9c0 .2-.1.3-.2.4zm.1-5.1c-.6.1-1.3.4-1.8.8 0-.1-.1-.1-.1-.2.2-.2.5-.3.7-.5.3-.2.6-.5.9-.7 0 .2.2.4.3.6zm.3.8c-.7.2-1.3.3-1.9.6 0-.1-.1-.2-.1-.3.3-.1.6-.3.9-.4.3-.1.7-.2 1-.4 0 .2.1.4.1.5zm-1.7 1.7c0-.3-.1-.6-.1-.8.7-.1 1.3-.3 1.9-.5.1.4.2.9.2 1.4-.6-.1-1.3-.1-2-.1zm.8-3.3c-.3.2-.6.5-.9.7-.2.2-.5.3-.7.5l-.3-.3c.4-.5.8-1.1 1.1-1.7.3.3.6.5.8.8zm-3.6 6.5c.2 0 .5-.1.7-.2.1.3.3.7.4 1 .1.3.2.6.4.8-.4.2-.9.3-1.4.3 0-.6 0-1.3-.1-1.9zm1.4-8c.4.2.9.4 1.3.7-.4.5-.8 1.1-1.2 1.6-.1-.1-.2-.1-.3-.2.1-.7.2-1.5.2-2.1zm-1.5-.3c.4 0 .8.1 1.1.2-.1.5-.1 1-.2 1.5 0 .2-.1.3-.1.5-.2-.1-.4-.1-.6-.2 0-.7-.1-1.4-.2-2zm1.6 9c-.2-.3-.3-.7-.5-1 .1 0 .1-.1.2-.1.1.3.3.6.5.9.2.3.3.6.5.9-.1.1-.2.1-.3.2-.1-.4-.3-.6-.4-.9zm.4-.4c-.2-.3-.3-.6-.5-.9.1-.1.2-.1.3-.2.3.6.7 1.1 1.2 1.6-.1.1-.3.2-.4.3-.2-.2-.5-.5-.6-.8zm-2.1-8.6c-.1.6-.1 1.3-.1 2h-.4c0-.2-.1-.4-.1-.6-.1-.4-.1-.9-.2-1.4.2 0 .4-.1.6-.1.1 0 .1 0 .2.1zm-2.8.7c.3.6.7 1.2 1.1 1.7-.1.1-.2.1-.2.2-.1-.1-.2-.3-.4-.4-.3-.4-.6-.8-1-1.1.2-.2.3-.3.5-.4zm2 1.3c-.1 0-.2 0-.2.1-.2-.7-.4-1.3-.6-1.9.2-.1.4-.1.7-.2-.1.7-.1 1.4.1 2zm-.5.2s-.1 0-.1.1c-.3-.6-.7-1.2-1.1-1.7.2-.1.5-.2.7-.3.1.6.2 1.3.5 1.9zm-.5 5.6c.1 0 .1.1.2.1-.1.2-.2.3-.2.5-.2.4-.5.9-.6 1.3l-.6-.3c.3-.3.5-.7.8-1 .1-.2.3-.4.4-.6zm.4.7c.1-.1.1-.3.2-.4h.1c-.3.6-.5 1.3-.6 1.9-.2-.1-.3-.1-.5-.2.3-.4.5-.9.8-1.3zm.6-.3c.1 0 .2 0 .3.1-.2.6-.2 1.3-.3 2-.2 0-.5-.1-.7-.1.3-.7.5-1.4.7-2zm-2.7-7c.2.4.5.7.8 1 .2.2.3.4.4.6-.1.1-.3.2-.4.4-.5-.4-1.1-.8-1.7-1.1.4-.4.6-.7.9-.9zm-1.1 6.5 1.5-.9c.1 0 .1-.1.2-.1.1.1.2.3.3.4-.5.4-1 1-1.4 1.4-.3-.2-.4-.5-.6-.8zm-.5-1.1c.4-.1.8-.3 1.1-.4.2-.1.5-.2.7-.3 0 .2.1.3.2.5-.1.1-.2.1-.3.2-.5.3-.9.6-1.4 1-.1-.4-.2-.7-.3-1zm-.2-1.5c0-.2 0-.3.1-.5.6.2 1.3.3 2 .3v.5c-.3.1-.6.2-.9.4-.3.1-.7.2-1 .4-.2-.3-.2-.7-.2-1.1zm.3-1.6c.4.2.9.4 1.3.6.2.1.3.2.5.2 0 .1-.1.2-.1.3-.2 0-.3-.1-.5-.1-.5-.1-1-.2-1.5-.1l.3-.9zm.6-1.3c.5.4 1 .9 1.6 1.2-.1.2-.2.3-.3.5-.1 0-.2-.1-.3-.1-.5-.2-1.1-.4-1.6-.6.2-.4.4-.7.6-1zm.5 6.5c.5-.4 1.1-.9 1.5-1.4l.3.3c-.2.2-.3.4-.4.6-.3.3-.5.7-.8 1-.2-.1-.4-.3-.6-.5zm3.5 1.6c.1-.7.2-1.3.2-2h.2c-.1.7-.1 1.4 0 2h-.4zm3.7-1.3c-.4-.5-.9-1-1.3-1.5.2-.2.4-.4.5-.6.5.4 1.1.8 1.7 1.2-.3.2-.6.6-.9.9z" fill="#7c0200" stroke-width="none" opacity="1"></path><path id="SvgjsPath10492" d="M80.1 90.6c1.6 0 2.9 1.3 2.9 2.9s-1.3 2.9-2.9 2.9-2.9-1.3-2.9-2.9 1.2-2.9 2.9-2.9z" fill="#000000" stroke-width="none" opacity="1"></path><path id="SvgjsPath10493" d="M78.4 91c.6 0 1.1.5 1.1 1.1s-.5 1.1-1.1 1.1-1.1-.5-1.1-1.1.5-1.1 1.1-1.1zm3.6 4.1c.4 0 .6.3.6.6s-.3.6-.6.6-.6-.3-.6-.6.3-.6.6-.6z" fill="#ffffff" stroke-width="none" opacity="1"></path></g></g></g><g id="svga-group-eyesfront-left"><path id="SvgjsPath10364" d="M69.4 94.6c0 6.4 4.7 11.5 10.6 11.5s10.6-5.2 10.6-11.5S85.9 83.1 80 83.1s-10.6 5.1-10.6 11.5zm2.5 4.5c-1.6-1.9-1.6-3.9-1.6-3.9s4.5-4.1 8-5.4 6.6.2 8.5 1.5 2.6 3.5 2.6 3.5-1.4 2.2-1.9 2.8c-.6.6-3.5 3.6-7.3 4.1-3.9.6-6.7-.7-8.3-2.6z" fill="#ebaa82" stroke-width="none" opacity="1" stroke="none"></path><path id="SvgjsPath10365" d="M89.3 94.1c-.7-4.8-5.1-8.4-10-7.4-4.1.8-6.3 4.5-8.5 7.7-.2.2-.5 0-.4-.2 2.3-3.9 5.6-8.1 10.6-8.1 4.6.1 7.9 3.6 8.3 8 .1.1 0 .1 0 0z" fill="#dc9164" stroke-width="none" opacity="1" stroke="none"></path><path id="SvgjsPath10366" d="m69.2 96.1.9-.3c.7 4 4.1 6.5 8.2 6.5 4.6 0 9.2-3 11.2-7.2.2 0 .4-.1.3-.3-1.4-3.7-5.2-6.4-9.2-6.1-4.5.3-8.3 4-11.5 6.8-.4.3-.2.7.1.6zm1.4-.5c2.6-1.2 4.5-3.5 7.1-4.8 4.5-2.2 9.3-.2 11.5 4.2-2.2 3.1-4.9 5.7-8.8 6.4-4.2.8-9.2-1.2-9.8-5.8z" fill="#210d34" stroke-width="none" opacity="1" stroke="none"></path></g></g></g><g id="svga-group-eyes-right-move" transform="matrix(1,0,0,1,0,0)"><g id="svga-group-eyes-right" transform="matrix(1,0,0,1,0,0)"><g id="svga-group-eyesback-right"><path id="SvgjsPath10357" d="M110.6 94.9s.7-2.1 2.6-3.5 5-2.8 8.5-1.5 8 5.4 8 5.4 0 2.1-1.6 3.9-4.4 3.2-8.2 2.6c-3.8-.6-6.7-3.6-7.3-4.1s-2-2.8-2-2.8z" fill="#ffffff" stroke-width="none" opacity="1"></path></g><g id="svga-group-eyesiriswrapper-right" transform="matrix(1,0,0,1,0,0)"><g id="svga-group-eyesiriscontrol-right" transform="matrix(1,0,0,1,0,0)"><g id="svga-group-eyesiris-right" transform="matrix(1,0,0,1,0,0)"><path id="SvgjsPath10494" d="M119.9 88.1c3 0 5.5 2.4 5.5 5.5S123 99 119.9 99s-5.5-2.4-5.5-5.5 2.5-5.4 5.5-5.4z" fill="#9b1d1b" stroke-width="none" opacity="1"></path><path id="SvgjsPath10495" d="M119.9 87.8c-3.2 0-5.7 2.6-5.7 5.7 0 3.2 2.6 5.7 5.7 5.7s5.7-2.6 5.7-5.7c.1-3.1-2.5-5.7-5.7-5.7zm4.8 7.7c-.6-.3-1.2-.6-1.9-.8.1-.2.2-.5.2-.8.7.1 1.3.1 2 .1 0 .5-.1 1-.3 1.5zm-.3.6c-.5-.4-1.1-.8-1.7-1.1 0-.1.1-.1.1-.2l1.8.9c0 .2-.1.3-.2.4zm.1-5.1c-.6.1-1.3.4-1.8.8 0-.1-.1-.1-.1-.2.2-.2.5-.3.7-.5.3-.2.6-.5.9-.7 0 .2.1.4.3.6zm.3.8c-.7.2-1.3.3-1.9.6 0-.1-.1-.2-.1-.3.3-.1.6-.3.9-.4.3-.1.7-.2 1-.4 0 .2.1.4.1.5zm-1.7 1.7c0-.3-.1-.6-.1-.8.7-.1 1.3-.3 1.9-.5.1.4.2.9.2 1.4-.6-.1-1.3-.1-2-.1zm.8-3.3c-.3.2-.6.5-.9.7-.2.2-.5.3-.7.5l-.3-.3c.4-.5.8-1.1 1.1-1.7.3.3.6.5.8.8zm-3.6 6.5c.2 0 .5-.1.7-.2.1.3.3.7.4 1 .1.3.2.6.4.8-.4.2-.9.3-1.4.3 0-.6 0-1.3-.1-1.9zm1.4-8c.4.2.9.4 1.3.7-.4.5-.8 1.1-1.2 1.6-.1-.1-.2-.1-.3-.2.1-.7.2-1.5.2-2.1zm-1.5-.3c.4 0 .8.1 1.1.2-.1.5-.1 1-.2 1.5 0 .2-.1.3-.1.5-.2-.1-.4-.1-.6-.2 0-.7-.1-1.4-.2-2zm1.6 9c-.2-.3-.3-.7-.5-1 .1 0 .1-.1.2-.1.1.3.3.6.5.9.2.3.3.6.5.9-.1.1-.2.1-.3.2-.2-.4-.3-.6-.4-.9zm.4-.4c-.2-.3-.3-.6-.5-.9.1-.1.2-.1.3-.2.3.6.7 1.1 1.2 1.6-.1.1-.3.2-.4.3-.2-.2-.5-.5-.6-.8zm-2.1-8.6c-.1.6-.1 1.3-.1 2h-.4c0-.2-.1-.4-.1-.6-.1-.4-.1-.9-.2-1.4.2 0 .4-.1.6-.1.1 0 .1 0 .2.1zm-2.8.7c.3.6.7 1.2 1.1 1.7-.1.1-.2.1-.2.2-.1-.1-.2-.3-.4-.4-.3-.4-.6-.8-1-1.1.2-.2.3-.3.5-.4zm2 1.3c-.1 0-.2 0-.2.1-.2-.7-.4-1.3-.6-1.9.2-.1.4-.1.7-.2-.2.7-.1 1.4.1 2zm-.5.2s-.1 0-.1.1c-.3-.6-.7-1.2-1.1-1.7.2-.1.5-.2.7-.3.1.6.2 1.3.5 1.9zm-.5 5.6c.1 0 .1.1.2.1-.1.2-.2.3-.2.5-.2.4-.5.9-.6 1.3l-.6-.3c.3-.3.5-.7.8-1 .1-.2.3-.4.4-.6zm.3.7c.1-.1.1-.3.2-.4h.1c-.3.6-.5 1.3-.6 1.9-.2-.1-.3-.1-.5-.2.4-.4.6-.9.8-1.3zm.7-.3c.1 0 .2 0 .3.1-.2.6-.2 1.3-.3 2-.2 0-.5-.1-.7-.1.2-.7.5-1.4.7-2zm-2.7-7c.2.4.5.7.8 1 .2.2.3.4.4.6-.1.1-.3.2-.4.4-.5-.4-1.1-.8-1.7-1.1.4-.4.6-.7.9-.9zm-1.1 6.5 1.5-.9c.1 0 .1-.1.2-.1.1.1.2.3.3.4-.5.4-1 1-1.4 1.4-.3-.2-.5-.5-.6-.8zM115 95c.4-.1.8-.3 1.1-.4.2-.1.5-.2.7-.3 0 .2.1.3.2.5-.1.1-.2.1-.3.2-.5.3-.9.6-1.4 1-.1-.4-.2-.7-.3-1zm-.2-1.5c0-.2 0-.3.1-.5.6.2 1.3.3 2 .3v.5c-.3.1-.6.2-.9.4-.3.1-.7.2-1 .4-.2-.3-.2-.7-.2-1.1zm.3-1.6c.4.2.9.4 1.3.6.2.1.3.2.5.2 0 .1-.1.2-.1.3-.2 0-.3-.1-.5-.1-.5-.1-1-.2-1.5-.1.1-.3.1-.6.3-.9zm.6-1.3c.5.4 1 .9 1.6 1.2-.1.2-.2.3-.3.5-.1 0-.2-.1-.3-.1-.5-.2-1.1-.4-1.6-.6.2-.4.4-.7.6-1zm.5 6.5c.5-.4 1.1-.9 1.5-1.4l.3.3c-.2.2-.3.4-.4.6-.3.3-.5.7-.8 1-.2-.1-.4-.3-.6-.5zm3.5 1.6c.1-.7.2-1.3.2-2h.2c-.1.7-.1 1.4 0 2h-.4zm3.7-1.3c-.4-.5-.9-1-1.3-1.5.2-.2.4-.4.5-.6.5.4 1.1.8 1.7 1.2-.3.2-.6.6-.9.9z" fill="#7c0200" stroke-width="none" opacity="1"></path><path id="SvgjsPath10496" d="M119.9 90.6c1.6 0 2.9 1.3 2.9 2.9s-1.3 2.9-2.9 2.9-2.9-1.3-2.9-2.9 1.3-2.9 2.9-2.9z" fill="#000000" stroke-width="none" opacity="1"></path><path id="SvgjsPath10497" d="M118.3 91c.6 0 1.1.5 1.1 1.1s-.5 1.1-1.1 1.1-1.1-.5-1.1-1.1.5-1.1 1.1-1.1zm3.6 4.1c.4 0 .6.3.6.6s-.3.6-.6.6-.6-.3-.6-.6.3-.6.6-.6z" fill="#ffffff" stroke-width="none" opacity="1"></path></g></g></g><g id="svga-group-eyesfront-right"><path id="SvgjsPath10367" d="M120 83.1c-5.9 0-10.6 5.2-10.6 11.5s4.7 11.5 10.6 11.5 10.6-5.2 10.6-11.5-4.8-11.5-10.6-11.5zm-.1 18.7c-3.8-.6-6.7-3.6-7.3-4.1-.6-.6-1.9-2.8-1.9-2.8s.7-2.1 2.6-3.5 5-2.8 8.5-1.5 8 5.4 8 5.4 0 2.1-1.6 3.9c-1.7 1.8-4.5 3.1-8.3 2.6z" fill="#ebaa82" stroke-width="none" opacity="1" stroke="none"></path><path id="SvgjsPath10370" d="M110.7 94.1c.7-4.8 5.1-8.4 10-7.4 4.1.8 6.3 4.5 8.5 7.7.2.2.5 0 .4-.2-2.3-3.9-5.6-8.1-10.6-8.1-4.6.1-7.9 3.6-8.3 8-.1.1 0 .1 0 0z" fill="#dc9164" stroke-width="none" opacity="1" stroke="none"></path><path id="SvgjsPath10371" d="M131.1 95.6c-3.2-2.8-7-6.6-11.5-6.8-4-.3-7.8 2.4-9.2 6.1-.1.2.1.3.3.3 1.9 4.2 6.6 7.2 11.2 7.2 4.1 0 7.5-2.6 8.2-6.5l.9.3c.1 0 .3-.4.1-.6zm-11.5 5.8c-3.9-.7-6.6-3.3-8.8-6.4 2.2-4.3 7-6.4 11.5-4.2 2.6 1.3 4.5 3.5 7.1 4.8-.6 4.6-5.6 6.6-9.8 5.8z" fill="#210d34" stroke-width="none" opacity="1" stroke="none"></path></g></g></g><g id="svga-group-facehighlight-single"></g><g id="svga-group-eyebrows-left-move" transform="matrix(1,0,0,1,0,0)"><g id="svga-group-eyebrows-left-rotate" transform="matrix(1,0,0,1,0,0)"><g id="svga-group-eyebrows-left" transform="matrix(1,0,0,1,0,0)"><path id="SvgjsPath10296" d="M72.61 81.6c.54-.64 1.34-1.05 2.14-1.38.01-.03.02-.05.05-.08.41-.33.91-.56 1.44-.72.37-.22.82-.36 1.3-.44.02-.05.06-.11.13-.13.52-.22 1.1-.13 1.65-.05.01-.01.01-.02.02-.02.28-.21.65-.19 1.02-.1.08-.13.23-.22.39-.22.2.01.41.04.6.07.31.02.64.1.95.21.04-.01.09-.04.14-.04 1.36-.19 2.89.45 4.19.84 1.33.4 2.76.72 3.88 1.57.19.14.18.44.02.6 1.01.59 2.09 1.34 2.52 2.36.06.06.11.14.14.24.06.07.12.15.18.23.38.42.3.94.01 1.33.18.37-.02.94-.42 1.12-.96.45-1.86-.62-2.51-1.35-.1-.07-.18-.13-.27-.19-.63-.47-1.18-.92-1.48-1.62-.16-.17-.32-.36-.47-.54-.86-.45-1.68-1-2.54-1.47-.72-.4-1.58-.74-2.25-1.25-.15-.07-.28-.17-.4-.29-.02.01-.04.02-.06.02-.54-.01-1.05-.26-1.56-.46-.65-.1-1.32-.17-1.98-.24-.27-.02-.55-.03-.83-.05-.04.03-.08.06-.14.07-.68.07-1.34.18-1.98.39-.3.09-.58.21-.87.31-.97.46-1.84 1.14-2.85 1.51-.12.01-.24-.14-.16-.23z" fill="#4e4341" stroke-width="none" opacity="1"></path><path id="SvgjsPath10297" d="M78.07 79.27c3.13-1.57 6.98.79 9.72 3.13-.88-1.12-1.8-2.11-2.82-3.16-.2-.2-.01-.52.27-.43 1.3.46 2.22 1.82 2.99 2.9.79 1.13 1.55 2.27 2.54 3.23-.33-.73-.58-1.46-1.03-2.14-.42-.66-.94-1.23-1.29-1.94-.13-.26.23-.5.44-.32 1.9 1.65 2.04 4.45 3.97 5.98.09.08.07.25-.07.25-.25 0-.47-.06-.67-.16-.06-.01-.12-.03-.19-.04-.07.01-.09-.06-.07-.1-.15-.11-.3-.25-.42-.4-.03 0-.05-.01-.08-.02-.82-.45-1.48-1.04-2.06-1.72-1.63-.93-2.99-2.27-4.59-3.25-2.11-1.3-4.09-1.59-6.51-1.43-.28.02-.33-.28-.13-.38z" fill="#5d5857" stroke-width="none" opacity="1"></path><path id="SvgjsPath10298" d="M93.75 83.92c-1.19-1.69-3.03-3.02-4.84-3.99-7.92-4.23-18.07-1.06-21.89 7.16-.14.3.3.48.45.2.01-.01.02-.03.03-.04.03-.01.06-.03.07-.06 1.97-2.25 3.79-4.39 6.47-5.83 2.71-1.47 5.73-1.75 8.67-.8 2.79.9 4.68 2.62 6.59 4.75.9 1 2.44 2.59 3.98 2.02 1.51-.56 1.21-2.36.47-3.41zm-.47.63c-.03 1.91-.6 2.52-1.72 1.82-.68-.35-1.23-.93-1.75-1.48-1.66-1.76-3.23-3.36-5.5-4.33-2-.86-4.31-1.26-6.48-1.01-1.56.17-3.26.8-4.87 1.72 2.41-1.59 5.22-2.54 8.22-2.55 2.74-.01 5.49.74 7.86 2.12 1.36.79 2.65 1.8 3.68 3 .21.22.39.46.56.71z" fill="#3f312e" stroke-width="none" opacity="1"></path></g></g></g><g id="svga-group-eyebrows-right-move" transform="matrix(1,0,0,1,0,0)"><g id="svga-group-eyebrows-right-rotate" transform="matrix(1,0,0,1,0,0)"><g id="svga-group-eyebrows-right" transform="matrix(1,0,0,1,0,0)"><path id="SvgjsPath10299" d="M127.41 81.68c-.53-.64-1.33-1.07-2.12-1.4a.177.177 0 0 0-.05-.08c-.4-.34-.9-.57-1.43-.74-.37-.22-.81-.37-1.3-.45a.25.25 0 0 0-.13-.14c-.52-.22-1.1-.14-1.65-.07-.01-.01-.01-.02-.02-.02-.28-.21-.65-.2-1.01-.11a.476.476 0 0 0-.39-.23c-.2.01-.41.03-.6.06-.31.01-.65.1-.95.2-.04-.01-.09-.04-.14-.05-1.36-.21-2.9.42-4.2.79-1.33.39-2.77.69-3.9 1.53-.19.14-.18.44-.03.6-1.01.58-2.1 1.32-2.54 2.33-.06.06-.11.14-.14.24-.06.07-.12.15-.18.23-.38.42-.31.94-.02 1.33-.18.37.01.94.4 1.12.95.46 1.87-.6 2.53-1.32.1-.07.19-.13.27-.19.64-.46 1.19-.91 1.49-1.6.16-.17.32-.36.47-.54.87-.44 1.69-.98 2.55-1.45.72-.39 1.58-.72 2.27-1.23.15-.07.28-.17.41-.29.02.01.04.02.06.02.54-.01 1.06-.25 1.56-.44.66-.1 1.32-.16 1.98-.22.27-.02.55-.03.83-.05.04.03.08.06.14.07.68.08 1.34.19 1.98.41.3.1.58.22.87.32.96.47 1.83 1.16 2.83 1.54.12.07.24-.07.16-.17z" fill="#4e4341" stroke-width="none" opacity="1"></path><path id="SvgjsPath10300" d="M121.98 79.29c-3.12-1.61-6.99.71-9.75 3.02.89-1.12 1.82-2.1 2.86-3.13.2-.2.02-.52-.26-.43-1.31.44-2.24 1.8-3.02 2.87-.8 1.13-1.58 2.25-2.57 3.21.34-.73.6-1.45 1.05-2.13.43-.66.96-1.22 1.31-1.92.13-.26-.22-.5-.44-.32-1.92 1.63-2.09 4.43-4.04 5.94-.09.08-.07.25.07.25.25 0 .47-.06.67-.15.06-.01.12-.03.19-.04.07.01.09-.06.07-.1.15-.11.3-.25.43-.39.03 0 .05-.01.08-.02.83-.44 1.49-1.03 2.08-1.69 1.63-.91 3.02-2.24 4.63-3.2 2.12-1.28 4.1-1.55 6.53-1.36.25 0 .31-.31.11-.41z" fill="#5d5857" stroke-width="none" opacity="1"></path><path id="SvgjsPath10301" d="M106.68 87.2c1.53.59 3.09-.97 4-1.97 1.93-2.11 3.84-3.81 6.64-4.68 2.96-.93 5.97-.61 8.67.89 2.66 1.48 4.46 3.63 6.41 5.9.03.02.05.05.07.06.01.01.02.03.03.04.15.28.59.1.46-.2-3.74-8.25-13.85-11.53-21.82-7.39-1.82.95-3.66 2.27-4.88 3.94-.76 1.03-1.08 2.83.42 3.41zm.59-3.49c1.04-1.19 2.35-2.19 3.71-2.96a15.56 15.56 0 0 1 7.89-2.04c2.98.04 5.8 1.01 8.19 2.64-1.59-.93-3.28-1.58-4.85-1.77-2.16-.26-4.47.12-6.49.94-2.28.94-3.87 2.53-5.55 4.27-.53.54-1.07 1.11-1.77 1.46-1.13.69-1.7.08-1.7-1.84.18-.25.37-.49.57-.7z" fill="#3f312e" stroke-width="none" opacity="1"></path></g></g></g><g id="svga-group-beardwrap" transform="matrix(1,0,0,1,0,0)"><g id="svga-group-beard-single-move" transform="matrix(1,0,0,1,0,0)"><g id="svga-group-beard-single" transform="matrix(1,0,0,1,0,0)"></g></g></g><g id="svga-group-mustache-single-move" transform="matrix(1,0,0,1,0,0)"><g id="svga-group-mustache-single" transform="matrix(1,0,0,1,0,0)"></g></g><g id="svga-group-nose-single-move" transform="matrix(1,0,0,1,0,0)"><g id="svga-group-nose-single" transform="matrix(1,0,0,1,0,2)"><path id="SvgjsPath10533" d="M104.66 106.24s.9-.28 1.41.67c.51.95 1.27 3.18 1.65 4.2.38 1.02.76 2.48.45 3.05s-2.16 1.72-4.13 1.46c0 0-.76 2.23-1.27 3.05-.51.83-1.91 1.91-3.43 1.21-1.53-.7-1.72-2.42-2.23-3.24-.51-.83-1.14-1.14-1.14-1.14s-2.35.19-2.93 0c-.57-.19-1.34-1.46-1.02-3.24.32-1.78 1.14-4.64 1.59-5.15s.97-1.18 1.95-.66c0 0 .98-14.67 1.29-15.94.32-1.27 3.24-2.35 5.98-.45l1.83 16.18z" fill="#ebaa82" stroke-width="none" opacity="1"></path><path id="SvgjsPath10534" d="M106.52 113.45c.17-.17 0-.55-.26-.44-.91.38-1.57.93-2.17 1.72-.81 1.06-1.05 3.04-1.94 3.92-3.05 3-4.02-1.38-5.1-2.76-.8-1.03-1.76-1.69-2.94-2.21-.22-.1-.4.19-.19.32.54.34 1.04.72 1.5 1.14-.28-.1-.53-.14-.9-.14-.26 0-.65.15-.9.08-.69-.21-1.08-1.19-1.16-1.87-.11-.98.99-7.38 2.75-6.44 0 .26 0 .53.01.79.01.29.47.38.53.07.73-3.57.64-7.48.88-11.12.26-3.94.67-7.92.8-11.86.01-.19-.27-.18-.29 0-.47 3.79-.67 7.65-1.03 11.46-.31 3.24-.88 6.66-.91 9.95-1.7-1.5-3.12 4.31-3.25 5.06-.21 1.15-.76 3.01-.03 4.09.83 1.24 2.38.4 3.55.78.24.08.43-.11.46-.32.2.22.4.46.57.71.64.91.91 1.98 1.51 2.9.59.89 1.44 1.61 2.58 1.5 1.13-.11 1.98-1.01 2.49-1.94.46-.82.66-1.76 1.08-2.6.6-1.16 1.48-1.91 2.36-2.79z" fill="#bd6630" stroke-width="none" opacity="1"></path><path id="SvgjsPath10535" d="M107.63 110.22c-.28-.7-1.23-4.75-2.63-4.19-.24-3.09-.81-6.21-1.15-9.26-.41-3.59-.76-7.2-1.3-10.77-.02-.14-.26-.11-.25.03.25 3.85.71 7.7 1.1 11.53.36 3.57.43 7.3 1.15 10.82.07.32.57.25.57-.08-.01-.59-.04-1.19-.08-1.79.88-.12 1.95 3.85 2.07 4.2.21.6.53 1.23.66 1.85.39 1.92-.67 2.25-2.14 2.82-.35.13-.21.62.15.56 1.02-.17 2.19-.56 2.68-1.56.64-1.32-.35-2.95-.83-4.16z" fill="#bd6630" stroke-width="none" opacity="1"></path><path id="SvgjsPath10536" d="M102.6 109.76c-.39-.4-1.12-.32-1.39.18-.42.77-.18 1.67-.31 2.51-.12.79-.38 1.58-.36 2.38.01.22.23.42.45.34.96-.32 1.58-1.25 1.87-2.19.31-1.01.53-2.4-.26-3.22z" fill="#f3b792" stroke-width="none" opacity="1"></path><path id="SvgjsPath10537" d="M101.39 96.01c-.21-2.89-.25-5.79-.61-8.67-.02-.14-.2-.14-.21 0-.62 5.58-.23 11.88.96 17.39.07.31.56.24.55-.07-.11-2.89-.48-5.77-.69-8.65z" fill="#f3b792" stroke-width="none" opacity="1"></path></g></g><g id="svga-group-hair-front" transform="matrix(1,0,0,1,0,0)"><path id="SvgjsPath10465" d="M84.9 37.3s1 3.5 4.1 5.4c3.1 1.9 8.7 2.5 8.7 2.5s6.6 1.3 8.9.8c2.3-.5 5.9-2.2 5.9-2.2s1.4-.2 2.4-1.8.3-4.4.3-4.4-1.6-3-6.7-3.2c0 0-4.8-1-7.2-.7-2.4.2-3.3 1-3.3 1s-3.9-.4-7.2 1.1c.1-.2-3.6 0-5.9 1.5zm52.9 20.9s3.6 2.5 3.7 7.5c0 0 1.7.8 1.6 6 0 0 1.4 2.5 1 6.3 0 0 .7 1.7.1 4-.2.7.7 3.6.2 4.5-3.4 5.5-5.6 4.5-5.6 4.5s-1.3-.7-.4-2.9c0 0-2.7.4-1.2-5.4 0 0-1.8-.3-1.2-3.5 0 0-1.7-1.8-.4-5.4 0 0-1.4-2-.1-4.3-.1 0 2-7.3 2.3-11.3zm-75.6 0s-3.6 2.5-3.7 7.5c0 0-1.7.8-1.6 6 0 0-1.4 2.5-1 6.3 0 0-.7 1.7-.1 4 .2.7-.7 3.6-.2 4.5C59 92 61.3 91 61.3 91s1.3-.7.4-2.9c0 0 2.7.4 1.2-5.4 0 0 1.8-.3 1.2-3.5 0 0 1.7-1.8.4-5.4 0 0 1.4-2 .1-4.3 0 0-2.1-7.3-2.4-11.3z" fill="#4e4341" stroke-width="none" opacity="1" stroke="none"></path><path id="SvgjsPath10466" d="M136.2 70.3c.1-.9.1-1.9.2-2.8-.3.8-.6 1.6-1 2.2-.1.1-.2 0-.2-.1.4-2 1.1-3.8 1.4-5.8.3-2 .4-4 .7-6 0-.2.2-.2.3-.2h.1c2.6 1.1 4.2 5 4.3 8.4.1-.2.4-.3.5-.1.8 1.4 1 3.3.9 5.2.8 1.9 1.1 4.1.9 6.1 0 0 .1 0 .1.1.3 1.4.4 3.2.1 5 2.3 3.2-1.8 8.4-4.6 9.3-.3.1-.4-.3-.3-.5.9-1.2 2.3-1.9 3.2-3.1 1.1-1.4 1.3-2.8 1.3-4.3-.6 2.3-1.8 4.5-3.4 5.6-.1.1-.2-.1-.2-.2 1-1.9 2.2-3.3 2.9-5.4.5-1.6.6-3.3.7-5-.1.5-.2 1-.4 1.4-.1.2-.4.2-.4-.1.2-2.6.2-4.9-.1-7.4-.2.9-.5 1.8-.8 2.5-.1.3-.5.1-.4-.2.3-1.5.6-3.2.6-4.7 0-1.3-.4-2.6-.4-3.9 0 1.1-.1 2.1-.4 2.9-.1.2-.4.1-.4-.1-.1-2.1 0-4.1-.7-6.1-.6-1.8-1.7-2.9-2.6-4.3 0 2.6-.4 5.4-1.2 7.9.1 0 .3 0 .3.2.6 2.2-.1 5.1-1.2 6.9-.1.2-.5.1-.4-.2 0-1 .4-2.1.6-3.2zm1.9 3.2c.4-1.8.4-3.6.6-5.4 0-.2.4-.2.4 0 .4 2.2.1 4.8-.7 7.2.1 0 .2.1.2.2.2 2.5-.4 5.1-1.3 7.3-.1.2-.3.1-.3-.1.6-2.2.8-4.3 1-6.5-.5 1.2-1.1 2.3-1.8 3.2-.2.3-.6-.1-.4-.3 1-1.9 1.8-3.6 2.3-5.6zm3.1 7c.1-.3.5-.3.5.1-.2 2.8-1.5 5.4-3.1 7.6-.1.2-.5-.1-.4-.3 1.5-2.4 2.2-4.8 3-7.4zm-.6 5.6c.1-.2.4-.2.4.1-.1 1.8-.8 3.8-2.1 5-.2.2-.5 0-.4-.3.7-1.6 1.4-3.1 2.1-4.8zM63.8 70.3c-.2-.9-.2-1.9-.2-2.8.3.8.6 1.6 1 2.2.1.1.2 0 .2-.1-.4-2-1.1-3.8-1.4-5.8-.3-2-.4-4-.7-6 0-.2-.2-.2-.3-.2-2.5 1.1-4.2 5-4.3 8.4 0-.2-.4-.3-.5-.1-.8 1.4-1 3.3-.9 5.2-.8 1.9-1.1 4.1-.9 6.1 0 0-.1 0-.1.1-.3 1.4-.3 3.2 0 5-2.3 3.2 1.8 8.4 4.6 9.3.3.1.4-.3.3-.5-.8-1.2-2.3-1.9-3.2-3.1-1.1-1.4-1.3-2.8-1.3-4.3.6 2.3 1.8 4.5 3.4 5.6.1.1.2-.1.2-.2-1-1.9-2.2-3.3-2.8-5.4-.5-1.6-.6-3.3-.7-5 .1.5.2 1 .4 1.4.1.2.4.2.4-.1-.2-2.6-.2-4.9.1-7.4.2.9.5 1.8.8 2.5.1.3.5.1.4-.2-.3-1.5-.6-3.2-.6-4.7 0-1.3.3-2.6.4-3.9 0 1.1.1 2.1.4 2.9.1.2.4.1.4-.1.1-2.1 0-4.1.7-6.1.6-1.8 1.7-2.9 2.6-4.3 0 2.6.4 5.4 1.2 7.9-.1 0-.3 0-.3.2-.6 2.2.1 5.1 1.2 6.9.1.2.5.1.4-.2-.4-1-.7-2.1-.9-3.2zm-1.9 3.2c-.4-1.8-.4-3.6-.6-5.4 0-.2-.4-.2-.4 0-.4 2.2-.1 4.8.7 7.2-.1 0-.2.1-.2.2-.2 2.5.4 5.1 1.3 7.3.1.2.3.1.3-.1-.6-2.2-.8-4.3-1-6.5.5 1.2 1.1 2.3 1.8 3.2.2.3.6-.1.4-.3-1-1.9-1.8-3.6-2.3-5.6zm-3.1 7c-.1-.3-.5-.3-.5.1.2 2.8 1.5 5.4 3.1 7.6.2.2.5-.1.3-.3-1.4-2.4-2.1-4.8-2.9-7.4zm.7 5.6c-.1-.2-.4-.2-.4.1.1 1.8.8 3.8 2.1 5 .2.2.5 0 .4-.3-.8-1.6-1.6-3.1-2.1-4.8zm52.3-42.5c-2.2.7-4.2 1.6-6.5 1.8-2.3.2-4.5-.1-6.8-.5-.4-.1-.5.4-.2.6 4.1 1.7 10.2 1.5 13.8-1.4.3-.2 0-.6-.3-.5zm3.7-6.2c-.4-1.2-1.9-2.1-2.9-2.6-1.2-.6-2.5-.8-3.8-.6-.1 0-.1.1-.1.2-3.2-1.7-7.6-1.7-10.6-.3-.1 0-.1.1-.1.1-2.7-.5-5.7-.1-7.8 1.2-1.8-.1-3.7.3-5.1 1.7-.1.1-.1.2-.1.4-.2 0-.6.2-.4.5 1.5 4.6 7.3 8.2 12.2 7.7.4 0 .4-.5.1-.6-2.2-.9-4.4-1.2-6.5-2.3-2.2-1.2-3.7-2.9-5-5h.2c3.9-2.4 7.2-.6 10.9 1.2.2.1.5-.2.3-.4-1.3-1.4-3.2-2.4-5.1-2.9 1.5-.4 3-.7 4.7-.7 2.1.1 3.9.9 5.8 1.6.3.1.5-.3.3-.5-1-.8-2.3-1.3-3.6-1.7 2.3-.5 4.6-.6 6.8 0 2.4.6 3.9 2 5.9 3.2.3.2.6-.2.4-.4-.8-1.2-1.8-2-3-2.7 1.3 0 2.6.5 3.6 1.2.9.6 1.5 1.5 2.4 2.1.1 1.1.5 2 .1 3.1-.3 1.1-1.2 2-2.2 2.7-.3.2-.1.6.2.5 2.3-.9 4.3-4.5 2.4-6.7z" fill="#3f312e" stroke-width="none" opacity="1" stroke="none"></path><path id="SvgjsPath10467" d="M103.8 34.6c-.2 0-.4.3-.1.4 3.7.8 5.9 3.1 8.1 6 .2.2.5 0 .4-.2-1.1-3.5-4.9-5.7-8.4-6.2zm5.5 6.1c-.7-1.5-2.4-2.6-3.8-3.3-.2-.1-.5.2-.2.4.7.4 1.4.9 2 1.5.6.5 1 1.2 1.6 1.7.2.1.5-.1.4-.3zm-11.5-4.2c-.2-.1-.4.3-.2.4 1.4.8 2.8 1.7 3.9 2.8 1.2 1.2 2 2.5 2.9 3.8.2.3.7.1.6-.2-1.1-3.1-4.2-5.7-7.2-6.8zm42.6 29.3c-.1-.2-.4-.1-.3.1.4 2.9.1 5.8-.4 8.6-.1.3.4.4.5.1 1-2.9.9-5.9.2-8.8zm1.4 9.3c-.4 2-1 3.9-1.4 5.9 0 .2.3.4.4.2.9-1.8 1.2-4 1.5-6 0-.3-.4-.3-.5-.1zm.3 3.7c-.2 1.2-.6 2.1-1.1 3.2-.1.2.2.4.3.3.8-.9 1.2-2.2 1.3-3.4.1-.3-.4-.4-.5-.1zm-77.6-2.2c-1-1.7-2-3.1-2.2-5.1 0-.3-.5-.4-.6 0-.1 2 .7 4.3 2.4 5.4.2.2.5-.1.4-.3zm-2.7-11.3c-.1-.3-.5-.2-.5.1.3 1.6.6 3.2 1.2 4.8.1.2.4.2.4-.1-.2-1.6-.7-3.2-1.1-4.8zm-1.3 13.5c-.1-.3-.6-.2-.5.1.3 1.4.4 2.9 1 4.2.1.2.5.1.5-.1 0-1.4-.6-2.8-1-4.2zm78.7-17.6c-.1-.3-.4-.2-.5 0-.3 1-.3 2.1-.4 3.2-.2 1.1-.4 2.1-.6 3.2 0 .3.4.6.5.2.8-1.9 1.4-4.6 1-6.6z" fill="#5d5857" stroke-width="none" opacity="1" stroke="none"></path></g><g id="svga-group-glasses-single-move" transform="matrix(1,0,0,1,0,0)"><g id="svga-group-glasses-single" transform="matrix(1,0,0,1,0,0)"><path id="SvgjsPath10415" d="M67.83 87.53c-1.67 2.99-1.59 9.34 1.67 14.89 3.26 5.55 12.51 5.9 18.06 3.17 5.55-2.73 7.75-8.19 8.02-12.24.26-4.05-3.08-6.34-4.93-7.05-1.85-.7-12.24-2.11-17-1.41s-5.82 2.64-5.82 2.64z" fill="url(#SvgjsLinearGradient10416)" opacity="1"></path><path id="SvgjsPath10419" d="M132.17 87.53c1.67 2.99 1.59 9.34-1.67 14.89-3.26 5.55-12.51 5.9-18.06 3.17-5.55-2.73-7.75-8.19-8.02-12.24-.26-4.05 3.08-6.34 4.93-7.05 1.85-.7 12.24-2.11 17-1.41s5.82 2.64 5.82 2.64z" fill="url(#SvgjsLinearGradient10420)" opacity="1"></path><path id="SvgjsPath10423" d="M119.9 108.32c-4.46 0-8.66-1.44-11.52-3.95-4.42-3.88-5.26-8.58-5.66-10.84-.09-.53-.17-.95-.26-1.21-.52-1.46-1.14-2.2-1.85-2.2h-1.22c-.7 0-1.33.74-1.85 2.2-.09.26-.17.68-.26 1.21-.4 2.26-1.23 6.96-5.66 10.84-2.86 2.51-7.06 3.95-11.52 3.95-2.9 0-5.69-.64-7.64-1.76-5.19-2.96-6.52-9.32-6.85-11.92-.42-3.28-1.72-3.91-2.11-4.02v-5.64c.36-.01 1.44-.05 2.4-.29.06-.01 6.02-1.46 11.79-1.46.95 0 1.85.04 2.67.12 5.44.53 9.82 1.57 13.01 2.33l.71.17c2.22.52 3.79.6 4.52.6.4 0 .61-.02.61-.02h1.59s.21.02.6.02c.74 0 2.3-.08 4.52-.6l.71-.17c3.2-.76 7.57-1.79 13.01-2.33.82-.08 1.72-.12 2.67-.12 5.78 0 11.73 1.45 11.79 1.46.96.24 2.04.28 2.4.29v5.64c-.39.11-1.69.74-2.11 4.02-.33 2.59-1.67 8.95-6.85 11.92-1.95 1.12-4.74 1.76-7.64 1.76zm2.34-22.87c-.77 0-1.54.02-2.26.05-1.34.06-6.94.46-9.79 1.44-2.87.98-4.78 2.91-5 5.02-.25 2.44.55 5.52 2.14 8.22 1.7 2.88 3.93 4.7 6.82 5.56 1.78.53 3.46.78 5.29.78 1.51 0 3.12-.17 4.9-.52 3.17-.63 5.51-2.96 6.96-6.94 1.27-3.5 1.48-8.76-.4-11.16-1.29-1.65-4.13-2.45-8.66-2.45zm-44.47 0c-4.54 0-7.37.8-8.66 2.44-1.88 2.4-1.67 7.67-.4 11.16 1.45 3.98 3.79 6.31 6.96 6.94 1.78.35 3.38.52 4.9.52 1.83 0 3.51-.25 5.29-.78 2.89-.86 5.12-2.68 6.82-5.56 1.59-2.7 2.39-5.77 2.14-8.22-.22-2.11-2.13-4.04-5-5.02-2.86-.98-8.45-1.39-9.79-1.44-.73-.02-1.49-.04-2.26-.04z" fill="#000000" stroke-width="none" opacity="1"></path><path id="SvgjsPath10424" d="M122.31 83.36c5.76 0 11.7 1.44 11.76 1.46.88.22 1.86.28 2.31.29v5.43c-.5.19-1.71.97-2.11 4.09-.33 2.58-1.65 8.89-6.79 11.82-1.93 1.11-4.7 1.74-7.58 1.74-4.43 0-8.6-1.43-11.44-3.92-4.39-3.85-5.22-8.52-5.62-10.77-.1-.56-.17-.96-.27-1.23-.55-1.53-1.19-2.28-1.96-2.28h-1.22c-.77 0-1.42.75-1.96 2.28-.1.27-.17.67-.27 1.23-.4 2.24-1.23 6.92-5.62 10.77-2.84 2.49-7.01 3.92-11.44 3.92-2.88 0-5.64-.63-7.58-1.74-5.14-2.94-6.46-9.25-6.79-11.82-.4-3.12-1.61-3.9-2.11-4.09v-5.43c.45-.01 1.43-.07 2.31-.29.06-.01 6-1.46 11.76-1.46.95 0 1.84.04 2.66.12 5.43.53 9.8 1.57 12.99 2.32l.71.17c2.23.53 3.81.6 4.55.6.38 0 .59-.02.6-.02h1.58s.21.02.62.02c.74 0 2.32-.08 4.55-.6l.71-.17c3.19-.76 7.56-1.79 12.99-2.32.82-.08 1.72-.12 2.66-.12m-2.88 23.28c1.52 0 3.13-.17 4.92-.53 3.22-.64 5.59-3 7.05-7.02 1.28-3.53 1.49-8.84-.42-11.28-1.31-1.68-4.17-2.49-8.75-2.49-.69 0-1.43.02-2.27.05-1.35.06-6.96.47-9.83 1.45-2.91 1-4.86 2.96-5.08 5.13-.26 2.47.55 5.57 2.16 8.29 1.71 2.91 3.97 4.74 6.89 5.61 1.8.54 3.49.79 5.33.79m-38.86 0c1.84 0 3.53-.25 5.32-.78 2.92-.87 5.18-2.71 6.89-5.61 1.61-2.72 2.41-5.82 2.16-8.29-.22-2.16-2.17-4.13-5.08-5.13-2.87-.98-8.48-1.39-9.83-1.45-.84-.04-1.58-.05-2.27-.05-4.58 0-7.44.82-8.75 2.49-1.9 2.44-1.7 7.75-.42 11.28 1.46 4.02 3.83 6.38 7.05 7.02 1.8.35 3.41.52 4.93.52m41.74-23.53c-.91 0-1.82.04-2.68.12-5.86.58-10.47 1.73-13.74 2.5-2.18.51-3.71.6-4.5.6-.39 0-.59-.02-.59-.02h-1.6s-.2.02-.59.02c-.78 0-2.32-.09-4.5-.6-3.27-.77-7.88-1.92-13.74-2.5-.87-.09-1.77-.12-2.68-.12-5.26 0-10.84 1.22-11.82 1.47-1.15.29-2.5.29-2.5.29v5.86s1.63.19 2.11 3.94 2.21 9.32 6.92 12.01c1.98 1.13 4.75 1.77 7.7 1.77 4.05 0 8.44-1.2 11.61-3.98 5.48-4.8 5.48-10.76 5.96-12.1.48-1.34 1.06-2.11 1.73-2.11h1.22c.67 0 1.25.77 1.73 2.11.48 1.34.48 7.3 5.96 12.1 3.17 2.78 7.56 3.98 11.61 3.98 2.95 0 5.72-.64 7.7-1.77 4.71-2.69 6.44-8.26 6.92-12.01.48-3.75 2.11-3.94 2.11-3.94v-5.86s-1.34 0-2.5-.29c-1-.25-6.58-1.47-11.84-1.47zm-2.88 23.28c-1.96 0-3.64-.29-5.25-.77-2.8-.83-5.01-2.55-6.75-5.5-1.74-2.95-2.35-5.95-2.12-8.14.23-2.19 2.27-4.01 4.92-4.92 2.65-.91 7.94-1.36 9.76-1.44.73-.03 1.49-.05 2.26-.05 3.41 0 7.01.42 8.56 2.4 1.89 2.42 1.59 7.71.38 11.04-1.21 3.33-3.25 6.14-6.87 6.86-1.85.36-3.44.52-4.89.52zm-38.86 0c-1.45 0-3.04-.16-4.87-.52-3.62-.71-5.66-3.53-6.87-6.86-1.21-3.33-1.51-8.62.38-11.04 1.54-1.97 5.15-2.4 8.56-2.4.77 0 1.53.02 2.26.05 1.82.08 7.11.53 9.76 1.44 2.65.91 4.69 2.72 4.92 4.92.23 2.19-.38 5.19-2.12 8.14-1.74 2.95-3.95 4.67-6.75 5.5-1.63.48-3.31.77-5.27.77z" fill="#000000" stroke-width="none" opacity="1"></path></g></g></g></g></g><rect id="svga-credit-rect" width="200" height="15" x="0" y="185" fill="#ecf0f1" opacity="0.5" style="display: none;"></rect><text id="svga-credit-text" font-family="Avenir Next, Roboto, Helvetica, Arial, sans-serif" font-size="10px" text-anchor="start" font-weight="400" size="10px" anchor="start" weight="400" fill="#333333" x="33.40447998046875" y="182.60824704170227" style="display: none;"><tspan id="SvgjsTspan9705" dy="13" x="33.40447998046875">Created on AvatarMaker.com</tspan></text></g></svg>