<svg xmlns="http://www.w3.org/2000/svg" version="1.1" width="600px" height="600px" viewBox="0 0 200 200" style="overflow:hidden!important;"><defs id="SvgjsDefs13955"></defs><g id="svga-group-wrapper"><g id="svga-group-backs-single"></g><g id="svga-group-humanwrap-move" transform="matrix(1,0,0,1,0,0)"><g id="svga-group-humanwrap" transform="matrix(1,0,0,1,0,0)"><g id="svga-group-hair-back-move" transform="matrix(1,0,0,1,0,0)"><g id="svga-group-hair-back" transform="matrix(1,0,0,1,0,0)"></g></g><g id="svga-group-humanbody-back"><path id="SvgjsPath14375" d="M166.5 181.1c-10.9-6.6-24-7.8-31-12.1s-9.1-4.7-8.9-17.8 1.9-42.4 1.9-42.4H71.4s1.6 29.4 1.9 42.4-1.9 13.5-8.9 17.8-20.1 5.4-31 12.1c-10.8 6.6-10 18.9-10 18.9v19.7h153.3V200c-.1 0 .7-12.3-10.2-18.9z" fill="#d79468" stroke-width="none" opacity="1" stroke="none"></path></g><g id="svga-group-chinshadow-single"><path id="SvgjsPath14657" d="M127.2 160.2c-.5-2.1-.6-4.9-.5-9 .3-13 1.9-42.4 1.9-42.4H71.4s1.6 29.4 1.9 42.4c.1 4-.1 6.8-.5 8.9 4.9 5.2 14.7 6.9 27.2 6.9 12.5.1 22.3-1.7 27.2-6.8z" fill="#b86934" stroke-width="none" opacity="1" stroke="none"></path></g><g id="svga-group-humanbody-front"><path id="SvgjsPath14376" d="M176.7 197.2c-.1-.9-.3-1.9-.5-2.8-.4-1.8-1.1-3.6-2-5.3-.4-.8-.9-1.6-1.5-2.4-.5-.8-1.1-1.5-1.8-2.2-1.3-1.4-2.8-2.6-4.4-3.5-3.5-2.1-7.2-3.7-11.1-5.1-1.9-.7-3.8-1.3-5.8-1.9-1.9-.6-3.9-1.2-5.8-1.8-1.9-.6-3.8-1.3-5.6-2.2-.9-.4-1.8-.9-2.6-1.4L133 167c-1.7-1.1-3.3-2.2-4.2-3.9-.2-.4-.4-.8-.6-1.3-.2-.5-.3-.9-.4-1.4-.2-.9-.3-1.9-.4-2.9-.1-2-.1-4 0-6s.2-4 .3-6.1c.2-4 .4-8.1.6-12.1l1.3-24.3.1-1.2h-1.2c-4.8 0-9.5.1-14.3.1l-14.2.1-28.6.4h-.5v.5c.6 10 1.2 19.9 1.6 29.9.2 5 .4 10 .4 15 0 1.2-.1 2.5-.2 3.7s-.3 2.4-.6 3.6c-.3 1.1-.9 2.2-1.7 3.1-.8.9-1.8 1.6-2.8 2.2-1 .7-2.1 1.3-3.2 1.9-.5.3-1.1.6-1.6.9-.5.3-1.1.5-1.7.8-2.3.9-4.6 1.6-7 2.3-4.8 1.4-9.7 2.7-14.4 4.6-2.3 1-4.6 2.1-6.8 3.4-2.2 1.3-4.3 3.1-5.9 5.2-1.6 2.1-2.8 4.4-3.6 6.9-.4 1.2-.7 2.5-.9 3.8-.1.6-.2 1.3-.2 2 0 .3 0 .7-.1 1v20.9h154.6l.1-20c0-1.1-.1-2-.2-2.9zM24.6 217.7v-19.5c0-.6.1-1.2.2-1.8.2-1.2.4-2.3.8-3.5.7-2.3 1.8-4.4 3.2-6.3 1.4-1.9 3.2-3.5 5.2-4.7 2.1-1.3 4.3-2.4 6.5-3.4 4.5-2 9.3-3.4 14.1-4.9 2.4-.8 4.8-1.5 7.1-2.6.6-.3 1.2-.5 1.7-.8.3-.2.6-.3.8-.5.3-.2.6-.3.8-.5 1.1-.7 2.1-1.3 3.2-2s2.1-1.5 3-2.5c.4-.5.8-1.1 1.1-1.7.3-.6.5-1.2.7-1.8.4-1.3.5-2.5.6-3.8s.1-2.5.1-3.8 0-2.5-.1-3.8l-.1-3.7-.3-7.5-1.2-29.2 28 .4 14.3.2c4.4 0 8.7.1 13.1.1-.4 7.7-.8 15.4-1.1 23.1-.1 4.1-.3 8.1-.4 12.2 0 2-.1 4.1-.1 6.1s0 4.1.2 6.2c.1 1 .3 2.1.5 3.1.1.5.3 1 .5 1.5s.4 1 .7 1.5c.3.5.6.9 1 1.3s.8.8 1.2 1.1c.8.7 1.7 1.2 2.6 1.7l2.6 1.5c.9.5 1.8 1 2.8 1.4 1.9.8 3.8 1.4 5.8 2 3.9 1.1 7.8 2.2 11.7 3.5 1.9.6 3.8 1.4 5.7 2.2 1.8.8 3.6 1.8 5.4 2.8 1.6 1 3 2.2 4.3 3.5.6.7 1.2 1.4 1.7 2.2s1 1.6 1.4 2.4c.8 1.7 1.5 3.4 1.9 5.2.2.9.3 1.8.4 2.7.1.8.1 20.6.1 21.4-12.6-.2-151.7-1-151.7-1z" fill="#a9561f" stroke-width="none" opacity="1" stroke="none"></path><path id="SvgjsPath14377" d="M78.7 156.8c.5 4.8 1.7 9.4 3.1 13.9.8 2.3 1.6 4.6 2.6 6.9.8 2 1.7 4.2 3.1 5.9.3.4 1 0 .9-.5-.5-2.2-1.6-4.3-2.4-6.4-.9-2.2-1.7-4.4-2.5-6.6-1.5-4.4-2.8-8.9-4.1-13.3-.2-.4-.8-.3-.7.1zm41.3-1c-1.3 8.2-3.9 16.1-5.4 24.2-.1.4.4.5.6.2 3.1-7.7 4.1-16.1 5.1-24.3-.1-.2-.3-.2-.3-.1zm-25.8 11.9c-.9 3.6 1.9 8.6 6.2 7.6.5-.1.4-.8 0-1-1.4-.5-2.9-.9-3.9-2.1-1.1-1.2-1.5-2.9-1.4-4.5 0-.4-.8-.5-.9 0z" fill="#b86934" stroke-width="none" opacity="1" stroke="none"></path></g><g id="svga-group-clothes-single"><path id="SvgjsPath14561" d="M179.3 220.1c0-17.5-1.6-26.7-1.6-26.7-3-14-20.7-19.7-29.5-21.6-8.7-1.9-14.1-5-16.1-6.2-2.3-1.4-3.2-3.1-3.2-3.1S120.6 182 99.5 182 71 162.5 71 162.5s-.9 1.7-3.2 3.1c-2 1.2-7.4 4.4-16.1 6.2-8.7 1.9-26.5 7.6-29.5 21.6 0 0-1.6 9.2-1.6 26.7h158.7z" fill="#1e78a2" stroke-width="none" opacity="1"></path><path id="SvgjsPath14562" d="M179.6 209.2c-.1-3.6-.2-7.3-.5-10.9l-.3-2.7c-.1-.9-.1-1.8-.4-2.8l-.4-1.4c-.1-.5-.2-.9-.4-1.4l-.6-1.3-.3-.6-.4-.6c-1.8-3.3-4.5-6.1-7.5-8.3-3-2.2-6.3-3.9-9.8-5.4-3.4-1.4-7-2.5-10.6-3.3-3.5-.8-6.9-1.8-10.1-3.2-1.6-.7-3.2-1.5-4.7-2.4-.8-.5-1.5-.9-2.1-1.4-.3-.2-.6-.5-.9-.8-.2-.3-.5-.6-.6-.8-.1-.2-.3-.4-.6-.5-.7-.3-1.5 0-1.8.7-.6 1.2-1.3 2.6-2.2 3.8-.8 1.2-1.7 2.4-2.6 3.6-1.9 2.3-4.1 4.3-6.5 6.1-4.8 3.6-10.7 5.4-16.6 5.6-.8 0-1.5 0-2.2-.1-.8-.1-1.5 0-2.2-.1-1.5-.2-3-.4-4.4-.9l-1.1-.3-.5-.1-.5-.2-2.1-.9c-.7-.3-1.3-.7-2-1.1-.7-.3-1.3-.8-1.9-1.2-5-3.4-8.9-8.4-11.4-13.9 0-.1-.1-.2-.2-.2-.2-.1-.5-.1-.6.1-.4.7-1 1.4-1.7 1.9-.7.6-1.4 1-2.2 1.4-1.6.9-3.2 1.7-4.8 2.4-3.3 1.4-6.8 2.4-10.3 3.2-7.1 1.5-14.2 3.9-20.4 8.1-3 2.1-5.8 4.8-7.8 8.1l-.4.6-.3.6-.6 1.3c-.2.4-.4.9-.5 1.4l-.4 1.4c-.3 1-.3 1.9-.5 2.8l-.3 2.7c-.8 7.3-1.1 14.6-1.2 21.9 0 .8.6 1.4 1.4 1.4l40 .2c13.3 0 26.7-.1 39.9-.2l39.7-.5 19.7-.3 19.5-.4c.2-3.9.2-7.4.2-11.1zM22.8 198.5l.3-2.7.2-1.3.1-.7c0-.2.1-.4.1-.6l.3-1.2c.1-.4.2-.8.4-1.2l.5-1.2.2-.6.3-.6c1.7-3 4.2-5.6 7-7.7l.9-.6c1.1 1.1 2 2.4 2.8 3.7.9 1.5 1.7 3 2.4 4.6 1.4 3.2 2.4 6.5 3.2 9.9.4 1.7.8 3.4 1.1 5.1.3 1.7.6 3.4.9 5.2.5 3.3 1 6.6 1.5 10l-22.8.1c-.2-6.7 0-13.5.6-20.2zm136.3 21.1-20-.3-39.7-.5c-13.2-.1-26.3-.2-39.4-.2l-15 .1c.3-3.4.2-6.8 0-10.2-.3-3.5-.8-7.1-1.6-10.6-.4-1.7-.9-3.5-1.5-5.2-.6-1.7-1.3-3.4-2.2-4.9-.8-1.6-1.8-3.1-3-4.5-1-1.2-2.1-2.4-3.5-3.2 5.5-3.8 12-6.2 18.6-7.7 3.6-.8 7.1-1.9 10.5-3.4 1.7-.7 3.3-1.6 4.9-2.5 1.4-.8 2.7-1.8 3.7-3.1 1.2 2.6 2.7 5.1 4.5 7.3 1.9 2.4 4.2 4.7 6.7 6.5.6.5 1.3.9 2 1.3s1.3.8 2.1 1.2l2.2 1 .5.2.6.2 1.1.4c1.5.6 3.1.8 4.6 1.1.8.2 1.6.1 2.3.2.8 0 1.6.1 2.4.1 6.3 0 12.8-1.8 18-5.4 2.7-1.8 5-4 7.1-6.4 1.6-1.9 3.1-3.9 4.3-6.2.2.2.4.4.7.6.8.7 1.7 1.2 2.4 1.6 1.6.9 3.3 1.8 5 2.5 3.4 1.5 7 2.5 10.6 3.3 6.5 1.4 13 3.6 18.5 7.2-1.2.9-2.2 1.9-3.2 3.1-1.1 1.4-2.1 2.9-3 4.5-.9 1.6-1.6 3.2-2.2 4.9-.6 1.7-1.1 3.4-1.5 5.2-.8 3.5-1.3 7-1.6 10.6-.2 3.5-.3 7.1 0 10.6l1.5-10.5c.3-1.7.6-3.5.9-5.2.3-1.7.6-3.4 1.1-5.1.8-3.4 1.8-6.7 3.2-9.9.7-1.6 1.5-3.1 2.4-4.6.8-1.2 1.6-2.4 2.6-3.5l.9.6c2.9 2 5.4 4.5 7.2 7.4l.4.6.3.6.6 1.2c.2.4.3.8.4 1.2l.4 1.2c.1.2.1.4.2.6l.1.7.2 1.3.3 2.7c.4 3.6.8 7.2 1 10.8.2 3.6.4 7.3.6 10.8l-20.2-.3zm-42.4-37.2c-5.4 3.1-11.8 4.2-18 3.8-1.6-.1-3.1-.2-4.7-.4-1.5-.2-3.1-.5-4.5-1-1.5-.4-2.9-.9-4.4-1.6-1.4-.7-2.8-1.4-4.1-2.3-2.6-1.7-4.9-3.8-7-6.2-2.1-2.4-3.8-5.1-5.2-7.9 2.1 6.1 6 11.6 11.3 15.4 2.6 1.9 5.6 3.4 8.8 4.4 1.6.5 3.2.8 4.8 1.1 1.6.2 3.2.4 4.9.5 3.3.1 6.6 0 9.8-.8 3.2-.7 6.3-2 9.1-3.7 2.8-1.7 5.3-3.9 7.4-6.3 2.2-2.4 4.1-5 5.8-7.7-4.1 5-8.6 9.7-14 12.7z" fill="#005a83" stroke-width="none" opacity="1"></path></g><g id="svga-group-head" transform="matrix(1,0,0,1,0,0)"><g id="svga-group-ears-left-move" transform="matrix(1,0,0,1,0,0)"><g id="svga-group-ears-left" transform="matrix(1,0,0,1,0,0)"><path id="SvgjsPath14571" d="M62 92.9c-.2-.3-3.3-4.3-5.9-6.7-2.6-2.4-3.4-2.4-4.6-.9-1.3 1.5-2.9 9.1-2.5 12.4.4 3.4 3.6 8.7 5.2 11.7 1.7 3 3.3 6.7 5.1 6.3 1.9-.4 4.4-4.6 5.7-7.7 1.3-3.1.5-10.8-3-15.1z" fill="#d79468" stroke-width="none" opacity="1" stroke="none"></path><path id="SvgjsPath14572" d="M65.8 102c.1.9.2 1.7.2 2.6s0 1.7-.2 2.6c-.1.4-.2.9-.3 1.3-.1.4-.3.7-.4 1.1-.3.7-.6 1.4-1 2.1-.7 1.3-1.5 2.6-2.6 3.6-.5.5-1.1 1-1.8 1.3-.4.1-.9.1-1.3 0-.4-.2-.8-.5-1.1-.8-1.2-1.3-1.9-2.8-2.7-4.3-.7-1.5-1.5-2.9-2.2-4.3-.7-1.5-1.5-2.9-2.1-4.4-.3-.8-.7-1.5-.9-2.3-.3-.8-.5-1.6-.6-2.5-.2-1.7 0-3.4.1-5 .2-1.6.5-3.2.8-4.8.2-.8.4-1.6.8-2.3l.3-.6c.1-.2.3-.4.4-.5.2-.3.5-.6.9-.8.3-.2.8-.3 1.2-.3.4.1.8.3 1.1.5.7.4 1.2 1 1.8 1.5 2.2 2.2 4 4.8 5.9 7.2 1.9 2.4 3.2 5.7 3.7 9.1zM55.7 86.4c-1.1-.9-2.4-1.9-3.1-1.2-.2.1-.4.4-.6.6l-.3.3c-.1.1-.1.3-.2.4-.3.6-.5 1.3-.8 2-.5 1.4-.9 2.9-1.1 4.5-.3 1.5-.5 3.1-.4 4.7.1.8.3 1.6.6 2.3.3.8.6 1.5.9 2.2.7 1.5 1.5 2.8 2.3 4.2.8 1.4 1.7 2.7 2.5 4.1.4.7.8 1.4 1.2 2s.8 1.3 1.3 1.7c.5.4.9.6 1.3.4.5-.2.9-.6 1.4-1.1.9-1 1.6-2.1 2.3-3.4.4-.6.7-1.3 1-1.9.2-.3.3-.7.4-1l.2-.5c0-.2.1-.3.1-.5.3-1.4.4-3 .3-4.6s-.4-3.2-.9-4.8c-.5-1.6-1.2-3-2.2-4.2-1.9-2.1-4-4.3-6.2-6.2z" fill="#c87d4d" stroke-width="none" opacity="1" stroke="none"></path><path id="SvgjsPath14573" d="M51.2 99.4c-.3-2.3-.5-7.8.8-9.6 2.2-2.9 6 6.4 6.9 9.3 0 .1.1.2.1.3.2.3-.1.7-.4.6-.4-.2-.9-.6-1.3-.8-1.1-.5-1.6.5-1.3 1.8.4 1.8 1.4 2.9 2.2 4.3.1.2 0 .4-.2.3-1.6-.9-3.5-4.5-3.1-6.6.3-2 1.9-1.8 3.1-.8-.7-1.7-1.5-3.3-2.5-4.8-.6-.9-1.2-2-2.2-2.2-1.2-.2-1 .3-1.2 1.8-.8 4.8-.3 10.4 2.5 14.5.1.1 0 .2-.1.1-1.8-2.3-3-4.9-3.3-8.2z" fill="#b86934" stroke-width="none" opacity="1" stroke="none"></path></g></g><g id="svga-group-ears-right-move" transform="matrix(1,0,0,1,0,0)"><g id="svga-group-ears-right" transform="matrix(1,0,0,1,0,0)"><path id="SvgjsPath14574" d="M138 92.9c.2-.3 3.3-4.3 5.9-6.7 2.6-2.4 3.4-2.4 4.6-.9 1.3 1.5 2.9 9.1 2.5 12.4s-3.6 8.7-5.2 11.7c-1.7 3-3.3 6.7-5.1 6.3-1.9-.4-4.4-4.6-5.7-7.7s-.5-10.8 3-15.1z" fill="#d79468" stroke-width="none" opacity="1" stroke="none"></path><path id="SvgjsPath14575" d="M138 92.9c1.9-2.4 3.8-5 5.9-7.2.5-.5 1.1-1.1 1.8-1.5.3-.2.7-.4 1.1-.5.4-.1.9.1 1.2.3.3.2.6.5.9.8.1.1.2.3.4.5l.3.6c.3.7.6 1.5.8 2.3.4 1.6.7 3.2.8 4.8.2 1.6.3 3.3.1 5-.1.9-.4 1.7-.6 2.5-.3.8-.6 1.6-.9 2.3-.7 1.5-1.4 3-2.1 4.4-.8 1.5-1.5 2.9-2.2 4.3-.8 1.4-1.4 3-2.7 4.3-.3.3-.7.6-1.1.8-.4.2-.9.2-1.3 0-.8-.3-1.3-.8-1.8-1.3-1-1.1-1.8-2.3-2.6-3.6-.4-.7-.7-1.4-1-2.1-.2-.4-.3-.7-.4-1.1-.1-.4-.3-.8-.3-1.3-.1-.9-.2-1.7-.2-2.6s.1-1.7.2-2.6c.4-3.4 1.7-6.7 3.7-9.1zm.1.1c-1 1.2-1.7 2.7-2.2 4.2-.5 1.6-.8 3.2-.9 4.8-.1 1.6 0 3.2.3 4.6 0 .2.1.3.1.5l.2.5c.1.3.3.7.4 1 .3.7.6 1.3 1 1.9.7 1.2 1.5 2.4 2.3 3.4.4.5.9.9 1.4 1.1.4.2.8 0 1.3-.4s.9-1 1.3-1.7c.4-.6.8-1.3 1.2-2 .8-1.4 1.7-2.8 2.5-4.1.8-1.4 1.6-2.8 2.3-4.2.4-.7.7-1.5.9-2.2.3-.8.5-1.6.6-2.3.1-1.6-.1-3.2-.4-4.7-.3-1.5-.7-3-1.1-4.5-.2-.7-.5-1.4-.8-2-.1-.1-.1-.3-.2-.4-.1-.1-.1-.2-.3-.3-.2-.2-.4-.5-.6-.6-.7-.6-2 .4-3.1 1.2-2.2 1.5-4.3 3.7-6.2 6.2z" fill="#c87d4d" stroke-width="none" opacity="1" stroke="none"></path><path id="SvgjsPath14576" d="M148.8 99.4c.3-2.3.5-7.8-.8-9.6-2.2-2.9-6 6.4-6.9 9.3 0 .1-.1.2-.1.3-.2.3.1.7.4.6.4-.2.9-.6 1.3-.8 1.1-.5 1.6.5 1.3 1.8-.4 1.8-1.4 2.9-2.2 4.3-.1.2 0 .4.2.3 1.6-.9 3.5-4.5 3.1-6.6-.3-2-1.9-1.8-3.1-.8.7-1.7 1.5-3.3 2.5-4.8.6-.9 1.2-2 2.2-2.2 1.2-.2 1 .3 1.2 1.8.8 4.8.3 10.4-2.5 14.5-.1.1 0 .2.1.1 1.8-2.3 3-4.9 3.3-8.2z" fill="#b86934" stroke-width="none" opacity="1" stroke="none"></path></g></g><g id="svga-group-faceshape-wrap" transform="matrix(1,0,0,1,0,0)"><g id="svga-group-faceshape-single"><path id="SvgjsPath14647" d="M143.6 82.2v-.3C142.3 52 122.5 35.3 100 35.3S57.8 52.1 56.5 82.1v.3c0 1.8.3 11.9 2.6 24.5 2.6 13.9 7.9 28.3 11.5 35.9 3.5 7.7 14.6 10.1 29.4 10.1s25.8-2.4 29.4-10.1c3.5-7.7 8.9-22 11.5-35.9 2.3-12.7 2.7-22.9 2.7-24.7z" fill="#d79468" stroke-width="none" opacity="1" stroke="none"></path><path id="SvgjsPath14648" d="M70.6 142.8c3.5 7.7 14.6 10.1 29.4 10.1s25.8-2.4 29.4-10.1c3.5-7.7 8.9-22 11.5-35.9 2.3-12.7 2.7-22.9 2.7-24.7v-.3C142.3 52 122.5 35.3 100 35.3S57.8 52.1 56.5 82.1v.3c0 1.8.3 11.9 2.6 24.5 2.6 13.9 7.9 28.3 11.5 35.9zM58.1 75.5c.3-1.7.5-3.4.9-5l.7-2.5c.2-.8.4-1.7.7-2.4l.9-2.4c.2-.4.3-.8.5-1.2l.6-1.1 1.1-2.3c.4-.8.9-1.5 1.3-2.2.5-.7.9-1.4 1.4-2.1l1.6-2 .8-1 .9-.9 1.8-1.8c.6-.6 1.3-1.1 1.9-1.6.7-.5 1.2-1.1 2-1.6 1.4-.9 2.7-1.9 4.2-2.6 2.9-1.7 6-2.7 9.2-3.7 6.4-1.6 13.1-1.8 19.6-.7 6.4 1.3 12.7 3.8 18 7.9 5.3 4.1 9.6 9.5 12.4 15.8 2.8 6.2 4.7 13.3 4.9 20.2-.1 6.9-1.1 13.6-2.4 20.4-1.2 6.8-3.3 13.4-5.6 19.8-2.4 6.4-5 12.8-7.9 19-.2.4-1 2-2.5 3.3-1.1.9-2.3 1.7-3.7 2.4-2.8 1.2-6 2-9.3 2.4-6.6.9-13.5.9-20.2.4-3.3-.2-6.6-.7-9.7-1.6-3.1-.9-5.9-2.2-7.8-4.3-.4-.5-.9-1.1-1.2-1.7l-1.1-2.3c-.7-1.5-4.6-11.1-5.8-14.3-2.3-6.5-4.4-13-5.8-19.7-1.5-6.6-2.5-13.5-2.8-20.4-.3-3.4.1-6.8.4-10.2z" fill="#a9561f" stroke-width="none" opacity="1" stroke="none"></path></g></g><g id="svga-group-mouth-single-move" transform="matrix(1,0,0,1,0,0)"><g id="svga-group-mouth-single" transform="matrix(1,0,0,1,0,3)"><path id="SvgjsPath14530" d="M88.8 126.9c2 3.7 6.6 5.6 10.6 5.7 4.3.2 10.3-1.5 13.2-4.9.3-.4-.1-1-.6-.8-1.9.6-3.5 1.9-5.3 2.7-2 .9-4.2 1.4-6.4 1.6-4.4.2-7.9-1.6-10.9-4.6-.3-.3-.8.1-.6.3zm10.1-4.1s-.6 0-1.2-.2c-.7-.2-1.2-.5-2.9-.7-1.7-.2-2.4-.1-4.1.8s-2.5 1-3.9.6c-1.5-.4-2-2.2-2-2.2-.5 0-.7 1.6.7 2.8 1.3 1.2 5.5 1.4 8.3 1.3 3.5-.1 5.4-.2 5.4-.2h1.4s1.9 0 5.4.2c2.8.1 7-.2 8.3-1.3s1.2-2.8.7-2.8c0 0-.5 1.8-2 2.2-1.4.4-2.2.2-3.9-.6s-2.4-1-4.1-.8-2.3.5-2.9.7-1.2.2-1.2.2h-2z" fill="#fe856a" stroke-width="none" opacity="1" stroke="none"></path><path id="SvgjsPath14531" d="M97.3 130.4c3.6.9 9.3.2 11.8-2.7.2-.2 0-.8-.4-.7-1.8.4-3.3 1.3-5 1.8-2.1.6-4.2.8-6.4.9-.3.1-.3.6 0 .7z" fill="#dfa077" stroke-width="none" opacity="1" stroke="none"></path></g></g><g id="svga-group-eyes-left-move" transform="matrix(1,0,0,1,0,0)"><g id="svga-group-eyes-left" transform="matrix(1,0,0,1,0,0)"><g id="svga-group-eyesback-left"><path id="SvgjsPath14603" d="M90.4 96.5S89 94 86.9 92.3c-2.1-1.7-5.6-2.5-8.1-2.3-2.5.2-7.1 1.8-9.6 5.5 0 0 2.3 1.2 5.6 1.8 3.3.6 8.9 1.1 12 .4 3-.6 3.6-1.2 3.6-1.2z" fill="#ffffff" stroke-width="none" opacity="1"></path></g><g id="svga-group-eyesiriswrapper-left" transform="matrix(1,0,0,1,0,0)"><g id="svga-group-eyesiriscontrol-left" transform="matrix(1,0,0,1,0,0)"><g id="svga-group-eyesiris-left" transform="matrix(1,0,0,1,0,0)"><path id="SvgjsPath14689" d="M80.1 88.4c2.8 0 5.2 2.3 5.2 5.2s-2.3 5.2-5.2 5.2-5.2-2.3-5.2-5.2 2.3-5.2 5.2-5.2z" fill="#b0b9d9" stroke-width="none" opacity="1"></path><path id="SvgjsPath14690" d="M80.1 90.8c1.5 0 2.8 1.2 2.8 2.8s-1.2 2.8-2.8 2.8-2.8-1.2-2.8-2.8 1.2-2.8 2.8-2.8z" fill="#000000" stroke-width="none" opacity="1"></path><path id="SvgjsPath14691" d="m79.4 91.3-.6-.6c-.2-.2-.4-.3-.7-.3-.2 0-.5.1-.7.3-.2.2-.3.4-.3.7s.1.5.3.7l.6.6c.2.2.4.3.7.3.2 0 .5-.1.7-.3.3-.5.4-1.1 0-1.4zm2.5 4.7c.9 0 .9-1.4 0-1.4s-.8 1.4 0 1.4z" fill="#ffffff" stroke-width="none" opacity="1"></path></g></g></g><g id="svga-group-eyesfront-left"><path id="SvgjsPath14611" d="M74.8 97.4c3.3.6 8.9 1.1 12 .4s3.6-1.3 3.6-1.3-1.4-2.5-3.5-4.2-5.6-2.5-8.1-2.3c-2.5.2-6.8 1.7-9.3 5.2v-.7c0-6.4 4.7-11.5 10.6-11.5s10.6 5.2 10.6 11.5S86 106 80.1 106c-5.5 0-10.1-4.6-10.6-10.5.6.5 2.6 1.4 5.3 1.9z" fill="#d79468" stroke-width="none" opacity="1" stroke="none"></path><path id="SvgjsPath14612" d="M90.9 98c-3.6 2.6-8.4 4.1-12.9 3.7-.2 0-.2-.2 0-.2 4.7-.5 8.5-1.4 12.7-3.7.3-.2.4.1.2.2z" fill="#c87d4d" stroke-width="none" opacity="1" stroke="none"></path><path id="SvgjsPath14613" d="M69.2 95.7c5.5 4.1 15.4 3.7 21.5 1.5.3-.1.5-.5.3-.8-4.8-9.2-16.2-9.3-22-1-.1.1.1.3.2.3zm10.9 1.9c-3.7-.2-7-1.3-10.5-2.2 5.7-6.8 15.6-6.8 20.2.9-3.2 1.1-6.4 1.5-9.7 1.3z" fill="#0f190c" stroke-width="none" opacity="1" stroke="none"></path></g></g></g><g id="svga-group-eyes-right-move" transform="matrix(1,0,0,1,0,0)"><g id="svga-group-eyes-right" transform="matrix(1,0,0,1,0,0)"><g id="svga-group-eyesback-right"><path id="SvgjsPath14604" d="M109.6 96.5s1.4-2.5 3.5-4.2c2.1-1.7 5.6-2.5 8.1-2.3 2.5.2 7.1 1.8 9.6 5.5 0 0-2.3 1.2-5.6 1.8-3.3.6-8.9 1.1-12 .4-3-.6-3.6-1.2-3.6-1.2z" fill="#ffffff" stroke-width="none" opacity="1"></path></g><g id="svga-group-eyesiriswrapper-right" transform="matrix(1,0,0,1,0,0)"><g id="svga-group-eyesiriscontrol-right" transform="matrix(1,0,0,1,0,0)"><g id="svga-group-eyesiris-right" transform="matrix(1,0,0,1,0,0)"><path id="SvgjsPath14692" d="M119.9 88.4c2.8 0 5.2 2.3 5.2 5.2s-2.3 5.2-5.2 5.2-5.2-2.3-5.2-5.2 2.4-5.2 5.2-5.2z" fill="#b0b9d9" stroke-width="none" opacity="1"></path><path id="SvgjsPath14693" d="M119.9 90.8c1.5 0 2.8 1.2 2.8 2.8s-1.2 2.8-2.8 2.8-2.8-1.2-2.8-2.8 1.3-2.8 2.8-2.8z" fill="#000000" stroke-width="none" opacity="1"></path><path id="SvgjsPath14694" d="m119.3 91.3-.6-.6c-.2-.2-.4-.3-.7-.3-.2 0-.5.1-.7.3-.2.2-.3.4-.3.7s.1.5.3.7l.6.6c.2.2.4.3.7.3.2 0 .5-.1.7-.3.3-.5.4-1.1 0-1.4zm2.5 4.7c.9 0 .9-1.4 0-1.4s-.9 1.4 0 1.4z" fill="#ffffff" stroke-width="none" opacity="1"></path></g></g></g><g id="svga-group-eyesfront-right"><path id="SvgjsPath14614" d="M125.2 97.4c-3.3.6-8.9 1.1-12 .4s-3.6-1.3-3.6-1.3 1.4-2.5 3.5-4.2 5.6-2.5 8.1-2.3c2.5.2 6.8 1.7 9.3 5.2v-.7c0-6.4-4.7-11.5-10.6-11.5s-10.6 5.2-10.6 11.5S114 106 119.9 106c5.5 0 10.1-4.6 10.6-10.5-.6.5-2.6 1.4-5.3 1.9z" fill="#d79468" stroke-width="none" opacity="1" stroke="none"></path><path id="SvgjsPath14617" d="M109.1 98c3.6 2.6 8.4 4.1 12.9 3.7.2 0 .2-.2 0-.2-4.7-.5-8.5-1.4-12.7-3.7-.3-.2-.4.1-.2.2z" fill="#c87d4d" stroke-width="none" opacity="1" stroke="none"></path><path id="SvgjsPath14618" d="M131 95.4c-5.8-8.3-17.3-8.2-22 1-.2.3 0 .7.3.8 6.1 2.2 16 2.6 21.5-1.5.1 0 .3-.2.2-.3zm-20.8.9c4.6-7.7 14.5-7.7 20.2-.9-3.5.9-6.8 2-10.5 2.2-3.3.2-6.5-.2-9.7-1.3z" fill="#0f190c" stroke-width="none" opacity="1" stroke="none"></path></g></g></g><g id="svga-group-facehighlight-single"></g><g id="svga-group-eyebrows-left-move" transform="matrix(1,0,0,1,0,0)"><g id="svga-group-eyebrows-left-rotate" transform="matrix(1,0,0,1,0,0)"><g id="svga-group-eyebrows-left" transform="matrix(1,0,0,1,0,0)"><path id="SvgjsPath14543" d="M72.61 81.6c.54-.64 1.34-1.05 2.14-1.38.01-.03.02-.05.05-.08.41-.33.91-.56 1.44-.72.37-.22.82-.36 1.3-.44.02-.05.06-.11.13-.13.52-.22 1.1-.13 1.65-.05.01-.01.01-.02.02-.02.28-.21.65-.19 1.02-.1.08-.13.23-.22.39-.22.2.01.41.04.6.07.31.02.64.1.95.21.04-.01.09-.04.14-.04 1.36-.19 2.89.45 4.19.84 1.33.4 2.76.72 3.88 1.57.19.14.18.44.02.6 1.01.59 2.09 1.34 2.52 2.36.06.06.11.14.14.24.06.07.12.15.18.23.38.42.3.94.01 1.33.18.37-.02.94-.42 1.12-.96.45-1.86-.62-2.51-1.35-.1-.07-.18-.13-.27-.19-.63-.47-1.18-.92-1.48-1.62-.16-.17-.32-.36-.47-.54-.86-.45-1.68-1-2.54-1.47-.72-.4-1.58-.74-2.25-1.25-.15-.07-.28-.17-.4-.29-.02.01-.04.02-.06.02-.54-.01-1.05-.26-1.56-.46-.65-.1-1.32-.17-1.98-.24-.27-.02-.55-.03-.83-.05-.04.03-.08.06-.14.07-.68.07-1.34.18-1.98.39-.3.09-.58.21-.87.31-.97.46-1.84 1.14-2.85 1.51-.12.01-.24-.14-.16-.23z" fill="#cac1b2" stroke-width="none" opacity="1"></path><path id="SvgjsPath14544" d="M78.07 79.27c3.13-1.57 6.98.79 9.72 3.13-.88-1.12-1.8-2.11-2.82-3.16-.2-.2-.01-.52.27-.43 1.3.46 2.22 1.82 2.99 2.9.79 1.13 1.55 2.27 2.54 3.23-.33-.73-.58-1.46-1.03-2.14-.42-.66-.94-1.23-1.29-1.94-.13-.26.23-.5.44-.32 1.9 1.65 2.04 4.45 3.97 5.98.09.08.07.25-.07.25-.25 0-.47-.06-.67-.16-.06-.01-.12-.03-.19-.04-.07.01-.09-.06-.07-.1-.15-.11-.3-.25-.42-.4-.03 0-.05-.01-.08-.02-.82-.45-1.48-1.04-2.06-1.72-1.63-.93-2.99-2.27-4.59-3.25-2.11-1.3-4.09-1.59-6.51-1.43-.28.02-.33-.28-.13-.38z" fill="#d9d8d5" stroke-width="none" opacity="1"></path><path id="SvgjsPath14545" d="M93.75 83.92c-1.19-1.69-3.03-3.02-4.84-3.99-7.92-4.23-18.07-1.06-21.89 7.16-.14.3.3.48.45.2.01-.01.02-.03.03-.04.03-.01.06-.03.07-.06 1.97-2.25 3.79-4.39 6.47-5.83 2.71-1.47 5.73-1.75 8.67-.8 2.79.9 4.68 2.62 6.59 4.75.9 1 2.44 2.59 3.98 2.02 1.51-.56 1.21-2.36.47-3.41zm-.47.63c-.03 1.91-.6 2.52-1.72 1.82-.68-.35-1.23-.93-1.75-1.48-1.66-1.76-3.23-3.36-5.5-4.33-2-.86-4.31-1.26-6.48-1.01-1.56.17-3.26.8-4.87 1.72 2.41-1.59 5.22-2.54 8.22-2.55 2.74-.01 5.49.74 7.86 2.12 1.36.79 2.65 1.8 3.68 3 .21.22.39.46.56.71z" fill="#bbab92" stroke-width="none" opacity="1"></path></g></g></g><g id="svga-group-eyebrows-right-move" transform="matrix(1,0,0,1,0,0)"><g id="svga-group-eyebrows-right-rotate" transform="matrix(1,0,0,1,0,0)"><g id="svga-group-eyebrows-right" transform="matrix(1,0,0,1,0,0)"><path id="SvgjsPath14546" d="M127.41 81.68c-.53-.64-1.33-1.07-2.12-1.4a.177.177 0 0 0-.05-.08c-.4-.34-.9-.57-1.43-.74-.37-.22-.81-.37-1.3-.45a.25.25 0 0 0-.13-.14c-.52-.22-1.1-.14-1.65-.07-.01-.01-.01-.02-.02-.02-.28-.21-.65-.2-1.01-.11a.476.476 0 0 0-.39-.23c-.2.01-.41.03-.6.06-.31.01-.65.1-.95.2-.04-.01-.09-.04-.14-.05-1.36-.21-2.9.42-4.2.79-1.33.39-2.77.69-3.9 1.53-.19.14-.18.44-.03.6-1.01.58-2.1 1.32-2.54 2.33-.06.06-.11.14-.14.24-.06.07-.12.15-.18.23-.38.42-.31.94-.02 1.33-.18.37.01.94.4 1.12.95.46 1.87-.6 2.53-1.32.1-.07.19-.13.27-.19.64-.46 1.19-.91 1.49-1.6.16-.17.32-.36.47-.54.87-.44 1.69-.98 2.55-1.45.72-.39 1.58-.72 2.27-1.23.15-.07.28-.17.41-.29.02.01.04.02.06.02.54-.01 1.06-.25 1.56-.44.66-.1 1.32-.16 1.98-.22.27-.02.55-.03.83-.05.04.03.08.06.14.07.68.08 1.34.19 1.98.41.3.1.58.22.87.32.96.47 1.83 1.16 2.83 1.54.12.07.24-.07.16-.17z" fill="#cac1b2" stroke-width="none" opacity="1"></path><path id="SvgjsPath14547" d="M121.98 79.29c-3.12-1.61-6.99.71-9.75 3.02.89-1.12 1.82-2.1 2.86-3.13.2-.2.02-.52-.26-.43-1.31.44-2.24 1.8-3.02 2.87-.8 1.13-1.58 2.25-2.57 3.21.34-.73.6-1.45 1.05-2.13.43-.66.96-1.22 1.31-1.92.13-.26-.22-.5-.44-.32-1.92 1.63-2.09 4.43-4.04 5.94-.09.08-.07.25.07.25.25 0 .47-.06.67-.15.06-.01.12-.03.19-.04.07.01.09-.06.07-.1.15-.11.3-.25.43-.39.03 0 .05-.01.08-.02.83-.44 1.49-1.03 2.08-1.69 1.63-.91 3.02-2.24 4.63-3.2 2.12-1.28 4.1-1.55 6.53-1.36.25 0 .31-.31.11-.41z" fill="#d9d8d5" stroke-width="none" opacity="1"></path><path id="SvgjsPath14548" d="M106.68 87.2c1.53.59 3.09-.97 4-1.97 1.93-2.11 3.84-3.81 6.64-4.68 2.96-.93 5.97-.61 8.67.89 2.66 1.48 4.46 3.63 6.41 5.9.03.02.05.05.07.06.01.01.02.03.03.04.15.28.59.1.46-.2-3.74-8.25-13.85-11.53-21.82-7.39-1.82.95-3.66 2.27-4.88 3.94-.76 1.03-1.08 2.83.42 3.41zm.59-3.49c1.04-1.19 2.35-2.19 3.71-2.96a15.56 15.56 0 0 1 7.89-2.04c2.98.04 5.8 1.01 8.19 2.64-1.59-.93-3.28-1.58-4.85-1.77-2.16-.26-4.47.12-6.49.94-2.28.94-3.87 2.53-5.55 4.27-.53.54-1.07 1.11-1.77 1.46-1.13.69-1.7.08-1.7-1.84.18-.25.37-.49.57-.7z" fill="#bbab92" stroke-width="none" opacity="1"></path></g></g></g><g id="svga-group-beardwrap" transform="matrix(1,0,0,1,0,0)"><g id="svga-group-beard-single-move" transform="matrix(1,0,0,1,0,0)"><g id="svga-group-beard-single" transform="matrix(1,0,0,1,0,0)"></g></g></g><g id="svga-group-mustache-single-move" transform="matrix(1,0,0,1,0,0)"><g id="svga-group-mustache-single" transform="matrix(1,0,0,1,0,0)"></g></g><g id="svga-group-nose-single-move" transform="matrix(1,0,0,1,0,0)"><g id="svga-group-nose-single" transform="matrix(1,0,0,1,0,2)"><path id="SvgjsPath14724" d="M109.05 113.12c.28.89.49 2.03-.2 2.51-.69.49-2.8-.08-3.4 0s-1.26.12-2.03.89-1.62 2.15-2.76 2.07c-1.13-.08-1.82-.89-2.39-1.54s-1.78-1.78-2.43-1.9-1.78.65-2.63 1.18c-.85.53-2.39.65-2.43-1.09-.04-1.74 1.54-7.46 1.9-8.71.36-1.26 1.78-4.86 2.39-5.96.61-1.09 6.2-3.61 9.04 0s4.94 12.55 4.94 12.55z" fill="#d79468" stroke-width="none" opacity="1"></path><path id="SvgjsPath14725" d="M95.41 99.54c-2.42 4.09-3.81 8.9-4.62 13.56-.19 1.09-.85 3.07.4 3.8.94.55 2-.14 2.72-.74.17-.14-.05-.41-.23-.3-3.43 2.04-2.36-2.33-2.12-3.62.27-1.49.62-2.97 1.04-4.42.8-2.81 1.95-5.47 3.03-8.17.05-.14-.15-.22-.22-.11z" fill="#a9561f" stroke-width="none" opacity="1"></path><path id="SvgjsPath14726" d="M92.73 114.39c1.98.45 3.69 1.11 5.06 2.68.69.78 1.27 1.84 2.39 2.05 3.17.6 3.33-4.52 6.24-4.77.33-.03.34-.5 0-.52-3.06-.15-4.19 6.6-7.29 3.72-.95-.88-1.57-1.93-2.72-2.62-1.11-.67-2.33-1.02-3.62-.95-.23 0-.3.35-.06.41z" fill="#a9561f" stroke-width="none" opacity="1"></path><path id="SvgjsPath14727" d="M105.14 115.86c1.2-.21 3.1 1.16 4.14.01.81-.9.07-2.83-.15-3.8-.92-4.09-2.38-8.7-4.96-12.08-.18-.23-.52-.04-.39.23 1.44 3.25 3.1 6.25 4.15 9.69.23.77.45 1.54.63 2.32.1.45.2.89.29 1.34.52.92.27 1.44-.73 1.58-1.28.64-.86.17-2.02.17-.61 0-.53 0-1.06.28-.17.07-.05.28.1.26z" fill="#a9561f" stroke-width="none" opacity="1"></path><path id="SvgjsPath14728" d="M97.56 106.48c2.43-1.42 4.5-.86 6.61.77.18.14.48-.03.34-.27-1.47-2.51-5.14-2.59-7.2-.83-.18.16.05.45.25.33z" fill="#a9561f" stroke-width="none" opacity="1"></path><path id="SvgjsPath14729" d="M102.21 107.74c-1.68-.7-4.03-1.05-5.37.46-.23.26-.26.79.12.96 1.91.84 3.92.73 5.56 2.23.8.74 2.87 2.56 3.3.4.39-1.91-2.17-3.44-3.61-4.05z" fill="#dfa077" stroke-width="none" opacity="1"></path></g></g><g id="svga-group-hair-front" transform="matrix(1,0,0,1,0,0)"><path id="SvgjsPath14668" d="M99.9 58.5s-7.8-3.9-12.3-4.1C79.9 54.1 77.4 84 77.4 84s-3.8-13.2-.7-26.6c0 0-4.5 7.2-5.2 24.5 0 0-5.8-11.7-.2-27.5 0 0-6 8.3-7.3 37.7 0 0-1.5-6.9-1.5-9.9 0 0-2.3 16.2-1.3 24.5 0 0-2.5-4.5-3.6-10.6s-.8-9.3-.8-9.3-1 2.5-1.5 6.6c0 0-3.3-8.1-.7-20.7 0 0-3.5 8.6-4.3 14.4 0 0-1.3-5.6 1-16.1s7.2-18.3 7.2-18.3-3.1 3.6-7.3 10.9c0 0 1.1-13.5 15-24.9S86.8 31 86.8 31s-1.7-1.8-10.6-.2c0 0 5.8-3.1 14.6-3 8.8.2 10.9 5.1 10.9 5.1s3.8-4.3 12.4-5.8c0 0-2.5 2.1-3.3 3 0 0 4.3-1 11.9.3 0 0-3.6.3-4.6.8 0 0 7.1-.2 15.7 6.3s13.1 17 14.4 23.7c0 0-4.1-8.4-7.9-11.6 0 0 6.6 9.9 8.8 22.2l-2.3-3s2 8.3 1 17.5l-1.8-3.8s-.2 8.6-3.6 14.4l-.3-3.5s-.8 8.1-2.1 11.1c0 0 .2-17.4-1.7-24.7 0 0-.2 3.5-.5 6.1 0 0-1.7-12.9-4-16.1 0 0 .5 1.8-1.2 7.9 0 0-1.2-11.3-5.1-19.9 0 0 .3 12.4-.8 18.7 0 0-2.5-19.5-6.6-22.7 0 0 3 14.6-.2 24.7 0 0-1.4-23.6-7.3-24.6-6.1-.6-9 2.3-12.7 4.6z" fill="#cac1b2" stroke-width="none" opacity="1" stroke="none"></path><path id="SvgjsPath14669" d="M77.7 83.4c-.1-5.9.4-11.7 2.1-17.4.7-2.5 1.5-5.6 2.9-7.9 3.2-5.1 7.6-4.4 12-2.7.3.1.4-.3.2-.5-5.6-2.9-10.2-2.5-13.1 3.5-3.6 7.6-5 16.6-4.6 24.9.1.4.5.4.5.1zM81 50.9c-6.3 5.7-5.9 15.3-5 23 0 .3.5.3.5 0-.2-8.3-.4-15.8 4.8-22.8.2-.2-.1-.4-.3-.2zm4.3-5C72.4 43.8 69 58.7 70.1 68.3c0 .2.2.2.2 0-.7-9.8 2.5-23.1 14.9-22 .2 0 .3-.3.1-.4zm15.2 11.6c6.7-3.8 13.7-6.3 16.8 3.5 1.8 5.7 2 11.5 2.2 17.4 0 .3.6.4.6.1 1-6.8.6-18.5-4.7-23.6-4.6-4.6-11.2-1-15.3 2.3-.2.1.2.5.4.3zm18.9-4c4.5 8.2 6.3 15.5 7 24.8 0 .4.5.4.6 0 .9-8.6-2.1-18.2-7.2-25.1-.2-.2-.6.1-.4.3zm6.7 3.1c3.4 6.9 4.7 13.4 6.4 20.7.1.2.4.2.4-.1.3-7.2-2.7-14.9-6.4-20.9-.2-.2-.5 0-.4.3zm-26.2-4.1c-2-2.8-4.9-5.3-8.3-6.4-.2-.1-.4.3-.2.4 3.1 1.6 5.8 3.4 7.9 6.3.4.2.8 0 .6-.3zm.8-5.5c-4.1-8.5-15.1-10.7-23.2-7.1-10.4 4.6-15.2 16-15.1 26.8 0 .3.5.3.5 0 .9-9.5 4.1-19.1 12.6-24.4 8.7-5.4 18.9-3.4 24.8 4.9.2.3.6.1.4-.2zM57.1 78.1c-1.1 7.7-.5 15.6 2.5 22.8.1.3.5.1.5-.2-1.9-7.5-3-14.7-2.5-22.5.1-.3-.4-.4-.5-.1zm4 27.2c-.1-6.1 0-12.1 0-18.2 0-.3-.5-.4-.5-.1-.9 6-.8 12.3 0 18.4 0 .3.5.2.5-.1zm-9.6-43.8C54.3 54.2 58 47.4 64 42.1c6-5.3 13-8.1 20.6-10.2.2-.1.2-.5-.1-.5C69 33.2 54.7 46.3 51.3 61.5c-.1.1.1.2.2 0zm.3 1.5c2.5-4.3 5.3-7.8 8.8-11.4.2-.3-.1-.8-.4-.5-3.9 2.8-7.2 7.2-9 11.7-.2.2.4.5.6.2zm-1.2 22.9c1.1-10.6 4.4-20.1 9.6-29.3.2-.3-.2-.5-.4-.2-5.9 8.8-9.1 19.1-9.8 29.6-.1.3.6.3.6-.1zm51.2-51c1.2-1.5 2.6-2.9 4.3-4 1.7-1.1 3.6-1.5 5.5-2.1.3-.1.3-.6-.1-.6-4.1-.1-8.2 2.9-10.1 6.4-.1.2.2.5.4.3zm6.6-1.8c17.1-3.6 30.8 12.9 36.2 27.1.1.4.7.2.6-.2-3.8-14.4-20.6-32.6-37-27.6-.4.2-.3.8.2.7zm31.9 28.5c1.6 1.7 3.3 3.4 4.7 5.3 1.3 1.7 2.4 3.6 3.8 5.3.2.2.5 0 .4-.2-1.4-4-5.2-8.1-8.5-10.8-.3-.2-.7.2-.4.4zm2.8 3.1c3.6 7.4 4 13.7 3.7 21.8 0 .3.4.3.5.1 2.4-7.1.3-16-3.7-22.1-.3-.4-.7-.2-.5.2zm-5.3 12.4c2.3 8.7 2.7 17.2 2.2 26.2 0 .3.6.4.6.1 1.4-8.8.3-17.9-2.4-26.4 0-.2-.4-.1-.4.1zM102 49.5c8.8-11.4 22.7-5.1 28.8 5.1.2.3.6 0 .4-.3-5.2-11-22.1-17.7-29.7-5.1-.1.4.3.6.5.3zm-.9-9.3c-.8-1.2-2-2.5-3.4-3-.2-.1-.3.2-.2.4.6.5 1.3.8 1.9 1.3.6.5 1 1 1.5 1.5.1.1.3-.1.2-.2zm37 25.1c2.7 6.8 3.6 13.8 4 21.1 0 .3.5.3.5 0 .4-7.4-1.3-14.4-4.1-21.2-.1-.2-.5-.1-.4.1z" fill="#bbab92" stroke-width="none" opacity="1" stroke="none"></path><path id="SvgjsPath14670" d="M98.1 54.6c-5.3-8.5-17.3-8.2-22.7-.1-.1.1.1.3.2.2 6.2-7.3 15.9-6.8 22 .3.2.3.7-.1.5-.4zM81.2 56c-2.6 4.5-3.8 9.4-3.3 14.6 0 .3.4.3.4 0 .1-5 1.1-9.9 3.2-14.5.1-.1-.2-.2-.3-.1zm17.3-7.7c-4.7-8.9-15.9-9.5-23.5-3.9C64.8 52 63.6 66.2 63.6 77.9c0 .3.4.3.5 0 .7-9.3.9-19.1 6.2-27.2 6.2-9.6 21.4-14.1 27.9-2.1.1.1.5-.1.3-.3zm-5.4-11c-7-2.5-15.3-1.5-20.8 3.7-.2.2.1.5.3.4 6.4-4 13-5.8 20.4-3.7.2.1.3-.3.1-.4zm-4.7-3.9c-1.8-.5-3.8-.5-5.6.3-.2.1-.1.4.1.3 1.8-.5 3.5-.7 5.3-.2.4.1.5-.3.2-.4zm13.9 20.1c4.9-3.9 10.2-5.2 16.3-4.6.4 0 .4-.5.1-.6-5.9-1.6-12.6.5-16.9 4.7-.3.3.2.8.5.5zm2.2-4.6c1.6-1.4 3.3-1.9 5.3-2.3.2-.1.2-.4-.1-.4-2.1 0-4.1 1.1-5.6 2.5-.2.1.2.4.4.2zm0-6.7c5.2-4.3 11.5-4.8 17.7-2.5.3.1.6-.4.2-.6-5.9-3.4-13.5-1.9-18.3 2.7-.2.3.2.6.4.4zm5.1-6c1.3-.9 2.9-1.2 4.5-1 .3 0 .3-.4.1-.5-1.7-.4-3.4.1-4.8 1.1-.3.2-.1.6.2.4zm27.9 24.3c4.4 9.2 5.4 17.8 6 27.8 0 .2.3.3.4.1 1.5-9.5-1.4-19.8-5.9-28.1-.2-.3-.6-.1-.5.2zm5.1-3c.4 1.4.7 3.1 1.4 4.4.1.3.5.1.5-.2-.2-1.5-.9-2.9-1.4-4.3-.2-.3-.6-.2-.5.1zM59.7 91c-.1-2.9-.1-5.8-.2-8.7 0-.2-.2-.2-.2 0 0 2.9.1 5.8.2 8.7-.1.2.2.2.2 0z" fill="#d9d8d5" stroke-width="none" opacity="1" stroke="none"></path></g><g id="svga-group-glasses-single-move" transform="matrix(1,0,0,1,0,0)"><g id="svga-group-glasses-single" transform="matrix(1,0,0,1,0,0)"></g></g></g></g></g><rect id="svga-credit-rect" width="200" height="15" x="0" y="185" fill="#ecf0f1" opacity="0.5" style="display: none;"></rect><text id="svga-credit-text" font-family="Avenir Next, Roboto, Helvetica, Arial, sans-serif" font-size="10px" text-anchor="start" font-weight="400" size="10px" anchor="start" weight="400" fill="#333333" x="33.40447998046875" y="182.60824704170227" style="display: none;"><tspan id="SvgjsTspan14008" dy="13" x="33.40447998046875">Created on AvatarMaker.com</tspan></text></g></svg>